<svg width="256" height="256" viewBox="0 0 256 256" fill="none" xmlns="http://www.w3.org/2000/svg">
<path fill-rule="evenodd" clip-rule="evenodd" d="M186.852 88.3713C186.971 88.3579 187.023 88.2726 186.967 88.1816C186.904 88.0804 187.158 88.0161 187.62 88.0161C188.035 88.0161 188.375 88.0757 188.375 88.149C188.375 88.2219 189.27 88.2781 190.364 88.2735C191.458 88.2691 192.353 88.2092 192.353 88.1406C192.353 87.8847 193.806 88.0077 193.908 88.2723C193.983 88.4679 194.145 88.5026 194.59 88.4191C194.955 88.3508 195.264 88.384 195.413 88.5076C195.545 88.6169 195.808 88.6563 195.999 88.5955C196.19 88.5349 196.444 88.5663 196.563 88.6647C196.772 88.8383 196.96 88.8619 198.113 88.8588C198.409 88.8578 198.651 88.9218 198.651 89.0007C198.651 89.0795 198.8 89.1053 198.983 89.0575C199.176 89.0069 199.314 89.0525 199.314 89.1671C199.314 89.2879 199.441 89.3227 199.646 89.2581C199.828 89.2 199.977 89.228 199.977 89.3196C199.977 89.4574 201.102 89.7362 201.717 89.7508C201.809 89.753 201.936 89.8294 202.002 89.9204C202.066 90.0113 202.178 90.0921 202.25 90.0998C202.322 90.1076 202.592 90.2011 202.85 90.3082C203.108 90.415 203.388 90.46 203.471 90.4085C203.555 90.3569 203.623 90.4016 203.623 90.5078C203.623 90.614 203.735 90.6581 203.872 90.6056C204.009 90.5532 204.121 90.5802 204.121 90.6656C204.121 90.7509 204.243 90.7736 204.393 90.7162C204.558 90.6531 204.751 90.7277 204.879 90.9037C204.997 91.0642 205.166 91.1502 205.255 91.095C205.345 91.04 205.444 91.0729 205.476 91.1686C205.508 91.2645 205.701 91.3552 205.905 91.3707C206.109 91.3859 206.275 91.4427 206.275 91.4971C206.275 91.6464 207.655 92.2333 207.891 92.1842C208.005 92.1606 208.098 92.2236 208.098 92.3239C208.098 92.4245 208.173 92.4605 208.264 92.4043C208.355 92.3481 208.43 92.3795 208.43 92.4742C208.43 92.5689 208.616 92.6931 208.844 92.7502C209.072 92.8074 209.258 92.925 209.258 93.0117C209.258 93.0983 209.325 93.1278 209.407 93.0775C209.488 93.0272 209.6 93.102 209.654 93.2439C209.709 93.3855 209.828 93.4554 209.92 93.3985C210.012 93.342 210.087 93.379 210.087 93.4808C210.087 93.5827 210.162 93.6199 210.253 93.5634C210.344 93.5072 210.419 93.5401 210.419 93.6367C210.419 93.733 210.502 93.8118 210.604 93.8118C210.706 93.8118 211.044 94.0354 211.355 94.3086C211.667 94.5819 212.031 94.8054 212.165 94.8054C212.298 94.8054 212.408 94.8799 212.408 94.9712C212.408 95.0622 212.478 95.1367 212.563 95.1367C212.649 95.1367 212.965 95.3615 213.266 95.636C213.567 95.9105 213.914 96.0968 214.037 96.0493C214.168 95.9993 214.298 96.102 214.348 96.2952C214.396 96.4777 214.493 96.6271 214.563 96.6271C214.634 96.6271 214.979 96.886 215.331 97.2028C215.683 97.5195 216.015 97.7803 216.069 97.7824C216.199 97.7874 220.031 101.62 220.032 101.746C220.033 101.799 220.238 102.067 220.489 102.34C221.056 102.958 221.694 103.75 222.021 104.242C222.157 104.448 222.344 104.703 222.435 104.81C222.694 105.113 224.187 107.53 224.982 108.933C226.19 111.064 227.969 115.606 228.401 117.658C228.468 117.977 228.584 118.314 228.658 118.407C228.733 118.501 228.831 118.88 228.876 119.251C229.014 120.4 229.179 121.136 229.298 121.136C229.361 121.136 229.382 121.396 229.345 121.715C229.303 122.075 229.348 122.295 229.464 122.295C229.58 122.295 229.612 122.45 229.547 122.708C229.49 122.936 229.501 123.252 229.573 123.412C229.901 124.147 229.909 131.678 229.582 132.2C229.507 132.32 229.494 132.674 229.553 132.987C229.624 133.368 229.597 133.555 229.468 133.555C229.348 133.555 229.301 133.766 229.343 134.124C229.38 134.436 229.36 134.661 229.299 134.623C229.193 134.558 229.049 135.235 228.877 136.615C228.831 136.977 228.734 137.35 228.661 137.443C228.53 137.61 228.115 139.196 228.075 139.686C228.064 139.824 227.997 140.029 227.928 140.141C227.859 140.253 227.848 140.42 227.904 140.511C227.961 140.602 227.94 140.676 227.858 140.676C227.65 140.676 227.283 141.966 227.425 142.196C227.489 142.3 227.468 142.338 227.377 142.282C227.287 142.227 227.039 142.606 226.826 143.126C226.026 145.082 224.18 148.738 223.753 149.215C223.658 149.322 223.248 149.922 222.843 150.549C222.438 151.176 222.013 151.787 221.898 151.907C221.783 152.028 221.689 152.185 221.689 152.257C221.689 152.328 221.316 152.788 220.86 153.278C220.405 153.768 220.032 154.213 220.032 154.267C220.032 154.381 216.375 158.064 216.263 158.064C216.221 158.064 215.849 158.362 215.435 158.726C215.02 159.091 214.617 159.389 214.539 159.389C214.461 159.389 214.397 159.505 214.397 159.647C214.397 159.789 214.326 159.862 214.241 159.809C214.155 159.756 213.95 159.847 213.785 160.011C213.62 160.175 213.268 160.419 213.003 160.553C212.738 160.687 212.487 160.926 212.446 161.084C212.404 161.243 212.3 161.329 212.216 161.277C212.131 161.225 211.785 161.393 211.447 161.651C211.11 161.909 210.78 162.12 210.714 162.121C210.649 162.121 210.444 162.251 210.258 162.409C210.073 162.568 209.922 162.659 209.922 162.613C209.922 162.503 208.538 163.203 208.43 163.368C208.384 163.437 207.788 163.742 207.104 164.045C206.42 164.347 205.837 164.649 205.809 164.715C205.78 164.781 205.659 164.798 205.54 164.752C205.421 164.706 205.203 164.79 205.055 164.937C204.907 165.085 204.711 165.16 204.619 165.103C204.527 165.046 204.452 165.083 204.452 165.185C204.452 165.287 204.383 165.327 204.298 165.274C204.213 165.222 204.099 165.252 204.044 165.34C203.989 165.429 203.835 165.46 203.701 165.408C203.567 165.357 203.458 165.397 203.458 165.498C203.458 165.599 203.402 165.669 203.333 165.655C203.265 165.64 202.985 165.727 202.712 165.847C202.438 165.967 202.121 166.051 202.007 166.032C201.893 166.013 201.8 166.057 201.8 166.13C201.799 166.202 201.527 166.275 201.194 166.293C200.861 166.31 200.539 166.406 200.477 166.505C200.415 166.605 200.24 166.638 200.088 166.58C199.927 166.518 199.811 166.555 199.811 166.669C199.811 166.788 199.683 166.822 199.48 166.758C199.298 166.7 199.148 166.722 199.148 166.806C199.148 166.891 198.962 166.925 198.734 166.881C198.489 166.834 198.32 166.879 198.32 166.99C198.32 167.108 198.165 167.139 197.903 167.074C197.669 167.015 197.383 167.056 197.248 167.167C197.117 167.276 196.863 167.318 196.684 167.262C196.505 167.205 196.307 167.242 196.244 167.344C196.178 167.45 195.953 167.486 195.717 167.427C195.49 167.37 195.219 167.39 195.113 167.472C194.808 167.709 194.176 167.819 194.176 167.635C194.176 167.431 193.289 167.625 193.209 167.847C193.135 168.055 191.69 168.043 191.69 167.834C191.69 167.739 191.169 167.669 190.457 167.669C189.779 167.669 189.178 167.743 189.121 167.834C189.065 167.925 188.683 168 188.273 168C187.818 168 187.567 167.935 187.629 167.834C187.739 167.657 187.334 167.601 186.362 167.658C186.03 167.678 185.709 167.613 185.648 167.515C185.587 167.416 185.355 167.382 185.131 167.438C184.907 167.495 184.618 167.451 184.486 167.342C184.355 167.233 184.092 167.194 183.9 167.255C183.708 167.315 183.446 167.276 183.313 167.166C183.181 167.057 182.924 167.006 182.741 167.054C182.558 167.102 182.364 167.067 182.308 166.977C182.252 166.888 182.029 166.859 181.81 166.913C181.549 166.979 181.414 166.941 181.412 166.802C181.41 166.64 181.378 166.642 181.27 166.811C181.158 166.988 181.077 166.977 180.854 166.754C180.702 166.602 180.467 166.52 180.333 166.571C180.198 166.623 180.088 166.602 180.088 166.526C180.088 166.394 178.043 165.917 177.993 166.038C177.979 166.069 177.825 165.966 177.65 165.808C177.475 165.649 177.076 165.471 176.763 165.412C176.45 165.352 176.112 165.24 176.012 165.163C175.913 165.085 175.783 165.071 175.723 165.131C175.663 165.191 175.613 165.149 175.613 165.037C175.613 164.925 175.538 164.88 175.446 164.937C175.355 164.994 175.163 164.924 175.02 164.781C174.878 164.639 174.654 164.513 174.524 164.502C174.394 164.49 174.228 164.472 174.156 164.46C173.963 164.43 172.395 163.628 172.299 163.511C172.106 163.275 171.115 162.861 170.967 162.953C170.877 163.008 170.759 162.934 170.703 162.788C170.597 162.514 169.647 161.938 169.647 162.149C169.647 162.214 169.537 162.123 169.403 161.946C169.27 161.769 169.158 161.68 169.155 161.748C169.152 161.815 168.957 161.703 168.722 161.499C168.487 161.295 168.242 161.127 168.179 161.127C168.116 161.127 167.843 160.923 167.573 160.672C167.302 160.422 166.985 160.217 166.867 160.217C166.749 160.217 166.61 160.105 166.558 159.968C166.505 159.832 166.375 159.72 166.268 159.72C166.161 159.72 165.953 159.59 165.805 159.43C165.657 159.271 165.302 158.954 165.016 158.726C164.27 158.133 160.187 154.092 159.741 153.506C156.65 149.446 154.166 145.268 153.492 142.994C153.425 142.767 153.279 142.432 153.167 142.249C153.056 142.067 152.868 141.566 152.749 141.135C152.631 140.704 152.487 140.379 152.431 140.415C152.373 140.449 152.318 140.247 152.308 139.963C152.297 139.681 152.203 139.421 152.099 139.386C151.996 139.351 151.952 139.257 152.002 139.175C152.087 139.038 151.859 137.929 151.63 137.364C151.574 137.228 151.542 137.028 151.559 136.921C151.576 136.814 151.517 136.681 151.427 136.626C151.337 136.571 151.307 136.415 151.358 136.28C151.41 136.146 151.363 135.928 151.254 135.796C151.145 135.665 151.091 135.498 151.134 135.426C151.178 135.353 151.147 134.922 151.065 134.466C150.772 132.827 150.598 131.409 150.559 130.339C150.536 129.74 150.459 129.25 150.387 129.25C150.314 129.25 150.255 128.728 150.255 128.091C150.255 127.428 150.326 126.932 150.421 126.932C150.512 126.932 150.587 126.853 150.587 126.756C150.587 126.66 150.512 126.627 150.421 126.683C150.33 126.739 150.255 126.706 150.255 126.61C150.255 126.514 150.318 126.435 150.396 126.435C150.473 126.435 150.584 125.671 150.643 124.737C150.702 123.804 150.823 122.779 150.913 122.46C151.002 122.142 151.098 121.545 151.125 121.136C151.152 120.726 151.233 120.297 151.305 120.184C151.376 120.07 151.387 119.899 151.328 119.803C151.269 119.708 151.305 119.53 151.407 119.407C151.509 119.284 151.578 119.119 151.56 119.042C151.543 118.964 151.576 118.788 151.633 118.652C151.826 118.195 152.059 116.932 151.975 116.798C151.93 116.724 151.981 116.664 152.088 116.664C152.201 116.664 152.246 116.526 152.196 116.333C152.148 116.151 152.171 116.002 152.247 116.002C152.322 116.002 152.472 115.723 152.58 115.381C153.956 111.025 157.342 105.056 160.257 101.848C160.453 101.632 160.819 101.23 161.07 100.956C161.32 100.682 161.525 100.392 161.525 100.311C161.525 100.142 162.706 99.0452 162.899 99.035C162.97 99.0313 163.082 98.9533 163.148 98.8617C163.212 98.7701 163.545 98.487 163.887 98.2324C164.229 97.9778 164.509 97.657 164.509 97.5198C164.509 97.3822 164.574 97.3102 164.654 97.3596C164.733 97.4086 164.998 97.2639 165.242 97.0379C165.486 96.8121 165.754 96.6271 165.837 96.6271C165.921 96.6271 166.07 96.4759 166.169 96.2911C166.268 96.1067 166.417 95.9977 166.501 96.0493C166.584 96.1008 166.747 95.9912 166.864 95.8055C166.98 95.6198 167.154 95.468 167.252 95.468C167.35 95.468 167.607 95.3025 167.825 95.1004C168.042 94.8982 168.312 94.7191 168.426 94.7023C168.539 94.6859 168.879 94.4872 169.181 94.2611C169.483 94.0348 170.065 93.6823 170.475 93.4774C170.886 93.2725 171.259 93.0464 171.306 92.975C171.352 92.9033 171.498 92.8204 171.631 92.7903C171.763 92.7602 172.013 92.6105 172.186 92.4581C172.359 92.3053 172.604 92.2199 172.731 92.2687C172.858 92.3171 172.961 92.2826 172.961 92.1916C172.961 92.1007 173.148 91.9796 173.376 91.9224C173.604 91.8653 173.79 91.7476 173.79 91.6613C173.79 91.5747 173.892 91.543 174.017 91.5911C174.142 91.639 174.348 91.5747 174.475 91.4483C174.601 91.3219 174.789 91.2465 174.891 91.2807C174.994 91.3148 175.198 91.2229 175.344 91.0763C175.491 90.9298 175.686 90.8565 175.778 90.913C175.87 90.9698 175.945 90.9397 175.945 90.8463C175.945 90.7525 176.057 90.719 176.193 90.7711C176.33 90.8236 176.442 90.7842 176.442 90.6833C176.442 90.5823 176.666 90.5001 176.939 90.5001C177.213 90.5001 177.436 90.4221 177.436 90.3271C177.436 90.2321 177.53 90.1694 177.644 90.188C177.758 90.2066 178.072 90.1312 178.342 90.0203C178.612 89.9095 179.209 89.7406 179.668 89.645C180.127 89.5493 180.568 89.4102 180.647 89.336C180.727 89.2618 180.895 89.2404 181.02 89.2885C181.146 89.3369 181.249 89.2857 181.249 89.1749C181.249 89.0429 181.391 89.0094 181.663 89.0777C181.914 89.1407 182.077 89.1109 182.077 89.0016C182.077 88.8957 182.217 88.8659 182.417 88.9293C182.615 88.992 182.921 88.9296 183.15 88.7793C183.445 88.5865 183.561 88.5725 183.612 88.724C183.666 88.8833 183.766 88.8839 184.08 88.7256C184.301 88.615 184.667 88.5194 184.895 88.5135C185.286 88.5033 186.376 88.4241 186.852 88.3713ZM223.042 90.8727C223.523 90.3069 224.157 89.8909 224.684 89.7952C225.876 89.5785 227.628 89.8002 228.011 90.216C228.162 90.3783 228.374 90.4901 228.483 90.4644C228.592 90.4383 228.767 90.5597 228.873 90.7339C228.978 90.9081 229.187 91.1797 229.338 91.3381C229.488 91.4961 229.708 91.8939 229.827 92.2221C229.946 92.55 230.088 92.8182 230.144 92.8182C230.199 92.8182 230.249 93.4516 230.255 94.226C230.26 95.0001 230.215 95.6335 230.154 95.6335C230.093 95.6335 229.95 95.8894 229.837 96.2017C229.724 96.5144 229.373 96.9963 229.058 97.2729C228.742 97.5499 228.484 97.8573 228.484 97.9566C228.484 98.0557 228.421 98.0979 228.343 98.0498C228.265 98.0017 227.8 98.1091 227.31 98.2886C226.195 98.6956 225.791 98.6959 224.615 98.292C224.1 98.1147 223.678 98.0212 223.678 98.0846C223.678 98.378 222.021 96.4029 221.834 95.8866C221.717 95.5652 221.581 95.3022 221.531 95.3025C221.481 95.3025 221.44 94.8181 221.44 94.2263C221.44 93.6345 221.49 93.1502 221.552 93.1498C221.613 93.1498 221.712 92.9269 221.772 92.6546C221.831 92.3823 221.949 92.1171 222.033 92.0653C222.117 92.0134 222.186 91.8262 222.186 91.6495C222.186 91.4725 222.291 91.3278 222.42 91.3278C222.549 91.3278 222.828 91.1229 223.042 90.8727ZM195.833 97.163C195.833 97.0739 195.144 96.9124 194.301 96.8041C192.522 96.5755 188.289 96.4905 187.21 96.6619C186.803 96.7264 186.065 96.8168 185.572 96.8624C185.078 96.9081 184.621 97.031 184.556 97.1354C184.489 97.2447 184.29 97.2776 184.087 97.2133C183.893 97.1518 183.735 97.1624 183.735 97.2369C183.735 97.3114 183.408 97.385 183.009 97.4002C182.61 97.4158 181.92 97.5983 181.476 97.806C181.032 98.0138 180.619 98.1873 180.558 98.192C180.497 98.1967 180.397 98.251 180.335 98.3131C180.272 98.3752 180.124 98.3882 180.004 98.3426C179.885 98.2966 179.538 98.3907 179.233 98.5519C178.929 98.713 178.596 98.8593 178.493 98.8773C177.994 98.9651 177.602 99.1496 177.602 99.2977C177.602 99.388 177.533 99.4191 177.448 99.3666C177.363 99.3141 177.246 99.3483 177.188 99.4424C177.13 99.5364 177.013 99.5703 176.928 99.5181C176.843 99.4657 176.774 99.506 176.774 99.6079C176.774 99.7097 176.699 99.747 176.608 99.6908C176.517 99.6343 176.442 99.6715 176.442 99.7734C176.442 99.8752 176.367 99.9125 176.276 99.8563C176.185 99.8001 176.111 99.8454 176.111 99.9569C176.111 100.069 176.067 100.116 176.014 100.063C175.96 100.01 175.772 100.091 175.594 100.243C175.416 100.394 175.218 100.521 175.152 100.524C174.943 100.535 174.209 100.976 174.086 101.164C174.021 101.265 173.909 101.357 173.838 101.369C173.346 101.453 172.961 101.667 172.961 101.857C172.961 101.988 172.858 102.042 172.713 101.986C172.55 101.924 172.464 101.992 172.464 102.184C172.464 102.346 172.417 102.431 172.36 102.374C172.197 102.212 171.636 102.572 171.636 102.838C171.636 102.98 171.537 103.037 171.388 102.98C171.247 102.926 171.097 102.999 171.039 103.151C170.983 103.297 170.855 103.417 170.754 103.417C170.653 103.417 170.381 103.598 170.15 103.82C169.919 104.042 169.004 104.917 168.117 105.766C167.23 106.614 166.503 107.401 166.501 107.515C166.499 107.629 166.433 107.722 166.354 107.722C166.275 107.722 165.941 108.076 165.612 108.509C165.283 108.941 164.928 109.395 164.823 109.518C163.085 111.547 160.307 117.551 159.708 120.574C159.619 121.019 159.5 121.57 159.444 121.798C159.386 122.026 159.343 122.358 159.348 122.536C159.352 122.713 159.291 122.937 159.212 123.032C159.133 123.128 159.065 123.392 159.062 123.619C159.058 123.847 158.997 124.704 158.927 125.524C158.74 127.718 158.825 130.829 159.117 132.479C159.165 132.752 159.239 133.2 159.28 133.473C159.53 135.135 160.039 137.033 160.234 137.033C160.317 137.033 160.338 137.109 160.28 137.202C160.159 137.399 160.813 139.467 161.041 139.608C161.125 139.66 161.194 139.813 161.194 139.949C161.194 140.559 163.946 145.628 164.36 145.782C164.442 145.813 164.509 145.943 164.509 146.072C164.509 146.201 164.571 146.307 164.648 146.307C164.724 146.307 164.865 146.474 164.961 146.679C165.297 147.403 168.144 150.446 168.485 150.446C168.577 150.446 168.652 150.55 168.652 150.678C168.652 150.805 168.932 151.142 169.274 151.427C169.616 151.713 170.045 152.08 170.227 152.243C171.055 152.987 171.975 153.608 172.118 153.519C172.204 153.466 172.324 153.578 172.384 153.768C172.451 153.976 172.587 154.078 172.728 154.024C172.865 153.971 172.961 154.038 172.961 154.185C172.961 154.323 173.069 154.414 173.201 154.387C173.332 154.36 173.538 154.464 173.657 154.619C173.776 154.773 173.98 154.922 174.11 154.95C174.24 154.978 174.485 155.112 174.654 155.249C174.823 155.385 175.02 155.497 175.092 155.497C175.164 155.497 175.353 155.628 175.513 155.787C175.672 155.947 175.928 156.088 176.081 156.102C176.234 156.116 176.456 156.135 176.573 156.145C176.691 156.155 176.84 156.244 176.905 156.343C177.086 156.622 177.756 156.932 177.937 156.82C178.027 156.765 178.1 156.811 178.1 156.923C178.1 157.034 178.147 157.078 178.205 157.02C178.263 156.962 178.517 157.062 178.769 157.241C179.022 157.42 179.38 157.567 179.565 157.567C179.751 157.567 179.947 157.638 180.001 157.726C180.055 157.813 180.208 157.842 180.342 157.791C180.476 157.739 180.586 157.778 180.586 157.876C180.586 157.973 180.698 158.011 180.834 157.958C180.971 157.906 181.083 157.953 181.083 158.064C181.083 158.175 181.192 158.223 181.326 158.172C181.46 158.12 181.615 158.153 181.671 158.244C181.728 158.334 181.917 158.363 182.091 158.308C182.282 158.248 182.409 158.285 182.409 158.403C182.409 158.518 182.547 158.563 182.74 158.513C182.922 158.465 183.115 158.497 183.168 158.583C183.222 158.669 183.408 158.694 183.583 158.639C183.768 158.58 183.9 158.616 183.9 158.726C183.9 158.836 184.032 158.872 184.218 158.814C184.392 158.758 184.578 158.782 184.63 158.866C184.72 159.011 185.837 159.199 187.298 159.315C189.994 159.529 195.865 159.253 196.227 158.895C196.306 158.817 196.474 158.792 196.6 158.84C196.725 158.888 196.828 158.837 196.828 158.726C196.828 158.594 196.971 158.561 197.243 158.629C197.494 158.692 197.657 158.662 197.657 158.553C197.657 158.448 197.796 158.417 197.988 158.478C198.17 158.536 198.32 158.511 198.32 158.422C198.32 158.333 198.469 158.299 198.651 158.347C198.849 158.399 198.983 158.352 198.983 158.231C198.983 158.12 199.087 158.069 199.215 158.118C199.343 158.167 199.498 158.156 199.56 158.094C199.622 158.032 199.723 157.975 199.784 157.967C199.845 157.96 200.11 157.864 200.372 157.756C200.636 157.647 200.971 157.533 201.118 157.501C201.643 157.389 202.795 156.852 202.795 156.719C202.795 156.645 202.906 156.627 203.043 156.679C203.18 156.732 203.292 156.688 203.292 156.581C203.292 156.475 203.366 156.435 203.458 156.491C203.549 156.547 203.623 156.51 203.623 156.408C203.623 156.306 203.698 156.269 203.789 156.325C203.88 156.382 203.955 156.349 203.955 156.252C203.955 156.156 204.011 156.09 204.079 156.106C204.278 156.152 205.115 155.706 205.115 155.553C205.115 155.477 205.171 155.427 205.239 155.443C205.591 155.525 208.761 153.543 208.761 153.241C208.761 153.161 208.843 153.096 208.942 153.096C209.246 153.096 210.718 151.875 210.809 151.548C210.855 151.379 210.963 151.284 211.047 151.336C211.189 151.424 212.046 150.57 214.103 148.295C216.663 145.464 220.408 138.086 220.562 135.569C220.577 135.327 220.652 135.045 220.728 134.942C220.805 134.839 220.894 134.418 220.926 134.007C220.959 133.595 221.034 133.179 221.094 133.082C221.212 132.892 221.237 132.406 221.217 130.75C221.21 130.164 221.268 129.605 221.346 129.508C221.546 129.264 221.561 126.762 221.364 126.526C221.276 126.419 221.209 125.852 221.216 125.266C221.237 123.517 220.959 121.388 220.661 121.019C220.573 120.909 220.545 120.746 220.6 120.658C220.655 120.569 220.634 120.455 220.552 120.405C220.471 120.355 220.402 120.145 220.399 119.938C220.377 118.469 217.793 112.797 215.96 110.193C214.803 108.55 214.762 108.5 213.401 107.06C212.927 106.559 212.426 105.981 212.289 105.776C212.151 105.572 211.974 105.404 211.896 105.404C211.818 105.404 211.263 104.92 210.661 104.327C210.06 103.735 209.469 103.251 209.348 103.251C209.227 103.251 209.085 103.139 209.033 103.003C208.98 102.866 208.823 102.754 208.684 102.754C208.544 102.754 208.43 102.692 208.43 102.616C208.43 102.433 206.687 101.238 206.502 101.294C206.423 101.319 206.139 101.133 205.872 100.881C205.604 100.63 205.287 100.461 205.167 100.507C205.047 100.553 204.949 100.533 204.949 100.461C204.949 100.39 204.651 100.164 204.286 99.959C203.922 99.7541 203.623 99.6339 203.623 99.692C203.623 99.7498 203.502 99.6759 203.353 99.5274C203.205 99.379 202.981 99.2967 202.856 99.3449C202.731 99.3927 202.629 99.3669 202.629 99.2877C202.629 99.1076 201.698 98.7717 201.566 98.9037C201.512 98.9571 201.469 98.9092 201.469 98.7978C201.469 98.686 201.403 98.6357 201.322 98.6854C201.241 98.7354 201.089 98.6733 200.985 98.5475C200.881 98.4221 200.462 98.269 200.055 98.2081C199.647 98.147 199.314 98.0296 199.314 97.947C199.314 97.8644 199.202 97.8396 199.065 97.8921C198.928 97.9448 198.817 97.8967 198.817 97.7846C198.817 97.6654 198.684 97.6166 198.493 97.6666C198.316 97.7132 198.146 97.6797 198.117 97.5924C198.088 97.5049 197.757 97.4105 197.381 97.3825C197.006 97.3546 196.623 97.2847 196.53 97.2273C196.437 97.1698 196.242 97.1683 196.097 97.2239C195.952 97.2794 195.833 97.2521 195.833 97.163ZM187.934 101.185C188.314 101.241 188.81 101.212 189.038 101.12C189.616 100.888 190.552 100.895 191.467 101.14C192.024 101.288 192.26 101.295 192.304 101.164C192.378 100.941 193.182 101.069 193.182 101.304C193.182 101.407 193.441 101.43 193.857 101.364C194.301 101.293 194.496 101.314 194.427 101.426C194.369 101.521 194.491 101.607 194.705 101.621C195.238 101.657 196.058 101.725 196.206 101.744C196.275 101.753 196.36 101.742 196.396 101.719C196.432 101.697 196.619 101.82 196.812 101.994C197.004 102.168 197.21 102.262 197.27 102.203C197.329 102.143 197.478 102.178 197.6 102.279C197.722 102.381 197.822 102.408 197.822 102.34C197.822 102.272 197.924 102.301 198.047 102.403C198.171 102.506 198.515 102.618 198.813 102.653C199.11 102.687 199.411 102.808 199.481 102.921C199.551 103.035 199.685 103.08 199.779 103.023C199.872 102.965 199.974 102.974 200.004 103.043C200.1 103.259 201.648 103.924 201.815 103.821C201.903 103.767 201.954 103.822 201.929 103.942C201.904 104.063 201.976 104.143 202.09 104.12C202.204 104.098 202.297 104.162 202.297 104.262C202.297 104.363 202.396 104.408 202.516 104.362C202.637 104.315 202.824 104.419 202.932 104.592C203.04 104.766 203.269 104.907 203.441 104.907C203.613 104.907 203.798 105.024 203.853 105.166C203.908 105.308 204.02 105.383 204.102 105.332C204.184 105.282 204.298 105.362 204.356 105.511C204.413 105.66 204.5 105.742 204.549 105.694C204.598 105.645 204.913 105.857 205.249 106.166C205.586 106.474 205.906 106.727 205.962 106.728C206.017 106.728 206.353 107.002 206.707 107.335C207.061 107.669 207.575 108.079 207.849 108.245C208.123 108.412 208.277 108.549 208.191 108.55C208.106 108.55 208.18 108.691 208.357 108.863C209.222 109.706 211.276 112.4 212.2 113.903C213.075 115.328 213.553 116.305 214.726 119.066C214.803 119.248 214.996 119.9 215.153 120.515C215.311 121.129 215.493 121.632 215.558 121.632C215.623 121.632 215.641 121.819 215.597 122.047C215.55 122.291 215.595 122.46 215.706 122.46C215.822 122.46 215.856 122.613 215.795 122.856C215.74 123.074 215.771 123.299 215.864 123.356C215.957 123.414 215.99 123.719 215.938 124.036C215.887 124.354 215.911 124.613 215.991 124.613C216.156 124.613 216.126 130.691 215.958 131.129C215.898 131.285 215.893 131.634 215.947 131.904C216.008 132.212 215.977 132.396 215.863 132.396C215.749 132.396 215.718 132.582 215.78 132.893C215.835 133.166 215.82 133.39 215.747 133.39C215.673 133.39 215.481 134.079 215.32 134.922C215.158 135.764 214.971 136.528 214.904 136.619C214.837 136.71 214.539 137.489 214.243 138.35C213.618 140.165 212.989 141.466 211.972 143.041C211.574 143.659 211.247 144.273 211.247 144.407C211.247 144.541 211.154 144.653 211.04 144.656C210.82 144.661 209.753 145.982 209.554 146.496C209.488 146.665 209.335 146.803 209.213 146.803C208.953 146.803 208.059 147.712 207.773 148.266C207.664 148.479 207.533 148.612 207.482 148.561C207.332 148.412 206.441 149.122 206.441 149.391C206.441 149.535 206.362 149.589 206.25 149.52C206.145 149.455 205.977 149.511 205.877 149.645C205.777 149.779 205.453 150.029 205.156 150.203C204.86 150.376 204.618 150.609 204.618 150.721C204.618 150.832 204.532 150.977 204.426 151.042C204.308 151.115 204.28 151.087 204.353 150.969C204.418 150.864 204.429 150.778 204.376 150.778C204.228 150.778 202.387 152.004 202.325 152.145C202.294 152.214 202.201 152.228 202.117 152.176C202.034 152.125 201.966 152.162 201.966 152.258C201.966 152.355 201.85 152.434 201.709 152.434C201.568 152.434 201.214 152.561 200.922 152.716C200.63 152.871 200.336 152.983 200.267 152.965C200.199 152.946 200.143 153.009 200.143 153.106C200.143 153.202 200.068 153.235 199.977 153.179C199.886 153.123 199.811 153.153 199.811 153.247C199.811 153.34 199.699 153.374 199.563 153.322C199.426 153.269 199.314 153.29 199.314 153.368C199.314 153.446 199.123 153.521 198.89 153.535C198.657 153.548 198.313 153.697 198.127 153.866C197.94 154.034 197.74 154.154 197.681 154.131C197.432 154.034 196.013 154.31 196.094 154.439C196.142 154.518 195.954 154.536 195.676 154.48C195.331 154.411 195.171 154.444 195.171 154.584C195.171 154.728 194.999 154.757 194.59 154.68C194.218 154.61 194.011 154.636 194.011 154.75C194.011 154.868 193.737 154.893 193.203 154.822C192.68 154.753 192.355 154.78 192.282 154.899C192.121 155.158 188.044 155.154 188.044 154.895C188.044 154.765 187.782 154.737 187.215 154.804C186.709 154.864 186.386 154.838 186.386 154.737C186.386 154.637 186.155 154.615 185.806 154.68C185.397 154.757 185.226 154.728 185.226 154.584C185.226 154.444 185.066 154.411 184.721 154.48C184.367 154.551 184.25 154.525 184.331 154.394C184.41 154.266 184.307 154.234 184.004 154.292C183.76 154.338 183.526 154.32 183.484 154.252C183.442 154.183 183.126 154.075 182.783 154.011C182.441 153.947 181.836 153.747 181.44 153.566C181.043 153.386 180.577 153.228 180.404 153.215C180.23 153.202 180.088 153.128 180.088 153.051C180.088 152.974 180.014 152.957 179.922 153.013C179.831 153.069 179.757 153.045 179.757 152.958C179.757 152.816 179.092 152.549 178.679 152.526C178.588 152.521 178.477 152.475 178.431 152.426C178.129 152.095 177.244 151.602 177.106 151.688C177.014 151.745 176.939 151.714 176.939 151.621C176.939 151.448 175.181 150.25 175.035 150.324C174.992 150.346 174.839 150.196 174.695 149.991C174.552 149.786 174.355 149.619 174.259 149.619C174.017 149.619 169.647 145.129 169.647 144.881C169.647 144.826 169.433 144.509 169.172 144.177C168.739 143.629 168.155 142.677 167.236 141.03C166.714 140.093 165.87 137.912 165.498 136.536C165.312 135.853 165.116 135.182 165.061 135.046C165.005 134.909 164.934 134.648 164.903 134.466C164.318 131.083 164.158 129.612 164.15 127.543C164.146 126.285 164.187 125.211 164.242 125.156C164.298 125.1 164.343 124.84 164.343 124.579C164.343 124.317 164.465 123.528 164.613 122.826C164.762 122.124 164.884 121.438 164.884 121.301C164.885 121.165 164.956 120.963 165.043 120.853C165.13 120.743 165.155 120.581 165.1 120.492C165.046 120.403 165.073 120.286 165.162 120.231C165.25 120.176 165.281 120.022 165.23 119.888C165.178 119.755 165.213 119.645 165.307 119.645C165.4 119.645 165.53 119.403 165.595 119.107C166.005 117.237 168.095 113.253 169.626 111.422C170.093 110.863 170.475 110.369 170.475 110.324C170.475 110.245 172.481 108.257 173.477 107.349C173.752 107.099 174.041 106.894 174.12 106.894C174.199 106.894 174.541 106.633 174.879 106.315C175.217 105.996 175.558 105.735 175.636 105.735C175.715 105.735 175.779 105.656 175.779 105.56C175.779 105.463 175.849 105.427 175.934 105.48C176.018 105.532 176.193 105.425 176.321 105.242C176.45 105.059 176.6 104.954 176.655 105.01C176.746 105.101 177.898 104.49 178.1 104.244C178.145 104.188 178.425 104.045 178.721 103.925C179.017 103.805 179.26 103.638 179.26 103.552C179.26 103.467 179.334 103.443 179.425 103.499C179.517 103.556 179.591 103.539 179.591 103.462C179.591 103.384 179.758 103.309 179.962 103.294C180.165 103.278 180.357 103.192 180.387 103.102C180.417 103.012 180.539 102.976 180.658 103.021C180.777 103.067 180.977 103.004 181.103 102.882C181.229 102.76 181.517 102.647 181.743 102.631C181.97 102.616 182.181 102.525 182.213 102.429C182.245 102.334 182.343 102.3 182.43 102.354C182.517 102.407 182.699 102.36 182.834 102.248C182.969 102.136 183.126 102.091 183.184 102.148C183.241 102.205 183.386 102.123 183.506 101.965C183.663 101.758 183.726 101.741 183.729 101.905C183.733 102.07 183.792 102.085 183.946 101.957C184.062 101.861 184.545 101.73 185.02 101.668C185.519 101.602 185.84 101.485 185.782 101.39C185.719 101.287 185.926 101.269 186.348 101.34C186.777 101.412 187.056 101.386 187.13 101.267C187.202 101.151 187.499 101.12 187.934 101.185ZM187.116 118.051C187.523 117.773 187.464 116.812 187.464 113.593V109.213H186.521C186.002 109.212 185.535 109.28 185.484 109.363C185.434 109.445 185.243 109.474 185.06 109.426C184.878 109.379 184.729 109.416 184.729 109.509C184.729 109.602 184.58 109.639 184.397 109.592C184.215 109.544 184.066 109.573 184.066 109.655C184.066 109.737 183.903 109.817 183.704 109.832C183.505 109.847 183.277 109.976 183.197 110.119C183.117 110.262 182.99 110.341 182.916 110.295C182.841 110.249 182.585 110.407 182.346 110.645C182.107 110.884 181.911 111.029 181.911 110.968C181.911 110.907 181.762 110.937 181.58 111.034C181.398 111.132 181.249 111.297 181.249 111.402C181.249 111.507 180.955 111.859 180.597 112.183C179.895 112.82 178.928 114.5 178.928 115.085C178.928 115.368 178.249 116.204 178.058 116.156C178.035 116.151 177.867 116.199 177.685 116.264C176.695 116.617 176.276 116.831 176.276 116.987C176.276 117.083 176.171 117.161 176.042 117.161C175.76 117.161 175.103 117.918 174.513 118.924C174.136 119.568 173.75 122.887 174.092 122.545C174.127 122.51 174.332 122.549 174.547 122.63C174.788 122.722 174.976 122.718 175.037 122.62C175.159 122.423 176.224 122.408 176.344 122.601C176.392 122.679 176.639 122.735 176.892 122.726C177.438 122.706 178.431 123.594 178.431 124.101C178.431 124.281 178.509 124.476 178.605 124.535C178.707 124.599 178.72 124.721 178.634 124.835C178.401 125.144 178.075 126.427 178.184 126.604C178.24 126.693 178.206 126.766 178.109 126.766C178.013 126.766 177.934 126.915 177.934 127.097C177.934 127.279 178.006 127.428 178.094 127.428C178.183 127.428 178.215 127.533 178.165 127.662C177.807 128.593 179.31 129.536 181.249 129.597C182.882 129.647 183.021 129.694 183.317 130.287C183.69 131.033 183.626 131.537 183.092 132.07C182.829 132.333 182.648 132.581 182.69 132.622C182.731 132.663 181.979 132.692 181.019 132.686C180.058 132.68 179.305 132.622 179.346 132.557C179.41 132.452 178.435 132.224 178.035 132.249C177.954 132.255 177.826 132.159 177.751 132.038C177.675 131.916 177.508 131.816 177.379 131.814C176.893 131.809 175.874 130.345 175.134 128.587C175.011 128.294 175.054 126.786 175.212 125.873C175.32 125.246 175.312 125.231 174.888 125.312C174.649 125.358 174.453 125.333 174.453 125.257C174.453 125.02 173.561 125.44 173.162 125.864C172.953 126.087 172.711 126.269 172.623 126.269C172.536 126.269 172.464 126.373 172.464 126.5C172.464 126.627 172.36 126.771 172.232 126.82C171.123 127.245 171.033 131.628 172.111 132.705C172.273 132.868 172.453 133.122 172.51 133.269C172.762 133.925 173.392 134.103 173.85 133.647C174.598 132.899 176.329 133.195 176.51 134.101C176.816 135.632 176.185 136.324 174.37 136.445C174.007 136.469 174.2 138.901 174.628 139.686C175.613 141.49 177.09 142.498 176.884 141.225C176.826 140.871 176.862 140.521 176.968 140.393C177.069 140.271 177.113 140.132 177.065 140.084C176.813 139.833 178.827 137.033 179.259 137.033C179.351 137.033 179.425 136.974 179.425 136.903C179.425 136.831 179.587 136.76 179.783 136.745C179.98 136.731 180.191 136.638 180.253 136.539C180.313 136.44 180.48 136.404 180.624 136.459C180.767 136.514 180.933 136.479 180.993 136.382C181.132 136.157 182.52 136.15 182.659 136.373C182.716 136.466 182.832 136.499 182.917 136.446C183.002 136.394 183.237 136.468 183.44 136.609C183.643 136.751 183.941 136.867 184.103 136.867C184.265 136.867 184.397 136.94 184.397 137.029C184.397 137.117 184.621 137.306 184.895 137.447C185.168 137.588 185.392 137.773 185.392 137.857C185.392 138.06 186.311 139.414 186.626 139.675C187.297 140.231 187.386 139.659 187.408 134.675C187.428 129.867 187.354 129.25 186.761 129.25C186.646 129.25 186.552 129.143 186.552 129.013C186.552 128.728 186.222 128.603 184.772 128.342C182.655 127.959 182.676 125.276 184.796 125.276C185.367 125.276 186.991 125.527 187.344 125.671C187.506 125.736 187.486 121.449 187.325 121.349C187.222 121.286 186.596 121.254 185.934 121.279C185.096 121.31 184.729 121.264 184.729 121.129C184.729 121.022 184.631 120.972 184.512 121.018C184.392 121.064 184.15 120.886 183.973 120.622C183.796 120.359 183.596 120.143 183.527 120.143C183.253 120.141 183.427 119.275 183.776 118.902C184.273 118.373 184.902 118.155 185.941 118.153C186.53 118.151 186.893 118.203 187.116 118.051ZM194.985 109.44C194.72 109.493 194.508 109.464 194.508 109.374C194.508 109.285 194.175 109.212 193.768 109.212C192.733 109.212 192.685 109.369 192.685 112.682C192.685 115.89 192.766 116.187 193.605 116.051C193.906 116.002 194.183 116.045 194.248 116.15C194.31 116.25 194.491 116.333 194.65 116.333C195.012 116.333 195.404 117.349 195.242 117.866C195 118.636 194.628 118.912 193.762 118.964C193.345 118.988 193.102 118.994 192.961 119.116C192.755 119.295 192.766 119.724 192.767 120.832L192.768 122.378L193.762 122.428C194.309 122.456 194.815 122.537 194.887 122.608C194.958 122.679 195.499 122.647 196.088 122.536C196.73 122.416 197.16 122.398 197.16 122.492C197.16 122.678 197.881 122.481 197.961 122.273C197.991 122.194 198.118 122.129 198.242 122.129C198.367 122.129 198.678 121.856 198.933 121.521C199.879 120.281 199.48 118.183 198.16 117.466C197.52 117.118 196.497 115.956 196.497 115.577C196.497 115.262 197.335 114.143 197.557 114.163C197.61 114.168 197.776 114.125 197.926 114.067C198.075 114.01 198.34 114.052 198.514 114.16C198.688 114.269 198.902 114.313 198.989 114.259C199.077 114.205 199.148 114.24 199.148 114.336C199.148 114.433 199.272 114.512 199.423 114.512C199.874 114.512 200.979 115.832 201.71 117.244C202.399 118.575 202.543 119.734 202.245 121.55C202.067 122.638 200.748 124.264 199.559 124.861C199.196 125.044 198.877 125.241 198.85 125.299C198.823 125.358 198.656 125.368 198.477 125.322C198.299 125.275 198.154 125.301 198.154 125.38C198.154 125.459 197.293 125.499 196.241 125.468C194.898 125.429 194.255 125.473 194.082 125.616C193.947 125.728 193.797 125.78 193.748 125.731C193.309 125.292 192.771 126.528 192.769 127.981L192.768 129.498L195.219 129.544C197.875 129.594 198.981 129.42 198.985 128.954C198.987 128.73 199.018 128.718 199.131 128.897C199.248 129.081 199.335 129.063 199.597 128.801C199.94 128.459 200.357 128.245 200.876 128.145C201.051 128.112 201.275 128.021 201.373 127.944C201.583 127.78 203.244 127.822 203.665 128.002C203.824 128.07 204.066 128.083 204.202 128.031C204.989 127.73 207.601 130.845 207.601 132.085C207.601 132.256 207.681 132.396 207.778 132.396C207.886 132.396 207.909 132.541 207.837 132.768C207.616 133.465 208.266 132.733 208.689 131.81C209.238 130.609 209.174 128.679 208.547 127.557C208.014 126.604 207.273 125.751 207.081 125.87C207.002 125.918 206.938 125.841 206.938 125.699C206.938 125.557 206.864 125.432 206.772 125.42C206.719 125.414 206.65 125.405 206.588 125.396C206.543 125.39 206.502 125.384 206.471 125.379C206.396 125.368 206.21 125.235 206.059 125.083C205.908 124.932 205.691 124.777 205.577 124.739C205.421 124.688 205.445 124.504 205.676 123.994C205.844 123.622 205.924 123.225 205.854 123.112C205.775 122.983 205.795 122.948 205.907 123.018C206.164 123.176 206.341 121.807 206.21 120.687C206.099 119.745 205.51 118.155 205.272 118.155C205.198 118.155 205.091 118.01 205.035 117.834C204.919 117.467 203.486 116.462 203.269 116.595C203.191 116.644 203.126 116.619 203.126 116.54C203.126 116.386 201.982 115.837 201.662 115.837C201.556 115.837 201.469 115.688 201.469 115.505C201.469 115.323 201.389 115.174 201.292 115.174C201.194 115.174 201.159 115.035 201.215 114.86C201.325 114.513 200.855 113.187 200.622 113.187C200.541 113.187 200.474 113.105 200.474 113.004C200.474 112.423 197.741 110.032 197.352 110.272C197.279 110.318 197.089 110.203 196.93 110.018C196.772 109.833 196.535 109.723 196.403 109.773C196.272 109.824 196.165 109.784 196.165 109.687C196.165 109.588 196.056 109.55 195.922 109.601C195.788 109.653 195.63 109.616 195.57 109.52C195.511 109.423 195.248 109.388 194.985 109.44ZM179.636 115.564C179.911 115.085 181.167 113.742 181.442 113.632C181.993 113.412 182.737 113.537 183.202 113.927C183.47 114.153 183.717 114.308 183.753 114.273C183.788 114.237 183.818 114.531 183.818 114.926C183.818 115.32 183.754 115.631 183.678 115.616C183.601 115.601 183.452 115.734 183.346 115.913C183.241 116.091 183.001 116.365 182.813 116.521C182.178 117.048 181.58 118.087 181.483 118.827C181.357 119.802 181.066 120.456 180.71 120.569C180.55 120.62 180.42 120.726 180.42 120.805C180.42 121.056 179.689 120.907 179.31 120.579C178.195 119.613 178.307 117.874 179.636 115.564ZM204.7 133.89C204.889 132.77 204.11 131.192 203.301 131.056C202.119 130.858 200.806 131.191 200.806 131.69C200.806 131.805 200.692 131.9 200.552 131.9C200.412 131.9 200.255 132.011 200.203 132.147C200.151 132.283 200.041 132.353 199.96 132.303C199.878 132.253 199.811 132.288 199.811 132.381C199.811 132.475 199.699 132.509 199.563 132.456C199.426 132.404 199.314 132.448 199.314 132.556C199.314 132.699 198.561 132.74 196.47 132.711L193.626 132.672L193.239 133.155C192.706 133.82 192.663 134.195 192.719 137.696L192.768 140.759L194.011 140.791C194.694 140.808 195.331 140.827 195.425 140.832C195.723 140.849 196.165 141.78 196.165 142.391C196.165 143.363 195.585 143.835 194.357 143.86C192.911 143.89 192.685 144.143 192.685 145.733V146.969H194.093C195.026 146.969 195.502 146.906 195.502 146.783C195.502 146.664 195.682 146.632 195.999 146.696C196.295 146.755 196.497 146.726 196.497 146.624C196.497 146.53 196.571 146.499 196.662 146.555C196.753 146.611 196.921 146.599 197.035 146.528C197.149 146.457 197.353 146.382 197.488 146.362C197.623 146.341 197.76 146.246 197.792 146.15C197.824 146.054 197.938 145.975 198.046 145.975C198.61 145.975 200.16 143.911 200.387 142.858C200.708 141.37 200.152 139.02 199.534 139.256C199.404 139.307 199.34 139.278 199.393 139.192C199.513 138.998 198.869 138.637 198.648 138.774C198.559 138.829 198.486 138.8 198.486 138.709C198.486 138.619 198.245 138.521 197.951 138.493C197.44 138.443 196.674 137.517 196.665 136.939C196.662 136.745 197.568 135.676 197.723 135.69C197.776 135.695 197.932 135.656 198.07 135.603C198.473 135.448 199.643 135.669 200.281 136.019C200.494 136.136 200.703 136.197 200.745 136.155C201.222 135.679 203.196 139.041 203.374 140.635C203.438 141.204 203.552 141.708 203.627 141.755C203.811 141.868 205.281 140.519 205.281 140.237C205.281 140.114 205.349 140.014 205.433 140.014C206.18 140.014 206.381 136.66 205.67 136.059C204.919 135.422 204.572 134.648 204.7 133.89ZM182.958 140.014C182.838 140.014 182.74 139.91 182.74 139.783C182.74 138.761 180.39 139.863 179.916 141.108C179.613 141.903 179.864 143.988 180.262 143.988C180.349 143.988 180.42 144.068 180.42 144.167C180.42 144.454 181.891 145.842 182.075 145.728C182.167 145.671 182.243 145.729 182.243 145.856C182.243 146.12 183.018 146.525 183.25 146.382C183.334 146.33 183.403 146.371 183.403 146.474C183.403 146.585 183.537 146.618 183.735 146.555C183.927 146.494 184.066 146.525 184.066 146.63C184.066 146.737 184.227 146.769 184.462 146.71C184.68 146.656 184.908 146.692 184.969 146.79C185.033 146.892 185.608 146.969 186.313 146.969H187.547V145.07C187.547 142.861 187.456 142.732 186.007 142.871C184.875 142.98 184.174 142.419 183.543 140.899C183.341 140.412 183.078 140.014 182.958 140.014ZM153.404 157.127C153.404 157.171 153.609 157.143 153.86 157.064C154.679 156.806 156.088 156.948 156.757 157.356C157.097 157.563 157.437 157.733 157.512 157.733C158.244 157.733 159.498 161.064 159.192 162.195C158.809 163.607 157.943 165.049 157.432 165.124C157.286 165.145 157.104 165.261 157.028 165.381C156.952 165.501 156.889 165.534 156.887 165.455C156.886 165.377 156.68 165.449 156.429 165.616C155.657 166.129 152.914 166.019 152.908 165.474C152.908 165.406 152.776 165.348 152.617 165.345C152.258 165.338 151.203 164.127 150.802 163.262C150.638 162.908 150.467 162.581 150.421 162.535C150.375 162.49 150.338 162.005 150.338 161.459C150.338 160.912 150.375 160.428 150.421 160.382C150.467 160.337 150.686 159.938 150.908 159.496C151.332 158.656 152.098 157.733 152.371 157.733C152.459 157.733 152.727 157.578 152.968 157.39C153.208 157.201 153.404 157.083 153.404 157.127ZM25 106.92V153H62.12C63.7413 153 65.2347 152.595 66.6 151.784C67.9653 150.973 69.0533 149.907 69.864 148.584C70.6747 147.219 71.08 145.725 71.08 144.104V134.184C71.08 133.117 70.8453 132.051 70.376 130.984C69.9493 129.917 69.3733 128.893 68.648 127.912C68.8613 127.443 69.0107 126.952 69.096 126.44C69.1813 125.928 69.224 125.395 69.224 124.84V115.816C69.224 114.195 68.8187 112.723 68.008 111.4C67.1973 110.035 66.1093 108.947 64.744 108.136C63.4213 107.325 61.9493 106.92 60.328 106.92H25ZM61.736 144.488H34.216C34.0027 144.488 33.8107 144.424 33.64 144.296C33.512 144.125 33.448 143.933 33.448 143.72V134.568C33.448 134.355 33.512 134.184 33.64 134.056C33.8107 133.885 34.0027 133.8 34.216 133.8H61.736C61.9493 133.8 62.1413 133.885 62.312 134.056C62.4827 134.184 62.568 134.355 62.568 134.568V143.72C62.568 143.933 62.4827 144.125 62.312 144.296C62.1413 144.424 61.9493 144.488 61.736 144.488ZM59.944 125.288H34.216C34.0027 125.288 33.8107 125.224 33.64 125.096C33.512 124.925 33.448 124.733 33.448 124.52V116.2C33.448 115.987 33.512 115.816 33.64 115.688C33.8107 115.517 34.0027 115.432 34.216 115.432H59.944C60.1573 115.432 60.328 115.517 60.456 115.688C60.584 115.816 60.648 115.987 60.648 116.2V124.52C60.648 124.733 60.584 124.925 60.456 125.096C60.328 125.224 60.1573 125.288 59.944 125.288ZM77.162 106.92V153H85.546V106.92H77.162ZM96.1615 151.784C97.5268 152.595 99.0202 153 100.642 153H128.866C130.487 153 131.98 152.595 133.346 151.784C134.711 150.973 135.799 149.907 136.609 148.584C137.42 147.219 137.826 145.725 137.826 144.104V126.888H118.882V135.4H129.313V143.72C129.313 143.933 129.228 144.125 129.058 144.296C128.887 144.424 128.695 144.488 128.482 144.488H100.962C100.748 144.488 100.556 144.424 100.385 144.296C100.257 144.125 100.193 143.933 100.193 143.72V116.2C100.193 115.987 100.257 115.816 100.385 115.688C100.556 115.517 100.748 115.432 100.962 115.432H128.482C128.695 115.432 128.887 115.517 129.058 115.688C129.228 115.816 129.313 115.987 129.313 116.2V119.4H137.826V115.816C137.826 114.195 137.42 112.723 136.609 111.4C135.799 110.035 134.711 108.947 133.346 108.136C131.98 107.325 130.487 106.92 128.866 106.92H100.642C99.0202 106.92 97.5268 107.325 96.1615 108.136C94.8388 108.947 93.7722 110.035 92.9615 111.4C92.1508 112.723 91.7455 114.195 91.7455 115.816V144.104C91.7455 145.725 92.1508 147.219 92.9615 148.584C93.7722 149.907 94.8388 150.973 96.1615 151.784Z" fill="#7F3E98" fill-opacity="0.933333"/>
</svg>
