<?xml version="1.0" encoding="UTF-8" standalone="no"?>
<!-- Created with Inkscape (http://www.inkscape.org/) -->

<svg
   version="1.1"
   id="svg1"
   width="617.20599"
   height="216.20738"
   viewBox="0 0 617.20599 216.20738"
   xmlns="http://www.w3.org/2000/svg"
   xmlns:svg="http://www.w3.org/2000/svg">
  <defs
     id="defs1" />
  <g
     id="g1"
     transform="translate(-13.453353,-12.212722)">
    <g
       id="g9"
       transform="translate(1.8949755,-7.5798962)">
      <path
         style="fill:#b1bcc7"
         d="m 388.23577,224.42667 c -0.0583,-8.90159 -0.16811,-11.6106 -0.47577,-11.73474 -0.3133,-0.12642 -0.31112,-0.16688 0.01,-0.18667 0.22553,-0.0139 0.47941,0.15549 0.56418,0.37642 0.0848,0.22092 0.11436,5.51292 0.0657,11.76 L 388.31155,236 Z M 525.8896,235.12 525.28,234.4 526,235.0096 c 0.67662,0.57287 0.86568,0.8304 0.6096,0.8304 -0.0607,0 -0.38473,-0.324 -0.72,-0.72 z M 468.94426,224 c 0,-6.248 0.0429,-8.804 0.0953,-5.68 0.0524,3.124 0.0524,8.236 0,11.36 -0.0524,3.124 -0.0953,0.568 -0.0953,-5.68 z m -111.0404,0 c 0,-6.072 0.043,-8.556 0.0956,-5.52 0.0526,3.036 0.0526,8.004 0,11.04 -0.0526,3.036 -0.0956,0.552 -0.0956,-5.52 z m 115.5024,6.56 c 5e-4,-2.464 0.0507,-3.4297 0.11162,-2.146 0.0609,1.2837 0.0605,3.2997 -9e-4,4.48 -0.0614,1.1803 -0.11122,0.13 -0.11072,-2.334 z m 34.25819,-7.04 c -1.1e-4,-6.336 0.0426,-8.97335 0.095,-5.86079 0.0523,3.11257 0.0524,8.29657 1.9e-4,11.52 -0.0522,3.22344 -0.0951,0.67679 -0.0952,-5.65921 z m -123.53485,8.72 -0.6096,-0.72 0.72,0.6096 c 0.67662,0.57287 0.86568,0.8304 0.6096,0.8304 -0.0607,0 -0.38473,-0.324 -0.72,-0.72 z M 250.64,231.45942 c 0.308,-0.0805 0.812,-0.0805 1.12,0 0.308,0.0805 0.056,0.14634 -0.56,0.14634 -0.616,0 -0.868,-0.0659 -0.56,-0.14634 z m -145.59391,-0.32118 c 0.31135,-0.0811 0.74335,-0.0758 0.96,0.0119 0.21665,0.0877 -0.0381,0.15404 -0.56609,0.14752 -0.528,-0.007 -0.70526,-0.0782 -0.39391,-0.15938 z m 25.75391,0.01 c 0.22,-0.0888 0.58,-0.0888 0.8,0 0.22,0.0888 0.04,0.1614 -0.4,0.1614 -0.44,0 -0.62,-0.0726 -0.4,-0.1614 z m 54.72,0 c 0.22,-0.0888 0.58,-0.0888 0.8,0 0.22,0.0888 0.04,0.1614 -0.4,0.1614 -0.44,0 -0.62,-0.0726 -0.4,-0.1614 z m 25.94,-0.007 c 0.231,-0.0924 0.507,-0.0811 0.61333,0.0253 0.10634,0.10633 -0.0827,0.18196 -0.42,0.16807 -0.37278,-0.0154 -0.4486,-0.0912 -0.19333,-0.19334 z m 62.86609,-0.003 c 0.31135,-0.0811 0.74335,-0.0758 0.96,0.0119 0.21665,0.0877 -0.0381,0.15404 -0.56609,0.14752 -0.528,-0.007 -0.70526,-0.0782 -0.39391,-0.15938 z m 25.75391,0.01 c 0.22,-0.0888 0.58,-0.0888 0.8,0 0.22,0.0888 0.04,0.1614 -0.4,0.1614 -0.44,0 -0.62,-0.0726 -0.4,-0.1614 z M 520.7696,230.32 520.16,229.6 l 0.72,0.6096 c 0.67662,0.57287 0.86568,0.8304 0.6096,0.8304 -0.0607,0 -0.38473,-0.324 -0.72,-0.72 z m -223.53042,-0.48 c -0.39804,-0.50754 -0.38672,-0.51886 0.12082,-0.12082 0.53304,0.41804 0.70255,0.68082 0.43918,0.68082 -0.0664,0 -0.31845,-0.252 -0.56,-0.56 z m 81.77042,-2.4 -0.6096,-0.72 0.72,0.6096 c 0.67662,0.57287 0.86568,0.8304 0.6096,0.8304 -0.0607,0 -0.38473,-0.324 -0.72,-0.72 z m -87.43907,-0.24 c 0,-0.44 0.0726,-0.62 0.1614,-0.4 0.0888,0.22 0.0888,0.58 0,0.8 -0.0888,0.22 -0.1614,0.04 -0.1614,-0.4 z m -169.19332,-6.88 c 2.3e-4,-4.048 0.0461,-5.65988 0.10191,-3.58195 0.0558,2.07793 0.0556,5.38993 -4.1e-4,7.36 -0.0561,1.97007 -0.10172,0.26995 -0.1015,-3.77805 z m 173.69608,-0.37333 c -0.055,-5.31891 -0.17335,-7.13371 -0.47329,-7.25474 -0.3133,-0.12642 -0.31112,-0.16688 0.01,-0.18667 0.22553,-0.0139 0.48049,0.1583 0.56658,0.38265 0.0861,0.22435 0.11455,3.50035 0.0632,7.28 l -0.0933,6.87209 z M 515.3296,225.2 l -0.6096,-0.72 0.72,0.6096 c 0.67662,0.57287 0.86568,0.8304 0.6096,0.8304 -0.0607,0 -0.38473,-0.324 -0.72,-0.72 z m 26.17541,0.48718 3.425,-0.10853 0.11784,-1.82932 0.11783,-1.82933 -0.0228,1.92 -0.0228,1.92 -3.52,0.0179 -3.52,0.0179 z M 117.20716,224 c 0,-0.792 0.0624,-1.116 0.13867,-0.72 0.0763,0.396 0.0763,1.044 0,1.44 -0.0763,0.396 -0.13867,0.072 -0.13867,-0.72 z m 169.26708,0 c 0,-0.616 0.0659,-0.868 0.14634,-0.56 0.0805,0.308 0.0805,0.812 0,1.12 -0.0805,0.308 -0.14634,0.056 -0.14634,-0.56 z m 234.29536,0.24 -0.6096,-0.72 0.72,0.6096 c 0.67662,0.57287 0.86568,0.8304 0.6096,0.8304 -0.0607,0 -0.38473,-0.324 -0.72,-0.72 z M 334.45053,224 c 0,-0.44 0.0726,-0.62 0.1614,-0.4 0.0888,0.22 0.0888,0.58 0,0.8 -0.0888,0.22 -0.1614,0.04 -0.1614,-0.4 z m -88.09135,-0.56 c -0.39804,-0.50754 -0.38672,-0.51886 0.12082,-0.12082 0.308,0.24155 0.56,0.49355 0.56,0.56 0,0.26337 -0.26278,0.0939 -0.68082,-0.43918 z m 227.04183,-3.28 c 0,-2.024 0.052,-2.852 0.11547,-1.84 0.0635,1.012 0.0635,2.668 0,3.68 -0.0635,1.012 -0.11547,0.184 -0.11547,-1.84 z m -94.24183,1.36 c -0.39804,-0.50754 -0.38672,-0.51886 0.12082,-0.12082 0.308,0.24155 0.56,0.49355 0.56,0.56 0,0.26337 -0.26278,0.0939 -0.68082,-0.43918 z m 136.64,-1.92 c -0.39804,-0.50754 -0.38672,-0.51886 0.12082,-0.12082 0.308,0.24155 0.56,0.49355 0.56,0.56 0,0.26337 -0.26278,0.0939 -0.68082,-0.43918 z m -325.12,-0.96 c -0.39804,-0.50754 -0.38672,-0.51886 0.12082,-0.12082 0.308,0.24155 0.56,0.49355 0.56,0.56 0,0.26337 -0.26278,0.0939 -0.68082,-0.43918 z m 183.53042,-1.76 -0.6096,-0.72 0.72,0.6096 c 0.67662,0.57287 0.86568,0.8304 0.6096,0.8304 -0.0607,0 -0.38473,-0.324 -0.72,-0.72 z M 226,217.04479 c 0.836,-0.0659 2.204,-0.0659 3.04,0 0.836,0.0659 0.152,0.11985 -1.52,0.11985 -1.672,0 -2.356,-0.0539 -1.52,-0.11985 z m 10,0.0331 c 2.29204,-0.23799 4.88877,-0.2587 4.75147,-0.0379 -0.0821,0.132 -1.40074,0.21695 -2.93036,0.18879 -1.52961,-0.0282 -2.34911,-0.0961 -1.82111,-0.15089 z m 252.72,-0.0331 c 0.836,-0.0659 2.204,-0.0659 3.04,0 0.836,0.0659 0.152,0.11985 -1.52,0.11985 -1.672,0 -2.356,-0.0539 -1.52,-0.11985 z m 10.56966,-4e-4 c 0.84131,-0.0661 2.13731,-0.0653 2.88,0.002 0.74268,0.0671 0.0543,0.12122 -1.52966,0.12024 -1.584,-9.7e-4 -2.19166,-0.0559 -1.35034,-0.12202 z M 186.5,216.7414 c 0.231,-0.0924 0.507,-0.0811 0.61333,0.0253 0.10634,0.10633 -0.0827,0.18196 -0.42,0.16807 -0.37278,-0.0154 -0.4486,-0.0912 -0.19333,-0.19334 z m 159.5,-0.002 c 0.308,-0.0805 0.812,-0.0805 1.12,0 0.308,0.0805 0.056,0.14634 -0.56,0.14634 -0.616,0 -0.868,-0.0659 -0.56,-0.14634 z m 86.24373,-0.006 c 0.39805,-0.0765 0.97405,-0.0736 1.28,0.006 0.30595,0.0801 -0.0197,0.14272 -0.72373,0.13917 -0.704,-0.004 -0.95432,-0.0691 -0.55627,-0.14562 z m 78.60587,-1.77368 -0.6096,-0.72 0.72,0.6096 c 0.67662,0.57287 0.86568,0.8304 0.6096,0.8304 -0.0607,0 -0.38473,-0.324 -0.72,-0.72 z m 54.22958,0.16 c -0.39804,-0.50754 -0.38672,-0.51886 0.12082,-0.12082 0.308,0.24155 0.56,0.49355 0.56,0.56 0,0.26337 -0.26278,0.0939 -0.68082,-0.43918 z m 8.61155,-38.07629 c 0.9299,-0.0648 2.3699,-0.0642 3.2,0.002 0.8301,0.0657 0.0693,0.11873 -1.69073,0.1179 -1.76,-8.4e-4 -2.43917,-0.0546 -1.50927,-0.11942 z M 186.8,176.74807 c 0.22,-0.0888 0.58,-0.0888 0.8,0 0.22,0.0888 0.04,0.1614 -0.4,0.1614 -0.44,0 -0.62,-0.0726 -0.4,-0.1614 z m 7.04,0 c 0.22,-0.0888 0.58,-0.0888 0.8,0 0.22,0.0888 0.04,0.1614 -0.4,0.1614 -0.44,0 -0.62,-0.0726 -0.4,-0.1614 z m 374.74,-0.007 c 0.231,-0.0924 0.507,-0.0811 0.61333,0.0253 0.10634,0.10633 -0.0827,0.18196 -0.42,0.16807 -0.37278,-0.0154 -0.4486,-0.0912 -0.19333,-0.19334 z M 219.67783,174.32 c -0.25337,-0.7133 -0.32537,-9.52105 -0.0778,-9.52052 0.132,2.9e-4 0.24,2.15904 0.24,4.79723 v 4.7967 l 14.32,0.0867 14.32,0.0867 -14.33004,0.0766 c -11.23075,0.06 -14.36078,-0.01 -14.47213,-0.32338 z m 208.31791,-46.16 c 10e-6,-25.52 0.0379,-35.912721 0.0842,-23.09494 0.0463,12.81779 0.0463,33.69779 -1e-5,46.4 -0.0463,12.70222 -0.0842,2.21494 -0.0842,-23.30506 z m 29.36317,0.08 c -0.0434,-25.476 0.0359,-46.32 0.17615,-46.32 0.14028,0 0.82428,0.612 1.52,1.36 l 1.26494,1.36 -1.35891,-1.263883 -1.35892,-1.263884 -0.0822,46.223887 -0.0822,46.22388 z m 52.55711,-3.44 c 0,-27.368 0.0378,-38.564 0.084,-24.88 0.0462,13.684 0.0462,36.076 0,49.76 -0.0462,13.684 -0.084,2.488 -0.084,-24.88 z m -134.40001,-0.16 c -10e-6,-27.28 0.0378,-38.487324 0.084,-24.905165 0.0462,13.582155 0.0462,35.902155 2e-5,49.600005 -0.0462,13.69784 -0.084,2.58516 -0.084,-24.69484 z M 216.32,167.87918 c 0,-0.0665 0.252,-0.31845 0.56,-0.56 0.50754,-0.39804 0.51886,-0.38672 0.12082,0.12082 -0.41804,0.53304 -0.68082,0.70255 -0.68082,0.43918 z M 163.79918,165.84 c -0.39804,-0.50754 -0.38672,-0.51886 0.12082,-0.12082 0.308,0.24155 0.56,0.49355 0.56,0.56 0,0.26337 -0.26278,0.0939 -0.68082,-0.43918 z M 404.9538,135.2 c 2e-5,-17.248 0.0388,-24.25705 0.0861,-15.57567 0.0474,8.68138 0.0473,22.79338 -3e-5,31.36 -0.0474,8.56662 -0.0861,1.46367 -0.0861,-15.78433 z m 75.51994,-0.32 c 2e-5,-17.072 0.0388,-24.00906 0.0862,-15.41569 0.0474,8.59337 0.0474,22.56137 -3e-5,31.04 -0.0474,8.47863 -0.0862,1.44769 -0.0862,-15.62431 z M 610.24,164.99918 c 0,-0.0665 0.252,-0.31845 0.56,-0.56 0.50754,-0.39804 0.51886,-0.38672 0.12082,0.12082 -0.41804,0.53304 -0.68082,0.70255 -0.68082,0.43918 z m -74.25723,-3.63918 -1.10277,-1.2 1.2,1.10277 c 1.11693,1.02644 1.34713,1.29723 1.10277,1.29723 -0.0535,0 -0.59347,-0.54 -1.2,-1.2 z m 77.13723,1.09987 c 0,-0.0551 0.468,-0.52307 1.04,-1.04 l 1.04,-0.93987 -0.93987,1.04 c -0.87609,0.96943 -1.14013,1.18709 -1.14013,0.93987 z m -414.48,-10.9918 c 0.22,-0.0888 0.58,-0.0888 0.8,0 0.22,0.0888 0.04,0.1614 -0.4,0.1614 -0.44,0 -0.62,-0.0726 -0.4,-0.1614 z m 3.54,-0.007 c 0.231,-0.0924 0.507,-0.0811 0.61333,0.0253 0.10634,0.10633 -0.0827,0.18196 -0.42,0.16807 -0.37278,-0.0154 -0.4486,-0.0912 -0.19333,-0.19334 z m 10.94,-4.7414 c 0.59705,-0.616 1.15755,-1.12 1.24555,-1.12 0.088,0 -0.3285,0.504 -0.92555,1.12 -0.59705,0.616 -1.15755,1.12 -1.24555,1.12 -0.088,0 0.3285,-0.504 0.92555,-1.12 z m -58.40635,-37.6 c 0,-16.808 0.0388,-23.684 0.0863,-15.28 0.0474,8.404 0.0474,22.156 0,30.56 -0.0475,8.404 -0.0863,1.528 -0.0863,-15.28 z m 63.87161,25.09333 c 0.0154,-0.37278 0.0912,-0.4486 0.19334,-0.19333 0.0924,0.231 0.0811,0.507 -0.0253,0.61333 -0.10633,0.10634 -0.18196,-0.0827 -0.16807,-0.42 z m 303.04,-3.52 c 0.0154,-0.37278 0.0912,-0.4486 0.19334,-0.19333 0.0924,0.231 0.0811,0.507 -0.0253,0.61333 -0.10633,0.10634 -0.18196,-0.0827 -0.16807,-0.42 z m 106.97313,-4.933 c 0,-1.848 0.0529,-2.604 0.11753,-1.68 0.0646,0.924 0.0646,2.436 0,3.36 -0.0646,0.924 -0.11753,0.168 -0.11753,-1.68 z M 549.225,125.6 c 10e-4,-1.232 0.0593,-1.69679 0.12854,-1.03286 0.0693,0.66392 0.0681,1.67192 -0.003,2.24 -0.0707,0.56807 -0.12736,0.0249 -0.12595,-1.20714 z m -27.59974,-4.82667 c 0.0154,-0.37278 0.0912,-0.4486 0.19334,-0.19333 0.0924,0.231 0.0811,0.507 -0.0253,0.61333 -0.10633,0.10634 -0.18196,-0.0827 -0.16807,-0.42 z M 556.64,106.88 c 0.68744,-0.704 1.32189,-1.28 1.40989,-1.28 0.088,0 -0.40245,0.576 -1.08989,1.28 -0.68744,0.704 -1.32189,1.28 -1.40989,1.28 -0.088,0 0.40245,-0.576 1.08989,-1.28 z m 36.78494,-0.08 -1.26494,-1.36 1.36,1.26494 c 0.748,0.69572 1.36,1.30772 1.36,1.36 0,0.24211 -0.27867,-1.5e-4 -1.45506,-1.26494 z M 408.16,100.8 c 0.86677,-0.88 1.64794,-1.6 1.73594,-1.6 0.088,0 -0.54917,0.72 -1.41594,1.6 -0.86677,0.88 -1.64794,1.6 -1.73594,1.6 -0.088,0 0.54917,-0.72 1.41594,-1.6 z m 67.50797,-1.36 -1.58797,-1.68 1.68,1.587971 c 1.56109,1.475569 1.82675,1.772029 1.58797,1.772029 -0.0506,0 -0.80662,-0.756 -1.68,-1.68 z M 574.98,99.301404 c 0.231,-0.09244 0.507,-0.08107 0.61333,0.02526 0.10634,0.106333 -0.0827,0.181965 -0.42,0.16807 -0.37278,-0.01535 -0.4486,-0.09118 -0.19333,-0.193333 z M 416.8,92.48 c 0.86677,-0.88 1.64794,-1.6 1.73594,-1.6 0.088,0 -0.54917,0.72 -1.41594,1.6 -0.86677,0.88 -1.64794,1.6 -1.73594,1.6 -0.088,0 0.54917,-0.72 1.41594,-1.6 z m 50.22797,-1.36 -1.58797,-1.68 1.68,1.587971 c 0.924,0.873383 1.68,1.629383 1.68,1.68 0,0.238781 -0.29646,-0.02689 -1.77203,-1.587971 z M 534.4,91.819966 c 0,-0.088 0.864,-1.014985 1.92,-2.059966 1.056,-1.044981 1.92,-1.827966 1.92,-1.739966 0,0.088 -0.864,1.014985 -1.92,2.059966 -1.056,1.044981 -1.92,1.827966 -1.92,1.739966 z M 613.74907,89.68 612,87.84 l 1.84,1.749069 c 1.70942,1.62494 1.98659,1.930931 1.74907,1.930931 -0.05,0 -0.87801,-0.828 -1.84,-1.84 z M 425.6,84 c 0.95598,-0.968 1.81014,-1.76 1.89814,-1.76 0.088,0 -0.62216,0.792 -1.57814,1.76 -0.95598,0.968 -1.81014,1.76 -1.89814,1.76 -0.088,0 0.62216,-0.792 1.57814,-1.76 z m 2.31554,-31.421115 c -0.0416,-16.049613 0.0325,-29.247897 0.16446,-29.329521 0.21743,-0.134453 0.21534,20.264286 -0.005,47.950636 -0.0462,5.808 -0.118,-2.571502 -0.15954,-18.621115 z m 29.36443,-1.92293 c -0.088,-17.107225 -0.0512,-30.995301 0.0816,-30.862391 0.13288,0.13291 0.20487,14.12973 0.15997,31.104045 L 457.43993,81.76 Z M 466.18,80.421404 c 0.231,-0.09244 0.507,-0.08107 0.61333,0.02526 0.10634,0.106333 -0.0827,0.181965 -0.42,0.16807 -0.37278,-0.01535 -0.4486,-0.09118 -0.19333,-0.193333 z m 2.56,-0.32 c 0.231,-0.09244 0.507,-0.08107 0.61333,0.02526 0.10634,0.106333 -0.0827,0.181965 -0.42,0.16807 -0.37278,-0.01535 -0.4486,-0.09118 -0.19333,-0.193333 z m -55.04,-0.32 c 0.231,-0.09244 0.507,-0.08107 0.61333,0.02526 0.10634,0.106333 -0.0827,0.181965 -0.42,0.16807 -0.37278,-0.01535 -0.4486,-0.09118 -0.19333,-0.193333 z m 57.6,0 c 0.231,-0.09244 0.507,-0.08107 0.61333,0.02526 0.10634,0.106333 -0.0827,0.181965 -0.42,0.16807 -0.37278,-0.01535 -0.4486,-0.09118 -0.19333,-0.193333 z m -60.16,-0.32 c 0.231,-0.09244 0.507,-0.08107 0.61333,0.02526 0.10634,0.106333 -0.0827,0.181965 -0.42,0.16807 -0.37278,-0.01535 -0.4486,-0.09118 -0.19333,-0.193333 z m 80.96,-2.24 c 0.231,-0.09244 0.507,-0.08107 0.61333,0.02526 0.10634,0.106333 -0.0827,0.181965 -0.42,0.16807 -0.37278,-0.01535 -0.4486,-0.09118 -0.19333,-0.193333 z m -101.76,-0.32 c 0.231,-0.09244 0.507,-0.08107 0.61333,0.02526 0.10634,0.106333 -0.0827,0.181965 -0.42,0.16807 -0.37278,-0.01535 -0.4486,-0.09118 -0.19333,-0.193333 z m 104.32,0 c 0.231,-0.09244 0.507,-0.08107 0.61333,0.02526 0.10634,0.106333 -0.0827,0.181965 -0.42,0.16807 -0.37278,-0.01535 -0.4486,-0.09118 -0.19333,-0.193333 z m -106.88,-0.32 c 0.231,-0.09244 0.507,-0.08107 0.61333,0.02526 0.10634,0.106333 -0.0827,0.181965 -0.42,0.16807 -0.37278,-0.01535 -0.4486,-0.09118 -0.19333,-0.193333 z m -213.76,-0.32 c 0.231,-0.09244 0.507,-0.08107 0.61333,0.02526 0.10634,0.106333 -0.0827,0.181965 -0.42,0.16807 -0.37278,-0.01535 -0.4486,-0.09118 -0.19333,-0.193333 z m 211.2,0 c 0.231,-0.09244 0.507,-0.08107 0.61333,0.02526 0.10634,0.106333 -0.0827,0.181965 -0.42,0.16807 -0.37278,-0.01535 -0.4486,-0.09118 -0.19333,-0.193333 z m -208.64,-0.32 c 0.231,-0.09244 0.507,-0.08107 0.61333,0.02526 0.10634,0.106333 -0.0827,0.181965 -0.42,0.16807 -0.37278,-0.01535 -0.4486,-0.09118 -0.19333,-0.193333 z m 2.56,-0.32 c 0.231,-0.09244 0.507,-0.08107 0.61333,0.02526 0.10634,0.106333 -0.0827,0.181965 -0.42,0.16807 -0.37278,-0.01535 -0.4486,-0.09118 -0.19333,-0.193333 z m 2.56,-0.32 c 0.231,-0.09244 0.507,-0.08107 0.61333,0.02526 0.10634,0.106333 -0.0827,0.181965 -0.42,0.16807 -0.37278,-0.01535 -0.4486,-0.09118 -0.19333,-0.193333 z m 64.32,0 c 0.231,-0.09244 0.507,-0.08107 0.61333,0.02526 0.10634,0.106333 -0.0827,0.181965 -0.42,0.16807 -0.37278,-0.01535 -0.4486,-0.09118 -0.19333,-0.193333 z M 570.8,74.34807 c 0.22,-0.08877 0.58,-0.08877 0.8,0 0.22,0.08877 0.04,0.161404 -0.4,0.161404 -0.44,0 -0.62,-0.07263 -0.4,-0.161404 z m 8,0 c 0.22,-0.08877 0.58,-0.08877 0.8,0 0.22,0.08877 0.04,0.161404 -0.4,0.161404 -0.44,0 -0.62,-0.07263 -0.4,-0.161404 z M 482.3696,54.96 481.76,54.24 l 0.72,0.609596 c 0.67662,0.57287 0.86568,0.830404 0.6096,0.830404 -0.0607,0 -0.38473,-0.324 -0.72,-0.72 z m -4.87907,-10.8 c 0,-0.44 0.0726,-0.62 0.1614,-0.4 0.0888,0.22 0.0888,0.58 0,0.8 -0.0888,0.22 -0.1614,0.04 -0.1614,-0.4 z M 372.5607,43.04 c 0.004,-0.704 0.0691,-0.954321 0.14562,-0.556269 0.0765,0.398052 0.0736,0.974052 -0.006,1.28 -0.0801,0.305948 -0.14272,-0.01973 -0.13917,-0.723731 z m 104.92983,-0.8 c 0,-0.44 0.0726,-0.62 0.1614,-0.4 0.0888,0.22 0.0888,0.58 0,0.8 -0.0888,0.22 -0.1614,0.04 -0.1614,-0.4 z M 481.92,31.559182 c 0,-0.06645 0.252,-0.318449 0.56,-0.56 0.50754,-0.398038 0.51886,-0.38672 0.12082,0.120818 -0.41804,0.533039 -0.68082,0.702553 -0.68082,0.439182 z M 448.58,20.581404 c 0.231,-0.09244 0.507,-0.08107 0.61333,0.02526 0.10634,0.106333 -0.0827,0.181965 -0.42,0.16807 -0.37278,-0.01535 -0.4486,-0.09118 -0.19333,-0.193333 z m 2.56,-0.32 c 0.231,-0.09244 0.507,-0.08107 0.61333,0.02526 0.10634,0.106333 -0.0827,0.181965 -0.42,0.16807 -0.37278,-0.01536 -0.4486,-0.09118 -0.19333,-0.193333 z m 2.56,-0.32 c 0.231,-0.09244 0.507,-0.08107 0.61333,0.02526 0.10634,0.106333 -0.0827,0.181965 -0.42,0.16807 -0.37278,-0.01535 -0.4486,-0.09118 -0.19333,-0.193333 z"
         id="path15" />
      <path
         style="fill:#adcaa6"
         d="m 387.3296,235.12 -0.6096,-0.72 0.72,0.6096 c 0.67662,0.57287 0.86568,0.8304 0.6096,0.8304 -0.0607,0 -0.38473,-0.324 -0.72,-0.72 z m 139.53504,-10.8 c 0,-6.424 0.0427,-9.052 0.0949,-5.84 0.0522,3.212 0.0522,8.468 0,11.68 -0.0522,3.212 -0.0949,0.584 -0.0949,-5.84 z M 103.94,235.3014 c 0.231,-0.0924 0.507,-0.0811 0.61333,0.0253 0.10634,0.10633 -0.0827,0.18196 -0.42,0.16807 -0.37278,-0.0154 -0.4486,-0.0912 -0.19333,-0.19334 z m 25.9,0.007 c 0.22,-0.0888 0.58,-0.0888 0.8,0 0.22,0.0888 0.04,0.1614 -0.4,0.1614 -0.44,0 -0.62,-0.0726 -0.4,-0.1614 z m 1.92,0 c 0.22,-0.0888 0.58,-0.0888 0.8,0 0.22,0.0888 0.04,0.1614 -0.4,0.1614 -0.44,0 -0.62,-0.0726 -0.4,-0.1614 z m 52.5,-0.007 c 0.231,-0.0924 0.507,-0.0811 0.61333,0.0253 0.10634,0.10633 -0.0827,0.18196 -0.42,0.16807 -0.37278,-0.0154 -0.4486,-0.0912 -0.19333,-0.19334 z m 2.88,0 c 0.231,-0.0924 0.507,-0.0811 0.61333,0.0253 0.10634,0.10633 -0.0827,0.18196 -0.42,0.16807 -0.37278,-0.0154 -0.4486,-0.0912 -0.19333,-0.19334 z m 23.36,0 c 0.231,-0.0924 0.507,-0.0811 0.61333,0.0253 0.10634,0.10633 -0.0827,0.18196 -0.42,0.16807 -0.37278,-0.0154 -0.4486,-0.0912 -0.19333,-0.19334 z m 1.92,0 c 0.231,-0.0924 0.507,-0.0811 0.61333,0.0253 0.10634,0.10633 -0.0827,0.18196 -0.42,0.16807 -0.37278,-0.0154 -0.4486,-0.0912 -0.19333,-0.19334 z m 86.7,0.007 c 0.22,-0.0888 0.58,-0.0888 0.8,0 0.22,0.0888 0.04,0.1614 -0.4,0.1614 -0.44,0 -0.62,-0.0726 -0.4,-0.1614 z m 1.92,0 c 0.22,-0.0888 0.58,-0.0888 0.8,0 0.22,0.0888 0.04,0.1614 -0.4,0.1614 -0.44,0 -0.62,-0.0726 -0.4,-0.1614 z m 102.74,-0.007 c 0.231,-0.0924 0.507,-0.0811 0.61333,0.0253 0.10634,0.10633 -0.0827,0.18196 -0.42,0.16807 -0.37278,-0.0154 -0.4486,-0.0912 -0.19333,-0.19334 z m 2.88,0 c 0.231,-0.0924 0.507,-0.0811 0.61333,0.0253 0.10634,0.10633 -0.0827,0.18196 -0.42,0.16807 -0.37278,-0.0154 -0.4486,-0.0912 -0.19333,-0.19334 z m -324.349453,-0.33848 2.150547,-0.11173 0.09991,-4.0656 0.09991,-4.06559 0.06955,4.24 0.06955,4.24 -2.32,-0.0627 -2.32,-0.0627 z m 66.240753,0.008 2.1513,-0.11995 0.10285,-4.54558 0.10285,-4.54558 -0.0142,4.64 -0.0142,4.64 -2.24,0.0255 -2.24,0.0255 z m 9.4487,-0.005 c 0.748,-0.0674 1.972,-0.0674 2.72,0 0.748,0.0674 0.136,0.1225 -1.36,0.1225 -1.496,0 -2.108,-0.0551 -1.36,-0.1225 z m 72.54468,-0.17023 c -0.0854,-0.2225 -0.11445,-4.3625 -0.0646,-9.2 l 0.0906,-8.79546 0.0746,9.02538 0.0746,9.02538 2.16,0.11194 2.16,0.11195 -2.17004,0.0627 c -1.5023,0.0434 -2.21781,-0.0618 -2.32528,-0.34186 z m 87.28662,0.17565 2.1513,-0.11995 0.10285,-4.54558 0.10285,-4.54558 -0.0142,4.64 -0.0141,4.64 -2.24,0.0255 -2.24,0.0255 z m 9.4487,-0.005 c 0.748,-0.0674 1.972,-0.0674 2.72,0 0.748,0.0674 0.136,0.1225 -1.36,0.1225 -1.496,0 -2.108,-0.0551 -1.36,-0.1225 z m 32.79587,0.005 2.15587,-0.12005 0.0904,-10.94548 0.0904,-10.94547 -0.006,11.04 -0.006,11.04 -2.24,0.0255 -2.24,0.0255 z m 8.95996,-11.371 0.0758,-11.6 0.0882,11.42547 0.0882,11.42547 2.15598,0.11186 2.15597,0.11185 -2.32,0.0627 -2.32,0.0627 z m 60.15313,11.36296 2.14897,-0.1117 0.10355,-3.26563 0.10355,-3.26563 0.0675,3.44 0.0675,3.44 -2.32,-0.0627 -2.32,-0.0627 z m 15.05104,0.004 c 0.66,-0.069 1.74,-0.069 2.4,0 0.66,0.069 0.12,0.12552 -1.2,0.12552 -1.32,0 -1.86,-0.0565 -1.2,-0.12552 z m 16.80846,-0.002 c 0.75265,-0.0676 1.90465,-0.0667 2.56,0.002 0.65535,0.0688 0.0395,0.12407 -1.36846,0.12291 -1.408,-0.001 -1.94419,-0.0574 -1.19154,-0.12502 z m 8.9444,0.004 c 0.56808,-0.0707 1.57608,-0.0719 2.24,-0.003 0.66393,0.0693 0.19914,0.12712 -1.03286,0.12854 -1.232,0.001 -1.77521,-0.0553 -1.20714,-0.12595 z m 10.24714,-0.003 c 0.748,-0.0674 1.972,-0.0674 2.72,0 0.748,0.0674 0.136,0.1225 -1.36,0.1225 -1.496,0 -2.108,-0.0551 -1.36,-0.1225 z m 12.95473,-8.80569 0.0747,-9.04 0.0903,8.86549 0.0903,8.8655 2.15497,0.11183 2.15496,0.11183 -2.32,0.0627 -2.32,0.0627 z m 16.63869,8.81106 2.15342,-0.12 0.097,-6.46553 0.097,-6.46553 -0.0104,6.56 -0.0104,6.56 -2.24,0.0255 -2.24,0.0255 z m 23.75213,-0.17333 c -0.0849,-0.22126 -0.11639,-5.22526 -0.07,-11.12 L 533.6,212.96 h 6.21333 c 3.89334,0 6.23325,0.11948 6.26667,0.32 0.0293,0.176 -0.007,0.212 -0.08,0.08 -0.0733,-0.132 -2.85733,-0.24 -6.18667,-0.24 H 533.76 v 10.89285 10.89285 l 6.3699,-0.0928 c 3.50345,-0.0511 6.30295,0.0152 6.22112,0.14715 -0.0818,0.132 -2.95281,0.24 -6.37995,0.24 -4.70852,0 -6.26888,-0.0983 -6.38552,-0.40227 z m 21.04575,0.17338 2.1513,-0.11995 0.10285,-4.54558 0.10285,-4.54558 -0.0141,4.64 -0.0141,4.64 -2.24,0.0255 -2.24,0.0255 z m 10.57915,-0.009 c 1.72364,-0.0756 2.42274,-0.2188 2.27056,-0.46504 -0.13323,-0.21557 -0.0743,-0.26581 0.14955,-0.12747 0.92681,0.5728 0.17686,0.82586 -2.27056,0.76616 l -2.64,-0.0644 z m -41.06768,-1.60195 -1.10277,-1.2 1.2,1.10277 c 1.11693,1.02644 1.34713,1.29723 1.10277,1.29723 -0.0535,0 -0.59347,-0.54 -1.2,-1.2 z M 136.64,233.81987 c 0,-0.0551 0.468,-0.52307 1.04,-1.04 l 1.04,-0.93987 -0.93987,1.04 c -0.87609,0.96943 -1.14013,1.18709 -1.14013,0.93987 z M 124.75918,233.04 c -0.39804,-0.50754 -0.38672,-0.51886 0.12082,-0.12082 0.53304,0.41804 0.70255,0.68082 0.43918,0.68082 -0.0665,0 -0.31845,-0.252 -0.56,-0.56 z m 119.54766,0.21871 c -0.11601,-0.18771 -0.1423,-0.40992 -0.0584,-0.4938 0.0839,-0.0839 0.23779,0.0697 0.342,0.34129 0.21638,0.56387 0.032,0.66306 -0.28358,0.15251 z M 294.03918,233.04 c -0.39804,-0.50754 -0.38672,-0.51886 0.12082,-0.12082 0.308,0.24155 0.56,0.49355 0.56,0.56 0,0.26337 -0.26278,0.0939 -0.68082,-0.43918 z M 306.72,232.96 c 0.31856,-0.352 0.65119,-0.64 0.73919,-0.64 0.088,0 -0.10063,0.288 -0.41919,0.64 -0.31856,0.352 -0.65119,0.64 -0.73919,0.64 -0.088,0 0.10063,-0.288 0.41919,-0.64 z m 106.15172,-4.87044 -0.0717,-5.67044 -4.08,-0.10001 -4.08,-0.10002 4.09004,-0.0695 c 3.09054,-0.0525 4.12866,0.0311 4.24805,0.3422 0.0869,0.22646 0.11466,2.85446 0.0617,5.84 l -0.0963,5.42825 z M 112.96,232.85987 c 0,-0.0551 0.468,-0.52307 1.04,-1.04 l 1.04,-0.93987 -0.93987,1.04 c -0.87609,0.96943 -1.14013,1.18709 -1.14013,0.93987 z m 169.28,0 c 0,-0.0551 0.468,-0.52307 1.04,-1.04 l 1.04,-0.93987 -0.93987,1.04 c -0.87609,0.96943 -1.14013,1.18709 -1.14013,0.93987 z M 337.89578,232.08 337.12,231.2 338,231.97578 c 0.484,0.42668 0.88,0.82268 0.88,0.88 0,0.25097 -0.25914,0.0467 -0.98422,-0.77578 z m -71.84618,-0.16 -0.6096,-0.72 0.72,0.6096 c 0.67662,0.57287 0.86568,0.8304 0.6096,0.8304 -0.0607,0 -0.38473,-0.324 -0.72,-0.72 z m 116.33317,-1.44 -1.10277,-1.2 1.2,1.10277 c 0.66,0.60653 1.2,1.14653 1.2,1.2 0,0.24436 -0.27079,0.0142 -1.29723,-1.10277 z M 345.54,231.1414 c 0.231,-0.0924 0.507,-0.0811 0.61333,0.0253 0.10634,0.10633 -0.0827,0.18196 -0.42,0.16807 -0.37278,-0.0154 -0.4486,-0.0912 -0.19333,-0.19334 z m 1.6,0 c 0.231,-0.0924 0.507,-0.0811 0.61333,0.0253 0.10634,0.10633 -0.0827,0.18196 -0.42,0.16807 -0.37278,-0.0154 -0.4486,-0.0912 -0.19333,-0.19334 z M 208.4496,230 l -0.6096,-0.72 0.72,0.6096 c 0.67662,0.57287 0.86568,0.8304 0.6096,0.8304 -0.0607,0 -0.38473,-0.324 -0.72,-0.72 z m 6.1104,0.08 c 0.31856,-0.352 0.65119,-0.64 0.73919,-0.64 0.088,0 -0.10063,0.288 -0.41919,0.64 -0.31856,0.352 -0.65119,0.64 -0.73919,0.64 -0.088,0 0.10063,-0.288 0.41919,-0.64 z M 180.77578,229.2 180,228.32 l 0.88,0.77578 c 0.484,0.42668 0.88,0.82268 0.88,0.88 0,0.25097 -0.25914,0.0467 -0.98422,-0.77578 z m 9.94422,0.08 c 0.41336,-0.44 0.82356,-0.8 0.91156,-0.8 0.088,0 -0.1782,0.36 -0.59156,0.8 -0.41336,0.44 -0.82356,0.8 -0.91156,0.8 -0.088,0 0.1782,-0.36 0.59156,-0.8 z m 67.89053,0.16 c 0,-0.44 0.0726,-0.62 0.1614,-0.4 0.0888,0.22 0.0888,0.58 0,0.8 -0.0888,0.22 -0.1614,0.04 -0.1614,-0.4 z m 260.25441,-1.04 -1.26494,-1.36 1.36,1.26494 c 1.26479,1.17639 1.50705,1.45506 1.26494,1.45506 -0.0523,0 -0.66428,-0.612 -1.36,-1.36 z m -260.27968,-0.42667 c 0.0154,-0.37278 0.0912,-0.4486 0.19334,-0.19333 0.0924,0.231 0.0811,0.507 -0.0253,0.61333 -0.10633,0.10634 -0.18196,-0.0827 -0.16807,-0.42 z M 139.89053,227.52 c 0,-0.44 0.0726,-0.62 0.1614,-0.4 0.0888,0.22 0.0888,0.58 0,0.8 -0.0888,0.22 -0.1614,0.04 -0.1614,-0.4 z m 169.36747,-7.2 c 2.1e-4,-4.224 0.0457,-5.90774 0.10119,-3.74165 0.0554,2.16609 0.0553,5.62209 -3.8e-4,7.68 -0.0557,2.05791 -0.10102,0.28565 -0.10081,-3.93835 z m -182.40038,-0.16 c 0,-4.136 0.0456,-5.828 0.10135,-3.76 0.0557,2.068 0.0557,5.452 0,7.52 -0.0557,2.068 -0.10135,0.376 -0.10135,-3.76 z m 250.40515,5.52 -1.10277,-1.2 1.2,1.10277 c 0.66,0.60653 1.2,1.14653 1.2,1.2 0,0.24436 -0.27079,0.0142 -1.29723,-1.10277 z m -161.12685,-5.84 c 0,-3.784 0.0463,-5.332 0.10287,-3.44 0.0566,1.892 0.0566,4.988 0,6.88 -0.0566,1.892 -0.10287,0.344 -0.10287,-3.44 z m 75.51953,0.16 c 2.6e-4,-3.696 0.0468,-5.16417 0.10351,-3.26261 0.0567,1.90157 0.0565,4.92557 -4.7e-4,6.72 -0.0569,1.79444 -0.1033,0.23861 -0.10304,-3.45739 z M 451.52,226.32 c 0,-0.132 1.08,-0.24 2.4,-0.24 1.32,0 2.4,0.108 2.4,0.24 0,0.132 -1.08,0.24 -2.4,0.24 -1.32,0 -2.4,-0.108 -2.4,-0.24 z m 70.35918,-0.96 c -0.39804,-0.50754 -0.38672,-0.51886 0.12082,-0.12082 0.308,0.24155 0.56,0.49355 0.56,0.56 0,0.26337 -0.26278,0.0939 -0.68082,-0.43918 z M 197.53589,224 c 0,-0.968 0.06,-1.364 0.13331,-0.88 0.0733,0.484 0.0733,1.276 0,1.76 -0.0733,0.484 -0.13331,0.088 -0.13331,-0.88 z m 186.27857,-4.64 c -2.8e-4,-3.52 0.0465,-5.00366 0.1039,-3.29702 0.0574,1.70664 0.0576,4.58664 5.1e-4,6.4 -0.0571,1.81336 -0.10413,0.41702 -0.10441,-3.10298 z M 174.16716,224 c 0,-0.792 0.0624,-1.116 0.13867,-0.72 0.0763,0.396 0.0763,1.044 0,1.44 -0.0763,0.396 -0.13867,0.072 -0.13867,-0.72 z m 219.52,0 c 0,-0.792 0.0624,-1.116 0.13867,-0.72 0.0763,0.396 0.0763,1.044 0,1.44 -0.0763,0.396 -0.13867,0.072 -0.13867,-0.72 z m 4.4181,0.77333 c 0.0154,-0.37278 0.0912,-0.4486 0.19334,-0.19333 0.0924,0.231 0.0811,0.507 -0.0253,0.61333 -0.10633,0.10634 -0.18196,-0.0827 -0.16807,-0.42 z M 481.28,224.48 c 0.41336,-0.44 0.82356,-0.8 0.91156,-0.8 0.088,0 -0.1782,0.36 -0.59156,0.8 -0.41336,0.44 -0.82356,0.8 -0.91156,0.8 -0.088,0 0.1782,-0.36 0.59156,-0.8 z M 178.63424,224 c 0,-0.616 0.0659,-0.868 0.14634,-0.56 0.0805,0.308 0.0805,0.812 0,1.12 -0.0805,0.308 -0.14634,0.056 -0.14634,-0.56 z m 14.40646,-0.16 c 0.004,-0.704 0.0691,-0.95432 0.14562,-0.55627 0.0765,0.39805 0.0736,0.97405 -0.006,1.28 -0.0801,0.30595 -0.14272,-0.0197 -0.13917,-0.72373 z m 238.44261,-3.04 c 0,-2.2 0.0511,-3.1 0.11362,-2 0.0625,1.1 0.0625,2.9 0,4 -0.0625,1.1 -0.11362,0.2 -0.11362,-2 z m 82.09946,2.64 -1.10277,-1.2 1.2,1.10277 c 0.66,0.60653 1.2,1.14653 1.2,1.2 0,0.24436 -0.27079,0.0142 -1.29723,-1.10277 z m -132.8,-0.32 -1.10277,-1.2 1.2,1.10277 c 0.66,0.60653 1.2,1.14653 1.2,1.2 0,0.24436 -0.27079,0.0142 -1.29723,-1.10277 z m -229.92465,0.45837 c -0.089,-0.2319 -0.11484,-1.9239 -0.0575,-3.76 l 0.10436,-3.33837 0.0675,3.57973 0.0675,3.57972 1.04,0.12906 1.04,0.12907 -1.05004,0.0512 c -0.61419,0.0299 -1.1172,-0.1238 -1.21184,-0.37042 z m 169.28,0 c -0.089,-0.2319 -0.11484,-1.9239 -0.0575,-3.76 l 0.10436,-3.33837 0.0675,3.57973 0.0675,3.57972 1.04,0.12906 1.04,0.12907 -1.05004,0.0512 c -0.61419,0.0299 -1.1172,-0.1238 -1.21184,-0.37042 z m 153.70561,0.19531 c 0.39805,-0.0766 0.97405,-0.0736 1.28,0.006 0.30595,0.0801 -0.0197,0.14272 -0.72373,0.13917 -0.704,-0.004 -0.95432,-0.0691 -0.55627,-0.14562 z m 83.09439,-0.19531 c -0.089,-0.2319 -0.11484,-1.9239 -0.0575,-3.76 l 0.10436,-3.33837 0.0675,3.57973 0.0675,3.57972 1.04,0.12906 1.04,0.12907 -1.05004,0.0512 c -0.61419,0.0299 -1.1172,-0.1238 -1.21184,-0.37042 z m -158.83286,-0.40504 c 0.0154,-0.37278 0.0912,-0.4486 0.19334,-0.19333 0.0924,0.231 0.0811,0.507 -0.0253,0.61333 -0.10633,0.10634 -0.18196,-0.0827 -0.16807,-0.42 z M 517.42277,221.2 516.32,220 l 1.2,1.10277 c 0.66,0.60653 1.2,1.14653 1.2,1.2 0,0.24436 -0.27079,0.0142 -1.29723,-1.10277 z m -75.47751,0.37333 c 0.0154,-0.37278 0.0912,-0.4486 0.19334,-0.19333 0.0924,0.231 0.0811,0.507 -0.0253,0.61333 -0.10633,0.10634 -0.18196,-0.0827 -0.16807,-0.42 z M 483.27424,219.84 c 0,-0.616 0.0659,-0.868 0.14634,-0.56 0.0805,0.308 0.0805,0.812 0,1.12 -0.0805,0.308 -0.14634,0.056 -0.14634,-0.56 z m -41.32898,-0.18667 c 0.0154,-0.37278 0.0912,-0.4486 0.19334,-0.19333 0.0924,0.231 0.0811,0.507 -0.0253,0.61333 -0.10633,0.10634 -0.18196,-0.0827 -0.16807,-0.42 z m -65.96249,-1.01333 -1.10277,-1.2 1.2,1.10277 c 0.66,0.60653 1.2,1.14653 1.2,1.2 0,0.24436 -0.27079,0.0142 -1.29723,-1.10277 z m -265.45317,0.16 -0.6096,-0.72 0.72,0.6096 c 0.67662,0.57287 0.86568,0.8304 0.6096,0.8304 -0.0607,0 -0.38473,-0.324 -0.72,-0.72 z m 169.10958,-0.16 c -0.39804,-0.50754 -0.38672,-0.51886 0.12082,-0.12082 0.308,0.24155 0.56,0.49355 0.56,0.56 0,0.26337 -0.26278,0.0939 -0.68082,-0.43918 z m 156.65042,-0.8 -0.6096,-0.72 0.72,0.6096 c 0.67662,0.57287 0.86568,0.8304 0.6096,0.8304 -0.0607,0 -0.38473,-0.324 -0.72,-0.72 z m 76.33317,-1.12 -1.10277,-1.2 1.2,1.10277 c 0.66,0.60653 1.2,1.14653 1.2,1.2 0,0.24436 -0.27079,0.0142 -1.29723,-1.10277 z M 395.84,217.15918 c 0,-0.0665 0.252,-0.31845 0.56,-0.56 0.50754,-0.39804 0.51886,-0.38672 0.12082,0.12082 -0.41804,0.53304 -0.68082,0.70255 -0.68082,0.43918 z M 113.73987,215.92 112.8,214.88 l 1.04,0.93987 c 0.572,0.51693 1.04,0.98493 1.04,1.04 0,0.24722 -0.26404,0.0296 -1.14013,-0.93987 z m 169.28,0 -0.93987,-1.04 1.04,0.93987 c 0.96943,0.87609 1.18709,1.14013 0.93987,1.14013 -0.0551,0 -0.52307,-0.468 -1.04,-1.04 z m 256.88613,0.80302 c 1.1803,-0.0614 3.1963,-0.0618 4.48,-9e-4 1.2837,0.0609 0.318,0.11112 -2.146,0.11162 -2.464,5e-4 -3.5143,-0.0493 -2.334,-0.11072 z M 266.08,216 c 0.31856,-0.352 0.65119,-0.64 0.73919,-0.64 0.088,0 -0.10063,0.288 -0.41919,0.64 -0.31856,0.352 -0.65119,0.64 -0.73919,0.64 -0.088,0 0.10063,-0.288 0.41919,-0.64 z m 71.68,0 c 0.31856,-0.352 0.65119,-0.64 0.73919,-0.64 0.088,0 -0.10063,0.288 -0.41919,0.64 -0.31856,0.352 -0.65119,0.64 -0.73919,0.64 -0.088,0 0.10063,-0.288 0.41919,-0.64 z m -241.12,0.19918 c 0,-0.0665 0.252,-0.31845 0.56,-0.56 0.507538,-0.39804 0.518856,-0.38672 0.120818,0.12082 -0.418039,0.53304 -0.680818,0.70255 -0.680818,0.43918 z m 149.44,-1.28 c 0,-0.0665 0.252,-0.31845 0.56,-0.56 0.50754,-0.39804 0.51886,-0.38672 0.12082,0.12082 -0.41804,0.53304 -0.68082,0.70255 -0.68082,0.43918 z m 124.78277,-1.07918 -1.10277,-1.2 1.2,1.10277 c 1.11693,1.02644 1.34713,1.29723 1.10277,1.29723 -0.0535,0 -0.59347,-0.54 -1.2,-1.2 z M 240,213.49333 c 0,-0.27162 -2.02687,-0.3934 -7.44,-0.44702 l -7.44,-0.0737 7.33784,-0.0925 c 6.84509,-0.0863 8.45559,0.0731 7.76083,0.76784 C 240.0984,213.76827 240,213.69867 240,213.49333 Z M 86.685475,213.02499 c 0.141097,-0.14025 1.322587,-0.21092 2.625533,-0.15705 l 2.368992,0.098 -2.625533,0.15705 c -1.444044,0.0864 -2.51009,0.0423 -2.368992,-0.098 z M 74.48,212.88569 c 0.748,-0.0674 1.972,-0.0674 2.72,0 0.748,0.0674 0.136,0.1225 -1.36,0.1225 -1.496,0 -2.108,-0.0551 -1.36,-0.1225 z m 49.94,0.0157 c 0.231,-0.0924 0.507,-0.0811 0.61333,0.0253 0.10634,0.10633 -0.0827,0.18196 -0.42,0.16807 -0.37278,-0.0154 -0.4486,-0.0912 -0.19333,-0.19334 z m 13.12,0 c 0.231,-0.0924 0.507,-0.0811 0.61333,0.0253 0.10634,0.10633 -0.0827,0.18196 -0.42,0.16807 -0.37278,-0.0154 -0.4486,-0.0912 -0.19333,-0.19334 z m 10.87254,-0.0187 c 1.1069,-0.0627 2.8349,-0.0621 3.84,0.001 1.0051,0.0633 0.0995,0.11457 -2.01254,0.11394 -2.112,-6.4e-4 -2.93436,-0.0524 -1.82746,-0.11509 z m 56.32746,0.0187 c 0.231,-0.0924 0.507,-0.0811 0.61333,0.0253 0.10634,0.10633 -0.0827,0.18196 -0.42,0.16807 -0.37278,-0.0154 -0.4486,-0.0912 -0.19333,-0.19334 z m 88.96,0 c 0.231,-0.0924 0.507,-0.0811 0.61333,0.0253 0.10634,0.10633 -0.0827,0.18196 -0.42,0.16807 -0.37278,-0.0154 -0.4486,-0.0912 -0.19333,-0.19334 z m 13.12,0 c 0.231,-0.0924 0.507,-0.0811 0.61333,0.0253 0.10634,0.10633 -0.0827,0.18196 -0.42,0.16807 -0.37278,-0.0154 -0.4486,-0.0912 -0.19333,-0.19334 z m 10.87254,-0.0187 c 1.1069,-0.0627 2.8349,-0.0621 3.84,0.001 1.0051,0.0633 0.0995,0.11457 -2.01254,0.11394 -2.112,-6.4e-4 -2.93436,-0.0524 -1.82746,-0.11509 z m 42.24746,0.0187 c 0.231,-0.0924 0.507,-0.0811 0.61333,0.0253 0.10634,0.10633 -0.0827,0.18196 -0.42,0.16807 -0.37278,-0.0154 -0.4486,-0.0912 -0.19333,-0.19334 z m 69.11254,-0.0187 c 1.1069,-0.0627 2.8349,-0.0621 3.84,0.001 1.0051,0.0633 0.0995,0.11457 -2.01254,0.11394 -2.112,-6.4e-4 -2.93436,-0.0524 -1.82746,-0.11509 z m 41.92,0 c 1.1069,-0.0627 2.8349,-0.0621 3.84,0.001 1.0051,0.0633 0.0995,0.11457 -2.01254,0.11394 -2.112,-6.4e-4 -2.93436,-0.0524 -1.82746,-0.11509 z m 20.62746,-0.002 c 2.068,-0.0557 5.452,-0.0557 7.52,0 2.068,0.0557 0.376,0.10135 -3.76,0.10135 -4.136,0 -5.828,-0.0456 -3.76,-0.10135 z M 508.11918,212.56 c -0.39804,-0.50754 -0.38672,-0.51886 0.12082,-0.12082 0.308,0.24155 0.56,0.49355 0.56,0.56 0,0.26337 -0.26278,0.0939 -0.68082,-0.43918 z m 16.30082,0.3414 c 0.231,-0.0924 0.507,-0.0811 0.61333,0.0253 0.10634,0.10633 -0.0827,0.18196 -0.42,0.16807 -0.37278,-0.0154 -0.4486,-0.0912 -0.19333,-0.19334 z m 30.07254,-0.0187 c 1.1069,-0.0627 2.8349,-0.0621 3.84,0.001 1.0051,0.0633 0.0995,0.11457 -2.01254,0.11394 -2.112,-6.4e-4 -2.93436,-0.0524 -1.82746,-0.11509 z M 103.62,212.5814 c 0.231,-0.0924 0.507,-0.0811 0.61333,0.0253 0.10634,0.10633 -0.0827,0.18196 -0.42,0.16807 -0.37278,-0.0154 -0.4486,-0.0912 -0.19333,-0.19334 z m 169.28,0 c 0.231,-0.0924 0.507,-0.0811 0.61333,0.0253 0.10634,0.10633 -0.0827,0.18196 -0.42,0.16807 -0.37278,-0.0154 -0.4486,-0.0912 -0.19333,-0.19334 z m 75.2,0 c 0.231,-0.0924 0.507,-0.0811 0.61333,0.0253 0.10634,0.10633 -0.0827,0.18196 -0.42,0.16807 -0.37278,-0.0154 -0.4486,-0.0912 -0.19333,-0.19334 z m 55.68,0 c 0.231,-0.0924 0.507,-0.0811 0.61333,0.0253 0.10634,0.10633 -0.0827,0.18196 -0.42,0.16807 -0.37278,-0.0154 -0.4486,-0.0912 -0.19333,-0.19334 z m -16,-152.639996 c 0.231,-0.09244 0.507,-0.08107 0.61333,0.02526 0.10634,0.106333 -0.0827,0.181965 -0.42,0.16807 -0.37278,-0.01535 -0.4486,-0.09118 -0.19333,-0.193333 z m 4.8,0 c 0.231,-0.09244 0.507,-0.08107 0.61333,0.02526 0.10634,0.106333 -0.0827,0.181965 -0.42,0.16807 -0.37278,-0.01535 -0.4486,-0.09118 -0.19333,-0.193333 z m 100.16,0 c 0.231,-0.09244 0.507,-0.08107 0.61333,0.02526 0.10634,0.106333 -0.0827,0.181965 -0.42,0.16807 -0.37278,-0.01535 -0.4486,-0.09118 -0.19333,-0.193333 z m 4.8,0 c 0.231,-0.09244 0.507,-0.08107 0.61333,0.02526 0.10634,0.106333 -0.0827,0.181965 -0.42,0.16807 -0.37278,-0.01535 -0.4486,-0.09118 -0.19333,-0.193333 z M 403.2,54.88 c 0.59705,-0.616 1.15755,-1.12 1.24555,-1.12 0.088,0 -0.3285,0.504 -0.92555,1.12 -0.59705,0.616 -1.15755,1.12 -1.24555,1.12 -0.088,0 0.3285,-0.504 0.92555,-1.12 z m 104.96,0 c 0.41336,-0.44 0.82356,-0.8 0.91156,-0.8 0.088,0 -0.1782,0.36 -0.59156,0.8 -0.41336,0.44 -0.82356,0.8 -0.91156,0.8 -0.088,0 0.1782,-0.36 0.59156,-0.8 z M 408.02526,44.933333 c 0.0154,-0.372781 0.0912,-0.448607 0.19334,-0.193333 0.0924,0.231 0.0811,0.507 -0.0253,0.613333 -0.10633,0.106334 -0.18196,-0.08267 -0.16807,-0.42 z m 104.96,-0.32 c 0.0154,-0.372781 0.0912,-0.448607 0.19334,-0.193333 0.0924,0.231 0.0811,0.507 -0.0253,0.613333 -0.10633,0.106334 -0.18196,-0.08267 -0.16807,-0.42 z m 0,-2.88 c 0.0154,-0.372781 0.0912,-0.448607 0.19334,-0.193333 0.0924,0.231 0.0811,0.507 -0.0253,0.613333 -0.10633,0.106334 -0.18196,-0.08267 -0.16807,-0.42 z M 403.17578,31.12 402.4,30.24 l 0.88,0.77578 c 0.484,0.42668 0.88,0.82268 0.88,0.88 0,0.250968 -0.25914,0.04671 -0.98422,-0.77578 z m 104.79382,-0.16 -0.6096,-0.72 0.72,0.609596 c 0.67662,0.57287 0.86568,0.830404 0.6096,0.830404 -0.0607,0 -0.38473,-0.324 -0.72,-0.72 z M 497.54,26.021404 c 0.231,-0.09244 0.507,-0.08107 0.61333,0.02526 0.10634,0.106333 -0.0827,0.181965 -0.42,0.16807 -0.37278,-0.01535 -0.4486,-0.09118 -0.19333,-0.193333 z"
         id="path14" />
      <path
         style="fill:#9abe93"
         d="m 103.24816,235.19751 c -3.660227,-0.64524 -6.832698,-3.14035 -8.469902,-6.66146 -0.701527,-1.50877 -0.845574,-2.27742 -0.85133,-4.54278 -0.0062,-2.44241 0.102533,-2.94907 1.042856,-4.85914 2.058766,-4.18195 5.691406,-6.41441 10.470216,-6.43455 4.67024,-0.0197 8.63782,2.39157 10.63846,6.46539 0.77422,1.5765 0.88154,2.16512 0.88154,4.83503 0,2.68027 -0.10581,3.25546 -0.89416,4.86083 -2.24819,4.57814 -7.64855,7.24792 -12.81768,6.33668 z m 4.2461,-4.15013 c 3.08365,-0.88438 5.14574,-3.69522 5.14574,-7.01417 0,-6.69532 -7.50821,-9.89273 -12.20386,-5.19707 -2.984299,2.98429 -2.969678,7.2843 0.035,10.2962 2.0087,2.01351 4.40317,2.66643 7.02312,1.91504 z m 22.08028,4.12836 c -3.10232,-0.48072 -5.54299,-2.49098 -6.52561,-5.37482 C 122.6642,228.67179 122.56,226.74143 122.56,220.743 v -7.623 l 0.88,-0.004 c 0.484,-0.002 1.42,-0.0928 2.08,-0.20187 l 1.2,-0.19835 v 7.33407 c 0,6.96931 0.0358,7.40507 0.72,8.76187 1.70316,3.37746 6.01538,3.33523 7.7904,-0.0763 0.34814,-0.6691 0.4496,-2.5287 0.4496,-8.24 V 213.12 h 0.75534 c 0.41543,0 1.43829,-0.0936 2.27301,-0.20802 l 1.51768,-0.20802 -0.15006,7.96802 c -0.16978,9.01582 -0.29732,9.65521 -2.39028,11.98308 -1.97042,2.19159 -4.72018,3.04612 -8.11115,2.52068 z M 183.36,235.0761 c -3.47036,-0.76951 -6.07837,-2.69621 -7.70112,-5.68927 -1.05411,-1.94426 -1.09878,-2.16372 -1.09636,-5.38683 0.002,-2.85878 0.11225,-3.58131 0.73811,-4.84356 1.23436,-2.48948 2.77277,-3.99914 5.39694,-5.29607 2.24075,-1.10745 2.63354,-1.19751 5.22243,-1.19751 2.58889,0 2.98168,0.0901 5.22243,1.19751 4.22738,2.08928 6.0343,4.92081 6.23675,9.77327 0.12148,2.91175 0.0931,3.05806 -1.03873,5.34807 -1.69868,3.43705 -4.43315,5.4689 -8.32937,6.18916 -2.23397,0.41297 -2.37415,0.41012 -4.65108,-0.0948 z m 6.16191,-4.73737 c 1.75206,-0.96384 3.30826,-3.27138 3.59058,-5.32416 0.90915,-6.61031 -6.70057,-10.92134 -11.82377,-6.69836 -1.73934,1.43371 -2.52252,3.20643 -2.53227,5.73172 -0.007,1.8091 0.13351,2.35586 0.93767,3.6492 0.52023,0.83669 1.31421,1.79458 1.76438,2.12863 2.25902,1.67631 5.56626,1.88671 8.06341,0.51297 z m 20.30933,4.84 c -3.32065,-0.53908 -5.88309,-3.02962 -6.61148,-6.42597 -0.18687,-0.87134 -0.33976,-4.74517 -0.33976,-8.60851 V 213.12 h 0.75534 c 0.41543,0 1.42343,-0.0916 2.24,-0.2035 l 1.48466,-0.20349 5e-4,7.64349 c 4.3e-4,6.6359 0.0743,7.79114 0.56,8.7635 1.4686,2.93981 6.05916,2.89011 7.66696,-0.083 0.47746,-0.88291 0.57799,-2.14244 0.6766,-8.47699 0.10673,-6.85573 0.16022,-7.44 0.68122,-7.44 0.31097,0 1.23349,-0.0916 2.05006,-0.2035 l 1.48466,-0.20349 v 7.50541 c 0,8.28603 -0.22446,9.71017 -1.89355,12.01428 -1.6603,2.29198 -5.28048,3.51013 -8.75521,2.94603 z M 248.8,235.08656 c -0.88,-0.22765 -2.212,-0.73018 -2.96,-1.11674 -1.45862,-0.75379 -1.50635,-0.90598 -1.09628,-3.49574 l 0.21628,-1.36592 1.12875,0.76904 c 1.38054,0.94059 3.83801,1.8028 5.13832,1.8028 1.17278,0 2.70326,-0.74839 2.97415,-1.45434 0.76585,-1.99578 -0.23623,-3.45326 -3.04612,-4.43044 -3.90234,-1.35709 -5.75323,-3.1035 -6.18852,-5.83918 -0.63958,-4.01966 2.4086,-7.24993 6.87342,-7.28402 1.94243,-0.0148 5.5796,0.85721 5.92826,1.42134 0.14509,0.23476 -0.38551,3.51056 -0.60401,3.72906 -0.0612,0.0612 -0.88816,-0.25043 -1.83774,-0.69247 -2.33779,-1.08825 -4.50777,-1.09778 -5.58106,-0.0245 -1.66936,1.66937 -0.62031,3.59137 2.53295,4.64071 4.42881,1.47381 6.32731,3.53859 6.32731,6.88147 0,2.79935 -1.28923,4.91474 -3.68948,6.05373 -1.49374,0.70883 -4.23937,0.89072 -6.11623,0.4052 z m 23.5345,0.0999 c -3.61662,-0.74966 -6.67542,-3.20758 -8.27624,-6.65044 -0.70153,-1.50877 -0.84558,-2.27742 -0.85133,-4.54278 -0.006,-2.44241 0.10253,-2.94907 1.04285,-4.85914 1.28794,-2.61616 3.55566,-4.74827 6.0857,-5.72174 2.55484,-0.98302 6.2744,-0.98531 8.78345,-0.005 2.42312,0.94635 5.07708,3.38998 6.22555,5.73216 0.78668,1.60436 0.89284,2.18229 0.89284,4.86085 0,2.67856 -0.10616,3.25649 -0.89284,4.86085 -1.13622,2.31721 -3.81496,4.80008 -6.10188,5.65573 -2.09639,0.78436 -4.99831,1.06577 -6.9081,0.66991 z m 5.62026,-4.56173 c 6.44094,-3.33074 4.59356,-13.32195 -2.57313,-13.91626 -2.18688,-0.18136 -3.77618,0.35203 -5.39347,1.81012 -2.24121,2.02058 -2.97228,4.7456 -2.11442,7.88138 0.42212,1.54303 2.84004,4.01723 4.45638,4.56011 1.41111,0.47396 4.40478,0.29547 5.62464,-0.33535 z m 20.92524,4.55565 c -0.792,-0.13148 -1.82,-0.38721 -2.28445,-0.5683 -1.28292,-0.50019 -3.11108,-2.23795 -3.8944,-3.70181 -0.66068,-1.23467 -0.7069,-1.78593 -0.80082,-9.5503 l -0.0997,-8.24 0.89966,-0.004 c 0.49482,-0.002 1.43025,-0.0913 2.07875,-0.19848 l 1.17907,-0.19495 0.10093,7.85584 c 0.0945,7.35475 0.14319,7.91341 0.76367,8.75847 0.82246,1.12016 2.53848,2.02149 3.84993,2.02214 1.31286,6.6e-4 3.03202,-1.18297 3.72682,-2.56588 0.48359,-0.96253 0.55957,-2.10135 0.56,-8.39362 l 5e-4,-7.28 0.88,-0.004 c 0.484,-0.002 1.42,-0.0928 2.08,-0.20187 l 1.2,-0.19835 v 7.92474 c 0,5.28667 -0.12955,8.36321 -0.38916,9.24187 -0.55765,1.88741 -3.18592,4.44538 -5.05084,4.91576 -2.22208,0.56045 -3.2373,0.6412 -4.8,0.38178 z m 45.2063,0.0195 c -6.74888,-1.41784 -10.77147,-7.95205 -8.85932,-14.39093 1.46111,-4.92011 5.68947,-8.04129 11.01302,-8.12931 2.23601,-0.037 5.27137,0.54859 5.59999,1.0803 0.0789,0.12771 -0.008,1.09015 -0.19234,2.13878 l -0.33584,1.90658 -1.6559,-0.57222 c -3.06327,-1.05856 -5.70725,-0.63229 -7.9418,1.2804 -3.96081,3.39031 -3.20367,9.49681 1.48589,11.98395 1.75071,0.9285 4.88865,0.93151 6.9215,0.007 l 1.4815,-0.67404 0.32135,1.96497 c 0.17674,1.08074 0.26437,2.06197 0.19473,2.18051 -0.23736,0.40407 -3.15463,1.21053 -4.91908,1.35984 -0.968,0.0819 -2.36916,0.021 -3.1137,-0.13545 z m 36.7137,-6.35027 -7.2,-6.75277 -0.0866,6.39156 -0.0866,6.39156 H 371.35337 369.28 v -11.26494 -11.26495 l 1.2,1.14163 c 5.64143,5.367 13.01285,12.10826 13.24013,12.10826 0.15393,0 0.27987,-2.7894 0.27987,-6.19867 v -6.19866 l 1.95364,-0.22103 c 1.0745,-0.12157 2.01237,-0.1623 2.08415,-0.0905 0.0718,0.0718 0.0926,5.21119 0.0464,11.4209 L 388,235.60241 Z m 22.08,6.22539 c -3.52921,-0.78469 -6.23394,-2.84481 -7.90907,-6.02411 C 394.16028,227.51238 394.08,227.05722 394.08,224 c 0,-3.02144 0.0859,-3.52269 0.85225,-4.97461 2.8215,-5.34537 8.95613,-7.66828 15.06399,-5.70406 0.83393,0.26818 1.58907,0.60546 1.67809,0.7495 0.14914,0.24131 -0.35543,3.51694 -0.57566,3.73717 -0.0533,0.0533 -0.84578,-0.18777 -1.76118,-0.53559 -5.69569,-2.1642 -11.07382,1.10313 -11.07382,6.72759 0,4.38988 3.06399,7.36 7.59262,7.36 0.80413,0 1.83142,-0.14044 2.28288,-0.31208 0.78074,-0.29684 0.82083,-0.4297 0.82083,-2.72 V 225.92 h -2.44187 -2.44187 l 0.19835,-1.2 c 0.10909,-0.66 0.19993,-1.452 0.20187,-1.76 0.003,-0.50443 0.41629,-0.56 4.16352,-0.56 h 4.16 v 5.56059 5.5606 l -1.54099,0.66291 c -1.40942,0.60632 -4.97728,1.36572 -6.13901,1.30666 -0.264,-0.0134 -1.272,-0.20049 -2.24,-0.41572 z m 116.48,-6.37525 -7.2,-6.77696 -0.0866,6.47858 -0.0866,6.47859 H 509.91337 507.84 v -11.2 c 0,-6.16 0.0634,-11.2 0.14086,-11.2 0.0775,0 3.35347,3.00816 7.28,6.68479 l 7.13914,6.6848 0.0865,-6.31989 0.0865,-6.31988 1.96624,-0.20552 c 1.08144,-0.11303 2.01639,-0.15537 2.07767,-0.0941 0.0613,0.0613 0.0735,5.16382 0.0273,11.33899 l -0.0842,11.22756 z m -439.04,2.0173 v -4.16291 L 76.958544,219.83709 73.597089,213.12 h 2.342065 2.342066 l 1.965667,4.23543 c 1.081117,2.32948 2.083028,4.27454 2.226469,4.32236 0.143442,0.0478 1.13062,-1.82213 2.19373,-4.15543 l 1.932928,-4.24236 2.468195,-0.0936 2.468194,-0.0936 -3.528201,7.05083 -3.528202,7.05083 v 3.84278 3.84278 H 82.4 80.32 Z M 146.56,224 v -10.88 l 4.08,0.002 c 2.244,9.9e-4 4.60094,0.14649 5.23764,0.32335 5.6939,1.58161 6.73231,8.98924 1.68323,12.00749 l -1.62704,0.97262 2.53798,3.66738 c 3.65475,5.28111 3.58678,4.78801 0.65945,4.7838 l -2.49126,-0.004 -2.70997,-4.34078 c -1.49049,-2.38743 -2.82249,-4.41032 -2.96,-4.49531 -0.13752,-0.085 -0.25003,1.86998 -0.25003,4.34436 V 234.88 h -2.08 -2.08 z m 7.09943,-0.33115 c 1.64835,-0.45781 2.82057,-1.93959 2.82057,-3.5654 0,-1.03749 -0.21124,-1.49869 -1.088,-2.37545 -0.97829,-0.97829 -1.26871,-1.088 -2.88,-1.088 h -1.792 v 3.46667 c 0,1.90666 0.096,3.56266 0.21333,3.68 0.30602,0.30602 1.36486,0.26026 2.7261,-0.11782 z M 230.72,225.92 v -8.96 h -2.9235 -2.92349 l 0.20349,-1.48466 c 0.11193,-0.81657 0.2035,-1.68057 0.2035,-1.92 0,-0.35446 1.36333,-0.43534 7.33844,-0.43534 8.20457,0 7.4433,-0.24 7.86631,2.48 l 0.2115,1.36 H 237.78813 234.88 v 8.96 8.96 h -2.08 -2.08 z M 315.84,224 v -10.88 l 4.08,0.002 c 2.244,9.9e-4 4.60094,0.14649 5.23764,0.32335 2.98945,0.83039 4.87095,3.2925 4.86636,6.36809 -0.004,2.90581 -1.47941,5.10891 -4.08359,6.09902 l -0.86317,0.32818 2.6868,3.91979 c 1.47775,2.15588 2.79187,4.09979 2.92027,4.31979 0.17849,0.30581 -0.35613,0.4 -2.2704,0.4 h -2.50387 l -2.69948,-4.34095 c -1.48471,-2.38753 -2.81447,-4.41202 -2.95502,-4.49889 C 320.11499,225.9533 320,227.90673 320,230.38111 V 234.88 h -2.08 -2.08 z m 7.09943,-0.33115 c 2.69991,-0.74988 3.70115,-3.79321 1.90814,-5.79994 -0.79779,-0.89288 -1.15966,-1.03907 -2.88,-1.16351 L 320,216.56308 v 3.50513 c 0,1.92782 0.096,3.60112 0.21333,3.71846 0.30602,0.30602 1.36486,0.26026 2.7261,-0.11782 z M 358.08,224 v -10.88 l 0.88,-0.004 c 0.484,-0.002 1.42,-0.0928 2.08,-0.20187 l 1.2,-0.19835 V 223.79813 234.88 h -2.08 -2.08 z m 69.12,-0.0293 v -10.9094 l 4.72,0.11564 c 5.16394,0.12651 6.3113,0.4638 8.14302,2.39375 1.7599,1.85428 2.48583,5.51377 1.56537,7.89118 -1.11947,2.89141 -4.00389,4.70026 -7.89311,4.94986 l -2.37528,0.15243 v 3.15792 3.15792 h -2.08 -2.08 z m 9.32455,-0.5075 c 0.71733,-0.71734 1.02408,-1.36575 1.12791,-2.38422 0.26983,-2.64679 -1.86305,-4.59011 -4.80268,-4.37585 L 431.52,216.8 l -0.0901,3.95793 -0.0902,3.95792 2.09978,-0.1337 c 1.82755,-0.11637 2.22752,-0.26145 3.08508,-1.119 z M 443.2,234.7798 c 0,-0.15421 10.49539,-22.02186 10.6377,-22.16417 0.1092,-0.10919 3.1061,6.05501 9.07424,18.66437 l 1.70391,3.6 h -2.34325 -2.34325 l -0.97476,-2.32 -0.97476,-2.32 h -4.09742 -4.09742 l -0.97249,2.31565 -0.9725,2.31565 -2.32,0.004 c -1.276,0.002 -2.32,-0.0407 -2.32,-0.0959 z m 13.10106,-8.4598 c -0.0104,-0.132 -0.56758,-1.392 -1.23815,-2.8 l -1.21922,-2.56 -0.96051,2.09769 c -1.70884,3.73203 -1.77543,3.50231 1.01526,3.50231 1.33186,0 2.41304,-0.108 2.40262,-0.24 z M 469.12,223.97065 V 213.0613 l 4.74612,0.10935 c 4.62841,0.10664 4.78454,0.13316 6.29516,1.06935 2.69237,1.66857 3.847,5.33684 2.59688,8.25028 -0.5382,1.25429 -2.27702,2.94939 -3.49742,3.40949 -0.59658,0.22492 -0.81649,0.47387 -0.65337,0.73963 0.13523,0.22033 1.44939,2.1646 2.92037,4.3206 l 2.67449,3.92 h -2.54941 -2.54941 l -2.8317,-4.55907 -2.83171,-4.55906 -0.0888,4.55906 -0.0888,4.55907 H 471.19121 469.12 Z m 7.01335,-0.28301 c 2.27628,-0.65282 3.41608,-2.80522 2.56876,-4.85082 -0.56401,-1.36165 -2.04356,-2.19416 -3.90211,-2.19562 l -1.52,-0.001 v 3.68 3.68 h 0.88211 c 0.48516,0 1.37222,-0.14056 1.97124,-0.31236 z M 493.36506,226 l -0.0851,-8.88 -2.90325,-0.0913 -2.90326,-0.0913 0.3074,-1.90875 0.30739,-1.90874 h 7.29044 7.29043 l 0.18542,0.96 c 0.10199,0.528 0.26887,1.392 0.37086,1.92 l 0.18542,0.96 H 500.50543 497.6 v 8.96 8.96 h -2.07494 -2.07494 z M 533.76,224 v -10.88 h 6.05844 c 6.72844,0 6.14177,-0.20722 6.56812,2.32 l 0.20244,1.2 h -4.3345 -4.3345 v 2.56 2.56 h 3.52 3.52 v 1.92 1.92 h -3.52 -3.52 v 2.72 2.72 h 4.49961 4.4996 l -0.20349,1.52 c -0.11192,0.836 -0.26023,1.7 -0.32956,1.92 -0.0952,0.30204 -1.65665,0.4 -6.37612,0.4 H 533.76 Z m 18.88,-0.0293 v -10.9094 l 4.72,0.11564 c 4.12572,0.10108 4.8889,0.20513 6.06146,0.8264 2.65428,1.40633 4.03917,4.46794 3.31748,7.33401 -0.49677,1.97287 -1.35071,3.11848 -3.07985,4.13182 -0.7805,0.45741 -1.41909,0.90846 -1.41909,1.00234 0,0.0939 1.12757,1.8442 2.50571,3.8896 1.37815,2.04539 2.61065,3.89889 2.73889,4.11889 0.17829,0.30586 -0.35494,0.39925 -2.26571,0.39681 l -2.49889,-0.003 -2.66993,-4.31643 c -1.46846,-2.37403 -2.80046,-4.3971 -2.96,-4.4957 -0.16817,-0.10393 -0.29007,1.71131 -0.29007,4.31961 V 234.88 h -2.08 -2.08 z m 8.26322,-0.74129 c 1.06449,-0.55047 1.65678,-1.72177 1.65678,-3.27642 0,-0.86632 -0.25897,-1.39591 -1.088,-2.22494 -0.97829,-0.97829 -1.26871,-1.088 -2.88,-1.088 H 556.8 v 3.46667 c 0,1.90666 0.108,3.57641 0.24,3.71055 0.33519,0.34061 2.79016,-0.033 3.86322,-0.58786 z M 386.56,59.682207 c -7.96384,-1.798665 -13.76,-8.695792 -13.76,-16.373688 0,-13.031144 13.8021,-21.261924 25.84999,-15.415451 2.87645,1.395851 6.32121,4.807496 7.70096,7.626932 0.55984,1.144 1.25069,3.221788 1.53522,4.617306 1.63225,8.00563 -3.42885,16.278808 -11.6465,19.038064 -2.6602,0.893218 -6.9698,1.118873 -9.67967,0.506837 z m 106.24,0.287817 c -7.29244,-1.32259 -12.83272,-6.190149 -14.55002,-12.783321 -3.64891,-14.009108 11.56798,-25.843511 24.94394,-19.399272 6.26965,3.020581 9.81642,8.52224 9.83292,15.252569 0.0186,7.60409 -4.8863,14.01078 -12.51933,16.352401 -1.53038,0.469483 -6.32327,0.828675 -7.70751,0.577623 z"
         id="path13" />
      <path
         style="fill:#778b9e"
         d="m 188.08,176.74807 c 0.22,-0.0888 0.58,-0.0888 0.8,0 0.22,0.0888 0.04,0.1614 -0.4,0.1614 -0.44,0 -0.62,-0.0726 -0.4,-0.1614 z m 4.32609,-0.01 c 0.31135,-0.0811 0.74335,-0.0758 0.96,0.0119 0.21665,0.0877 -0.0381,0.15404 -0.56609,0.14752 -0.528,-0.007 -0.70526,-0.0782 -0.39391,-0.15938 z M 248.15602,124.8 c 0,-27.368 0.0378,-38.564 0.0839,-24.88 0.0462,13.684 0.0462,36.076 0,49.76 -0.0462,13.684 -0.0839,2.488 -0.0839,-24.88 z m 234.85358,46.64 -0.6096,-0.72 0.72,0.6096 c 0.67662,0.57287 0.86568,0.8304 0.6096,0.8304 -0.0607,0 -0.38473,-0.324 -0.72,-0.72 z m -317.58683,-4 -1.10277,-1.2 1.2,1.10277 c 1.11693,1.02644 1.34713,1.29723 1.10277,1.29723 -0.0535,0 -0.59347,-0.54 -1.2,-1.2 z M 218.24,165.92 c 0.41336,-0.44 0.82356,-0.8 0.91156,-0.8 0.088,0 -0.1782,0.36 -0.59156,0.8 -0.41336,0.44 -0.82356,0.8 -0.91156,0.8 -0.088,0 0.1782,-0.36 0.59156,-0.8 z M 69.52,142.48011 c 6.996,-0.0481 18.444,-0.0481 25.44,0 6.996,0.0481 1.272,0.0874 -12.72,0.0874 -13.992,0 -19.716,-0.0394 -12.72,-0.0874 z M 183.83348,104.8 c 2e-5,-16.368 0.0389,-23.017104 0.0865,-14.775787 0.0475,8.241317 0.0475,21.633317 -3e-5,29.759997 -0.0476,8.12669 -0.0864,1.38379 -0.0864,-14.98421 z m 337.79178,24.93333 c 0.0154,-0.37278 0.0912,-0.4486 0.19334,-0.19333 0.0924,0.231 0.0811,0.507 -0.0253,0.61333 -0.10633,0.10634 -0.18196,-0.0827 -0.16807,-0.42 z M 601.05152,125.6 c 0.002,-0.88 0.0646,-1.20202 0.13811,-0.7156 0.0736,0.48642 0.0716,1.20642 -0.004,1.6 -0.076,0.39358 -0.13614,-0.004 -0.13374,-0.8844 z m -79.42626,-3.86667 c 0.0154,-0.37278 0.0912,-0.4486 0.19334,-0.19333 0.0924,0.231 0.0811,0.507 -0.0253,0.61333 -0.10633,0.10634 -0.18196,-0.0827 -0.16807,-0.42 z M 573.68,99.30807 c 0.22,-0.08877 0.58,-0.08877 0.8,0 0.22,0.08877 0.04,0.161404 -0.4,0.161404 -0.44,0 -0.62,-0.07263 -0.4,-0.161404 z m 2.40609,-0.0098 c 0.31135,-0.08113 0.74335,-0.0758 0.96,0.01186 0.21665,0.08766 -0.0381,0.154038 -0.56609,0.147516 -0.528,-0.0065 -0.70526,-0.07824 -0.39391,-0.159373 z M 409.92,99.099869 c 0,-0.05507 0.468,-0.523072 1.04,-1.04 L 412,97.12 411.06013,98.16 C 410.18404,99.129426 409.92,99.347089 409.92,99.099869 Z M 473.09987,96.88 472.16,95.84 l 1.04,0.939869 c 0.96943,0.87609 1.18709,1.140131 0.93987,1.140131 -0.0551,0 -0.52307,-0.468 -1.04,-1.04 z M 418.56,90.779869 c 0,-0.05507 0.468,-0.523072 1.04,-1.04 L 420.64,88.8 419.70013,89.84 C 418.82404,90.809426 418.56,91.027089 418.56,90.779869 Z M 464.45987,88.56 463.52,87.52 l 1.04,0.939869 c 0.96943,0.87609 1.18709,1.140131 0.93987,1.140131 -0.0551,0 -0.52307,-0.468 -1.04,-1.04 z M 572.4,74.34807 c 0.22,-0.08877 0.58,-0.08877 0.8,0 0.22,0.08877 0.04,0.161404 -0.4,0.161404 -0.44,0 -0.62,-0.07263 -0.4,-0.161404 z m 4.96609,-0.0098 c 0.31135,-0.08113 0.74335,-0.0758 0.96,0.01186 0.21665,0.08766 -0.0381,0.154038 -0.56609,0.147516 -0.528,-0.0065 -0.70526,-0.07824 -0.39391,-0.159373 z"
         id="path12" />
      <path
         style="fill:#556c85"
         d="m 189.8444,176.73037 c 0.48642,-0.0735 1.20642,-0.0716 1.6,0.004 0.39358,0.076 -0.004,0.13614 -0.8844,0.13374 -0.88,-0.002 -1.20202,-0.0645 -0.7156,-0.13811 z M 19.28,174.16026 c 4.356,-0.0503 11.484,-0.0503 15.84,0 4.356,0.0503 0.792,0.0914 -7.92,0.0914 -8.712,0 -12.276,-0.0411 -7.92,-0.0914 z m 109.92,-1e-5 c 4.444,-0.0502 11.716,-0.0502 16.16,0 4.444,0.0502 0.808,0.0912 -8.08,0.0912 -8.888,0 -12.524,-0.0411 -8.08,-0.0912 z m 138.24,0 c 4.444,-0.0502 11.716,-0.0502 16.16,0 4.444,0.0502 0.808,0.0912 -8.08,0.0912 -8.888,0 -12.524,-0.0411 -8.08,-0.0912 z m 69.2,0.009 c 14.35447,-0.22289 26.24031,-0.22687 26.24016,-0.009 -9e-5,0.132 -7.16416,0.20754 -15.92016,0.16787 -8.756,-0.0397 -13.4,-0.11126 -10.32,-0.15908 z m 44.26032,-0.008 c 2.95918,-0.0529 7.71118,-0.0528 10.56,2.2e-4 2.84883,0.053 0.42768,0.0962 -5.38032,0.0961 -5.808,-1.2e-4 -8.13885,-0.0435 -5.17968,-0.0963 z m 54.56162,-2.1e-4 c 4.10407,-0.0507 10.72807,-0.0506 14.72,1.2e-4 3.99193,0.0507 0.63406,0.0922 -7.46194,0.0922 -8.096,-7e-5 -11.36213,-0.0416 -7.25806,-0.0923 z m 58.85806,3.3e-4 c 2.86,-0.053 7.54,-0.053 10.4,0 2.86,0.053 0.52,0.0964 -5.2,0.0964 -5.72,0 -8.06,-0.0434 -5.2,-0.0964 z m 80.64,-22.0525 c 0.22,-0.0888 0.58,-0.0888 0.8,0 0.22,0.0888 0.04,0.1614 -0.4,0.1614 -0.44,0 -0.62,-0.0726 -0.4,-0.1614 z M 593.28,144.8 c 0.41336,-0.44 0.82356,-0.8 0.91156,-0.8 0.088,0 -0.1782,0.36 -0.59156,0.8 -0.41336,0.44 -0.82356,0.8 -0.91156,0.8 -0.088,0 0.1782,-0.36 0.59156,-0.8 z m -36.6704,-0.24 -0.6096,-0.72 0.72,0.6096 c 0.67662,0.57287 0.86568,0.8304 0.6096,0.8304 -0.0607,0 -0.38473,-0.324 -0.72,-0.72 z m -372.90434,-9.70667 c 0.0154,-0.37278 0.0912,-0.4486 0.19334,-0.19333 0.0924,0.231 0.0811,0.507 -0.0253,0.61333 -0.10633,0.10634 -0.18196,-0.0827 -0.16807,-0.42 z m 337.92,-12.16 c 0.0154,-0.37278 0.0912,-0.4486 0.19334,-0.19333 0.0924,0.231 0.0811,0.507 -0.0253,0.61333 -0.10633,0.10634 -0.18196,-0.0827 -0.16807,-0.42 z M 479.8096,103.28 479.2,102.56 l 0.72,0.6096 c 0.67662,0.57287 0.86568,0.8304 0.6096,0.8304 -0.0607,0 -0.38473,-0.324 -0.72,-0.72 z M 411.84,97.179869 c 0,-0.05507 0.468,-0.523072 1.04,-1.04 L 413.92,95.2 412.98013,96.24 C 412.10404,97.209426 411.84,97.427089 411.84,97.179869 Z M 471.33578,95.12 470.56,94.24 l 0.88,0.77578 c 0.484,0.42668 0.88,0.82268 0.88,0.88 0,0.250968 -0.25914,0.04671 -0.98422,-0.77578 z M 420.48,88.859869 c 0,-0.05507 0.468,-0.523072 1.04,-1.04 L 422.56,86.88 421.62013,87.92 C 420.74404,88.889426 420.48,89.107089 420.48,88.859869 Z M 462.53987,86.64 461.6,85.6 l 1.04,0.939869 c 0.96943,0.87609 1.18709,1.140131 0.93987,1.140131 -0.0551,0 -0.52307,-0.468 -1.04,-1.04 z M 574.32573,74.328086 c 0.57515,-0.07122 1.43915,-0.06975 1.92,0.0033 0.48085,0.07301 0.0103,0.131286 -1.04573,0.12949 -1.056,-0.0018 -1.44942,-0.06154 -0.87427,-0.132756 z"
         id="path11" />
      <path
         style="fill:#2d4a69"
         d="m 536.14998,161.2 -1.90998,-2 2,1.90998 c 1.1,1.05049 2,1.95049 2,2 0,0.23645 -0.31581,-0.0522 -2.09002,-1.90998 z m 77.61002,0.24 c 0.95598,-0.968 1.81014,-1.76 1.89814,-1.76 0.088,0 -0.62216,0.792 -1.57814,1.76 -0.95598,0.968 -1.81014,1.76 -1.89814,1.76 -0.088,0 0.62216,-0.792 1.57814,-1.76 z m -40.08,-9.33193 c 0.22,-0.0888 0.58,-0.0888 0.8,0 0.22,0.0888 0.04,0.1614 -0.4,0.1614 -0.44,0 -0.62,-0.0726 -0.4,-0.1614 z m 2.58,-0.007 c 0.231,-0.0924 0.507,-0.0811 0.61333,0.0253 0.10634,0.10633 -0.0827,0.18196 -0.42,0.16807 -0.37278,-0.0154 -0.4486,-0.0912 -0.19333,-0.19334 z M 188.61987,147.12 187.68,146.08 l 1.04,0.93987 c 0.572,0.51693 1.04,0.98493 1.04,1.04 0,0.24722 -0.26404,0.0296 -1.14013,-0.93987 z M 213.12,147.0792 c 0,-0.0665 0.252,-0.31845 0.56,-0.56 0.50754,-0.39804 0.51886,-0.38672 0.12082,0.12082 -0.41804,0.53304 -0.68082,0.70255 -0.68082,0.43918 z M 557.71918,145.68 c -0.39804,-0.50754 -0.38672,-0.51886 0.12082,-0.12082 0.53304,0.41804 0.70255,0.68082 0.43918,0.68082 -0.0665,0 -0.31845,-0.252 -0.56,-0.56 z m -2.24,-2.24 c -0.39804,-0.50754 -0.38672,-0.51886 0.12082,-0.12082 0.53304,0.41804 0.70255,0.68082 0.43918,0.68082 -0.0665,0 -0.31845,-0.252 -0.56,-0.56 z M 521.65053,128 c 0,-0.44 0.0726,-0.62 0.1614,-0.4 0.0888,0.22 0.0888,0.58 0,0.8 -0.0888,0.22 -0.1614,0.04 -0.1614,-0.4 z m -0.0253,-4.34667 c 0.0154,-0.37278 0.0912,-0.4486 0.19334,-0.19333 0.0924,0.231 0.0811,0.507 -0.0253,0.61333 -0.10633,0.10634 -0.18196,-0.0827 -0.16807,-0.42 z M 74.8,117.84029 c 4.092,-0.0506 10.788,-0.0506 14.88,0 4.092,0.0507 0.744,0.0921 -7.44,0.0921 -8.184,0 -11.532,-0.0414 -7.44,-0.0921 z m 481.36,-10.76111 c 0,-0.0664 0.252,-0.31845 0.56,-0.56 0.50754,-0.39804 0.51886,-0.38672 0.12082,0.12082 -0.41804,0.53304 -0.68082,0.70255 -0.68082,0.43918 z M 405.92,102.72 c 0.68744,-0.704 1.32189,-1.28 1.40989,-1.28 0.088,0 -0.40245,0.576 -1.08989,1.28 -0.68744,0.704 -1.32189,1.28 -1.40989,1.28 -0.088,0 0.40245,-0.576 1.08989,-1.28 z M 477.90494,101.36 476.64,100 478,101.26494 c 0.748,0.69572 1.36,1.30772 1.36,1.36 0,0.24211 -0.27867,-1.5e-4 -1.45506,-1.26494 z M 414.88,94.08 c 0.68744,-0.704 1.32189,-1.28 1.40989,-1.28 0.088,0 -0.40245,0.576 -1.08989,1.28 -0.68744,0.704 -1.32189,1.28 -1.40989,1.28 -0.088,0 0.40245,-0.576 1.08989,-1.28 z m 54.24,-1.12 c -0.77729,-0.792 -1.34125,-1.44 -1.25325,-1.44 0.088,0 0.79596,0.648 1.57325,1.44 0.77729,0.792 1.34125,1.44 1.25325,1.44 -0.088,0 -0.79596,-0.648 -1.57325,-1.44 z m 64.96,-0.600818 c 0,-0.06645 0.252,-0.318449 0.56,-0.56 0.50754,-0.398038 0.51886,-0.38672 0.12082,0.120818 -0.41804,0.533039 -0.68082,0.702553 -0.68082,0.439182 z M 611.79918,88.08 c -0.39804,-0.507538 -0.38672,-0.518856 0.12082,-0.120818 0.53304,0.418039 0.70255,0.680818 0.43918,0.680818 -0.0665,0 -0.31845,-0.252 -0.56,-0.56 z M 423.52,85.76 c 0.68744,-0.704 1.32189,-1.28 1.40989,-1.28 0.088,0 -0.40245,0.576 -1.08989,1.28 -0.68744,0.704 -1.32189,1.28 -1.40989,1.28 -0.088,0 0.40245,-0.576 1.08989,-1.28 z m 36.78494,-1.36 -1.26494,-1.36 1.36,1.264943 c 0.748,0.695719 1.36,1.307719 1.36,1.36 0,0.242105 -0.27867,-1.57e-4 -1.45506,-1.264943 z"
         id="path10" />
      <path
         style="fill:#153658"
         d="m 568.64,176.60535 c -8.68209,-0.9826 -17.18569,-4.09407 -24.53638,-8.97787 -4.57866,-3.04207 -11.01017,-9.41392 -13.83581,-13.70748 -8.69433,-13.21103 -10.82421,-29.1715 -5.91436,-44.32 0.45635,-1.408 1.67841,-4.288 2.71568,-6.4 7.42936,-15.127059 22.21737,-25.527531 40.01194,-28.140571 4.28943,-0.629881 11.88059,-0.635271 16.26932,-0.01155 15.21857,2.162843 28.24354,10.119937 36.65369,22.392122 1.90602,2.781289 4.97483,9.083849 6.06663,12.459309 1.82333,5.63711 2.21514,8.43342 2.22234,15.86069 0.007,7.43275 -0.37408,10.15219 -2.22381,15.86069 -4.17583,12.88714 -14.23993,24.15223 -26.86924,30.07566 -9.12588,4.28024 -20.28167,6.07225 -30.56,4.909 z m 13.3551,-25.26456 c 7.10924,-1.81823 12.9829,-6.6058 16.2691,-13.26079 2.19116,-4.43737 2.79579,-7.13635 2.79579,-12.48 0,-5.35427 -0.6081,-8.05973 -2.80509,-12.48 -4.54916,-9.15276 -14.00954,-14.450819 -24.6549,-13.807398 -6.78183,0.409904 -12.46898,2.936478 -17.05862,7.578458 -11.25636,11.38473 -9.4939,31.54344 3.54593,40.55787 6.44572,4.45593 14.26859,5.84564 21.90779,3.89186 z M 185.28,176.43269 c -8.71973,-1.30961 -14.50953,-4.01583 -19.7032,-9.20949 -5.15143,-5.15144 -8.33474,-11.86958 -9.94424,-20.98664 -0.55042,-3.11784 -0.59256,-5.63227 -0.59256,-35.35492 V 78.883279 l 13.44,-1.668054 c 7.392,-0.91743 13.836,-1.674167 14.32,-1.681639 l 0.88,-0.01359 0.0112,29.840004 c 0.0119,31.80167 0.0384,32.41043 1.58733,36.50375 1.52366,4.02647 5.09547,7.46221 9.28151,8.92794 1.75277,0.61373 2.73447,0.72831 6.24,0.72831 3.48691,0 4.49766,-0.11678 6.24688,-0.72176 5.58499,-1.93159 9.60482,-6.50807 11.20208,-12.75327 0.60467,-2.36422 0.63104,-3.64857 0.63104,-30.73006 V 79.052193 L 219.6,78.89557 C 220.76161,78.642881 246.27427,75.52 247.17702,75.52 H 248 v 49.44 49.44 h -14.08 -14.08 v -4.99669 -4.99669 l -2.05649,1.92374 c -5.64257,5.27835 -12.36495,8.57329 -20.02351,9.81441 -2.74619,0.44504 -10.27704,0.61878 -12.48,0.28792 z M 14.203655,168.56 c 1.454902,-3.036 17.307659,-36.228 35.228347,-73.76 17.920689,-37.532 32.670717,-68.24 32.77784,-68.24 0.146408,0 70.155928,145.80629 70.696828,147.23772 0.0607,0.16067 -6.70434,0.28228 -15.70318,0.28228 h -15.80985 l -6.85301,-15.84 -6.85302,-15.84 H 82.205285 56.722955 l -6.841477,15.83892 -6.841478,15.83892 -15.740811,0.001 -15.740812,10e-4 z M 96.96,117.77086 C 96.96,117.37245 82.607277,84.079277 82.305373,83.777373 82.080073,83.552073 67.52,116.95301 67.52,117.69515 c 0,0.29422 3.466364,0.38485 14.72,0.38485 9.255303,0 14.72,-0.11477 14.72,-0.30914 z m 163.33564,55.5014 c 0.29109,-0.44425 8.08168,-11.68826 17.31243,-24.98668 l 16.78318,-24.17895 -16.07562,-23.23156 C 269.47403,88.097718 262.192,77.525727 262.13333,77.381759 262.07467,77.237792 268.9942,77.12 277.51008,77.12 h 15.48342 l 9.06836,14.08 c 4.98759,7.744 9.15606,14.07724 9.26325,14.07387 0.10719,-0.003 4.22655,-6.339379 9.15414,-14.080005 L 329.4385,77.12 h 15.44075 c 8.49241,0 15.44075,0.0671 15.44075,0.149114 0,0.126314 -25.4517,37.036646 -30.59468,44.368726 l -1.70998,2.43785 17.29304,24.92215 17.29304,24.92216 -15.46071,0.0833 c -8.50339,0.0458 -15.60471,0.0261 -15.78071,-0.0437 -0.176,-0.0699 -4.712,-7.04816 -10.08,-15.50729 -5.368,-8.45913 -9.832,-15.38683 -9.92,-15.39488 -0.088,-0.008 -4.6102,6.96874 -10.04934,15.50397 L 291.42133,174.08 H 275.59386 259.76639 Z M 375.68,124.70297 V 75.325937 l 16.4,2.025382 c 9.02,1.11396 20.74943,2.561624 26.06539,3.217031 l 9.6654,1.19165 -11.4943,11.04 -11.49429,11.04 -0.0911,31.84 -0.0911,31.84 -0.86721,1.64411 c -0.47696,0.90426 -1.46575,2.15645 -2.1973,2.78263 -2.39489,2.04994 -2.98358,2.13326 -15.07249,2.13326 H 375.68 Z M 428.16,98.72 c 0,-41.448 0.0598,-75.36 0.13285,-75.36 0.0731,0 6.53292,-0.792 14.35522,-1.76 7.8223,-0.968 14.31452,-1.76 14.42715,-1.76 0.11263,0 0.20478,34.704 0.20478,77.12 v 77.12 h -14.56 -14.56 z m 58.36331,74.84251 c -1.92364,-0.68223 -3.79884,-2.4435 -4.82381,-4.53075 L 480.8,167.2 480.714,135.51224 480.628,103.82447 469.15792,92.792235 C 458.99892,83.02104 457.7834,81.748545 458.52392,81.659785 458.98376,81.604666 470.7,80.158517 484.56,78.44612 l 25.2,-3.113449 V 124.70634 174.08 l -10.96,-0.0253 c -8.74169,-0.0202 -11.2265,-0.11978 -12.27669,-0.49223 z"
         id="path9" />
    </g>
  </g>
</svg>
