<svg xmlns="http://www.w3.org/2000/svg" width="617.2" height="216.2" viewBox="0 0 617.2 216.2"><path d="M388.2 224.4a53 53 0 0 0-.4-11.9q.3 0 .5.4l.1 11.7V236ZM526 235.1l-.6-.7.7.6q1 .8.6.8zm-57-11.1c0-6.2 0-8.8.1-5.7zm-111 0a386.2 386.2 0 0 1 0 0m115.5 6.6a54.7 54.7 0 0 1 0 0m34.3-7v-6zM384 232.1l-.6-.7.7.6q1.1.9.6.9zm-133.5-.7h1.2l-.6.1q-1 0-.6-.1M105 231h1q.3.2-.6.2t-.4-.2m25.8 0h.8q.2.2-.4.2t-.4-.2m54.7 0h.8q.3.2-.4.2t-.4-.2m26 0h.6q0 .2-.4.2-.6 0-.2-.2m62.8 0h1q.3.2-.6.2t-.4-.2m25.8 0h.8q.3.2-.4.2t-.4-.2m220.7-.8-.6-.7zq1 .8.6.8zm-223.6-.5q-.6-.8.2 0 .8.5.4.6zm81.8-2.4-.6-.7.7.6q1 .9.6.9zm-87.4-.2q0-.6.1-.4.2.4 0 .8zm-169.2-6.9v-3.6zM296 220c0-5.3-.2-7-.5-7.2q-.5-.2 0-.2t.6.4V227zm219.2 5.3-.6-.7.7.6q1.1.9.6.8zm26.2.5 3.4-.1.1-1.9.2-1.8v3.9H538zM117.2 224q0-1.2.1-.7v1.4zm169.3 0q0-1 .1-.6v1.2zm234.3.2-.6-.7zq1 .9.6.9zm-186.3-.2q0-.7.1-.4.2.4 0 .8zm-88.1-.6q-.6-.8 0 0 .6.3.6.5t-.6-.5m227-3.2a35.6 35.6 0 0 1 0 0m-94.2 1.3q-.6-.7 0-.1.6.4.6.6 0 .3-.6-.5m136.6-1.9q-.6-.7.1-.1l.6.5q0 .4-.7-.4m-325.1-1q-.6-.7.1 0l.6.5q0 .3-.7-.5m183.5-1.7-.6-.7.7.6q1 .8.6.8zM226 217h3q1.2.2-1.5.2-2.6 0-1.5-.2m10 0c2.3-.2 4.9-.2 4.8 0s-1.4.3-3 .2q-2.4 0-1.8-.1m252.7 0h3q1.2.2-1.5.2-2.6 0-1.5-.2m10.6 0h2.9q1 .2-1.6.2-2.4 0-1.3-.2m-312.8-.3h.6q.2.3-.4.2t-.2-.2m159.5 0h1.1q.4.2-.5.2-1.1 0-.6-.2m86.2 0h1.3q.4.2-.7.2t-.6-.2m78.6-1.7-.6-.8.8.6q.9.9.6.9zm54.3.1q-.6-.7.1-.1l.6.6q0 .3-.7-.5m8.6-38c1-.1 2.4-.1 3.2 0h-3.2m-386.9-.4h.8q.3.2-.4.2t-.4-.2m7 0h.8q.3.2-.4.2t-.4-.2m374.8 0h.6q.2.3-.4.2t-.2-.2m-349-2.4a61 61 0 0 1 0-9.5c.1 0 .2 2.2.2 4.8v4.8h14.4l14.3.2H234c-11.2.1-14.3 0-14.4-.3M428 128.2V105zm29.4 0 .1-46.3q.4.1 1.6 1.4l1.2 1.3-1.3-1.2-1.4-1.3v46.2l-.2 46.3zm52.5-3.4a8932.4 8932.4 0 0 1 0 0m-134.4-.2c0-27.2 0-38.4.1-24.9zM216.3 168l.6-.6q.7-.6.1.1-.7.8-.7.5m-52.5-2q-.6-.8.1-.2l.6.6q0 .3-.7-.5M405 135.1v-15.6zm75.5-.3v-15.4zM610.2 165l.6-.6q.7-.6.1.2t-.7.4m-74.2-3.6-1.1-1.2 1.2 1q1.5 1.4 1 1.4zm77.1 1 1-1 1.1-1-1 1.1q-1.1 1.4-1 1m-414.5-11h.8q.3.3-.4.2t-.4-.1m3.6 0h.6q.2.3-.4.3t-.2-.2m11-4.7 1.2-1.1-1 1.1-1.2 1.1q0-.1 1-1m-58.5-37.6a3283.8 3283.8 0 0 1 0 0m63.9 25.1q0-.6.2-.2v.6q-.2.2-.2-.4m303-3.5q0-.6.2-.2v.6q-.2.2-.2-.4m107-5q0-2.8.1-1.6v3.3c0 1-.1.2-.1-1.6m-79.4-.1q0-2 .2-1v2.2q-.2.7-.2-1.2m-27.6-4.8q0-.6.2-.2v.6q-.2.2-.2-.4m35-14 1.4-1.2-1 1.3-1.4 1.3zm36.8 0-1.2-1.4 1.3 1.3 1.4 1.4q.1.5-1.5-1.3m-185.2-6q1.4-1.5 1.7-1.6l-1.4 1.6-1.8 1.6zm67.5-1.4-1.6-1.6zc1.5 1.5 1.8 1.8 1.5 1.8 0 0-.8-.7-1.6-1.7m99.3-.1h.6q.2.2-.4.2t-.2-.2m-158.2-6.8 1.7-1.6-1.4 1.6q-1.4 1.5-1.7 1.6zM467 91l-1.6-1.7 1.7 1.6 1.7 1.7c0 .2-.3 0-1.8-1.6m67.4.7 2-2 1.8-1.8q-.1.3-1.9 2c-1 1.1-1.9 2-1.9 1.8m79.3-2.1-1.7-1.9 1.8 1.8c1.7 1.6 2 2 1.8 2zM425.6 84l1.9-1.8-1.6 1.8-1.9 1.8zm2.3-31.4c0-16 0-29.3.2-29.4s.2 20.3 0 48zm29.4-2V19.9c.2.1.3 14.1.2 31.1v30.9Zm8.9 29.8h.6q.2.3-.4.2t-.2-.2m2.5-.3h.7q0 .2-.5.2t-.2-.2m-55-.3h.6q.2.2-.4.2t-.2-.2m57.6 0h.6q.2.2-.4.2t-.2-.2m-60.2-.3h.7q0 .1-.5.2-.5 0-.2-.2m81-2.3h.6q.2.3-.4.2t-.2-.2M390.3 77h.7q0 .2-.5.2t-.2-.2m104.4 0h.6q0 .2-.4.2-.6 0-.2-.2m-107-.3h.7q.2.2-.4.2t-.2-.2M174 76.3h.6q.2.1-.4.2-.6 0-.2-.2m211.2 0h.6q.2.1-.4.2-.5 0-.2-.2m-208.6-.4h.6q.2.3-.4.2t-.2-.2m2.5-.3h.7q0 .3-.5.2t-.2-.2m2.6-.3h.6q.2.2-.4.2t-.2-.2m64.3 0h.6q.2.2-.4.2t-.2-.2m324.8-1h.8q.3.2-.4.2t-.4-.2m8 0h.8q.3.2-.4.2t-.4-.2M482.4 55l-.6-.8.7.6q1 .9.6.9zm-5-10.8q0-.8.3-.4v.8q-.2.3-.2-.4M372.7 43q0-1.1.1-.5v1.3zm104.9-.8q0-.6.2-.4v.8q-.2.3-.2-.4m4.4-10.6.6-.6q.7-.6.1.1-.6.9-.7.5m-33.3-11h.6q.2.2-.4.2t-.2-.2m2.5-.3h.7q0 .1-.5.2-.5 0-.2-.2m2.6-.4h.6q.2.3-.4.2t-.2-.2" style="fill:#b1bcc7" transform="translate(-11.6 -19.8)"/><path d="m387.3 235.1-.6-.7.7.6q1.1.8.6.8zM527 224.3v-5.8zm-423 11h.7q0 .2-.5.2t-.2-.2m26 0h.7q.3.2-.4.2t-.4-.2m1.9 0h.8q.3.2-.4.2-.8 0-.4-.2m52.5 0h.6q0 .2-.4.2-.6 0-.2-.2m2.8 0h.7q0 .2-.5.2t-.2-.2m23.4 0h.6q.2.2-.4.2t-.2-.2m2 0h.5q.2.2-.4.2t-.2-.2m86.6 0h.8q.3.2-.4.2t-.4-.2m2 0h.7q.3.2-.4.2t-.4-.2m102.7 0h.6q.2.2-.4.2t-.2-.2m2.9 0h.6q0 .2-.4.2-.6 0-.2-.2M82.3 235l2.2-.1v-4.1l.2-4v4.2l.1 4.2h-2.3l-2.3-.1zm66.3 0 2.1-.1.1-4.6.1-4.5v9.2zh-2.2zm9.4 0h2.7-2.7m72.5-.2v-18l.1 9 .1 9 2.2.2h2.1l-2.1.1q-2.2 0-2.4-.3m87.3.2 2.2-.1v-4.6l.2-4.5v9.2h-4.5zm9.5 0h2.7-2.7m32.8 0 2.1-.1.1-11 .1-11V235zh-2.3zm9-11.4V212l.1 11.4V235h2.2l2.2.2h-2.3l-2.3.1zm60 11.4 2.2-.1.1-3.3.1-3.3.1 3.5v3.4h-2.2l-2.4-.1zm15.1 0h2.4-2.4m16.8 0h2.6-2.6m9 0h2.2-2.2m10.2 0h2.8-2.8m13-8.8v-9l.2 8.8v8.9h2.2l2.2.2h-2.4l-2.3.1zm16.6 8.8 2.2-.1v-6.5l.2-6.5V235h-4.5zm23.8-.2V213h6.2q6 0 6.3.3 0 .3-.1 0s-2.9-.2-6.2-.2h-6V235h12.6c-.1.2-3 .3-6.4.3-4.7 0-6.3-.1-6.4-.4m21 .2 2.2-.1v-4.6l.2-4.5v9.2h-4.5zm10.6 0q2.5-.2 2.3-.5-.2-.4.1-.1 1.5.8-2.2.7h-2.7zm-41-1.6-1.2-1.2 1.2 1q1.7 1.4 1.1 1.4zm-387.6.4 1-1 1.1-1-1 1q-1.1 1.5-1 1m-11.8-.8q-.6-.7 0 0 1 .5.5.6zm119.5.3v-.5q0-.1.3.3.2 1-.3.2m49.7-.3q-.6-.7.2 0l.5.5q0 .3-.7-.5m12.7 0q.6-.6.8-.7l-.5.7-.7.6zm106.2-5-.1-5.6h-4l-4.2-.2h4.1c3.1-.1 4.2 0 4.3.3v11.3zm-300 4.9q.1-.3 1.1-1l1-1-.9 1q-1.2 1.4-1.1 1m169.3 0 1-1 1.1-1-1 1q-1.1 1.4-1 1m55.7-.8-.8-.9.9.8.9.9q0 .4-1-.8m-71.9-.2-.6-.7.8.6q.9.9.6.8zm116.4-1.4-1.1-1.2 1.2 1 1.2 1.3q.1.4-1.3-1.1m-36.9.6h.7q0 .2-.5.2t-.2-.2m1.6 0h.7q0 .2-.5.2t-.2-.2M208.4 230l-.6-.7.8.6q.9.8.6.8zm6.2 0 .7-.6-.4.7-.8.6q0 0 .5-.6m-33.8-.8-.8-.9.9.8.9.9q0 .3-1-.8m10 0q.6-.7.8-.7l-.6.8-.9.8zm67.8.2q0-.6.2-.4v.8q-.2.3-.2-.4m260.3-1-1.3-1.4zq1.7 1.6 1.2 1.5zm-260.3-.4q0-.6.2-.2v.6q-.2.2-.2-.4m-118.7-.5q0-.7.2-.4v.8q-.2.3-.2-.4m169.4-7.2v-3.7zm-182.4-.1v-3.8zm250.4 5.5-1.1-1.2 1.2 1 1.2 1.3q.1.4-1.3-1.1M216 219.8a139.4 139.4 0 0 1 0 0m75.6.2v-3.3zm159.8 6.3c0-.1 1.1-.2 2.4-.2s2.4 0 2.4.2q-.1.3-2.4.3c-1.3 0-2.4-.1-2.4-.3m70.4-1q-.6-.7.1 0l.6.5q0 .3-.7-.4M197.5 224q0-1.6.2-.9v1.8q-.2.6-.2-.9m186.3-4.6c0-3.6 0-5 .1-3.3zM174.2 224q0-1.2.1-.7v1.4zm219.5 0q0-1.2.1-.7v1.4zm4.4.8q0-.6.2-.2v.6q-.2.2-.2-.4m83.2-.3q.7-.8.9-.8l-.6.8q-.6.7-1 .8zm-302.7-.5q0-1 .2-.6v1.2q-.2.4-.2-.6m14.4-.2q0-1.2.2-.5v1.3q-.2.4-.2-.8m238.5-3q0-3.5.1-2zm82 2.6-1-1.2 1.2 1.1 1.2 1.2q.1.5-1.3-1m-132.7-.3-1.1-1.2zl1.2 1.2q.1.5-1.3-1m-230 .5v-3.8l.1-3.3v3.6l.1 3.5 1 .2 1.1.1h-1q-1 0-1.2-.3m169.3 0v-7.1l.2 3.6v3.5l1 .2 1.1.1h-1q-1.1 0-1.3-.3m153.7.2h1.3l-.7.1q-1.1 0-.6-.1m83.1-.2v-7.1l.2 3.6v3.5l1 .2 1.1.1h-1q-1.1 0-1.3-.3m-158.8-.4q0-.6.2-.2v.6q-.2.2-.2-.4m119.3-2-1-1.2 1.1 1.1 1.2 1.2q.1.4-1.3-1.1m-75.5.4q0-.6.2-.2v.6q-.1.2-.2-.4m41.4-1.8q0-1 .1-.5v1.1zm-41.4-.1q0-.6.2-.2v.6q-.1 0-.2-.4m-66-1-1-1.3 1.2 1.1 1.2 1.2q.1.5-1.3-1m-265.4.1-.6-.7.7.6q1.1.8.6.8zm169.1-.2q-.6-.7.2 0l.5.5q0 .3-.7-.5m156.7-.8-.6-.7.7.6q1 .9.6.9zm76.3-1-1-1.3 1.1 1.1 1.2 1.2q.1.5-1.3-1m-116.8.4.6-.6q.7-.6.1.1-.6.8-.7.5m-282-1.3-1-1zq1 .7 1 1 .1.4-1-1m169.2 0-1-1 1.1 1q1.4 1.1 1 1-.3 0-1-1m-17 .1.8-.6q.2 0-.4.6t-.7.6.4-.6m71.8 0q.5-.6.7-.6l-.4.6q-.6.6-.8.6zm-241.2.2.6-.6q.7-.6.1.2t-.7.4m149.5-1.3.5-.5q.8-.6.2 0-.7 1-.7.5m124.8-1-1.1-1.3 1.2 1.1q1.5 1.4 1 1.3zm-130.9-.4c0-.3-2-.4-7.4-.5H225l7.4-.1c6.8-.1 8.4 0 7.7.7q-.2.3-.2-.1M86.7 213c.1-.1 1.3-.2 2.6-.1h2.4l-2.6.2zm-12.2-.1h2.7q1 0-1.4.1-2.3 0-1.3-.1m50 0h.5q.2.2-.4.2-.5 0-.2-.2m13 0h.7q0 .2-.5.2t-.2-.2m67.2 0h.7q0 .2-.5.2t-.2-.2m89 0h.6q.2.2-.4.2t-.2-.2m13.1 0h.6q.2.2-.4.2-.5 0-.2-.2m53.1 0h.7q0 .2-.5.2t-.2-.2m148.2-.3q-.6-.8.1-.2l.6.6q0 .3-.7-.4m16.3.3h.6q.2.2-.4.2-.5 0-.2-.2m-420.8-.3h.6q.2.2-.4.2-.5 0-.2-.2m169.3 0h.6q.2.2-.4.2t-.2-.2m75.2 0h.6q.2.2-.4.2t-.2-.2m55.7 0h.6q.2.2-.4.2t-.2-.2m-16-152.7h.6q.2.3-.4.2t-.2-.2m4.8 0h.6q.2.3-.4.2t-.2-.2m100.1 0h.7q0 .3-.5.2t-.2-.2m4.8 0h.7q0 .3-.5.2t-.2-.2m-94.3-5 1.2-1.1q0 .1-.9 1l-1.2 1.2zm105 0q.7-.8.9-.8l-.6.8q-.6.7-1 .8 0-.1.7-.8M408 44.9q0-.5.2-.2v.7q-.2 0-.2-.5m105-.3q0-.5.2-.2v.6q-.3.2-.2-.4m0-2.9q0-.5.2-.2v.7q-.3 0-.2-.5M403.2 31.1l-.8-.9zl.9.9q0 .3-1-.8M508 31l-.6-.8.7.6q1 .9.6.9zm-10.5-5h.7q0 .3-.5.2t-.2-.2" style="fill:#adcaa6" transform="translate(-11.6 -19.8)"/><path d="M103.2 235.2c-3.6-.6-6.8-3.1-8.4-6.7a9 9 0 0 1-.9-4.5c0-2.4.1-3 1-4.9a11 11 0 0 1 10.5-6.4c4.7 0 8.7 2.4 10.7 6.5.8 1.5.9 2.1.9 4.8s-.1 3.3-1 4.9a12 12 0 0 1-12.8 6.3m4.3-4.2c3-.8 5.1-3.6 5.1-7 0-6.7-7.5-9.9-12.2-5.2a7 7 0 0 0 0 10.3q3.1 3 7 2m22 4.2a8 8 0 0 1-6.5-5.4c-.3-1.1-.4-3-.4-9V213h.8c.5 0 1.5 0 2.1-.2l1.2-.2v7.3c0 7 0 7.5.7 8.8 1.7 3.4 6 3.3 7.8 0 .4-.7.5-2.6.5-8.3v-7.4h.7q1 0 2.3-.2l1.5-.2-.1 8c-.2 9-.3 9.6-2.4 12q-3 3.2-8.1 2.5m53.9-.1q-5.3-1.2-7.7-5.7c-1.1-2-1.1-2.2-1.1-5.4 0-2.9 0-3.6.7-4.8q1.6-3.5 5.4-5.3a9 9 0 0 1 5.2-1.2c2.6 0 3 0 5.2 1.2 4.3 2 6 4.9 6.3 9.7.1 3 0 3-1 5.4a11 11 0 0 1-8.4 6.2 8 8 0 0 1-4.6-.1m6.1-4.8a7.3 7.3 0 1 0-8.2-12 7 7 0 0 0-2.5 5.7c0 1.9 0 2.4.9 3.7.5.8 1.3 1.8 1.8 2.1a8 8 0 0 0 8 .5m20.3 4.9a8 8 0 0 1-6.6-6.4c-.2-1-.3-4.8-.3-8.7v-7h.7q1 0 2.3-.2l1.5-.2v7.7c0 6.6 0 7.7.5 8.7 1.5 3 6 3 7.7 0 .5-1 .6-2.2.7-8.5 0-6.9.1-7.5.6-7.5q.8 0 2.1-.2l1.5-.2v7.5c0 8.3-.2 9.7-2 12-1.6 2.3-5.2 3.5-8.7 3m39-.1c-.9-.2-2.2-.7-3-1.1-1.4-.8-1.5-1-1-3.5l.2-1.4 1 .8c1.5 1 4 1.8 5.2 1.8s2.7-.8 3-1.5q1.2-3-3-4.4-5.8-2-6.2-5.8c-.7-4 2.4-7.3 6.8-7.3 2 0 5.6.8 6 1.4.1.2-.4 3.5-.6 3.7q-.4 0-1.9-.7c-2.3-1-4.5-1-5.6 0-1.6 1.7-.6 3.6 2.6 4.6q6.4 2 6.3 7 0 4.1-3.7 6c-1.5.7-4.2.9-6.1.4m23.5 0c-3.6-.7-6.6-3.1-8.2-6.6a9 9 0 0 1-.9-4.5c0-2.4.1-3 1-4.9 1.3-2.6 3.6-4.7 6.1-5.7 2.6-1 6.3-1 8.8 0 2.4 1 5.1 3.4 6.2 5.7.8 1.6 1 2.2 1 4.9s-.2 3.3-1 4.9a13 13 0 0 1-6 5.6c-2.2.8-5 1-7 .7m5.7-4.5c6.4-3.3 4.5-13.3-2.6-13.9q-3.1-.3-5.4 1.8-3.4 3.1-2.1 7.9a9 9 0 0 0 4.4 4.6c1.4.4 4.4.3 5.7-.4m20.9 4.6-2.3-.6a9 9 0 0 1-3.9-3.7c-.7-1.2-.7-1.8-.8-9.5l-.1-8.3h.9q1 0 2-.2l1.3-.2v7.9c.2 7.3.2 7.9.8 8.7.8 1.2 2.6 2 3.9 2s3-1.1 3.7-2.5c.5-1 .6-2.1.6-8.4v-7.3h.8c.5 0 1.5 0 2.1-.2l1.2-.2v8a56 56 0 0 1-.4 9.2 9 9 0 0 1-5 4.9c-2.2.6-3.3.6-4.8.4m45.2 0c-6.8-1.4-10.8-8-8.9-14.4 1.5-5 5.7-8 11-8.1 2.3 0 5.3.5 5.6 1q.1.5-.2 2.2l-.3 2-1.6-.7q-4.7-1.5-8 1.3a7.2 7.2 0 0 0 1.5 12 9 9 0 0 0 7 0l1.4-.7.3 2c.2 1 .3 2 .2 2.2a13 13 0 0 1-8 1.2m36.7-6.4-7.2-6.7v6.4l-.2 6.4h-4.1v-22.5l1.2 1c5.6 5.5 13 12.2 13.2 12.2s.3-2.8.3-6.2v-6.2l2-.2 2-.1v22.7Zm22 6.3q-5.2-1.3-7.8-6c-.8-1.6-1-2-1-5.1s.2-3.5 1-5a12.3 12.3 0 0 1 16.7-5c.1.3-.4 3.6-.6 3.8l-1.8-.5c-5.7-2.2-11 1-11 6.7 0 4.4 3 7.4 7.6 7.4l2.2-.4c.8-.2.9-.4.9-2.7V226H404l.2-1.2.2-1.7c0-.5.4-.6 4.1-.6h4.2v11.1l-1.5.7a22 22 0 0 1-6.2 1.3zm116.6-6.4-7.2-6.8-.1 6.5-.1 6.5h-4.2v-11.2c0-6.2.1-11.2.2-11.2l7.3 6.7 7.1 6.6v-6.3l.2-6.3 2-.2c1-.1 2-.2 2 0v22.5zm-439 2v-4.1l-3.4-6.8-3.4-6.7h4.7l2 4.3c1 2.3 2 4.2 2.2 4.3.1 0 1.1-1.8 2.2-4.2l1.9-4.2 2.5-.1 2.4-.1-3.5 7-3.5 7v7.8h-4.1Zm66.2-6.7v-10.9h4c2.3 0 4.6.2 5.3.3 5.7 1.6 6.7 9 1.7 12l-1.7 1 2.6 3.7c3.6 5.3 3.6 4.8.6 4.8h-2.5l-2.7-4.4-3-4.5a18 18 0 0 0-.2 4.4v4.5h-4.1zm7-.3c1.7-.5 2.9-2 2.9-3.6 0-1-.2-1.5-1.1-2.4-1-1-1.3-1-2.9-1h-1.8v3.4c0 2 .1 3.6.2 3.7q.6.4 2.8-.1m77.1 2.2v-9h-5.9l.3-1.4.2-2c0-.3 1.3-.4 7.3-.4 8.2 0 7.5-.2 7.9 2.5l.2 1.4h-5.8v17.9h-4.1zm85.1-1.9v-10.9h4.1c2.3 0 4.6.2 5.3.3 3 .9 4.8 3.3 4.8 6.4q-.1 4.5-4 6.1l-1 .3 2.8 4 2.9 4.3q.4.4-2.3.4H326l-2.7-4.4-3-4.5s-.2 2-.2 4.4v4.5h-4.2zm7.1-.3c2.7-.8 3.7-3.8 2-5.8-.9-1-1.2-1-3-1.2l-1.9-.1v3.5c0 1.9.1 3.6.2 3.7q.6.4 2.7-.1m35.2.3v-10.9h.9c.4 0 1.4 0 2-.2l1.2-.2v22.1h-4.1zm69.1 0v-11l4.7.2c5.2.1 6.3.4 8.2 2.4a8 8 0 0 1 1.5 7.9c-1 2.9-4 4.7-7.9 5h-2.3v6.4h-4.2zm9.3-.5q1-1 1.2-2.4c.2-2.7-2-4.6-4.9-4.4l-1.3.1v4l-.2 4 2.1-.2c1.9-.1 2.3-.3 3.1-1.1m6.7 11.3 10.6-22.2q.1-.2 9.1 18.7l1.7 3.6H460l-1-2.3-1-2.4h-8.1l-1 2.4-1 2.3h-2.3zm13.1-8.5-1.2-2.8-1.3-2.5-1 2c-1.6 3.8-1.7 3.6 1.1 3.6 1.3 0 2.4-.1 2.4-.3m12.8-2.3v-11l4.8.2c4.6 0 4.8.1 6.3 1a7 7 0 0 1 2.6 8.3c-.6 1.2-2.3 3-3.5 3.4q-1 .3-.7.7l3 4.4 2.6 3.9h-5.1l-2.8-4.6-2.9-4.5v4.5l-.1 4.6h-4.1Zm7-.3c2.3-.7 3.4-2.8 2.6-4.9q-1-2-3.9-2.2h-1.5v7.4h.9zm17.3 2.3-.1-8.9h-3l-2.8-.2.3-1.9.3-1.9h14.6l.2 1 .3 1.9.2 1h-5.8v17.9h-4.1zm40.4-2v-10.9h6c6.7 0 6.2-.2 6.6 2.3l.2 1.2h-8.7v5.2h7.1v3.8h-7.1v5.4h9l-.2 1.6-.3 1.9c-.1.3-1.7.4-6.4.4h-6.2Zm18.8 0v-11l4.8.2c4 0 4.8.2 6 .8 2.7 1.4 4 4.5 3.3 7.3a6 6 0 0 1-3 4.2q-1.3.7-1.5 1l2.5 3.9 2.8 4q.4.6-2.3.5h-2.5l-2.6-4.3-3-4.5a14 14 0 0 0-.3 4.3v4.5h-4.2zm8.3-.8q1.6-.8 1.7-3.2c0-1-.3-1.4-1.1-2.3-1-1-1.3-1-3-1h-1.7v3.4c0 2 .1 3.6.2 3.7.4.4 2.8 0 3.9-.6M386.6 59.7c-8-1.8-13.8-8.7-13.8-16.4 0-13 13.8-21.3 25.8-15.4 3 1.4 6.4 4.8 7.8 7.6.5 1.2 1.2 3.2 1.5 4.6a17 17 0 0 1-11.7 19 21 21 0 0 1-9.6.6m106.2.3a18 18 0 0 1-14.6-12.8c-3.6-14 11.6-25.9 25-19.4 6.3 3 9.8 8.5 9.8 15.2a17 17 0 0 1-12.5 16.4c-1.5.5-6.3.8-7.7.6" style="fill:#9abe93" transform="translate(-11.6 -19.8)"/><path d="M188 176.7h.9q.3.2-.4.2t-.4-.2m4.4 0h1q.3.2-.6.2t-.4-.2m55.8-51.9V99.9zM483 171.4l-.6-.7.7.6q1 .9.6.9zm-317.6-4-1-1.2 1.1 1.1q1.6 1.4 1.1 1.3zm52.8-1.5 1-.8-.6.8-1 .8zm-34.4-61.1a3106.6 3106.6 0 0 1 0 0m337.8 25q0-.6.2-.3v.7q-.2 0-.2-.5m79.5-4.2v-.7q.3.9 0 1.6zm-79.5-3.9q0-.5.2-.2v.7q-.2 0-.2-.5m52-22.4h.9q.3.2-.4.2t-.4-.2m2.5 0h1q.3.2-.6.2t-.4-.2m-166.2-.2 1-1 1.1-1-1 1q-1.1 1.4-1 1m63.2-2.2-1-1 1.1.9q1.4 1.2 1 1.1t-1.1-1m-54.5-6.1 1-1 1-1-.9 1q-1.2 1.4-1.1 1m45.9-2.2-1-1 1 .9q1.4 1.2 1 1.1zm107.9-14.3h.8q.3.2-.4.2t-.4-.2m5 0h1q.1.2-.6.2-.9 0-.4-.2" style="fill:#778b9e" transform="translate(-11.6 -19.8)"/><path d="M189.8 176.7h1.6q.5.2-.8.2t-.8-.2m146.8-2.5a438 438 0 0 1 26.3 0s-7.2.2-16 .1c-8.7 0-13.3 0-10.3-.1m238.4-22q.3-.3.8 0h-.8m18.3-7.4.9-.8-.6.8q-.6.7-1 .8zm-36.7-.2-.6-.8.7.6q1 .9.6.9zm-372.9-9.7q0-.6.2-.2v.6q-.2 0-.2-.4m338-12.2q0-.6.1-.2v.6q-.2.2-.2-.4m-41.9-19.4-.6-.7.7.6q1 .8.6.8zm-68-6.1 1-1 1.1-1-1 1q-1.1 1.4-1 1m59.5-2-.7-1 .8.8 1 .9q0 .3-1-.8m-50.8-6.3q0-.3 1-1l1-1-.9 1q-1.2 1.4-1.1 1m42-2.3-.9-1 1 1q1.4 1.1 1 1zm111.8-12.3h2q.6.2-1.1.2-1.6 0-.9-.2" style="fill:#556c85" transform="translate(-11.6 -19.8)"/><path d="m536.1 161.2-1.9-2 2 2 2 2c0 .1-.3-.1-2-2m77.7.2 1.9-1.7-1.6 1.7-2 1.8zm-40.1-9.3h.8q.3.2-.4.2t-.4-.2m2.6 0h.6q0 .2-.4.2-.6 0-.2-.2m-387.7-5-1-1 1.1 1q1 .7 1 1 .1.4-1-1m24.5 0 .6-.6q.7-.6.1.1-.7.8-.7.5m344.6-1.4q-.6-.7.1-.1.9.6.5.6zm-2.2-2.3q-.6-.7.1 0 .8.5.4.6zM521.7 128q0-.7.1-.4.1.4 0 .8zm0-4.3q0-.6.1-.2v.6q-.2 0-.2-.4m34.5-16.6.5-.6q.7-.6.1.1-.6.8-.6.5m-150.3-4.4 1.4-1.3-1 1.3-1.5 1.3zm72-1.3-1.3-1.4 1.4 1.3 1.4 1.3q.1.5-1.5-1.2m-63-7.3 1.4-1.3-1.1 1.3-1.4 1.3zM469 93l-1.2-1.5 1.5 1.5 1.3 1.4zm65-.6q0-.2.5-.6.8-.6.2.1-.7.8-.7.5m77.7-4.3q-.6-.7.1-.1.9.6.5.6-.2 0-.6-.5m-188.3-2.3 1.4-1.3-1 1.3-1.5 1.2zm36.8-1.4L459 83zl1.4 1.4q.1.5-1.5-1.3" style="fill:#2d4a69" transform="translate(-11.6 -19.8)"/><path d="M568.6 176.6a56 56 0 0 1-24.5-9 60 60 0 0 1-13.8-13.7 51 51 0 0 1-3.2-50.7 52 52 0 0 1 40-28.1c4.3-.7 11.9-.7 16.3 0A53 53 0 0 1 620 97.3c2 2.8 5 9.1 6 12.5a42 42 0 0 1 2.3 15.9c0 7.4-.4 10.1-2.2 15.8a52 52 0 0 1-26.9 30.1c-9.1 4.3-20.3 6-30.6 5m13.4-25.3a25 25 0 0 0 16.3-13.2c2.2-4.5 2.8-7.2 2.8-12.5 0-5.4-.6-8-2.8-12.5a25 25 0 0 0-24.7-13.8q-10.2.7-17 7.6a27.2 27.2 0 0 0 3.5 40.5 27 27 0 0 0 21.9 4m-396.7 25.1c-8.7-1.3-14.5-4-19.7-9.2a38 38 0 0 1-10-21c-.5-3-.6-5.6-.6-35.3v-32l13.5-1.7 14.3-1.7h.9v29.9c0 31.8 0 32.4 1.6 36.5 1.5 4 5 7.4 9.3 8.9 1.7.6 2.7.7 6.2.7a16 16 0 0 0 6.2-.7c5.6-2 9.7-6.5 11.2-12.8.7-2.3.7-3.6.7-30.7V79.1l.7-.2c1.2-.3 26.7-3.4 27.6-3.4h.8v98.9h-28.2v-10l-2 2a38 38 0 0 1-20 9.7c-2.8.5-10.3.7-12.5.3m-171.1-7.8 68-142c.2 0 70.2 145.8 70.7 147.2 0 .2-6.7.3-15.7.3h-15.8l-6.9-15.9-6.8-15.8h-51L50 158.2 43 174.1H11.6zM97 117.8c0-.4-14.4-33.7-14.7-34S67.5 117 67.5 117.7c0 .3 3.5.4 14.7.4 9.3 0 14.8-.1 14.8-.3m163.3 55.5 17.3-25 16.8-24.2-16-23.2c-9-12.8-16.2-23.4-16.3-23.5 0-.2 6.9-.3 15.4-.3H293l9 14.1 9.3 14c.1 0 4.3-6.3 9.2-14l9-14h30.8c0 .2-25.4 37.1-30.6 44.4l-1.7 2.5 17.3 24.9 17.3 25h-31.2c-.2-.1-4.8-7-10.1-15.5-5.4-8.5-9.9-15.4-10-15.4l-10 15.5-9.9 15.5h-31.6Zm115.4-48.6V75.3l16.4 2 26 3.3 9.7 1.2-11.5 11-11.5 11v31.9l-.2 31.8-.8 1.7c-.5.9-1.5 2.1-2.2 2.7-2.4 2.1-3 2.2-15.1 2.2h-10.8Zm52.5-26V23.4l28.9-3.6s.2 34.7.2 77.2v77h-29.1zm58.3 74.9c-1.9-.7-3.8-2.5-4.8-4.6l-.9-1.8v-31.7l-.2-31.7-11.4-11c-10.2-9.8-11.4-11-10.7-11.1l26-3.3 25.3-3V174h-11c-8.7 0-11.2-.2-12.3-.5" style="fill:#153658" transform="translate(-11.6 -19.8)"/></svg>