<svg xmlns="http://www.w3.org/2000/svg" width="1000" height="533" fill="none" viewBox="0 0 1000 533"><g clip-path="url(#awaam-pakistan_svg_a)"><path fill="#0054a6" d="M336 195.7a25 25 0 0 0-9.4 6 22 22 0 0 0-5.1 8.7 34 34 0 0 0-1.5 10v42.3h-38.4v-44q0-21.6 12.2-34.9a59 59 0 0 1 31.4-17.6 50 50 0 0 1-5-9 102 102 0 0 1-6.7-22.4q-1-5.7-1-10.3 0-32.5 15.9-51 15.8-18.4 46-18.4 30 0 46.5 18 16.5 17.7 16.4 51.6 0 33.9-16.4 51.3-16.5 17.5-46.5 17.5h-24q-8.6 0-14.3 2.2m15.9-56.3q.7 7 3 12.3 2.5 5.3 7 8.4 4.7 3 12.4 3.1 8 0 12.4-3.2t7-8.7q2.5-5.4 3-12.3a153 153 0 0 0 0-29.1q-.5-7-3-12.5t-7-8.8-12.4-3.4q-7.8 0-12.3 3.4a22 22 0 0 0-7 8.8 39 39 0 0 0-3.1 12.5 157 157 0 0 0 0 29.5M464.1 0h38.2v193.6h-38.2zM568 257.5a63 63 0 0 1-14.6-3.5v-29q5.4 2.1 10.2 3.2 4.9 1.2 10.5 1.1 13.1 0 20.6-7.8 7.5-8 10.6-28h-17.2q-13.4 0-24.3-4.7a53 53 0 0 1-18.6-13.2q-7.5-8.5-11.8-20.5a79 79 0 0 1-4.2-26.2q0-13.6 2.3-26.7a66 66 0 0 1 8.7-23.6q6.5-10.5 17.9-16.9a60 60 0 0 1 29.7-6.5q18.2 0 29.7 6.1t17.8 17.2a76 76 0 0 1 8.6 26.7 239 239 0 0 1 2.1 45.6l-.4 10.8h21q2.1 0 3.9.5t1.7 3.3v25.2q0 3-5.6 3h-24.2q-2.5 13.7-7 25.7t-12.1 20.5a53 53 0 0 1-18.7 13.4A66 66 0 0 1 578 258a86 86 0 0 1-10.3-.6zm.5-114.3q1 6.3 4.3 10.3t8.7 6a42 42 0 0 0 14.4 2.1h11.8a320 320 0 0 0 .6-22.7q0-12-.8-21.8a82 82 0 0 0-3-16.9 25 25 0 0 0-6.2-11q-4-3.9-10.5-3.9-6 0-9.8 3.8a28 28 0 0 0-6.3 10 57 57 0 0 0-3.4 14 127 127 0 0 0 0 30.1z"/><path fill="#0054a6" d="M751 160.6q-4.5-6.5-7.8-17.2a77 77 0 0 1-3.2-22.6c0-8 .8-16.4 2.6-24.3a55 55 0 0 1 9.1-21q6.6-9 17.8-14.7 11.1-5.5 28.3-5.5 14 0 23.5 4.2A41 41 0 0 1 837 71q6 7.5 9.1 18t4.2 23.3h-33.9q-.5-5.4-1.4-10.4-1-5.1-3.1-8.7a17 17 0 0 0-5.5-5.8q-3.3-2.2-8.5-2.2-6 0-9.8 2.7a19 19 0 0 0-6.2 7.5 38 38 0 0 0-3.3 11.2q-1 6.5-1 14 0 9.3 1.3 16.8 1.2 7.7 4.3 12.9a22 22 0 0 0 8.5 8.3q5.4 3 13.4 3h48.5v32h-187q-5.6 0-5.6-3v-25.3q0-2.7 1.8-3.2 1.6-.6 3.9-.6H751z"/><path fill="#3ab54a" d="M343.8 425q1.7.5 1.7 3.2v25.2q0 3-5.6 3h-31.6a26 26 0 0 1-26-26.2V262.8h38.2v161.6h19.4q2.1 0 3.9.6"/><path fill="#3ab54a" d="M334.2 453.4v-25.2q0-2.7 1.7-3.2 1.8-.6 4-.6h11a21 21 0 0 0 5.9-1 16 16 0 0 0 6-3.4 19 19 0 0 0 4.7-6.5q2-4 1.9-10.3v-67.7h38.2v62.3q0 7 2 12t5.2 8.3 7.5 4.8 8.2 1.4h9.4q2.1 0 3.9.6t1.7 3.2v25.2q0 3-5.6 3h-9.4a34 34 0 0 1-10.3-1.6 49 49 0 0 1-18.1-10.2 46 46 0 0 1-6.6-6.9 41 41 0 0 1-11 9.2 72 72 0 0 1-23.7 8.7q-5.7.9-10 .8h-11q-5.7 0-5.7-3z"/><path fill="#0054a6" d="M384.5 262.8h-30.7v30.9h30.7zM425 262.8h-30.8v30.9H425z"/><path fill="#3ab54a" d="M586.3 452.2a25 25 0 0 1-11.7-12.9h-1a41 41 0 0 1-14.3 13.6q-8 4.3-22.9 4.3-14.7 0-22.6-5t-11-12.9h-1q-.4 1.6-2.7 4.5a37 37 0 0 1-14.2 10.6q-4.7 2-9.8 2h-35.2q-5.7 0-5.7-3v-25.2q0-2.7 1.8-3.2 1.6-.6 3.9-.6h15q7 0 11-4.3 4.1-4.4 4.1-14.6v-69.9h38.2v71.2q0 10.4 4 14.6 4 4.5 14 4.4t12.8-4.4 2.8-14.6v-71.2H580v71.2q0 10.4 4.7 14.6 4.7 4.5 14.7 4.4 9.8 0 13.4-4.4 3.5-4.2 3.5-14.6v-71.2h38.2v69.9q0 10.2 4 14.6 4 4.3 11 4.3H692c1.4 0 19.5.2 20.7.6q1.7.5 1.7 3.2v25.2c0 2-18.7 3-22.4 3h-15.1q-3.8 0-8-1.2-4-1.2-8-3.4t-7-5.3q-3.1-3-4.7-7.2h-1q-6.3 9.3-14.9 13.6a53 53 0 0 1-23.6 4.3c-10 0-17.4-1.7-23.3-5"/><path fill="#3ab54a" d="M686.2 453.4v-25.2q0-2.7 1.7-3.2 1.8-.6 4-.6H815v-36q0-10.9-2.1-17.7a26 26 0 0 0-6.2-11 21 21 0 0 0-10.1-5.5 58 58 0 0 0-13.9-1.5h-62.1v-30l60.2-60h40.6l-59.4 60h20.4q37.5 0 54 14.8 16.8 15 16.8 48.2v54.6a16 16 0 0 1-16 16H691.8q-5.7 0-5.7-2.9M935.6 445.3q1.8.6 1.8 3.3v25.2q0 3-5.7 3h-40.2c-9.6 0-17.3-7.8-17.3-17.4V262.8h38.2v182h19.3q2.2 0 4 .5"/><path fill="#3ab54a" d="M926 473.8v-25.2q0-2.7 1.8-3.3t3.9-.5h30.1V335.6h38.2v123.7c0 9.6-7.7 17.4-17.3 17.4h-51q-5.7 0-5.7-3M107.1 486.6q47.9-.2 81.5-34a112 112 0 0 0 33.8-82.3c0-32-9.7-60.5-33-81.3a155 155 0 0 0-39-26.4 136 136 0 0 1 75.1 37.4 131 131 0 0 1 39.9 95.4q.1 55.5-39.1 95a128 128 0 0 1-94.2 39.4q-55.2 0-94.2-39.3A132 132 0 0 1 6.7 441q-2.2-6-6.7-27.1s5.3 17.6 26 39.2c20.2 21 49.3 33.5 81.2 33.4"/><path fill="#0054a6" d="m169.6 367.6-55.7 8.9-9 56.3-25.7-50.6-55.6 9 39.9-40.4-25.9-50.6L88 326l39.8-40.2-8.6 56.2zM912.5 499h-30.7v30.8h30.7zM953 499h-30.9v30.8h31zM992.4 499h-31v30.8h31zM303 484h9.4l19.8 47.8h-10.6l-4.3-10.6h-19.5l-4.2 10.6h-10.4zm10.7 28-6.2-15.4-6.2 15.4zM321 484.3h10.9l9.5 32.2 10.4-32.3h8.8l10.3 32.3 9.6-32.2h10.6l-15.8 47.9h-8.8L356 501l-10.5 31h-8.8l-15.8-47.8M399.8 484h9.4l19.8 47.8h-10.6l-4.2-10.6h-19.6l-4.2 10.6H380zm10.7 28-6.1-15.4-6.2 15.4zM450.7 484h9.4l19.9 47.8h-10.7l-4.2-10.6h-19.6l-4.2 10.6H431zm10.7 28-6.1-15.4L449 512zM483.1 484.3h11l12.2 20.1 12.1-20h11v47.4h-10.1v-31l-13 20.3h-.3l-12.9-20v30.8h-10z"/><path fill="#3ab54a" d="M551 484.3h18.9c11 0 17.7 6.7 17.7 16.4v.2c0 11-8.3 16.7-18.7 16.7H561v14.2H551zm18.2 24c5.1 0 8-3.2 8-7.2v-.2c0-4.7-3.1-7.2-8.2-7.2h-7.8v14.6zM599.8 484h9.3l19.9 47.8h-10.6l-4.3-10.6h-19.5l-4.2 10.6H580zm10.7 28-6.2-15.4-6.2 15.4zM632.2 484.3h10.2v20.8l18.8-20.8h12.3l-18.9 20.2 19.7 27.3h-12.2l-14.4-20.2-5.3 5.7v14.5h-10.2zM678.4 484.3h10.2v47.5h-10.2zM691.7 525l6-7.5a21 21 0 0 0 13.8 5.8q6.5-.2 6.7-4.5v-.1c0-2.7-1.6-4-9.3-6-9.3-2.5-15.3-5.2-15.3-14.6v-.2c0-8.6 6.7-14.3 16.2-14.3q10.1.2 17.2 6l-5.3 8q-6.2-4.6-12-4.8c-4 0-6 1.9-6 4.2v.1c0 3.2 2 4.2 10 6.3 9.4 2.5 14.7 6 14.7 14.2v.2c0 9.4-7 14.7-17 14.7-7 0-14.1-2.5-19.6-7.6zM745.4 494h-14.1v-9.7h38.3v9.6h-14v38h-10.2zM780 484h9.3l19.9 47.8h-10.7l-4.2-10.6h-19.5l-4.2 10.6h-10.4zm10.7 28-6.2-15.4-6.2 15.4zM812.4 484.3h9.4l21.6 29.3v-29.3h10v47.5h-8.6l-22.4-30.2v30.2h-10z"/></g><defs><clipPath id="awaam-pakistan_svg_a"><path fill="#fff" d="M0 0h1000v532.5H0z"/></clipPath></defs></svg>