<svg width="1000" height="533" viewBox="0 0 1000 533" fill="none" xmlns="http://www.w3.org/2000/svg">
<g clip-path="url(#clip0_282_3048)">
<path d="M336.011 195.748C332.159 197.188 329.005 199.182 326.584 201.694C324.163 204.242 322.475 207.123 321.485 210.373C320.494 213.623 320.017 216.947 320.017 220.382V262.745H281.574V218.757C281.574 204.316 285.646 192.682 293.826 183.818C301.97 174.954 312.424 169.119 325.153 166.201C323.356 163.689 321.705 160.661 320.164 157.115C318.623 153.606 317.303 149.95 316.129 146.146C314.955 142.342 314.075 138.575 313.451 134.77C312.828 130.966 312.498 127.568 312.498 124.466C312.498 102.786 317.78 85.8335 328.381 73.5715C338.946 61.3096 354.279 55.1417 374.381 55.1417C394.483 55.1417 409.963 61.088 420.894 73.0175C431.825 84.9471 437.291 102.158 437.291 124.724C437.291 147.291 431.825 164.391 420.894 176.025C409.963 187.659 394.446 193.495 374.381 193.495H350.464C344.741 193.495 339.936 194.233 336.084 195.674L336.011 195.748ZM351.894 139.424C352.335 144.115 353.362 148.214 354.976 151.723C356.59 155.232 358.901 158.039 361.982 160.107C365.063 162.175 369.135 163.209 374.344 163.209C379.553 163.209 383.661 162.138 386.706 159.959C389.751 157.78 392.098 154.899 393.712 151.317C395.326 147.697 396.354 143.598 396.794 138.981C397.234 134.364 397.454 129.526 397.454 124.503C397.454 119.48 397.234 114.568 396.794 109.877C396.354 105.187 395.326 101.05 393.712 97.4306C392.098 93.8111 389.751 90.8934 386.706 88.6404C383.661 86.3875 379.553 85.2425 374.344 85.2425C369.135 85.2425 365.027 86.3875 361.982 88.6404C358.937 90.8934 356.59 93.848 354.976 97.4306C353.362 101.05 352.335 105.187 351.894 109.877C351.454 114.568 351.234 119.443 351.234 124.503C351.234 129.563 351.454 134.697 351.894 139.387V139.424Z" fill="#0054A6"/>
<path d="M464.143 0H502.329V193.606H464.143V0Z" fill="#0054A6"/>
<path d="M567.917 257.501C564.873 257.131 562.268 256.688 560.104 256.134C557.609 255.395 555.372 254.694 553.391 253.955V224.999C556.986 226.439 560.397 227.511 563.625 228.249C566.853 228.988 570.338 229.32 574.117 229.32C582.92 229.32 589.743 226.698 594.695 221.453C599.611 216.209 603.169 206.939 605.333 193.569H588.129C579.179 193.569 571.035 191.98 563.809 188.841C556.582 185.702 550.346 181.27 545.247 175.582C540.149 169.894 536.187 163.098 533.399 155.121C530.611 147.143 529.217 138.427 529.217 128.861C529.217 119.849 529.988 110.948 531.492 102.195C533.032 93.4418 535.93 85.575 540.222 78.6315C544.514 71.688 550.493 66.0372 558.086 61.7159C565.716 57.3947 575.621 55.2156 587.799 55.2156C599.978 55.2156 609.882 57.247 617.512 61.3097C625.142 65.3724 631.048 71.0971 635.266 78.4838C639.485 85.8705 642.346 94.7714 643.887 105.15C645.427 115.528 646.161 127.125 646.161 139.941C646.161 143.561 646.124 147.143 646.014 150.763C645.904 154.382 645.794 158.002 645.611 161.584H666.593C668.024 161.584 669.307 161.769 670.481 162.138C671.655 162.508 672.242 163.579 672.242 165.388V190.577C672.242 192.571 670.371 193.569 666.593 193.569H642.383C640.769 202.765 638.421 211.334 635.376 219.311C632.332 227.252 628.297 234.085 623.271 239.772C618.246 245.46 612.01 249.929 604.563 253.179C597.116 256.429 588.313 258.055 578.078 258.055C574.3 258.055 570.925 257.87 567.844 257.501H567.917ZM568.467 143.228C569.201 147.365 570.632 150.8 572.759 153.496C574.924 156.192 577.822 158.223 581.49 159.59C585.158 160.956 589.963 161.621 595.869 161.621H607.718C607.901 158.186 608.048 154.567 608.121 150.8C608.195 146.995 608.268 143.044 608.268 138.907C608.268 130.966 608.011 123.69 607.461 117.116C606.911 110.542 605.92 104.891 604.49 100.201C603.059 95.5101 601.005 91.8537 598.29 89.2314C595.613 86.6091 592.091 85.3165 587.799 85.3165C583.837 85.3165 580.573 86.5722 577.968 89.1206C575.364 91.6321 573.273 94.993 571.659 99.1296C570.045 103.266 568.908 107.92 568.284 113.054C567.66 118.187 567.33 123.284 567.33 128.344C567.33 134.106 567.697 139.092 568.394 143.228H568.467Z" fill="#0054A6"/>
<path d="M751.036 160.587C747.991 156.266 745.387 150.504 743.223 143.376C741.058 136.248 739.995 128.713 739.995 120.773C739.995 112.832 740.838 104.374 742.562 96.5442C744.25 88.6774 747.294 81.697 751.696 75.566C756.098 69.435 762.004 64.5229 769.451 60.7926C776.897 57.0623 786.361 55.2526 797.806 55.2526C807.123 55.2526 814.973 56.656 821.32 59.463C827.702 62.2699 832.875 66.148 836.91 71.097C840.945 76.0461 843.989 82.0663 846.044 89.1206C848.098 96.1749 849.492 103.931 850.225 112.389H816.331C815.964 108.769 815.487 105.297 814.863 101.973C814.24 98.6495 813.213 95.7317 811.782 93.331C810.352 90.8934 808.517 88.9359 806.28 87.4955C804.042 86.0551 801.218 85.3164 797.806 85.3164C793.881 85.3164 790.58 86.2029 787.975 88.0126C785.371 89.8223 783.317 92.2969 781.776 95.4732C780.235 98.6494 779.171 102.38 778.548 106.701C777.924 111.022 777.594 115.713 777.594 120.773C777.594 126.904 777.998 132.517 778.805 137.54C779.612 142.6 781.042 146.885 783.096 150.393C785.151 153.902 787.975 156.672 791.57 158.666C795.165 160.661 799.64 161.658 805.033 161.658H853.453V193.606H666.556C662.778 193.606 660.907 192.608 660.907 190.614V165.425C660.907 163.616 661.494 162.544 662.668 162.175C663.842 161.806 665.126 161.621 666.556 161.621H750.999V160.55L751.036 160.587Z" fill="#0054A6"/>
<path d="M343.751 424.957C344.925 425.326 345.512 426.397 345.512 428.207V453.396C345.512 455.39 343.641 456.387 339.863 456.387H308.279C293.936 456.387 282.308 444.68 282.308 430.239V262.782H320.495V424.44H339.863C341.293 424.44 342.577 424.625 343.751 424.994V424.957Z" fill="#3AB54A"/>
<path d="M334.177 453.396V428.207C334.177 426.397 334.764 425.326 335.938 424.957C337.111 424.588 338.395 424.403 339.826 424.403H350.867C352.665 424.403 354.646 424.071 356.773 423.443C358.937 422.815 360.955 421.67 362.826 420.045C364.697 418.42 366.274 416.241 367.521 413.545C368.768 410.848 369.392 407.414 369.392 403.24V335.541H407.578V397.811C407.578 402.501 408.239 406.527 409.596 409.851C410.953 413.175 412.677 415.945 414.842 418.124C417.006 420.303 419.464 421.855 422.251 422.852C425.039 423.849 427.754 424.329 430.468 424.329H439.896C441.326 424.329 442.61 424.514 443.784 424.883C444.958 425.253 445.545 426.324 445.545 428.133V453.322C445.545 455.316 443.674 456.314 439.896 456.314H430.468C427.057 456.314 423.645 455.76 420.234 454.689C416.822 453.617 413.594 452.214 410.55 450.478C407.505 448.779 404.68 446.785 402.076 444.532C399.472 442.279 397.271 439.989 395.473 437.625C392.245 441.429 388.614 444.495 384.578 446.822C380.543 449.185 376.508 451.069 372.473 452.509C368.438 453.95 364.55 454.947 360.772 455.501C356.993 456.055 353.692 456.314 350.831 456.314H339.789C336.011 456.314 334.14 455.316 334.14 453.322L334.177 453.396Z" fill="#3AB54A"/>
<path d="M384.469 262.782H353.802V293.658H384.469V262.782Z" fill="#0054A6"/>
<path d="M425.076 262.782H394.153V293.658H425.076V262.782Z" fill="#0054A6"/>
<path d="M586.295 452.177C580.463 448.853 576.574 444.569 574.594 439.324H573.53C569.421 445.455 564.653 449.961 559.26 452.879C553.868 455.76 546.275 457.2 536.407 457.2C526.54 457.2 519.203 455.538 513.811 452.177C508.419 448.853 504.75 444.569 502.769 439.324H501.706C501.522 440.395 500.679 441.91 499.138 443.793C497.597 445.677 495.653 447.597 493.232 449.481C490.811 451.365 488.023 452.99 484.905 454.356C481.75 455.723 478.486 456.388 475.074 456.388H439.859C436.081 456.388 434.21 455.39 434.21 453.396V428.207C434.21 426.398 434.797 425.326 435.971 424.957C437.145 424.588 438.428 424.403 439.859 424.403H454.936C459.594 424.403 463.262 422.963 465.977 420.082C468.655 417.201 470.012 412.326 470.012 405.456V335.615H508.198V406.823C508.198 413.692 509.556 418.568 512.233 421.448C514.911 424.329 519.57 425.77 526.209 425.77C532.849 425.77 537.104 424.329 538.975 421.448C540.846 418.568 541.8 413.692 541.8 406.823V335.615H579.986V406.823C579.986 413.692 581.563 418.568 584.681 421.448C587.799 424.329 592.715 425.77 599.354 425.77C605.994 425.77 610.469 424.329 612.817 421.448C615.164 418.568 616.302 413.692 616.302 406.823V335.615H654.488V405.456C654.488 412.326 655.845 417.201 658.523 420.082C661.201 422.963 664.869 424.403 669.564 424.403H691.867C693.298 424.403 711.382 424.588 712.556 424.957C713.73 425.326 714.317 426.398 714.317 428.207V453.396C714.317 455.39 695.646 456.388 691.867 456.388H676.791C674.297 456.388 671.619 455.981 668.867 455.169C666.08 454.356 663.402 453.211 660.797 451.771C658.193 450.33 655.882 448.558 653.791 446.489C651.7 444.421 650.159 442.02 649.096 439.324H648.032C643.923 445.455 638.971 449.961 633.249 452.879C627.526 455.76 619.64 457.2 609.589 457.2C599.538 457.2 592.165 455.538 586.332 452.177H586.295Z" fill="#3AB54A"/>
<path d="M686.182 453.396V428.207C686.182 426.397 686.769 425.326 687.942 424.957C689.116 424.588 690.4 424.403 691.831 424.403H815.12V388.393C815.12 381.191 814.387 375.245 812.956 370.665C811.526 366.085 809.471 362.429 806.757 359.696C804.079 356.999 800.704 355.153 796.669 354.156C792.634 353.158 788.012 352.678 782.803 352.678H720.663V322.614L780.896 262.782H821.503L762.078 322.614H782.51C807.417 322.614 825.428 327.563 836.58 337.498C847.694 347.434 853.27 363.5 853.27 385.697V440.284C853.27 449.185 846.117 456.387 837.277 456.387H691.794C688.016 456.387 686.145 455.39 686.145 453.396H686.182Z" fill="#3AB54A"/>
<path d="M935.622 445.344C936.796 445.714 937.383 446.785 937.383 448.595V473.783C937.383 475.778 935.512 476.775 931.734 476.775H891.457C881.919 476.775 874.179 468.982 874.179 459.379V262.782H912.366V444.79H931.734C933.165 444.79 934.448 444.975 935.622 445.344Z" fill="#3AB54A"/>
<path d="M926.048 473.783V448.595C926.048 446.785 926.635 445.714 927.809 445.344C928.982 444.975 930.266 444.79 931.697 444.79H961.813V335.615H1000V459.342C1000 468.945 992.26 476.738 982.722 476.738H931.697C927.919 476.738 926.048 475.741 926.048 473.746V473.783Z" fill="#3AB54A"/>
<path d="M107.149 486.599C139.026 486.451 166.171 475.113 188.584 452.546C211.144 429.832 222.406 402.428 222.406 370.332C222.369 338.237 212.721 309.835 189.428 289.005C167.969 269.836 150.398 262.56 150.398 262.56C181.028 267.953 206.082 280.436 225.524 299.974C251.935 326.566 265.214 358.366 265.361 395.373C265.507 432.381 252.485 464.07 226.257 490.477C200.213 516.7 168.776 529.848 132.057 529.848C95.3009 529.848 63.9008 516.737 37.8562 490.477C23.7702 476.295 13.3523 459.859 6.67614 441.134C5.24553 437.108 3.0079 428.06 0.0366211 413.951C0.0366211 413.951 5.28221 431.605 26.0078 453.174C46.2198 474.19 75.309 486.71 107.186 486.562L107.149 486.599Z" fill="#3AB54A"/>
<path d="M169.62 367.562L113.862 376.5L104.985 432.787L79.1607 382.225L23.6235 391.274L63.4607 350.795L37.6362 300.233L88.0379 325.938L127.765 285.681L119.218 341.857L169.62 367.562Z" fill="#0054A6"/>
<path d="M912.476 498.972H881.809V529.848H912.476V498.972Z" fill="#0054A6"/>
<path d="M953.046 498.972H922.123V529.848H953.046V498.972Z" fill="#0054A6"/>
<path d="M992.37 498.972H961.446V529.848H992.37V498.972Z" fill="#0054A6"/>
<path d="M302.96 483.977H312.351L332.196 531.843H321.558L317.34 521.169H297.788L293.57 531.843H283.188L303.034 483.977H302.96ZM313.672 511.972L307.509 496.571L301.346 511.972H313.635H313.672Z" fill="#0054A6"/>
<path d="M320.971 484.309H331.866L341.44 516.515L351.821 484.198H360.552L370.933 516.515L380.507 484.309H391.145L375.335 532.175H366.458L356.003 501.077L345.549 532.175H336.671L320.861 484.309H320.971Z" fill="#0054A6"/>
<path d="M399.802 483.977H409.193L429.038 531.843H418.4L414.182 521.169H394.63L390.411 531.843H380.03L399.875 483.977H399.802ZM410.513 511.972L404.351 496.571L398.188 511.972H410.477H410.513Z" fill="#0054A6"/>
<path d="M450.717 483.977H460.108L479.953 531.843H469.315L465.097 521.169H445.545L441.326 531.843H430.945L450.79 483.977H450.717ZM461.428 511.972L455.266 496.571L449.103 511.972H461.392H461.428Z" fill="#0054A6"/>
<path d="M483.108 484.309H494.076L506.255 504.401L518.433 484.309H529.401V531.843H519.277V500.819L506.255 521.132H505.998L493.122 501.04V531.88H483.145V484.346L483.108 484.309Z" fill="#0054A6"/>
<path d="M550.97 484.309H569.862C580.903 484.309 587.579 491.031 587.579 500.745V500.892C587.579 511.899 579.252 517.586 568.871 517.586H561.131V531.843H550.97V484.309ZM569.201 508.279C574.3 508.279 577.272 505.14 577.272 501.077V500.929C577.272 496.239 574.08 493.727 569.018 493.727H561.168V508.279H569.238H569.201Z" fill="#3AB54A"/>
<path d="M599.758 483.977H609.149L628.994 531.843H618.356L614.138 521.169H594.586L590.367 531.843H579.986L599.832 483.977H599.758ZM610.469 511.972L604.307 496.571L598.144 511.972H610.433H610.469Z" fill="#3AB54A"/>
<path d="M632.185 484.309H642.383V505.103L661.164 484.309H673.453L654.598 504.475L674.297 531.843H662.081L647.738 511.603L642.383 517.291V531.806H632.185V484.272V484.309Z" fill="#3AB54A"/>
<path d="M678.368 484.309H688.566V531.843H678.368V484.309Z" fill="#3AB54A"/>
<path d="M691.684 524.936L697.7 517.549C701.882 521.095 706.247 523.311 711.529 523.311C715.674 523.311 718.205 521.612 718.205 518.842V518.694C718.205 516.035 716.628 514.706 708.888 512.637C699.571 510.2 693.555 507.54 693.555 498.085V497.938C693.555 489.332 700.304 483.608 709.769 483.608C716.518 483.608 722.277 485.787 726.973 489.665L721.69 497.531C717.582 494.614 713.547 492.841 709.659 492.841C705.77 492.841 703.716 494.688 703.716 496.977V497.125C703.716 500.265 705.697 501.262 713.694 503.367C723.084 505.878 728.367 509.35 728.367 517.623V517.771C728.367 527.226 721.36 532.507 711.383 532.507C704.376 532.507 697.297 529.996 691.757 524.899L691.684 524.936Z" fill="#3AB54A"/>
<path d="M745.351 493.949H731.265V484.309H769.598V493.949H755.512V531.843H745.351V493.949Z" fill="#3AB54A"/>
<path d="M779.942 483.977H789.333L809.178 531.843H798.54L794.322 521.169H774.77L770.552 531.843H760.17L780.016 483.977H779.942ZM790.654 511.972L784.491 496.571L778.328 511.972H790.617H790.654Z" fill="#3AB54A"/>
<path d="M812.37 484.309H821.76L843.44 513.561V484.309H853.491V531.843H844.834L822.421 501.631V531.843H812.37V484.309Z" fill="#3AB54A"/>
</g>
<defs>
<clipPath id="clip0_282_3048">
<rect width="1000" height="532.544" fill="white"/>
</clipPath>
</defs>
</svg>
