<svg xmlns="http://www.w3.org/2000/svg" viewBox="0 0 114 40" fill="none">
  <defs>
    <linearGradient id="khan-grad" x1="0" y1="0" x2="32" y2="32">
      <stop offset="0%" stop-color="#22d3ee"/>
      <stop offset="100%" stop-color="#06b6d4"/>
    </linearGradient>
  </defs>
  <!-- Orb -->
  <circle cx="18" cy="20" r="14" fill="url(#khan-grad)"/>
  <circle cx="18" cy="20" r="5" fill="#0a0f1c"/>
  <!-- Khan wordmark (paths) -->
  <path d="M 58.515625,27 H 52.996094 L 47.78125,20.015625 46.726562,21.292969 V 27 h -4.5 V 9.5507813 h 4.5 v 7.8984377 l 6.234375,-7.8984377 h 5.214844 L 51.355469,17.625 Z m 15.699219,0 h -4.242188 v -6.527344 q 0,-0.796875 -0.08203,-1.582031 -0.08203,-0.796875 -0.28125,-1.171875 -0.234375,-0.433594 -0.691406,-0.632813 -0.445313,-0.199218 -1.253907,-0.199218 -0.574218,0 -1.171875,0.1875 -0.585937,0.1875 -1.277343,0.597656 V 27 h -4.21875 V 8.765625 h 4.21875 v 6.527344 q 1.125,-0.878906 2.15625,-1.347656 1.042968,-0.46875 2.308593,-0.46875 2.132813,0 3.328125,1.242187 1.207032,1.242188 1.207032,3.714844 z M 86.5625,23.566406 v -2.742187 q -0.855469,0.07031 -1.851563,0.199218 -0.996093,0.117188 -1.511718,0.28125 -0.632813,0.199219 -0.972657,0.585938 -0.328125,0.375 -0.328125,0.996094 0,0.410156 0.07031,0.667968 0.07031,0.257813 0.351562,0.492188 0.269532,0.234375 0.644532,0.351562 0.375,0.105469 1.171875,0.105469 0.632812,0 1.277343,-0.257812 0.65625,-0.257813 1.148438,-0.679688 z m 0,2.039063 q -0.339844,0.257812 -0.84375,0.621093 -0.503906,0.363282 -0.949219,0.574219 -0.621094,0.28125 -1.289062,0.410156 -0.667969,0.140625 -1.464844,0.140625 -1.875,0 -3.140625,-1.160156 -1.265625,-1.160156 -1.265625,-2.964844 0,-1.441406 0.644531,-2.355468 0.644531,-0.914063 1.828125,-1.441407 1.171875,-0.527343 2.90625,-0.75 1.734375,-0.222656 3.597656,-0.328125 v -0.07031 q 0,-1.089844 -0.890625,-1.5 -0.890625,-0.421875 -2.625,-0.421875 -1.042968,0 -2.226562,0.375 -1.183594,0.363281 -1.699219,0.5625 h -0.386719 v -3.175781 q 0.667969,-0.175781 2.167969,-0.410156 1.511719,-0.246094 3.023438,-0.246094 3.597656,0 5.191406,1.113281 1.605469,1.101563 1.605469,3.46875 V 27 H 86.5625 Z M 108.34375,27 h -4.24219 v -6.527344 q 0,-0.796875 -0.082,-1.582031 -0.082,-0.796875 -0.28125,-1.171875 -0.23437,-0.433594 -0.6914,-0.632813 -0.44532,-0.199218 -1.25391,-0.199218 -0.57422,0 -1.17188,0.1875 -0.58593,0.1875 -1.27734,0.597656 V 27 H 95.125 V 13.839844 h 4.21875 v 1.453125 q 1.125,-0.878906 2.15625,-1.347656 1.04297,-0.46875 2.30859,-0.46875 2.13282,0 3.32813,1.242187 1.20703,1.242188 1.20703,3.714844 z" fill="#ffffff"/>
</svg>
