<svg xmlns="http://www.w3.org/2000/svg" fill="none" viewBox="0 0 114 40"><defs><linearGradient id="khan_svg_a" x1="0" x2="32" y1="0" y2="32"><stop offset="0%" stop-color="#22d3ee"/><stop offset="100%" stop-color="#06b6d4"/></linearGradient></defs><circle cx="18" cy="20" r="14" fill="url(#khan_svg_a)"/><circle cx="18" cy="20" r="5" fill="#0a0f1c"/><path fill="#fff" d="M58.5 27H53l-5.2-7-1 1.3V27h-4.6V9.6h4.5v7.8L53 9.6h5.2l-6.8 8Zm15.7 0H70v-6.5l-.1-1.6q0-.8-.3-1.2t-.7-.6-1.2-.2l-1.2.2-1.3.6V27H61V8.8h4.2v6.5q1.1-.9 2.2-1.4 1-.4 2.3-.4 2.1 0 3.3 1.2 1.2 1.3 1.2 3.7zm12.4-3.4v-2.8l-1.9.2-1.5.3q-.6.2-1 .6-.3.4-.3 1v.7l.4.4q.3.3.7.4l1.1.1q.7 0 1.3-.3t1.2-.6m0 2-.9.6-1 .6-1.2.4q-.7.2-1.5.2-1.9 0-3.1-1.2t-1.3-3q0-1.4.7-2.3.6-1 1.8-1.5t2.9-.7l3.6-.3v-.1q0-1.1-.9-1.5t-2.6-.4q-1 0-2.3.3l-1.7.6h-.3v-3.2l2.1-.4 3-.2q3.6 0 5.2 1 1.6 1.2 1.6 3.5v9h-4.1Zm21.7 1.4h-4.2v-8.1l-.4-1.2q-.2-.4-.7-.6t-1.2-.2l-1.2.2-1.3.6V27h-4.2V13.8h4.2v1.5q1.2-.9 2.2-1.4t2.3-.4q2.1 0 3.3 1.2 1.2 1.3 1.2 3.7z"/></svg>