<svg xmlns="http://www.w3.org/2000/svg" viewBox="0 0 228 64" fill="none">
  <defs>
    <clipPath id="pl-mark">
      <rect x="0" y="0" width="91" height="444" rx="22"/>
      <circle cx="130" cy="134" r="132"/>
    </clipPath>
  </defs>
  <!-- Pinnacle "P" mark — traced from brand logo: dark stem/bowl base, medium-red crescent, rose highlight -->
  <g transform="translate(3 9) scale(0.104)">
    <g clip-path="url(#pl-mark)">
      <rect x="-5" y="-5" width="275" height="454" fill="#6B0D16"/>
      <polygon fill="#82161C" points="250,76 252,80 253,84 255,88 256,92 257,96 258,100 259,104 260,108 261,112 261,116 262,120 262,124 262,128 262,132 263,136 263,140 262,144 262,148 261,152 261,156 260,160 259,164 258,168 256,172 255,176 254,180 252,184 250,188 248,192 246,196 242,200 242,204 239,208 237,212 230,216 230,220 227,224 223,228 219,232 214,236 209,240 204,244 197,248 190,252 152,264 149,264 184,252 173,248 163,244 156,240 149,236 143,232 137,228 133,224 128,220 123,216 120,212 116,208 112,204 109,200 106,196 103,192 101,188 98,184 96,180 94,176 92,172 90,168 88,164 87,160 85,156 84,152 83,148 82,144 81,140 80,136 79,132 79,128 78,124 78,120 78,116 85,112 92,108 99,104 107,100 115,96 125,92 136,88 149,84 165,80 186,76"/>
      <polygon fill="#C27280" points="157,4 172,8 183,12 192,16 199,20 206,24 211,28 217,32 221,36 225,40 229,44 233,48 236,52 239,56 242,60 244,64 246,68 248,72 185,76 164,80 148,84 135,88 124,92 114,96 106,100 98,104 91,108 84,112 77,116 71,120 65,124 60,128 55,132 50,136 45,140 41,144 36,148 32,152 28,156 24,160 21,164 17,168 14,172 11,176 8,180 5,184 1,184 1,180 1,176 1,172 1,168 1,164 1,160 1,156 1,152 1,148 1,144 1,140 1,136 1,132 1,128 1,124 1,120 1,116 1,112 1,108 1,104 1,100 1,96 1,92 1,88 1,84 1,80 1,76 1,72 1,68 1,64 1,60 1,56 1,52 1,48 1,44 1,40 1,36 1,32 1,28 1,24 1,20 1,16 1,12 3,8 6,4"/>
    </g>
  </g>
  <!-- Wordmark -->
  <text x="40" y="43" font-family="'Exo 2', system-ui, sans-serif" font-size="30" font-weight="700" letter-spacing="-0.3" fill="#C27280">Pinnacle Law</text>
</svg>
