<svg xmlns="http://www.w3.org/2000/svg" fill="none" viewBox="0 0 228 64"><defs><clipPath id="pinnacle_svg_a"><rect width="91" height="444" rx="22"/><circle cx="130" cy="134" r="132"/></clipPath></defs><g clip-path="url(#pinnacle_svg_a)" transform="translate(3 9)scale(.104)"><path fill="#6b0d16" d="M-5-5h275v454H-5z"/><path fill="#82161c" d="M19 443.1c.3-.4 11-.6 30.1-.6 19.3 0 29.7.2 29.7.6s-10.5.6-30 .6q-30 0-29.7-.6m162.6-191.3c-2.1-1-4.1-1.8-4.6-1.8s-2.2-.7-3.9-1.6a147.4 147.4 0 0 1-33.7-18.4 335 335 0 0 1-30.3-29.4l-4.2-5.6a48 48 0 0 1-3.9-6.1 176.2 176.2 0 0 1-16-33l-1.6-5.6c-1-3.5-1.8-7.4-3.5-15-.3-1.7-1-6.5-1.3-10.5l-.7-7.5 2-1.6c3-2.6 5.9-4.3 20.7-11.8a228 228 0 0 1 59.7-22.3c20.8-5.5 37.2-7.4 64.7-7.4 23.9-.1 25.8.2 27.4 4.4 10.3 28.2 13.5 54.1 9.5 76.7a158 158 0 0 1-27 60.8 136 136 0 0 1-43 35.6c-4.7 2.5-5.5 2.5-10.3.1"/><path fill="#c27280" d="M1.7 187c-.3-.1-.4-39.5-.4-87.4V12.5L3 8.7c1.7-3.2 2.4-4 5.6-5.6l3.8-1.8H75c34.5 0 64.7.3 67 .6a138 138 0 0 1 20.2 3.7 143 143 0 0 1 51.8 24c1 .7 4.9 4.2 8.6 7.9 20.7 20 32.5 40 21.9 36.9-9-2.7-59 1-77.4 5.5l-13.8 3.4a269 269 0 0 0-113.9 63.3 275 275 0 0 0-32.3 35.9c-3.5 4.7-4.5 5.6-5.5 4.6"/></g><text x="40" y="43" fill="#c27280" font-family="'Exo 2', system-ui, sans-serif" font-size="30" font-weight="700" letter-spacing="-.3">Pinnacle Law</text></svg>