<svg xmlns="http://www.w3.org/2000/svg" viewBox="0 0 228 64" fill="none">
  <defs>
    <clipPath id="pl-mark">
      <rect x="0" y="0" width="91" height="444" rx="22"/>
      <circle cx="130" cy="134" r="132"/>
    </clipPath>
  </defs>
  <!-- Pinnacle "P" mark — Inkscape Trace Bitmap of the official logo: dark stem/bowl base, medium-red crescent, rose highlight -->
  <g transform="translate(3 9) scale(0.104)">
    <g clip-path="url(#pl-mark)">
      <rect x="-5" y="-5" width="275" height="454" fill="#6B0D16"/>
      <g transform="scale(0.625)">
        <path d="m 30.5,709 c 0.39797,-0.64393 17.510384,-1 48.059017,-1 C 109.51967,708 126,708.34739 126,709 c 0,0.65279 -16.68634,1 -48.059017,1 C 46.156282,710 30.091252,709.66137 30.5,709 Z m 260,-306.07355 c -3.3,-1.60612 -6.57746,-2.92162 -7.28324,-2.92333 C 282.51097,400.0014 279.71343,398.875 277,397.5 c -2.71343,-1.375 -5.51097,-2.50171 -6.21676,-2.50379 -2.85556,-0.008 -26.44988,-12.84152 -39.38254,-21.42038 -1.59539,-1.0583 -5.37102,-3.51642 -8.39031,-5.4625 -6.07106,-3.9131 -43.7667,-40.50916 -48.51039,-47.09534 -1.65,-2.29087 -4.64769,-6.3185 -6.66153,-8.95027 -2.01385,-2.63178 -4.81779,-7.0668 -6.23099,-9.85561 -1.4132,-2.78882 -3.06082,-5.37425 -3.66137,-5.74542 C 156.56263,295.61166 141,264.28526 141,262.35547 c 0,-0.78933 -0.96993,-3.32972 -2.15541,-5.64531 -1.18547,-2.31559 -2.50624,-5.56016 -2.93505,-7.21016 -0.4288,-1.65 -1.5138,-5.7 -2.4111,-9 -1.52164,-5.59612 -2.97536,-11.82265 -5.60332,-24 -0.59348,-2.75 -1.56753,-10.35357 -2.16456,-16.89682 l -1.08553,-11.89682 3.0949,-2.60318 c 5.00484,-4.20966 9.535,-6.7937 33.17304,-18.92215 32.22492,-16.5343 55.43927,-25.56352 84.08703,-32.70563 3.025,-0.75416 8.2,-2.07995 11.5,-2.94621 33.25217,-8.72877 59.53228,-11.73993 103.5,-11.85896 38.21432,-0.10345 41.32928,0.40523 43.79642,7.15206 16.50422,45.13373 21.66178,86.56981 15.26974,122.67771 -5.46543,30.87352 -21.45299,66.88752 -43.19897,97.31111 -13.95455,19.52304 -42.83537,43.42139 -68.73758,56.8791 -7.65048,3.97487 -8.91125,3.99278 -16.62961,0.23624 z" fill="#82161C"/>
        <path d="M 2.6666667,299.33333 C 2.3,298.96667 2,235.95383 2,159.30482 L 2,19.942967 5.0095662,13.981049 C 7.6631484,8.7243327 8.7243327,7.6631484 13.981049,5.0095662 L 19.942967,2 120.22148,2.0618233 C 175.37467,2.0958261 223.65,2.5263186 227.5,3.0184732 c 13.91479,1.7787599 21.06948,2.9177224 24.75,3.9399757 2.0625,0.5728531 5.4375,1.4795696 7.5,2.0149255 23.41929,6.0788636 42.40838,13.4980516 58.3994,22.8171036 2.55717,1.490237 6.42687,3.696578 8.59933,4.902979 2.17246,1.206401 5.93023,3.685812 8.3506,5.509803 2.42037,1.82399 5.75067,4.181306 7.40067,5.238479 1.65,1.057174 7.89697,6.677762 13.88215,12.490197 32.98966,32.037498 51.9368,64.067644 34.94071,59.067304 -14.28993,-4.20419 -94.32281,1.52707 -123.82286,8.86711 -7.42439,1.8473 -15.96706,3.97608 -22,5.48227 -39.23415,9.79527 -95.57101,34.92642 -122.7681,54.76529 -2.5531,1.86235 -7.19685,4.96109 -10.31944,6.88609 -3.12259,1.925 -8.88032,6.08011 -12.794949,9.23357 -3.914631,3.15347 -9.051571,7.20347 -11.415422,9 -2.36385,1.79654 -8.359713,6.86643 -13.324139,11.26643 -4.964426,4.4 -10.18358,8.9 -11.59812,10 -4.205628,3.27046 -21.121753,20.53065 -30.77983,31.40588 -9.195535,10.35439 -10.580835,12.07577 -20.970892,26.05857 -5.629613,7.57626 -7.2815347,8.94979 -8.8624413,7.36888 z" fill="#C27280"/>
      </g>
    </g>
  </g>
  <!-- Wordmark -->
  <text x="40" y="43" font-family="'Exo 2', system-ui, sans-serif" font-size="30" font-weight="700" letter-spacing="-0.3" fill="#C27280">Pinnacle Law</text>
</svg>
