<svg xmlns="http://www.w3.org/2000/svg" width="250.1" height="66.5" viewBox="0 0 250.1 66.5"><path d="M45-39.2c-3.4-1.1-5.2-2.7-6.4-5.5-1.4-3.2-1.2-3.5 1.5-3.5 2 0 2.8.4 4.2 2s2.3 2.2 5 2.4c4.1.3 6.7-.8 6.7-3.1 0-1.4-.5-1.8-3.4-2.6l-6.7-2q-6.7-1.7-6.6-6.8c0-8.8 16-10.7 21-2.5 1.5 2.6 1.4 3-1.6 3.5-2 .4-2.5.1-4.3-1.6-2.4-2.4-5.8-2.7-8.2-.8q-3.3 2.6 4 4 12 2.8 12.1 8.7c0 2.6-2.4 6-5 7.1-3.4 1.5-9 1.8-12.2.7m20-13v-13.4h6v21.4h12v5.3H65zm21 12.4 5.6-13.1 5.2-12.3 3-.2 2.8-.2 5.3 12.5 5.6 13.4c.2.7-.5.8-3 .7l-3.1-.2-3.7-9.2c-2-5-3.8-9.2-4-9.2s-2 4.2-4 9.4L92-39h-3.2q-3.3 0-2.8-.9m29.6-12.4v-13.4h6.7c9.7 0 12.8 1.7 13.8 7.5.8 5.3-3.5 9.2-10.3 9.2h-4.2v10h-6zm12.7-2.2c1-.5 1.8-1.6 1.9-2.4.4-2.5-1-3.4-5-3.4h-3.6v6.6h2.5c1.4 0 3.3-.4 4.2-.8M144.1-40c-3.2-1.1-4.8-2.6-5.7-5-.7-2-.6-2 1.2-2q2 0 2.2 1.3c1.2 4.4 14 4.5 15.5 0q1.1-3.4-4.7-5l-7.2-2c-4.3-1.2-5.8-2.7-5.8-5.8 0-4.4 4-7.2 10-7.2 4.2 0 10 3.7 10 6.2 0 1-2.9.4-4.7-1.2-3.8-3.2-12-1.8-12 2q.1 2.9 6.4 4c4.5.9 9.6 3 10.7 4.5.5.8 1 2.5 1 3.7 0 5.7-9.3 9.2-16.9 6.5m22-.4-1.8-1.4v-12c0-11.4 0-11.9 1.3-11.9 1.2 0 1.4.5 1.4 3.7v3.7h2.6c2.3 0 2.7.2 2.7 1.3s-.4 1.3-2.7 1.3H167v5.9c0 6.5 1 8.8 3.7 8.8q1.5 0 1.6 1c0 1.5-4.1 1.3-6.2-.4m15 .2c-3.6-1.8-5-4.3-5-8.5s1.4-6.6 5-8.5c2.8-1.5 7.3-1.2 10 .8 1.9 1.4 1.9 1.4 1.9 0q-.1-1.4 1.6-1.3h1.7v18h-1.7q-1.5 0-1.6-1c0-.6-.5-.6-2.5.4-3 1.6-6.5 1.6-9.5.1m8.6-2.2c1.6-.8 3.3-4 3.3-6.3s-1.7-5.4-3.3-6.3c-3.2-1.7-8.2-.3-9.8 2.7-1.7 3.4-.6 8.2 2.2 9.9 1.6.9 6 .9 7.6 0m14.8 2q-2.7-1.2-3.8-3.2c-1.5-2.9-1.3-7.8.3-10.4 1.4-2.4 5.4-4.4 8.5-4.3 3 0 7.3 2.3 8.4 4.6 1 2 1 2-.2 2-.7 0-2.2-.9-3.3-2a7 7 0 0 0-11.1 1.8c-2.4 5 .7 10.2 6.2 10.2 2.4 0 3.3-.4 5-2 1-1 2.5-2 3.3-2 1.3 0 1.3 0 0 2.1-2.5 4.3-8 5.7-13.3 3.3m17.8-12c0-12.2 0-12.6 1.3-12.6s1.4.4 1.4 7.8v7.8l4.2-4.1c3-3 4.6-4.2 6-4.2q1.7 0 1.8.4c0 .2-1.6 1.8-3.5 3.6l-3.4 3.1 4 5c2.4 2.9 4.2 5.3 4.2 5.5q-.1.4-1.6.4c-1.2 0-2.6-1.1-5.2-4.3l-3.5-4.3-1.5 1.4q-1.6 1.3-1.5 4.3c0 2.5-.2 3-1.4 3s-1.3-.5-1.3-12.7" style="fill:#888" transform="translate(11.8 85.5)"/><path d="M-1.1-19.7c-1-.8-5.8-7.8-9.2-13.4l-1.5-2.5 1.5-2.5 5.2-8 3.6-5.6 5.3 8L9-35.6h18l-5.3 8.2-5.3 8.2-8.2.1c-6 .2-8.6 0-9.3-.6m7.4-16c0-.5-1.8-3.6-4-6.8l-3.9-6-4 6.3c-2.3 3.5-4 6.6-3.8 7l4 6.6 3.8 5.9 4-6.2c2.1-3.3 3.9-6.4 3.9-6.9" style="fill:#ecb910" transform="translate(11.8 85.5)"/><path d="M13.1-36c2.5-.2 6.7-.2 9.3 0 2.7 0 .7.2-4.4.2s-7.3-.1-4.9-.3" style="fill:#a98838" transform="translate(11.8 85.5)"/><path d="M-1-51.9c-5.5-8.6-10-15.8-10-16s3.8-.3 8.5-.3H6l9.6 15c5.4 8.3 10 15.5 10.2 16 .5.8-.9 1-8 1H9Z" style="fill:#9f813f" transform="translate(11.8 85.5)"/><path d="M-7.5-68.7c2.5-.2 6.5-.2 9 0 2.5 0 .4.2-4.5.2s-7-.1-4.5-.2" style="fill:#8e7942" transform="translate(11.8 85.5)"/><path d="m11.3-60.8-5.1-8-9-.3-8.9-.1 5.2-8.2 5.1-8.1H7c4.6 0 8.6.2 9 .4s3.1 4 5.9 8.3l5 7.9-5.2 8-5.2 8.1zm9.9-2.3 3.7-5.8-3.7-5.8c-2-3.3-4-6.1-4.2-6.4s-2.4 2.4-4.6 5.9l-4.2 6.5 4.2 6.2c2.3 3.5 4.3 6 4.6 5.8z" style="fill:#234e55" transform="translate(11.8 85.5)"/></svg>