<?xml version="1.0" encoding="UTF-8" standalone="no"?>
<!-- Created with Inkscape (http://www.inkscape.org/) -->

<svg
   version="1.1"
   id="svg1"
   width="250.10875"
   height="66.51947"
   viewBox="0 0 250.10875 66.51947"
   xmlns="http://www.w3.org/2000/svg"
   xmlns:svg="http://www.w3.org/2000/svg">
  <defs
     id="defs1" />
  <g
     id="g1"
     transform="translate(52.988297,-92.029633)">
    <g
       id="g13"
       transform="translate(-41.189398,177.57207)">
      <path
         style="fill:#888888"
         d="m 45.089074,-39.202279 c -3.505642,-1.138931 -5.336067,-2.685881 -6.537903,-5.52539 -1.32965,-3.141488 -1.163127,-3.521412 1.54346,-3.521412 1.930365,0 2.821305,0.443028 4.19144,2.084228 1.426472,1.708683 2.336139,2.134188 5.048551,2.361504 4.103179,0.343871 6.641894,-0.840672 6.641894,-3.099052 0,-1.366145 -0.511785,-1.759196 -3.333334,-2.560002 -1.833333,-0.520332 -4.888868,-1.395142 -6.790076,-1.944022 -4.476502,-1.292369 -6.512954,-3.434919 -6.512954,-6.852276 0,-8.821074 15.945815,-10.757892 20.94124,-2.543575 1.554307,2.555853 1.381373,2.942733 -1.562228,3.494956 -1.938543,0.363673 -2.56822,0.130104 -4.289415,-1.591091 -2.393904,-2.393904 -5.785036,-2.708717 -8.191089,-0.760413 -2.155147,1.745132 -0.982175,2.96351 3.896645,4.047482 8.009441,1.779531 12.177453,4.717562 12.172052,8.580078 -0.0037,2.640959 -2.38314,6.066128 -4.96292,7.144029 -3.466941,1.44858 -8.95995,1.755586 -12.255363,0.684956 z m 19.887442,-13.046802 v -13.333332 h 3 3 v 10.666666 10.666666 h 6 6 v 2.666667 2.666666 h -9 -9 z m 21.040934,12.467059 c 0.182831,-0.47645 2.678733,-6.40145 5.546448,-13.166666 l 5.214028,-12.300392 2.933331,-0.196416 2.933333,-0.196416 5.24427,12.529749 c 2.88436,6.891362 5.39806,12.922779 5.586,13.40315 0.25931,0.662761 -0.43654,0.823543 -2.88529,0.666667 l -3.22702,-0.206735 -3.64586,-9.166666 c -2.00523,-5.041667 -3.817087,-9.165599 -4.026354,-9.164293 -0.209268,0.0013 -2.030486,4.200237 -4.047153,9.330959 l -3.666667,9.328586 -3.145743,0.0024 c -2.307168,0.0017 -3.057129,-0.228553 -2.813323,-0.8639 z m 29.62573,-12.467059 v -13.333332 h 6.68808 c 9.66918,0 12.80791,1.710903 13.74621,7.492961 0.86041,5.302058 -3.46675,9.167145 -10.26762,9.171213 l -4.16667,0.0025 v 4.999999 5 h -3 -3 z m 12.66667,-2.193182 c 0.91667,-0.462106 1.7647,-1.524196 1.88451,-2.3602 0.35731,-2.493144 -1.01653,-3.446617 -4.96614,-3.446617 h -3.58504 v 3.333333 3.333333 l 2.5,-0.0098 c 1.375,-0.0054 3.25,-0.387915 4.16667,-0.850021 z m 15.7892,14.560641 c -3.18652,-1.136458 -4.84742,-2.619103 -5.71187,-5.098849 -0.64111,-1.839096 -0.58083,-1.935277 1.21293,-1.935277 1.29874,0 1.99168,0.398118 2.2213,1.276214 1.17231,4.48291 14.06007,4.557526 15.47813,0.08961 0.73037,-2.301212 -0.79749,-3.942276 -4.67233,-5.018514 -2.00788,-0.557688 -5.24789,-1.457009 -7.20002,-1.99849 -4.29322,-1.190852 -5.78401,-2.688704 -5.78401,-5.81141 0,-4.414311 3.8966,-7.214292 10,-7.185719 4.13535,0.01936 10,3.614381 10,6.129978 0,1.126486 -2.91582,0.4272 -4.78824,-1.148338 -3.7937,-3.192189 -11.87842,-1.816867 -11.87842,2.020683 0,1.855014 2.23029,3.262573 6.35637,4.011564 4.42956,0.804081 9.57563,2.97862 10.63786,4.495167 0.55317,0.78976 1.00577,2.442253 1.00577,3.672205 0,5.665594 -9.24028,9.224935 -16.87747,6.501173 z m 21.96737,-0.415846 -1.75657,-1.38172 v -11.951613 c 0,-11.507168 0.0496,-11.951612 1.33333,-11.951612 1.17172,0 1.33334,0.444444 1.33334,3.666666 v 3.666667 h 2.66666 c 2.22223,0 2.66667,0.222222 2.66667,1.333333 0,1.111111 -0.44444,1.333333 -2.66667,1.333333 h -2.66666 v 5.851662 c 0,6.560623 0.94739,8.815004 3.70447,8.815004 1.00343,0 1.62886,0.383967 1.62886,1 0,1.520273 -4.14783,1.266677 -6.24343,-0.38172 z m 14.95749,0.214018 c -3.55483,-1.81265 -4.99977,-4.268869 -4.99977,-8.498964 0,-4.218231 1.42826,-6.65677 4.99977,-8.536368 2.89037,-1.52113 7.35258,-1.157996 10.022,0.81559 1.91577,1.416393 1.93061,1.416962 1.93061,0.07407 0,-0.999067 0.43625,-1.353292 1.66667,-1.353292 h 1.66666 v 9 9 h -1.66666 c -0.97969,0 -1.66667,-0.382569 -1.66667,-0.928134 0,-0.733193 -0.51969,-0.663181 -2.4743,0.333333 -3.08786,1.574285 -6.50847,1.608123 -9.47831,0.09376 z m 8.6562,-2.185394 c 1.62916,-0.871901 3.29641,-4.065154 3.29641,-6.31357 0,-2.248416 -1.66725,-5.441669 -3.29641,-6.31357 -3.1659,-1.694341 -8.18936,-0.281292 -9.75359,2.743587 -1.71479,3.316036 -0.61563,8.200258 2.21665,9.849909 1.5231,0.887122 5.90565,0.906686 7.53694,0.03364 z m 14.84062,2.05751 c -1.67121,-0.758756 -3.20765,-2.075652 -3.83333,-3.285585 -1.47934,-2.860712 -1.33683,-7.787984 0.30192,-10.439541 1.4371,-2.325277 5.3883,-4.323019 8.50069,-4.297979 3.01091,0.02422 7.29911,2.355843 8.45942,4.599636 1.00995,1.953035 0.99844,2.052389 -0.23784,2.052389 -0.71455,0 -2.19917,-0.9 -3.29917,-2 -3.41125,-3.41125 -9.08972,-2.480938 -11.13248,1.823853 -2.37771,5.01067 0.75855,10.176147 6.17854,10.176147 2.39326,0 3.33355,-0.379612 4.95394,-2 1.1,-1.1 2.60453,-2 3.34342,-2 1.32225,0 1.32407,0.03294 0.11538,2.091269 -2.52596,4.301563 -8.08953,5.668364 -13.35049,3.279811 z m 17.78912,-12.037747 c 0,-12.222221 0.0468,-12.666666 1.33334,-12.666666 1.25749,0 1.33333,0.444445 1.33333,7.814074 v 7.814074 l 4.1846,-4.147407 c 3.07291,-3.045594 4.66689,-4.147408 6,-4.147408 0.99847,0 1.8154,0.169241 1.8154,0.376091 0,0.20685 -1.55836,1.809009 -3.46303,3.560354 l -3.46303,3.184263 4.1297,5.053905 c 2.27133,2.779648 4.12969,5.227488 4.12969,5.439646 0,0.212157 -0.73188,0.385741 -1.62641,0.385741 -1.19016,0 -2.57483,-1.152582 -5.16231,-4.297059 l -3.5359,-4.297058 -1.50436,1.413268 c -1.1117,1.044391 -1.50435,2.165965 -1.50435,4.297058 0,2.439346 -0.20549,2.883791 -1.33333,2.883791 -1.28655,0 -1.33334,-0.444445 -1.33334,-12.666667 z"
         id="path18" />
      <path
         style="fill:#ecb910"
         d="m -1.1197309,-19.730307 c -1.0037322,-0.800005 -5.7750701,-7.750522 -9.1658531,-13.352108 l -1.513314,-2.5 1.52845,-2.5 c 0.8406471,-1.374999 3.1566623,-5.009739 5.1467,-8.077198 l 3.6182503,-5.577199 5.2594987,8.077199 5.2594986,8.077198 h 8.9750594 8.97506 l -5.293164,8.166667 -5.293163,8.166666 -8.2139596,0.185442 c -5.9052937,0.13332 -8.5144484,-0.05406 -9.2830633,-0.666667 z m 7.4030463,-16.056668 c -0.014593,-0.437492 -1.7887065,-3.474782 -3.9424748,-6.749533 l -3.9159423,-5.954094 -4.0531018,6.287427 c -2.2292059,3.458085 -3.9257351,6.633169 -3.7700647,7.055743 0.1556703,0.422574 1.9717284,3.386 4.0356845,6.585393 l 3.7526476,5.817077 3.959892,-6.123287 c 2.1779406,-3.367808 3.9479524,-6.481235 3.9333595,-6.918726 z"
         id="path17" />
      <path
         style="fill:#a98838"
         d="m 13.114014,-36.076117 c 2.458959,-0.127905 6.658959,-0.128756 9.333334,-0.0019 2.674375,0.126865 0.6625,0.231515 -4.470833,0.232555 -5.133334,10e-4 -7.321459,-0.102758 -4.862501,-0.230664 z"
         id="path16" />
      <path
         style="fill:#9f813f"
         d="m -0.96249204,-51.886441 c -5.53354656,-8.600549 -10.06099396,-15.800548 -10.06099396,-16 0,-0.199451 3.8250003,-0.360992 8.5000004,-0.358979 l 8.5000002,0.0037 9.6666664,15.072141 c 5.316667,8.289677 9.906574,15.48803 10.199794,15.996339 0.442851,0.767702 -0.929709,0.9242 -8.105673,0.9242 H 9.0985017 Z"
         id="path15" />
      <path
         style="fill:#8e7942"
         d="m -7.5234857,-68.743447 c 2.475,-0.128271 6.52500011,-0.128271 9.0000002,0 2.475,0.128271 0.45,0.23322 -4.5000001,0.23322 -4.9500001,0 -6.9750002,-0.104949 -4.5000001,-0.23322 z"
         id="path14" />
      <path
         style="fill:#234e55"
         d="m 11.335914,-60.832582 -5.1707976,-8.046481 -8.9323397,-0.185008 -8.9323397,-0.185009 5.1713721,-8.136495 5.171372,-8.136495 8.3333335,-0.01996 c 4.5833334,-0.01098 8.6711824,0.200443 9.0841084,0.469829 0.412926,0.269385 3.035546,4.013987 5.828043,8.321338 l 5.077269,7.831546 -5.229612,8.066609 -5.229612,8.066609 z m 9.857142,-2.249832 3.753552,-5.833333 -3.753552,-5.833333 c -2.064454,-3.208333 -3.963068,-6.073676 -4.219142,-6.367428 -0.256075,-0.293753 -2.324043,2.370439 -4.595487,5.920427 l -4.1298959,6.454522 4.1367259,6.273506 c 2.275199,3.450428 4.343168,6.036235 4.595486,5.746239 0.252318,-0.289997 2.147859,-3.152266 4.212313,-6.3606 z"
         id="path13" />
    </g>
  </g>
</svg>
