<svg xmlns="http://www.w3.org/2000/svg" width="1140" height="937" viewBox="0 0 1140 937"><path d="M590 1078h8q4 1-4 1t-4-1m-535-1h2zm37 0h2zm763 0h2zm202-2h2q1 1-1 1t-1-1m-296-1h2zm14 0h2zm-742-4q-1-1 0 0l2 2zm794-15zv2zm-482-2q0-2 1-1v2q-1 1-1-1m105-2q0-2 1-1v2q-1 1-1-1m277 0zv2zm-51-2 3-3-2 3-3 2zm-171-5q0-3 1-2v4q-1 1-1-2m-188-6q1-6 1-3v6q-1 2-1-3m134-1zv2zm1-12zv2zm148 1h2l2 1h-2zm-178-5h10q4 1-5 1-9-1-5-1m84-5q0-3 1-1v4q-1 1-1-2m-245 1 2-2q2-2 0 0zm-100-5zv2zm292 0zv2zm240 0zv2zm268-3q0-2 1-1v3q-1 1-1-1m-877-2q0-3 1-2v3q-1 1-1-1m551-2q0-3 1-2v3q-1 1-1-1m58-1q0-2 1-1v2q-1 1-1-1m268-5q0-2 1-1v2q-1 1-1-1m-800-3zv2zm346-6q0-4 1-2v4q-1 1-1-2m-142-21 2-2zl-2 2zm15-5h4q1 1-2 1t-2-1m62 0h2zm65-21q1-11 1-6zM65 916q0-3 1-2v4q-1 1-1-2m397 1q-2-1 0 0l1 2zm167 0zv2zm-476-3h2zm822 0h2zm-260-4q0-3 1-2v4q-1 1-1-2m-571-3q0-2 1-1v2q-1 1-1-1m137 0 3-3-2 3-3 2zm663-3q0-2 1-1v2q-1 1-1-1m202 1h4q1 1-2 1-4 0-2-1m-52-1q-1-1 9-1 16 1-2 1zm33 0h2q1 1-1 1t-1-1m-869-5h3q1 1-1 1-3 0-2-1m19-1h2q1 1-1 1t-1-1M81 878l3-4 4-2-3 3zm805-5 2-2q2-2 0 0zm-685-6q0-4 1-3v6q-1 2-1-3m951-15h3q1 1-1 1-3 0-2-1m-22-1h4q1 1-2 1t-2-1m-25-1h4q1 1-2 1t-2-1m-26-1h4q1 1-2 1t-2-1m-27-1h4q1 1-2 1t-2-1M46 777V637l1-138v278h392l392 1H439zm834-34q-2-1 0 0l2 2zm-761-18h2zm75 0h2q1 1-1 1t-1-1m79 0h2zm55 0h2zm160 0h2zm154 0h2zm48 0h2zm26 0h2q1 1-1 1t-1-1m-577-10q1-9 1-5v10q0 4-1-5m76 0q1-9 1-5v10q0 4-1-5m156-1q1-11 1-6zm6 0q1-11 1-6zm148 1q1-9 1-5v10q0 4-1-5m101-1q1-11 1-6zm49 10q1-2-6-2h-5l-1-10v-9l1 9v9h6q5 0 6 2zm-395 0 2-2q2-2 0 0zm294 0 2-2q2-2 0 0zm-336-3h7l-3 1zm114 0h2zm33 0h7l-3 1zm71 0h7l-3 1zm88 0h7l-3 1zm24 0h2zm154-3q1-3 1-1l-1 3zm-100-6q1-15 1-3l-1 8zm193 3zv2zm-577-1h6q3 0-3 1-6-1-3-1m24-1zv2zm18 0q0-2 1-1v2q-1 1-1-1m105 1h6q2 1-3 1-6 0-3-1m38-1q0-2 1-1v2q-1 1-1-1m33 1h6q3 0-3 1-6-1-3-1m25 1 2-2q2-2 0 0zm65-1 6-1h1q0 2-7 2h-5Zm16-1q0-2 1-1v2q-1 1-1-1m28 1h6q2 1-3 1-4 0-3-1m119-1q0-2 1-1v2q-1 1-1-1m183-1h4q1 1-3 1-3 0-1-1m40 0h3q1 1-2 1-2 0-1-1m-636-1h6q2 1-3 1-4 0-3-1m267-3 2-2q2-2 0 0zm-138-2 2-2q2-2 0 0zm282 0 2-2q2-2 0 0zm-575-3zv2zm76 0zv2zm324 0zv2zm21 0zv2zm-363-20zv2zm79 0zv2zm45 0zv2zm158 0zv2zm53-3q0-4 1-3v6q-1 2-1-3m14-6q1-11 1-6zm36 2v-10h-3l-4-2h1l3 1 4 1zl-1 9Zm25-1 1-9 3-1 3-1h1l-4 2h-3zl-1 9zm289 7h3q1 1-1 1-3 0-2-1m7 0h3q1 1-1 1-3 0-2-1m-719-3q0-4 1-2v4q-1 1-1-2m125-7q1-9 1-5v10q0 4-1-5m158 0q1-9 1-5v10q0 4-1-5m-366 6zv2zm262-2 2-2zl-2 2Zm258-2q0-3 1-2v3q-1 1-1-1m18 0q0-2 1-1v2q-1 1-1-1m187 1h2zm41-3q0-2 1-1v2q-1 1-1-1m-357-1h4q2 1-3 1-3 0-1-1m-326-3q-1-3 7-3h7l-7 1q-7 0-6 2-1 3-1 0m348-1q0-4 1-3v5q-1 1-1-3m-164-2 2-2zl-2 2zm-158 0h7l-4 1zm21 0h4q1 1-2 1t-2-1m31 0h6q2 1-3 1-6 0-3-1m83 0 6-1h1q0 2-7 2h-6zm67 0h4q1 1-2 1t-2-1m98 0h4q1 1-2 1-4 0-2-1m79 0h4q1 1-2 1-4 0-2-1m9 0h4q1 1-2 1-4 0-2-1m-507-4h2q1 1-1 1t-1-1m537 0h2zm264-3h2zm203-37zv2zm-98-4h2zm-805-12h2q1 1-1 1t-1-1m890-9h2zm-160-7-1-2zl2 3zm-12-6h3q1 1-1 1-3 0-2-1m-211-6q-2-1 0 0l2 2zm188 0q-2-1 0 0l2 2zm112-5-2-3zl3 4zm-284-39-1-2 3 2q3 5-2 0m313-33h3q1 1-1 1-3 0-2-1m-764-16zv2zm817 1 2-2q2-2 0 0zm-831-5zv2zM46 434q1-41 1-23zm118 43zv2zm94-3zv2zm-80-1zv2zm795-7h2q1 1-1 1t-1-1m13-1h2q1 1-1 1t-1-1m-727-2zv2zm-82-2zv2zm511-6zv2zm223 0q0-3 1-2v3q-1 1-1-2m172-3q0-4 1-3v5q-1 1-1-2m-921 1zv2zm98-2zv2zm-84-3zv2zm70-2zv2zm528-2h3l4 1zm-85-2zv2zm-528-3zv2zm100 0q0-2 1-1v2q-1 1-1-1m-86-5zv2zm72-1zv2zm527-1 2-2zl-2 2zm-512-7q0-2 1-1v2q-1 1-1-1m-102-1q0-2 1-1v2q-1 1-1-1m660-3h4q1 1-2 1t-2-1m262-3q0-3 1-2v4q-1 1-1-2m-834 1q0-2 1-1v2q-1 1-1-1m-74-1q0-2 1-1v2q-1 1-1-1m-53 0 2-2q2-2 0 0zm142-9zv2zm-104-2q0-3 1-2v3q-1 1-1-2m123-2q-1-1 0 0l2 2zm-33-3q0-2 1-1v2q-1 1-1-1m-110 0 2-2q2-2 0 0zm34-2q0-3 1-2v3q-1 1-1-2m-24-7 2-2q2-2 0 0zm-84-4h2q1 1-1 1t-1-1m119-9 2-2zl-2 2zm48-1q-1-1 0 0l2 2zm33-8q0-3 1-2v3q-1 1-1-2m572 1h8l-4 1q-8-1-4-1m-641-3 2-2q2-2 0 0zm-106-4q0-3 1-2v4q-1 1-1-2m127 1-2-2zl2 3zm21-1q-1-1 0 0l2 2zm-81-3q0-3 1-2v4q-1 1-1-2m94 0q0-3 1-2v4q-1 1-1-2m110 0q-2-1 0 0l2 2zm-177-1 2-2q2-2 0 0zm-13-8q0-4 1-2v4q-1 1-1-2m51-2-2-2zl2 3zm-176-8q0-7 2-7v1zl-1 6Zm220 3q0-4 1-2v4q-1 1-1-2m-174-5 3-3-2 3-3 2zm226-5-2-2zl2 3zm-24-1h4q1 1-2 1t-2-1m44-2h2q1 1-1 1t-1-1m17-1h2q1 1-1 1t-1-1m16-1h2zm14-1h2zm12-1h2zm22-2h2zm-309-4 12-12 12-11-12 11c-10 11-11 12-9 12q3 1 0 1zm88 0h8l-4 1q-8-1-4-1m-143-1h5q1 1-2 1-4 0-3-1m195 0h2q1 1-1 1t-1-1M46 281c0-40 1-41 2-41q3 0 1 1c-2 0-2 3-2 40l-1 41Zm238 40h4q1 1-2 1t-2-1m46-2h3q1 1-2 1-2 0-1-1m19-1h2q1 1-1 1t-1-1m-82-4q0-4 1-3v5q-1 1-1-2m98 3h2zm-266-3 4-4-3 4-4 3zm201 1q-1-1 0 0l2 2zm79 1h2zm13-1h2zm300-3 2-2q2-1 0 0zm-450-6 4-4zl-5 4zm-69-2-4-4zl4 5zm116-1q-1-1 0 0l2 2zm394 0q0-2 1-1v2q-1 1-1-1m27-2-2-2zl2 3zm-406-3q-1-1 0 0l2 2zm-51-5q0-2 1-1v2q-1 1-1-1m286-6 2-2q2-1 0 0zm-248-3q-1-1 0 0l2 2zm-136-2q0-3 1-2v4q-1 1-1-2m120-14-1-2zl2 3zm154-1h4q1 1-2 1t-2-1m-278-4 4-4-3 4-4 3zm262-3q-2-1 0 0l2 2zm-145-8 1-5v9zm-35-7-4-5 5 5 4 4zm164 3h2zm-11-1h2zm-196-2 3-3-2 3-3 2zm184 1h2zm-14-1h2zm-191-3q0-3 1-2v4q-1 1-1-2m176 2h2zm-18-1h3q1 1-2 1-2 0-1-1m-42-2h4q1 1-2 1-4 0-2-1m-203-2h5q1 1-2 1-4 0-3-1m131 0h8l-4 1zm188-5h2zm-11-1h2zm-12-1h2zm-13-1h2zm-15-1h2zm-35-2h2q1 1-1 1t-1-1m8-3 4-4zl-4 4zm-30 2h4q1 1-2 1t-2-1m-23-1h2q1 1-1 1t-1-1M46 211q0-21 3-15l-1 1q-1-2-1 14l-1 16Zm21 14h5q2 1-3 1-3 0-2-1m169 0h2q1 1-1 1t-1-1m-67-1v-22l1-19v41h3l4 1h-4zm24-1 2-2q2-1 0 0zm157-6 3-3-2 3-3 2zm295-4 3-3-2 3-3 2zm-584-2-1-2zl2 3zm18-3-2-2zl3 3zm264-4 3-3-2 3-3 2zm-110 1 2-2q2-1 0 0zm-29-11-9-9zl10 10zm162 6 2-2zl-2 2zm-98-12q1-12 1-7zm-48 10 2-2q2-1 0 0zm868-4zv2zm-844 1 2-2q2-1 0 0zm-182-4-1-2zl2 3zm296-3 2-2zl-2 2zm377-1zv2zm-504 1 2-2q2-1 0 0zM49 176q-1-1 0 0l2 2zm319 1 2-2q2-1 0 0zm295-2q-2-1 0 0l2 2zm-508-4q0-4 1-2v4q-1 1-1-2M46 158q1-14 1-8zm205 12 2-2q2-1 0 0zm770-5 1-1q2-1 0 0-1 3-1 1m23-2h2zm-17-1h2q1 1-1 1t-1-1m-624-3 2-2q2-1 0 0zm-17-2 2-2q2-1 0 0zm-133-10q0-4 1-3v6q-1 2-1-3m-119-1-2-2zl3 3z" style="fill:#c4d4e7" transform="translate(-29 -142)"/><path d="m392 1074 2-2q2-2 0 0zm683 0 2-2q2-2 0 0zm-769-5 3-3-2 3-3 2zm634-11 3-4 4-2-3 3zm-681-39 2-2zl-2 2zm370 0 2-2q2-2 0 0zm359-108 2-2q2-2 0 0zm-104-36 2-2zl-2 2zm-688-22-1-2zl2 3zm671-120q-2-1 0 0l2 2zm-506-62 3-4 4-2-3 3zm-5-1 2-2q2-2 0 0zm465-24q-2-3 1-1l1 2zm-4-5q-2-1 0 0l2 2zm-620-20q-1-1 0 0l2 2zm511-5q-2-1 0 0l2 2zm307-31q-2-1 0 0l2 2zm-8-7-2-2zl2 3zm-840-13 2-2q2-2 0 0zm502-18-1-2zl2 3zm357-68-4-3zl4 4zm53 1 3-3-2 3-3 2zm-194-7 2-2q2-2 0 0zm19-13q-2-1 0 0l2 2zm-657-66-1-2zl2 3zm-12-12q-1-1 0 0l2 2zm13-8q-1-1 0 0l2 2zm-55-2 2-2q2-2 0 0zm28-3q-1-1 0 0l2 2zm-47 1 2-2q2-2 0 0zm61-8q-1-1 0 0l2 2zm-48-4 2-2q2-2 0 0zm39-17 2-2zl-2 2zM90 323l3-4 4-2-3 3zm156-1 3-4 4-2-3 3zm71-10q-1-1 0 0l2 2zm-68-13 4-4-3 4-4 3zm37 1q-1-1 0 0l2 2zm-141-3-4-5 5 5 4 4zm149-9-2-2zl2 3zm-141-5q-1-1 0 0l2 2zm-36-15-13-13zm0-21-6-6zl7 7zm68 3 3-3-2 3-3 2zm44-31-5-5zl6 6zm-31-1 2-2zl-2 2zm-114-5-2-2zl3 3zm271-1 2-2zl-2 2zm-16-4 2-2zl-2 2zm-282-1-1-2zl2 3zm173 1 2-2q2-1 0 0zm138-10 2-2q2-1 0 0zm-302-4q-1-1 0 0l2 2zm287-1 2-2q2-1 0 0zm346 0 2-2q2-1 0 0zm385-5-2-2zl3 3zm-912-5-2-2zl3 3zm207 3 2-2q2-1 0 0zm-192-8-7-8 8 8 7 7zm-135 1q-1-1 0 0l2 2zm313 1 2-2q2-1 0 0zm-226-29-2-2zl3 3zm14-7q-1-1 0 0l2 2z" style="fill:#b1c7e0" transform="translate(-29 -142)"/><path d="M58 1077h2q1 1-1 1t-1-1m800 0h2q1 1-1 1t-1-1m31 0h2zm-506-2h4q1 1-2 1t-2-1m679 0h6q2 1-3 1-4 0-3-1m-297-1h6q2 1-3 1-4 0-3-1m-315-16q0-3 1-2v4q-1 1-1-2m1-18zv2zm54-3q0-3 1-2v4q-1 1-1-2m-53-9zv2zm54-18q0-3 1-2v4q-1 1-1-2m-345-5 1-4v7zm532 3q0-2 1-1v2q-1 1-1-1m210-1zv2zm58-3q0-2 1-1v3q-1 1-1-1m-507-1q0-2 1-1v2q-1 1-1-1m-383-6h2zm800 0h2zm-364-14q0-4 1-2v4q-1 1-1-2m0-16q1-11 1-6zm611-45q0-3 1-2v3q-1 1-1-1m-253-6q0-3 1-2v4q-1 1-1-2m-210 0q0-3 1-2v3q-1 1-1-1m-499-2h4q1 1-2 1t-2-1m14 0h3q1 1-2 1-2 0-1-1m786 0h3q1 1-2 1-2 0-1-1m14 0h3q1 1-2 1-2 0-1-1m161-10h2q1 1-1 1t-1-1m-64-1h2zm47 0h2q1 1-1 1t-1-1m-860-4h2q1 1-1 1t-1-1m18-1h3q1 1-2 1-2 0-1-1m353 0h6q2 1-3 1-6-1-3-1m-405-6q0-4 1-2v4q-1 1-1-2m286-12q0-4 1-3v5q-1 1-1-3m641-28h3q1 1-1 1-3 0-2-1m-23-1h4q1 1-2 1t-2-1m-26-1h4q1 1-2 1t-2-1m-26-1h4q1 1-2 1t-2-1m-32-1h6q3 0-3 1-6 0-3-1m-799-1h2zm85 0h2zm131 0h6q2 1-3 1-4 0-3-1m-281-1h2zm800 0h2zm-354-1h2zm189-114q0-3 1-2v4q-1 1-1-2M81 714c0-11 0-12-2-12l-2-1h2l3 1zl-1 11Zm24 0c0-11 0-12-2-12l-2-1h2l3 1zl-1 11Zm49 0c0-12 1-13 3-13v1q-2-2-2 12l-1 12Zm20 1 1-9 3-1q3 0 3-2l-9-1-9-1h9q12 0 10 3 0 2-4 2h-3zl-1 10zm74 8zv2zm41-9 1-12h8q9 0 8 2 1 2-6 2h-5l5-1q5 0 5-2l-7-1h-8zl-1 12zm129 0c0-11 0-12-2-12l-3-1h3l3 1zl-1 11Zm48 9zv2zm70-9v-12l8-1h8l-7 1h-8zl-1 11zm47 0c0-12 1-13 2-13q3 0 1 1-2-1-2 12l-1 12Zm14 6q0-4 1-3v6q-1 2-1-3m15-2 1-4v8zm126 2q0-4 1-3v6q-1 2-1-3m-503-2q0-3 1-2v4q-1 1-1-2m218 0q0-3 1-2v4q-1 1-1-2m-254-8q0-10 2-9 3 0 1 1-3-1-2 8l-1 8Zm-14 0q0-10 2-9 3 0 1 1-2 0-2 8l-1 8Zm533 6h3q1 1-1 1-3 0-2-1m-372-3q0-2 1-1v2q-1 1-1-1m285 0zv2zm18 0q0-2 1-1v2q-1 1-1-1m34 0q0-2 1-1v2q-1 1-1-1m18 0zv2zm-308-1zv2zm326 0h6q2 1-3 1-4 0-3-1m-484-4q-1-3 7-3h7l-7 1q-6 0-6 2-1 2-1-1m218 0q-1-3 7-3h7l-7 1q-6 0-6 2-1 2-1-1m144-2q0-5 2-5 3 0 1 1-2 0-2 4l-1 5Zm-463-1h4q1 1-2 1t-2-1m12 0h4q1 1-2 1-4 0-2-1m18 0h4q1 1-2 1t-2-1m46 0h4q1 1-2 1t-2-1m12 0h4q1 1-2 1-4 0-2-1m166 0q6 1 6-2l-8-1-7-1h8q9 0 8 3 1 2-7 2h-6zm128 0h4q1 1-2 1-4 0-2-1m11 0h4q1 1-2 1t-2-1m18 0h6q2 1-3 1-6 0-3-1m309 0h2zm-124-3 3-1h2l-2 1zm-642-1h2q1 1-1 1t-1-1m49 0h10l-5 1zm76 0h10l-5 1zm22 0h9l-5 1zm133 0h2q1 1-1 1t-1-1m33 0h2q1 1-1 1t-1-1m52 0h9l-5 1zm65 0h10l-5 1zm91 0h2q1 1-1 1t-1-1m15 0h2zm36 0h2q1 1-1 1t-1-1m88 0h2q1 1-1 1t-1-1M99 685v-13l1-10v11c0 11 0 12 2 12l3 1h-3zm14 0v-6l1-4v5q0 6 2 5l3 1h-3zm10 0h2q1 1-1 1t-1-1m18 0h2q1 1-1 1t-1-1m7 0v-13l1-10v11c0 11 0 12 2 12l3 1h-3zm14 0v-6l1-4v5q0 5 2 5l3 1h-3zm15 0h9l-4 1zm27 0 9-1q0-2-6-2h-6l-1-4q0-4 1 0-1 4 6 3 8 0 7 3 2 2-9 2h-9zm14 0v-13l1-10v23h5l6 1h-6zm32 0v-3q1-2 1 1c0 2 0 2 9 2l9 1h-9zm52 0h8q4 0-4 1-8-1-4-1m16 0v-13l1-10v11c0 11 0 12 2 12l3 1h-3zm13 0q3 0 2-5l1-4 4-1h5l-5 1h-4v5q0 6-3 5-3 0 0-1m18 0v-13l1-10v11c0 11 0 12 2 12l3 1h-3zm17 0h3q1 1-1 1-3 0-2-1m7 0h2q1 1-1 1t-1-1m18 0h2q1 1-1 1t-1-1m7 0v-13l1-10v11c0 11 0 12 2 12l3 1h-3zm17 0h3q1 1-1 1-3 0-2-1m16 0h2q1 1-1 1t-1-1m17 0h2q1 1-1 1t-1-1m12 0h8q4 1-4 1-8-1-4-1m19 0c2 0 2-1 2-12l1-11v24zq-3 0 0-1m17 0v-13l1-10v23h6l7 1h-7zm26 0h2q1 1-1 1t-1-1m14 0h2q1 1-1 1t-1-1m41 0h2q1 1-1 1t-1-1m20 0h2q1 1-1 1t-1-1m-416-4h6q3 1-3 1t-3-1m44 0h3q1 1-1 1-3 0-2-1m35 0h6q3 0-3 1-6 0-3-1m46 0h6q2 1-3 1-6-1-3-1m158 0h6q2 1-3 1-6-1-3-1m40 0h4q1 1-2 1-4 0-2-1m-231-11q0-8 1-4v8q0 4-1-4m14 0q0-8 1-4v8q0 4-1-4m258 0q1-8 1-4v8q-1 4-1-4m14 0q1-8 1-4v8q-1 4-1-4m-326 4q0-3 1-2v3q-1 1-1-1m602 1h2zm-502-4v-4q1-2 1 1-1 4 5 3l5 1h-5zm72 0h4q1 1-2 1t-2-1m-292-4q0-4 1-3v5q-1 1-1-3m49 0q0-4 1-3v5q-1 1-1-3m38 2q0-3 1-2v3q-1 1-1-1m651 0h2zm45-10h2zm-15-1h2zm48 0h3q1 1-1 1-3 0-2-1m-85-3h2zm84-15h2zm-767-59q0-3 1-2v4q-1 1-1-2m277-51h4q1 1-2 1t-2-1m588-23h2q1 1-1 1t-1-1m-41-23h4q1 1-2 1-4 0-2-1m-806-3zv2zm-15-1zv2zm14-10zv2zm81-4zv2zm625-1h3q1 1-2 1-2 0-1-1m99 0h2zm100-4q0-4 1-3v5q-1 1-1-2m-906-3zv2zm511-6zv2zm223-2q0-2 1-1v2q-1 1-1-1m-735-5zv2zm-15-2zv2zm85 0zv2zm15-1zv2zm-86-12zv2zm72-1zv2zm-87-1zv2zm102 0zv2zm820-1q0-4 1-2v4q-1 1-1-2m-270-6h4q1 1-2 1t-2-1m-638-7q0-2 1-1v2q-1 1-1-1m74 0zv2zm15-1zv2zm661-1q0-2 1-1v2q-1 1-1-1m-765-1q0-2 1-1v2q-1 1-1-1m90-13q0-2 1-1v2q-1 1-1-1m760 1h2zm-836-4q0-3 1-2v3q-1 1-1-2m92-18q0-3 1-2v3q-1 1-1-2m-108-8q0-3 1-2v4q-1 1-1-2m94-13q0-3 1-2v4q-1 1-1-2m15-4q0-3 1-2v4q-1 1-1-2m-95-8q0-3 1-2v4q-1 1-1-2m-15-3c0-2 0-2-10-2l-9-1h9l11 1v3q-1 2-1-1m-85-3-3-1zl4 1v1zm162-1h6q3 1-3 1-6-1-3-1m39-1h4q1 1-2 1t-2-1m29-1h3q1 1-2 1-2 0-1-1m42-2h2q1 1-1 1t-1-1m17-1h2zm15-1h2zm13-1h2zm-324-8h5q1 1-2 1-4 0-3-1m213-1h4q1 1-2 1-4 0-2-1m48-2h3q1 1-2 1-2 0-1-1m19-1h2q1 1-1 1t-1-1m17-1h2zm14-1h2zm-122-31 1-4v7zm304-3q0-2 1-1v2q-1 1-1-1m88-3h5q1 1-3 1-3 0-2-1m-262-32h2zm-13-1h2zm-14-1h2zm-16-1h2q1 1-1 1t-1-1m-38-2h2q1 1-1 1t-1-1m-24-1h4q1 1-2 1t-2-1m-225-1h4q1 1-2 1t-2-1m199 0h2zm-53-1h8l-4 1zm194-6h2zm-12-1h2zm-13-1h2zm-14-1h2zm-55-3h3q1 1-2 1-2 0-1-1m-25-1h4q1 1-2 1t-2-1m-216-1h4q1 1-2 1t-2-1m184 0h4q1 1-2 1t-2-1m-62-1h8l-4 1q-8-1-4-1m460-1q0-3 1-2v3q-1 1-1-2m61-10h3q1 1-2 1-2 0-1-1m387-15zv2zm-418-20h2zm-417-20q1-6 1-3v6q0 3-1-3m787 5h2q1 1-1 1t-1-1m-870-16q0-4 1-3v5q-1 2-1-3" style="fill:#8dadd1" transform="translate(-29 -142)"/><path d="M731 1063q-2-1 0 0l2 2zm-588-8 2-2zl-2 2zm111-31 2-2q2-2 0 0zm442-73 4-4-3 4-4 3zm-508-40 2-2q2-2 0 0zm147-60q-1-1 0 0l2 2zm572-106 2-2zl-2 2zm-103-48-2-2zl3 3zm64-22 3-3-2 3-3 2zm-96-5q-2-1 0 0l2 2zm-405-5 2-2q2-2 0 0zm565-23q-2-1 0 0l2 2zm52-22 1-1q2-1 0 0 0 3-1 1m-816-22q-1-1 0 0l2 2zm843-16-2-2zl2 3zm-296-42q-2-1 0 0l2 2zm365-129q-2-1 0 0l2 2zm-299-13 4-4-3 4-4 3zm-627-10 2-2q2-2 0 0zm84-3q-1-1 0 0l2 2zm-49-9 2-2q2-2 0 0zm36-3q-1-1 0 0l2 2zm20-2q-1-1 0 0l2 2zm-68-4 2-2q2-2 0 0zm26-4 2-2q2-2 0 0zm28-5q-1-1 0 0l2 2zm-40-4 2-2q2-2 0 0zm29-7 2-2q2-2 0 0zm-31-8q-1-1 0 0l2 2zm1-20-3-3zl4 4zm38 0 3-3-2 3-3 2zm-75-15-2-2zl3 3zm547-1 2-2q2-1 0 0zm-429-5 3-4 4-2-3 3zm11-2q-1-1 0 0l2 2zm16-5q-1-1 0 0l2 2zm-169-7 2-2zl-2 2zm23-2 2-2q2-1 0 0zm-20-20-8-8zl9 9zm419 7-2-2zl2 3zm-304-9-2-3zl3 4zm-68-4 3-3-2 3-3 2zm-81-6-4-5zl5 6zm201-1 3-4 4-2-3 3zm42-22 3-3-2 3-3 2zm-271-7-2-2zl3 3zm19-1-2-3zl3 4zm245-6 3-3-2 3-3 2zm-146-14-13-13zl14 14zm39 12 2-2q2-1 0 0zm132-3 2-2zl-2 2zm-306-6q-1-1 0 0l2 2zm677-3 2-2zl-2 2zm-660-1q-1-1 0 0l2 2zm281-3 2-2zl-2 2zm20 0 2-2q2-1 0 0zm686-3q-2-1 0 0l2 2zM56 183q-1-1 0 0l2 2zm306 0 2-2q2-1 0 0zm20 0 2-2q2-1 0 0zm337-13 3-3-2 3-3 2zm-544-4-4-5 5 5 4 4zm848 2-2-2zl2 3zm-878-11-2-2zl3 3z" style="fill:#6a94c4" transform="translate(-29 -142)"/><path d="M64 1077h4q1 1-2 1-4 0-2-1m21 0h2q1 1-1 1t-1-1m779 0h4q1 1-2 1-4 0-2-1m21 0h2q1 1-1 1t-1-1m-413-1h2zm11 0h2q1 1-1 1t-1-1m81-5-2-2zl2 3zm-215-8-2-2zl2 3zm675-2q0-3 1-2v3q-1 1-1-1m-520-4q0-3 1-2v3q-1 1-1-1m-52-26zv2zm53-1q0-3 1-2v4q-1 1-1-2m-417-10h2zm365-1zv2zm-102-13zv2zm155-3q0-4 1-2v4q-1 1-1-2m-448-6h8q4 1-4 1-8-1-4-1m800 0h8q4 1-4 1-8-1-4-1m-695-83h4q1 1-2 1-4 0-2-1m800 0h4q1 1-2 1-4 0-2-1m-457-17q1-11 1-6zm91 7 1-1 1 2h-1zm539 0h2q1 1-1 1t-1-1m-17-1h2q1 1-1 1t-1-1m-851-5h2q1 1-1 1t-1-1m82-2q0-3 1-2v4q-1 1-1-2m270 2h2zm-334-1h2q1 1-1 1t-1-1m412-28-1-2zl2 3zm444-17h2q1 1-1 1t-1-1m-25-1h4q1 1-2 1t-2-1m-25-1h4q1 1-2 1t-2-1m-27-1h4q1 1-2 1t-2-1m-258-2h2zm-656-1h2q1 1-1 1t-1-1m19 0h3q1 1-2 1-2 0-1-1m781 0h2q1 1-1 1t-1-1m19 0h3q1 1-1 1-3 0-2-1m-345-1h2zm16 0h2q1 1-1 1t-1-1m361-76-2-3zl2 3zm-35-10q-2-1 0 0l2 2zM76 725v-13l1-10v11c0 11 0 12 2 12l3 1h-3zm10 0v-13l1-10v11c0 11 0 12 2 12q3 1 2-7l1-7v7q0 9-3 8zm16 0h2q1 1-1 1t-1-1m38 0h3q1 1-2 1-2 0-1-1m17 0c2 0 2-1 2-12l1-12v24zq-3 0 0-1m12 0v-11l1-9v10q0 12 2 10l3 1h-3zm47 0h3q1 1-2 1-2 0-1-1m14 0v-13l1-11v24h9l8 1h-8zm62 0q3 0 2-5l1-4 4-1h5l-5 1h-4v5q0 6-3 5-3 0 0-1m60 0h2zm16 0h3q1 1-2 1-2 0-1-1m13 0h10l-5 1zm18 0v-13l1-11v12c0 11 0 12 2 12q3 1 2-7l1-8v8q0 9-3 8zm16 0h2q1 1-1 1t-1-1m18 0h2q1 1-1 1t-1-1m15 0v-13l1-11v24h9l9 1h-9zm74 0h3q1 1-1 1-3 0-2-1m23 0q11 1 9-2 1-3 1 0 2 3-9 3h-9zm23 0h2zm18 0q3 1 2-5l1-6v6q0 7-3 6-3 0 0-1m14 0c2 0 2-1 2-12l1-11v24zq-3 0 0-1m9 0h2q1 1-1 1t-1-1m14 0h3q1 1-1 1-3 0-2-1m40 0h9l-5 1zm78 0q3 0 2-5l1-5v5q0 7-3 6-3 0 0-1m-622-4h2zm209 0h2zm213-3q0-3 1-2v4q-1 1-1-2m-351-8q0-8 1-4v8q-1 4-1-4m14 0q0-8 1-4v8q-1 4-1-4m450 4q0-3 1-2v3q-1 1-1-1m24 0q0-3 1-2v3q-1 1-1-1m38 0zv2zm-375-1q0-2 1-1v2q-1 1-1-1m295 0zv2zm60 0zv2zm184 0h3q1 1-1 1-3 0-2-1m-641-3h6q2 1-3 1-6 0-3-1m55-1q0-3 1-2v3q-1 1-1-1m91 1h6q2 1-3 1-6 0-3-1m72 0h6q2 1-3 1-6 0-3-1m84 0v-3q1-2 1 1-1 2 6 2l5 1h-5zm47 0v-5q1-5 1 1-1 5 4 4l5 1h-5zm-426-7zv2zm765-17h2q1 1-1 1t-1-1m8 0h3q1 1-1 1-3 0-2-1m-831-6q0-4 1-3v6q-1 2-1-3m14-6c0-11 0-12-2-12l-2-1h2l3 1zl-1 11Zm35 6q0-4 1-3v6q-1 2-1-3m14-6c0-11 0-12-2-12l-2-1h2l3 1zl-1 11Zm28 0v-12l9-1h9l-8 1h-9zl-1 12zm128 0c0-11 0-12-2-12l-2-1h2l3 1zl-1 11Zm5 0v-12l8-1h8l-7 1h-8zl-1 11zm26 8q0-3 1-2v4q-1 1-1-2m49-1q0-4 1-3v5q-1 1-1-3m73-7c0-12 1-13 3-13v1q-2-2-2 12l-1 12Zm-253 0q0-8 1-4v8zm278 4q0-3 4-3 3 0 0 1-3 0-3 2-1 3-1 0m15 0zv2zm-238-8q1-9-2-8l-2-1h2q4-2 3 10l-1 8Zm14 0q1-9-2-8l-2-1h2q4-2 3 10l-1 8Zm258 0q1-9-2-8l-3-1h3q4-2 3 10l-1 8Zm14 0q1-9-2-8l-3-1h3q4-2 3 10l-1 8Zm-326 4q0-3 1-2v3q-1 1-1-1m-49-1q0-2 1-1v2q-1 1-1-1m154 0zv2zm-239-6q1-6-2-5l-3-1h3q4 0 3 7-1 5-1-1m49 0q1-6-2-5l-3-1h3q4 0 3 7-1 5-1-1m201 0q1-6-2-5l-2-1h2q4 0 3 7-1 5-1-1m49 2q0-3 1-2v3q-1 1-1-1m98 0q0-3 1-2v3q-1 1-1-1m347 0h2zm-658-5q2-2-9-2l-9-1h9q12 0 10 4-1 2-1-1m79 0q2-2-9-2l-9-1h9q13 0 10 4-1 2-1-1m-138-3h3q1 1-2 1-2 0-1-1m91 0h6q2 1-4 1-5 0-2-1m77 0h3q1 1-2 1-2 0-1-1m66 0h4q1 1-2 1t-2-1m16 0h3q1 1-2 1-2 0-1-1m21 0h6q3 0-3 1-6 0-3-1m37 0h3q1 1-2 1-2 0-1-1m18 0h3q1 1-2 1-2 0-1-1m43 0h6q3 0-3 1-6 0-3-1m22 0h3q1 1-1 1-3 0-2-1m14 0h3q1 1-1 1-3 0-2-1m37 0h10l-5 1q-9-1-5-1m21 0h10l-5 1q-9-1-5-1m298-2h2zm-90-4q0-4 1-3v5q-1 1-1-3m68 3h6q3 0-3 1-6 0-3-1m-32-3h3q1 1-1 1-3 0-2-1m10 0h2zm168-6h2q1 1-1 1t-1-1m-280-16h3q1 1-1 1-3 0-2-1m23-8q1-6 1-3v6q0 3-1-3m-35 3-2-2zl2 3zm-501-4 2-2q2-2 0 0zm539-23zv2zm315-2zv2zm-866-18q0-3 1-2v3q-1 1-1-1m461-25zv2zm39-19-1-2zl2 3zm-258-10 2-2q2-2 0 0zm6-15q0-3 1-2v4q-1 1-1-2m562-5h3q1 1-1 1-3 0-2-1m-344-12 2-2q2-2 0 0zm-514-23zv2zm920-2q0-3 1-2v4q-1 1-1-2m-824-1zv2zm-81-2zv2zm66-3zv2zm736 1h2zm15-1h3q1 1-1 1-3 0-2-1m-833-4zv2zm83-8zv2zm632 1h10l-5 1q-9-1-5-1m-189-5zv2zm-527-1zv2zm643 0h2q1 1-1 1t-1-1m107-1zv2zm-735-5zv2zm868 0h4q1 1-2 1-4 0-2-1m38-6q0-3 1-2v4q-1 1-1-2m-922-3zv2zm102 0zv2zm-87-6q0-2 1-1v2q-1 1-1-1m72 0q0-2 1-1v2q-1 1-1-1m558-5h4q1 1-2 1t-2-1m-542-4zv2zm-104-1q0-2 1-1v2q-1 1-1-1m813-1 2-2q2-2 0 0zm-724-5q0-2 1-1v2q-1 1-1-1m-74-1q0-2 1-1v2q-1 1-1-1m176 1h2zm663-11h2zm38-1h7l-4 1zm-905-3 2-2q2-2 0 0zm27-4 2-3 3-1-2 2zm68-3q-1-1 0 0l2 2zm24-6q0-3 1-2v3q-1 1-1-2m-79-3 2-2q2-2 0 0zm-29-4q0-3 1-2v4q-1 1-1-2m71 1q-1-1 0 0l2 2zm22-3q0-3 1-2v3q-1 1-1-2m-8-5q-1-1 0 0l2 2zm-70-2q0-3 1-2v4q-1 1-1-2m196 1q-2-1 0 0l2 2zm-168-1 2-2q2-2 0 0zm-20-2 2-2q2-2 0 0zm32-2-1-2zl2 3zm54-3q0-3 1-2v4q-1 1-1-2m-39-5q-2-1 0 0l2 2zm24-5q0-3 1-2v4q-1 1-1-2m-95-1q0-4 1-2v4q-1 1-1-2m39 1q3-1-1-4l-2-3 3 2q4 3 1 5l-2 2zm-110 0 3-4 4-2-3 3zm-38-1 2-2q2-2 0 0zm129-10h8q4 1-4 1t-4-1m-116-1h5q1 1-2 1-4 0-3-1m184 0h6q2 1-3 1-4 0-3-1m37-1h4q1 1-2 1-4 0-2-1m26-1h3q1 1-2 1-2 0-1-1m41-2h2zm16-1h2zM75 322h6q2 1-3 1-6 0-3-1m177-2q0-3 1-2v3q-1 1-1-2m18 1h4q1 1-2 1-4 0-2-1m27-1h4q1 1-2 1t-2-1m25-3q-1-1 0 0l2 2zm18 1h2q1 1-1 1t-1-1m17-1h2zm15-1h2zm-190-4-3-4zl4 5zm203 3h2zm-230-4q0-3 1-2v4q-1 1-1-2m77 4 3-4 4-2-3 3zm458-3h2zm-422-11 2-2q2-1 0 0zm-131-4 4-4-3 4-4 3zm33-5q1-8 1-4v8zm131 2q-1-1 0 0l2 2zm-22-1q-1-1 0 0l2 2zm-26-21q0-6 1-3v6q-1 2-1-4m-111-1 3-4 4-2-3 3zm146-11-10 11Zm-17 3-2-2zl2 3zm-100 1 3-4 4-2-3 3zm70-11-3-3zl4 4zm79-4 5-5zl-6 5zm47-3h2zm-15-1h2zm-16-1h2q1 1-1 1t-1-1m-246-2-1-2zl2 3zm81 0q3-2 0-2-2-1 1-1l2 1zl-2 2Zm22 1 2-2q2-1 0 0zm103-1h4q1 1-2 1t-2-1m-25-1h4q1 1-2 1-4 0-2-1m-209-1h5q1 1-2 1-4 0-3-1m334-7h2zm-24-2h2zm-14-1h2zm-15-1h2zm-38-2h3q1 1-2 1-2 0-1-1m-24-1h4q1 1-2 1t-2-1m-232-1h4q1 1-2 1t-2-1m201 0h3q1 1-2 1-2 0-1-1m-153-1h3q1 1-2 1-2 0-1-1m1002-3-3-3zl4 4zm-945-9q1-11 1-6zm192 10 3-3-2 3-3 2zm308 0zv2zm-328-1 3-4 4-2-3 3zm-261-5-1-2zl2 3zm159-2 2-2q2-1 0 0zm139-10 2-2zl-2 2zm-289-1-1-2zl2 3zm162 0 2-2q2-1 0 0zm-187-4-1-2zl2 3zm298 0 2-2zl-2 2zm-100-6 2-2q2-1 0 0zm127-1 2-2q2-1 0 0zm-146-2 2-2q2-1 0 0zm-169-4q-1-1 0 0l2 2zm300 0 2-2q2-1 0 0zm11-12 2-2q2-1 0 0zm-219-11-3-3zl4 4zm882 0h4q1 1-2 1t-2-1m-863-7q0-3 1-2v4q-1 1-1-2m98-6q0-3 1-2v4q-1 1-1-2m-113-6q0-2 1-1v2q-1 1-1-1m-25-1q-1-1 0 0l2 2z" style="fill:#487bb7" transform="translate(-29 -142)"/><path d="M59 1077c-13-1-18-2-23-5q-7-5-7-18c0-14 7-45 12-51q2-3 6-4h32q6 1 4 13c0 8 0 8 2 9 4 0 13-2 16-5 7-8 2-21-17-54-14-23-19-36-18-50q1-19 18-36 33-33 90-29 21 1 24 8c5 6 2 33-4 46-5 12-9 13-32 13-16-1-17-1-17-8v-4h-4q-11 2-14 8c-1 4-1 4 13 30 18 36 21 46 21 65q0 38-26 56-18 13-44 16zm521 0q-10 0-16-7c-7-8-20-25-22-30-2-4-2-4 0-11l32-118-9 3c-11 4-12 4-15 1v-10c2-11 8-29 11-36 4-7 8-10 22-14q61-20 102 4c9 5 19 15 23 22 9 16 9 36 1 52-4 9-18 23-27 29l-6 4 4 6q15 21 13 39-2 29-31 48a124 124 0 0 1-82 18m43-54q12-6 13-16 2-11-7-15c-6-3-7-5-9-19l-2-11a689 689 0 0 0-18 64l8 1q8-1 15-4m14-83q12-5 15-12 8-12 0-22c-5-6-21-9-36-7-9 1-19 4-19 5l5 1q15 2 23 6c5 3 5 5-3 31q-1 3 4 2zm222 137c-18-1-24-4-28-11q-3-3-2-13c0-14 7-44 11-49s8-6 23-6c20 0 22 1 20 15q-2 10 6 7 10-1 13-6 5-4 0-16c-3-8-6-15-16-32q-15-24-18-38c-7-25 7-50 35-67q30-17 71-14c20 1 26 5 27 17 1 11-4 35-9 42s-7 8-27 8c-19 0-20-1-20-8v-4h-4q-10 2-14 8c-1 3-1 4 13 32 19 37 20 42 20 62 0 17-1 26-7 37-9 17-29 30-52 34-10 2-28 3-42 2m-391-1q-18-1-17-18l4-57-4 7-7 10c-3 2-4 3-15 3h-12l-9 20c-9 22-12 29-16 32-6 5-33-1-42-10-5-6-5-9 2-26l5-15-3-2q-2-1-2-10 0-15 8-31c5-11 8-13 18-14l8-1 27-51 30-57c5-7 9-8 20-8 11 1 30 5 35 8 7 5 7 8 8 35a2271 2271 0 0 1-4 176q-2 8-15 9zm-7-138 3-27-5 10-19 43 9 1h9zm-252 136q-8 0-12-11-10-24-6-34a2661 2661 0 0 1 102-132l-17 1h-54c-2-2-1-13 2-22 4-13 10-26 13-27l48-1h47l3 4c7 7 15 29 15 43 0 6 0 7-4 12l-91 118q0 2 31 2h29l1 2c2 4 0 21-2 27q-4 12-14 17a600 600 0 0 1-92 1m837-1q-15-2-19-7c-4-4-2-11 20-88l22-74-22-1c-19 0-23-1-25-2q-9-6 0-35 4-10 7-13l4-4h10l123 7q3 2 2 8c0 8-5 26-9 34-4 7-5 7-29 6l-31-1-9 1 6 1 20 10q4 4 1 17l-43 142c-3 1-17 1-28-1m-297-2q-20-4-21-15a1701 1701 0 0 1 57-202q3-7 19-6c18 0 33 4 36 11q3 4-1 19l-53 190q-2 7-18 6-9 0-19-3M47 638V499l4-3 103-88 5-4 1 27q4 68 12 114l2 13-4 4c-16 14-9 41 13 44q6-1 7 6 7 10 13 14 9 4 17 0 31-17 44-207v-10l14 12c55 50 104 86 134 101q31 17 43 3c15-15-5-54-67-131l-22-29-16-16-12-14 10-1c85-6 110-9 146-17q53-10 62-27 4-9 0-16-8-16-65-28l-23-4c-12-2-11-1-13-7q-7-17-24-17-15 1-23 13c-1 3-1 3-8 3l-55-5h-5l9-10 56-62 14-15h305l-18 9q-18 5-7 9l5 2-3 1-4 1q-5 0-16 8c-8 7-11 8-17 4q-8-7-9 3 1 7 10 12 8 4 4 4-16 10-24 18-5 4-5 9l1 5 6-2 6-4v9q-1 3-8 7-12 7-12 11l4 6 6 10 5 5 2 2-4 2q-12 6 1 7 9-1 15 6 8 7 13-2l1-3 3 3q6 6 4 16-1 9 5 12c3 1 3 1 10-6 8-9 10-9 17 0q8 12 10 22c0 4-1 7-15 35l-17 36c-2 6-2 7-1 12 2 5 2 6 0 11l-3 25c-3 34-4 39-12 49a93 93 0 0 0-20 37q0 3 4 7c12 10 12 11 12 15q-3 14 9 18 9 2 12 7l2 10q3 17 11 25c3 4 10 8 12 8l5 4q9 8 17 6 5-2 0-7-9-14-11-22-2-10-17-32l-10-18q-1-7 3-19l1-3 6 7q15 14 17 24 4 12 10 20l9 5q7 3 10 7c4 3 4 3 1 20s2 42 10 53l16 14q25 20 28 29c1 4 1 4-1 10-2 8-3 11 0 20 1 7 9 24 14 31l3 5H47Zm35 75v-12h-3l-2 1-1 10v13l3 1c2 0 3-1 3-13m10 6v-7l4 7q5 7 7 6h3v-24h-2c-3 0-3 0-3 8v7l-5-7q-5-9-7-8c-2 0-3 1-3 11v13l3 1q3 1 3-7m34 5q3-2 3-5 1-7-8-9-8-2-3-5 3 0 4 2 5 5 6 0-1-5-8-6-7 0-9 5-2 6 7 9 11 5 2 6-4 1-5-2 0-2-3-2-5 1 0 7 8 4 14 0m18-8v-10h4q4 1 3-2c0-3 0-3-9-3-10 0-10 0-10 3q-1 3 4 2h3v20h5zm16-2v-12l-3-1h-3v12l1 12 2 1c2 0 3-1 3-12m15 2v-10h4q4 1 3-3v-2h-10c-9 0-9 1-9 3q-1 2 3 2h3v9l1 10 2 1q3 2 3-10m25 9q5-3 5-16 0-9-3-8h-3v20h-7l-1-10q0-12-3-10h-3v9q0 14 4 15zm20-9v-10h4q4 1 3-2c0-3 0-3-9-3-10 0-10 0-10 3q-1 3 4 2h3v20h5zm29 7q2-2-6-2h-7v-3q-1-4 6-3 6 1 5-2 1-4-5-3-7 1-6-2-1-2 6-2 8 1 6-3v-2h-17l-1 11v13l10 1q11 0 9-3m33 0q4-3 3-9 0-13-12-13-9 0-11 11 0 14 12 14 4 0 8-3m-13-4-1-6q0-5 2-6 4-4 8 0 4 5 0 12c-1 2-7 3-9 0m26 2v-5h5q5 1 4-2 1-4-4-3-6 1-5-2-1-4 6-3 6 1 5-2c0-3 0-3-8-3h-9v12l1 12 2 1q3 1 3-5m40 3q3-2 3-5 1-7-8-9-8-2-3-5 3 0 4 2 5 5 6 0-1-5-8-6-7 0-9 5-2 6 7 9 11 5 2 6-4 1-5-2 0-2-3-2-4 1 0 7 8 4 14 0m22 1q6-5 4-8-2-2-5 1-3 5-7 1c-3-2-3-9 0-12q4-4 7 0 4 3 6 0l-2-3q-7-6-14-1-6 6-4 14 1 5 7 8zm15-11v-13h-5v25h5zm23 10q2-4-6-3h-7v-6h6q8 1 6-2 1-3-6-3-7 1-6-2-1-2 7-2 8 1 6-2c0-3 0-3-9-3h-9v25h9c9 0 9 0 9-2m10-5v-7l4 7q5 7 7 6h3v-24h-2c-3 0-3 0-3 8l-1 7-4-7q-5-9-7-8c-2 0-3 1-3 11v13l3 1q3 1 3-7m33 6 5-4q2-5-1-4-2-1-5 2-1 3-5 1c-5-1-5-11 0-14q2-2 5 1 8 5 6-1c-3-6-11-7-16-2-6 5-5 17 2 21zm29-2q2-2-6-2h-7v-3q-1-4 6-3 6 1 5-2 1-4-5-3-7 1-6-2-1-2 6-2 8 1 6-3v-2h-17l-1 11v13l10 1q10 0 9-3m26 2h4q2 2 4-1 2-1-1-3v-4q1-3-2-3h-5q-2-1 1-4c4-3 1-9-5-9q-8 0-6 7 2 4-1 6l-2 5c0 5 8 9 13 6m-7-5v-5q3 1 5 5zm1-13q0-4 3-2 2 2-1 3zm39 9v-10h4q4 1 3-2c0-3 0-3-9-3-10 0-10 0-10 3q-1 3 4 2h3v20h5zm29 7q1-2-6-2h-7v-3q-1-4 6-3 6 1 5-2 1-4-5-3-7 1-6-2-1-2 6-2 8 1 6-2c0-3 0-3-9-3h-9v12l1 12 9 1q11 0 9-3m21-1q6-6 1-5-3-1-4 2c-4 5-10 1-10-6q1-7 6-8l3 2q5 5 6 0-1-5-9-6-11 0-11 12 0 9 6 11 7 4 12-2m13-2v-5h8v5q0 7 3 6h3v-24l-3-1q-4-1-3 4v5h-4q-5 1-4-4 0-5-3-5h-3v12l1 12 2 1q3 1 3-6m24-1 1-7 4 7q4 7 6 7h3v-25h-2q-4-2-3 7v7l-5-7q-4-8-7-7h-2v13c0 12 0 12 2 12q3 1 3-7m36 6q6-5 5-14 0-4-3-7-3-4-8-3-5-1-8 3-5 5-3 14 5 11 17 7m-10-6-2-6q0-5 2-7 6-2 9 2c2 3 1 10-1 11q-4 3-8 0m37 5q2-4-6-3h-6v-20h-5v25h9c8 0 8 0 8-2m21 0c6-4 7-15 1-20q-3-4-8-3-5-1-8 3-6 6-2 15 5 11 17 5m-11-5q-3-5-1-11 3-4 9-2 3 2 2 7l-2 6q-4 4-8 0m38 6c3-2 3-2 3-8v-5h-5q-6 0-5 3 0 2 2 2c6 0 3 4-3 4s-8-9-4-14q4-5 8 0 9 4 5-3-2-4-8-3-6-1-9 4c-3 3-3 3-3 9q1 9 7 11zm20-5q0-7 4-12l4-7h-3q-3 0-5 4l-3 4-3-4q-2-4-5-4l-3 1 4 7q4 6 4 11 0 7 3 6 3 1 3-7M93 684q6-9-6-13-8-4-2-5l4 2c0 2 5 1 5-1q-1-5-9-6l-7 2q-6 8 6 12 9 3 4 6-3 3-6-1-4-4-6-2v3q2 5 9 5zm12-4v-5h8v6q-1 6 3 5h3v-24h-3q-3-1-3 4v5h-8v-5q0-5-3-4h-2l-1 12v12h3q3 1 3-6m23 3q0-4 5-3 4-1 5 3 1 3 4 3l2-1-4-12q-5-13-7-12-3-1-4 4l-5 13-3 8h3q3 0 4-3m3-10q2-6 3-1 2 5-1 4-4 1-2-3m23 7v-5h8v6q-1 6 3 5h3v-24h-3q-3-1-3 4v5h-8v-5q0-5-3-4h-2l-1 12v12h3q3 1 3-6m37 4q2-4-6-3h-7v-6h6q7 1 6-2 1-2-6-2-7 1-6-2-2-4 7-3 8 1 6-2 2-3-9-3h-9v25h9c9 0 9 0 9-2m23 0q2-4-6-3h-7v-3q-1-4 6-3 6 1 5-2 1-2-5-2-7 1-6-2-1-4 6-3 8 1 6-3v-2h-17l-1 11v13l10 1c9 0 9 0 9-2m18 1q6-2 6-11 0-14-15-13h-4l-1 13v12h6zm-8-11v-8h3q6 0 6 8 1 7-6 7h-3Zm46 10q2-4-7-3h-6l6-8c9-10 9-11-2-12-9 0-9 0-9 2q-1 4 5 3h5l-6 8q-6 7-6 9v3h20zm20 0q3-3 3-16 0-7-3-6c-2 0-3 0-3 9q0 14-5 10c-3-1-3-1-3-10s-1-9-3-9h-2v10c0 10 0 10 2 12 3 3 11 3 14 0m25 0q2-4-6-3h-6v-20h-5v25h9c8 0 8 0 8-2m9-10v-12h-5l-1 12v12h6Zm10 7v-5h5q6 0 5-2 1-3-5-3-6 1-5-3-1-2 6-2 6 1 5-3c0-2 0-2-8-2l-8 1-1 10v13l3 1q4 1 3-5m21 0q0-10 6-1l3 6h7q7 1 7-3t5-3q4-1 5 3 1 3 4 3l2-1-4-12q-5-13-7-12c-3 0-3 1-7 12l-5 12-5-7-4-7 4-4 4-5-3-1q-3 0-7 5l-4 4-1-4q0-5-3-5h-2l-1 13v12h3q3 1 3-5m26-8q2-6 3-1 2 5-1 4-4 1-2-3m23 8q-1-11 9 3 1 3 4 2l3-1-3-5-4-5 3-2q4-4 0-9-1-2-10-2h-7l-1 12v12h3q3 1 3-5m0-13q-1-2 4-2 4 0 4 3 1 3-4 2-5 1-4-3m31 15q1-4 6-3 5-1 5 3 0 3 3 3h3l-3-8-4-12q-2-6-5-5-2-1-7 12l-4 12 3 1zm3-7 1-4 1-3 2 3q2 5-1 4zm35 8q2-4-6-3h-6v-20h-5v25h9c8 0 8 0 8-2m9-10v-12h-3c-2 0-3 0-3 10v13l3 1h3zm30 11q3-1 4-4 2-3-1-6-2-2 0-5 4-8-14-9h-4l-1 13v12h7zm-10-6q-1-4 4-3 6 0 5 2 1 3-5 3-5 1-4-2m0-10q-1-4 4-3 4 0 4 2 0 3-4 3-5 0-4-2m24 12v-6h9v6q-1 6 3 5h2v-25h-2q-4-1-3 5v5h-9v-5q1-6-2-5h-3v25h3q3 1 2-5m36 3q3-3 3-16 0-7-3-6c-2 0-3 0-3 9q1 14-5 10c-3-1-3-1-3-10s-1-9-3-9h-2v10c0 10 0 10 2 12 3 3 11 3 14 0m18-8v-10h4q4 1 3-2c0-3 0-3-9-3-10 0-10 0-10 3q-1 3 4 2h3v20h5zm21 0v-10h4q4 1 3-2c0-3 0-3-9-3-10 0-10 0-10 3q-1 3 4 2h3v20h5zm28 7c6-5 5-18-3-21q-7-3-13 2-4 3-3 9 0 13 12 13 4 0 7-3m-12-3c-4-5-2-14 4-14q7 0 6 8 1 5-2 6-4 4-8 0m389 91q-5-6-16-8c-10-3-10-3-11 1q-1 3-4 3t-5-4-12-9c-8-5-9-6-11-4q-4 2-11-1h-20q-3 1-4-3-2-5-6-1-2 3-8-1-3-3-5-1l-5 3q-3 2-7-3l-9-7c-6-4-7-5-8-12 0-5-1-5-6-10q-12-9-1-8l8-1c4 0 4 0 8 4l5 4h13q12-1 13-3 4-5 4 0v3c0 1 7-1 9-3q2-3 6 0l9 3q6 1 11-2c10-5 18-15 15-19q-2-6-36-6l-1-3q-1-7-8-7-4-1-5 2 0 4-14 4-15 0-6-3 7-2 3-5-3-3-8 3-4 4-5 2l-1-3-2-4-2-2-4 4q-6 5-7 3l-1-5v-3h-8c-7 0-8 1-11 3q-8 6-10 0l-1-3-10 5q-1 2-10-3l-9-5v-17q-2-5 1-9 3-8 14 2 6 4 5 8-1 3 4 4l14 2q17 1 7-6l-5-5 3-1q3 0 6 4c3 3 7 10 7 12q1 4 6 1c2-2 2-2 18-2l17 1 3-4 4-3 7 5q5 6 7 5l3-3 8-1q13 0 9-7-6-9-10-11h-7l-8 2q-4 1-3-2l1-5q1-2-3-10l-26-36q-10-12-7-13 1-2 3 1l5 8 2 5 4-3q17-11 29 7 5 8 8 3 5-4 8 0 4 5 11 5 6 0 24-10l15-7q8-2 11-6 4-1-3-7-7-8-4-8 5 1 18 14c7 6 9 9 13 17q6 16 16 15c6 0 8-1 24-8l14-6q2 0 2 3 2 8 5 3l3-2 2 11c1 10 1 10-1 17l-8 21-13 30q-10 26-26 52l-12 22c-9 17-11 20-15 20q-4 0-6-3m16-123c2-1-5-20-9-25q-6-8-14-8-26 3-8 9c7 4 8 4 11 10q7 12 11 15 6 1 9-1m-813-37-5-6-2-4 3-3a25 25 0 0 0-11-41l-4-2-2-10c-6-33-11-90-14-141v-14l17-16 18-15 40 40-5 70c-7 74-18 129-29 141q-4 4-6 1m220-98q-33-12-109-76l-49-43-6-5 1-16 1-26v-10h6l26-1 19-1 2 3 12 13 9 11-3 2c-13 6-17 26-7 37 10 12 28 12 38 1q3-3 4-2c7 8 34 43 43 57 18 26 30 50 28 56q-3 4-15 0m582-8-12-6-17-9q-14-7-11-9 1-1 7 1l9 3q3 0 17 8c16 9 19 10 28 6q9-2 5-7c-2-5-20-22-25-25-5-2-6-2-18-2h-26l-3-4q-2-4-3-12-3-9-1-14 3-11 11-19 12-15 39-16c10-1 10-1 16-5l7-4 7 4c5 3 6 3 15 4 8 0 9 1 14 4l9 7 3 4 1 30v31l-2 2-16 15c-17 13-19 14-36 15-11 0-13 0-18-2m40-64 5-2-3-3c-6-5-25-16-26-15l-4 5c-3 8-1 10 14 14q8 3 14 1m-200 41c-2-4 23-16 34-16l4 1-5 6q-6 6-15 6l-9 2c-8 2-8 2-9 1M47 434c0-53 0-50 8-46 13 5 27 0 33-12q6-10 0-22l-2-5 5-6 4-5h9l31 1h21v13l1 22 1 10-18 16c-32 29-91 79-93 79zm857 26c-5-6-7-6-26-7-21 0-23 0-34-7l-8-4-4 3-3 3-5-3-5-3-5 2q-9 5-16 2-1-2-13-2h-11l-1-3q-3-3 0-6c2-4 13-12 18-13h18q27 0 43-4 11-2 4-8c-6-5-47-23-56-25q-3-1-7 3-14 8-20 21-6 12-10 11c-4-2 1-19 8-27 6-7 31-16 54-19q28-4 57 9c10 4 28 15 36 21q7 5 6 8c0 4-1 5-8 14-2 3-5 17-5 27q0 10-3 10zm-669-99-15-13 5-5 4-5h23l-1 15-1 19v3Zm-62 4-1-16v-10h17l4 4 4 5-7 6-12 11-5 5zM47 342v-5h8l19 2-7 1q-10 0-17 5l-3 2Zm18-20H47v-81h21l20-1 21 21 21 21-20 20c-18 19-21 21-23 21zm61-14 15-15 7 7 7 6 1 9v8h-45Zm57 4-12-12v-18l-1-18 13-12 13-12h33l12 13 12 13v29l-15 14-15 14h-28Zm66 8 3-3v3q1 3-3 2h-2zm19-9v-10l5-4 5-5 6 7 13 13 6 7-4 1-18 1h-13Zm39-11-18-19 18-19 19-18 17 1 64 7c1 4 8 11 13 14 10 4 23 2 30-6l3-4h6c19 3 53 10 66 15q16 6 17 11-1 7-27 15c-33 9-102 18-178 22h-13zm-154-17 1-2q1-2 1 1 0 4-2 1m-27-28-15-15h44v19l-7 6-7 6zm147 9-4-5v-17h11l17 1h7l-13 13-13 13zm-20-21v-2l1 2v1zm-83-1 2-2v2l-2 1zm918-11-12-15c-16-22-18-24-33-34a89 89 0 0 1-21-17l2-1c2-1 28 1 31 2s28 21 31 24l2 10c1 10 2 13 9 20q7 7 5 7c-9 6-11 7-14 4m-792-4-20-1h-7v-53l18-15 18-16h46c46 0 47 0 46 2l-72 79c-6 6-3 5-29 4M47 211v-15l9 9 13 15 5 5H47Zm183 8-6-5 9-8 14-13 7-6v38h-19zM79 207l-24-26-8-8v-31h82l13 13 13 12v10l-1 29v18H95Zm91-4v-21l16 16 16 15-5 6-6 5h-21Zm525 9q-9-3-10-9 0-2 4-4c7-3 11-6 20-17 12-14 16-18 21-18 4-1 15 1 19 4q8 5-6 9-7 1-7 5c-4 14-4 15-9 19q-13 11-24 12zm-503-30-21-22v-18h82v26l-15 13-20 18-5 4zm77-34-1-6h13l-6 6-6 5zm-116-4v-2l2 2v1z" style="fill:#0b509f" transform="translate(-29 -142)"/></svg>