<svg xmlns="http://www.w3.org/2000/svg" id="ai-pm_svg_a" width="800" height="800" viewBox="0 0 48 48"><defs><style>.ai-pm_svg_j{fill:none;stroke:currentColor;stroke-linecap:round;stroke-linejoin:round}</style></defs><path id="ai-pm_svg_b" d="M43.5 37.5v-27a2 2 0 0 0-2-2h-35a2 2 0 0 0-2 2v27c0 1.1.9 2 2 2h35a2 2 0 0 0 2-2" class="ai-pm_svg_j"/><path id="ai-pm_svg_c" d="M40.5 34.9V13c0-.88-.76-1.6-1.7-1.6H9.2c-.94 0-1.7.72-1.7 1.6h0v22c0 .88.76 1.6 1.7 1.6h29.6c.94 0 1.7-.72 1.7-1.6z" class="ai-pm_svg_j"/><path id="ai-pm_svg_d" d="m7.5 26 2-10 .5 14 2-8 3 3 2-10 .5 14.5 2-6.5 3 2 1-3 .8 9 1.2-2" class="ai-pm_svg_j"/><path id="ai-pm_svg_e" d="M23.5 15.9h14V29h-12v-3H31v-4h-7.5z" class="ai-pm_svg_j"/><path id="ai-pm_svg_f" d="M18 32v1.5" class="ai-pm_svg_j"/><path id="ai-pm_svg_g" d="M25.5 32v1.5h-15V32" class="ai-pm_svg_j"/><path id="ai-pm_svg_h" d="M31 26h6.5" class="ai-pm_svg_j"/><path id="ai-pm_svg_i" d="M31 22v-6.1" class="ai-pm_svg_j"/></svg>