<svg xmlns="http://www.w3.org/2000/svg" width="800" height="800" viewBox="0 0 512 512"><title>ai</title><path fill="currentColor" fill-rule="evenodd" d="M384 128v256H128V128zm-148.25 64h-24.93l-47.34 128h22.5l8.93-25.02h56.67l8.74 25.02h23.85zm88.34 0h-22.4v128h22.4zm-101 21.48 22.32 63.85h-44.27zM405.33 320H448v42.67h-42.67zm-256 85.33H192V448h-42.67zm85.34 0h42.66V448h-42.66zM149.33 64H192v42.67h-42.67zM320 405.33h42.67V448H320zM234.67 64h42.66v42.67h-42.66zM320 64h42.67v42.67H320zm85.33 170.67H448v42.66h-42.67zM64 320h42.67v42.67H64zm341.33-170.67H448V192h-42.67zM64 234.67h42.67v42.66H64zm0-85.34h42.67V192H64z"/></svg>