<svg xmlns="http://www.w3.org/2000/svg" width="800" height="800" fill="currentColor" viewBox="-3 0 32 32"><title>balance</title><path d="m25.76 14.92-.08-.32-3.48-7.32a.7.7 0 0 0-.64-.44h-7.88v-1.8c0-.48-.36-.84-.84-.84s-.84.32-.84.76V6.8H4.24c-.24 0-.52.24-.64.48L.08 14.56l-.08.32c0 2.4 1.92 4.32 4.32 4.32s4.32-1.92 4.32-4.32c0-.04 0-.2-.08-.32L5.64 8.44H12v17.72H5.24c-.48 0-.84.36-.84.84s.36.84.84.84h15.2c.48 0 .84-.36.84-.84s-.36-.84-.84-.84h-6.76V8.44h6.36l-2.92 6.12c-.08.12-.08.32-.08.32a4.3 4.3 0 0 0 4.32 4.32c2.4.04 4.4-1.88 4.4-4.28M4.32 9.56l2.16 4.52H2.16zm0 8a2.7 2.7 0 0 1-2.52-1.8h5a2.6 2.6 0 0 1-2.48 1.8m19.28-3.48h-4.36l2.16-4.52zm-2.2 3.48a2.7 2.7 0 0 1-2.52-1.8h5a2.6 2.6 0 0 1-2.48 1.8"/></svg>