<svg xmlns="http://www.w3.org/2000/svg" width="800" height="800" fill="currentColor" viewBox="0 0 1024 1024"><path d="M99.01 149.45c-118.36 117.43-118.36 307.9 0 425.33l104.88 104.2a20.48 20.48 0 1 0 28.87-29.07l-104.89-104.2c-102.22-101.42-102.22-265.77 0-367.19 102.3-101.5 268.23-101.5 370.54 0a20.5 20.5 0 0 0 28.85 0c102.3-101.5 268.24-101.5 370.54 0 102.22 101.42 102.22 265.77 0 367.18l-49.04 48.75a20.48 20.48 0 1 0 28.88 29.05l49.03-48.73c118.35-117.43 118.35-307.89-.02-425.33C813.08 36.76 631.8 32.28 512.84 136.02 393.88 32.28 212.6 36.76 99 149.44z"/><path d="m572.47 263.52 276.21 276.22a38.7 38.7 0 0 1-54.72 54.72L692.83 493.3a20.48 20.48 0 1 0-28.96 28.97L765 623.42a79.66 79.66 0 0 0 112.64-112.64L601.43 234.55a20.48 20.48 0 1 0-28.96 28.96"/><path d="m547.17 404.89 217.67 217.66a38.69 38.69 0 1 1-54.72 54.72L608.99 576.14a20.48 20.48 0 1 0-28.96 28.96l101.13 101.13a79.64 79.64 0 0 0 112.64 0 79.64 79.64 0 0 0 0-112.65L576.14 375.92a20.48 20.48 0 1 0-28.96 28.97"/><path d="M464.98 490.36 681 706.4a38.69 38.69 0 1 1-54.72 54.72L371.68 506.5a20.48 20.48 0 1 0-28.97 28.96l254.6 254.6a79.64 79.64 0 0 0 112.65 0 79.64 79.64 0 0 0 0-112.64L493.94 461.4a20.48 20.48 0 1 0-28.97 28.96M569.56 233.5 406.84 395.18a18.4 18.4 0 0 1-18.38 4.63l-47.12-14.36a10.24 10.24 0 0 1-4.26-17.03l195.64-195.64a20.48 20.48 0 1 0-28.96-28.97L308.12 339.46c-27.33 27.34-15.68 73.93 21.3 85.18l47.12 14.35a59.4 59.4 0 0 0 59.22-14.8l162.67-161.65a20.48 20.48 0 1 0-28.87-29.05"/><path d="M344.39 590.34a36.74 36.74 0 0 0 0-51.95l-2.77-2.77a36.74 36.74 0 0 0-51.95 0l-59.32 59.32a36.74 36.74 0 0 0 0 51.96l2.76 2.76a36.74 36.74 0 0 0 51.96 0zm28.96 28.96-59.32 59.32a77.7 77.7 0 0 1-109.88 0l-2.76-2.76a77.7 77.7 0 0 1 0-109.88l59.32-59.32a77.7 77.7 0 0 1 109.88 0l2.76 2.76a77.7 77.7 0 0 1 0 109.88"/><path d="m428.41 622.41-2.76-2.76a36.74 36.74 0 0 0-51.96 0l-59.32 59.32a36.74 36.74 0 0 0 0 51.95l2.77 2.77a36.74 36.74 0 0 0 51.95 0l59.32-59.32a36.74 36.74 0 0 0 0-51.96m-30.36 140.24a77.7 77.7 0 0 1-109.88 0l-2.76-2.77a77.7 77.7 0 0 1 0-109.88l59.32-59.32a77.7 77.7 0 0 1 109.88 0l2.76 2.77a77.7 77.7 0 0 1 0 109.88z"/><path d="M512.44 758.39a36.74 36.74 0 0 0 0-51.95l-2.77-2.77a36.74 36.74 0 0 0-51.95 0L398.4 763a36.74 36.74 0 0 0 0 51.96l2.76 2.76a36.74 36.74 0 0 0 51.96 0zm28.96 28.96-59.32 59.32a77.7 77.7 0 0 1-109.88 0l-2.77-2.76a77.7 77.7 0 0 1 0-109.88l59.32-59.32a77.7 77.7 0 0 1 109.88 0l2.77 2.76a77.7 77.7 0 0 1 0 109.88"/><path d="m596.46 790.46-2.76-2.76a36.74 36.74 0 0 0-51.96 0l-59.32 59.32a36.74 36.74 0 0 0 0 51.95l2.77 2.77a36.74 36.74 0 0 0 51.95 0l59.32-59.32a36.74 36.74 0 0 0 0-51.96M566.1 930.7a77.7 77.7 0 0 1-109.88 0l-2.76-2.77a77.7 77.7 0 0 1 0-109.88l59.32-59.32a77.7 77.7 0 0 1 109.88 0l2.76 2.77a77.7 77.7 0 0 1 0 109.88z"/></svg>