<svg xmlns="http://www.w3.org/2000/svg" width="70" height="120" viewBox="0 0 70 120"><path fill="#0d9488" d="M32.76 18.78q10.3 0 16.38 3.64t8.74 11.81q2.65 8.16 2.65 21.89t-2.65 21.89q-2.66 8.17-8.74 11.81t-16.38 3.64-16.38-3.64T7.7 78.01 5.1 56.12t2.6-21.89 8.68-11.81 16.38-3.64m-.1 12.48q-3.44 0-5.72 1.15-2.29 1.14-3.64 3.85-1.36 2.7-1.93 7.54t-.57 12.32q0 7.38.57 12.27t1.93 7.59 3.64 3.85 5.72 1.15q3.53 0 5.87-1.15 2.34-1.14 3.75-3.85 1.4-2.7 1.97-7.59t.57-12.27q0-7.49-.57-12.32t-1.97-7.54-3.75-3.85-5.87-1.15"/><path stroke="#0d9488" stroke-linecap="round" stroke-width="9" d="M53 24 14 88"/><rect width="36.09" height="5" x="14.77" y="104" fill="#0d9488" rx="2"/></svg>