<svg xmlns="http://www.w3.org/2000/svg" viewBox="0 0 429 120" width="429" height="120">
<path d="M34.42 19.41L34.42 19.41Q43.78 19.41 49.35 21.02Q54.91 22.63 57.41 26.69Q59.90 30.74 59.90 38.13L59.90 38.13Q59.90 45.82 56.94 49.83Q53.98 53.83 47.22 54.46L47.22 54.46L47.22 55.08Q55.54 55.81 58.86 60.64Q62.19 65.48 62.19 74.11L62.19 74.11Q62.19 81.50 59.64 85.55Q57.10 89.61 51.74 91.22Q46.38 92.83 37.75 92.83L37.75 92.83Q30.78 92.83 25.64 92.78Q20.49 92.73 16.12 92.52Q11.75 92.31 7.18 92L7.18 92L7.18 20.24Q11.34 19.82 15.24 19.67Q19.14 19.51 23.71 19.46Q28.29 19.41 34.42 19.41ZM22.78 59.86L22.78 81.29Q28.29 81.29 34.94 81.29L34.94 81.29Q39.31 81.29 41.81 80.46Q44.30 79.62 45.29 77.39Q46.28 75.15 46.28 70.99L46.28 70.99Q46.28 66.52 45.24 64.18Q44.20 61.84 41.65 60.90Q39.10 59.97 34.63 59.86L34.63 59.86L22.78 59.86ZM22.78 30.95L22.78 49.78L34.42 49.78Q38.27 49.67 40.51 48.94Q42.74 48.22 43.68 46.14Q44.62 44.06 44.62 40.31L44.62 40.31Q44.62 36.46 43.63 34.44Q42.64 32.41 40.25 31.68Q37.86 30.95 33.59 30.95L33.59 30.95L23.30 30.95Q22.98 30.95 22.78 30.95L22.78 30.95Z M70.62 40.62L85.90 40.62L85.90 92L70.62 92L70.62 40.62ZM74.98 17.95L81.64 17.95Q86.22 17.95 86.22 22.63L86.22 22.63L86.22 28.14Q86.22 32.82 81.64 32.82L81.64 32.82L74.98 32.82Q70.41 32.82 70.41 28.14L70.41 28.14L70.41 22.63Q70.41 17.95 74.98 17.95L74.98 17.95Z M119.18 39.27L119.18 39.27Q127.30 39.27 132.29 40.62L132.29 40.62L149.24 40.62L148.41 47.18L141.96 48.01Q143.31 51.13 143.31 55.60L143.31 55.60Q143.31 61.32 141.02 64.91Q138.74 68.50 133.38 70.16Q128.02 71.82 119.08 71.82L119.08 71.82Q113.88 71.82 109.93 71.30L109.93 71.30Q109.51 71.82 109.30 72.66L109.30 72.66Q108.68 74.42 109.51 75.98Q110.34 77.54 113.15 77.86L113.15 77.86L132.08 80.04Q140.19 80.87 143.52 84.56Q146.85 88.26 146.85 95.33L146.85 95.33Q146.85 101.98 144.14 105.57Q141.44 109.16 135.51 110.51Q129.58 111.86 119.70 111.86L119.70 111.86Q111.59 111.86 106.34 111.08Q101.09 110.30 98.02 108.54Q94.95 106.77 93.76 103.91Q92.56 101.05 92.56 96.78L92.56 96.78Q92.56 93.56 93.70 91.22Q94.85 88.88 97.66 87.01L97.66 87.01Q98.90 86.07 100.78 85.34L100.78 85.34Q99.01 83.68 98.28 81.50L98.28 81.50Q97.34 79 97.76 76.40Q98.18 73.80 99.74 71.72L99.74 71.72Q100.78 70.16 102.44 69.22L102.44 69.22Q98.90 67.66 97.14 64.96L97.14 64.96Q94.74 61.42 94.74 55.60Q94.74 49.78 97.08 46.19Q99.42 42.60 104.83 40.94Q110.24 39.27 119.18 39.27ZM110.14 88.88L110.14 88.88Q108.47 90.23 107.80 91.48Q107.12 92.73 107.12 94.81L107.12 94.81Q107.12 97.20 108.16 98.50Q109.20 99.80 111.96 100.27Q114.71 100.74 119.50 100.74L119.50 100.74Q124.49 100.74 127.30 100.27Q130.10 99.80 131.20 98.55Q132.29 97.30 132.29 95.02L132.29 95.02Q132.29 93.04 131.51 92.10Q130.73 91.17 128.91 90.70Q127.09 90.23 123.86 89.82L123.86 89.82L110.76 88.36Q110.45 88.67 110.14 88.88ZM119.08 48.74Q113.36 48.74 111.18 50.24Q108.99 51.75 108.99 55.60Q108.99 59.45 111.18 61.01Q113.36 62.57 119.08 62.57Q124.80 62.57 126.88 61.01Q128.96 59.45 128.96 55.60Q128.96 51.75 126.88 50.24Q124.80 48.74 119.08 48.74Z" fill="#F1F5F9"></path>
<path d="M180.65 18.78L180.65 18.78Q190.94 18.78 197.03 22.42Q203.11 26.06 205.76 34.23Q208.42 42.39 208.42 56.12L208.42 56.12Q208.42 69.85 205.76 78.01Q203.11 86.18 197.03 89.82Q190.94 93.46 180.65 93.46L180.65 93.46Q170.35 93.46 164.27 89.82Q158.18 86.18 155.58 78.01Q152.98 69.85 152.98 56.12L152.98 56.12Q152.98 42.39 155.58 34.23Q158.18 26.06 164.27 22.42Q170.35 18.78 180.65 18.78ZM180.54 31.26L180.54 31.26Q177.11 31.26 174.82 32.41Q172.54 33.55 171.18 36.26Q169.83 38.96 169.26 43.80Q168.69 48.63 168.69 56.12L168.69 56.12Q168.69 63.50 169.26 68.39Q169.83 73.28 171.18 75.98Q172.54 78.69 174.82 79.83Q177.11 80.98 180.54 80.98L180.54 80.98Q184.08 80.98 186.42 79.83Q188.76 78.69 190.16 75.98Q191.57 73.28 192.14 68.39Q192.71 63.50 192.71 56.12L192.71 56.12Q192.71 48.63 192.14 43.80Q191.57 38.96 190.16 36.26Q188.76 33.55 186.42 32.41Q184.08 31.26 180.54 31.26Z" fill="#0D9488"></path>

<path d="M276.87 19.20L276.87 19.20Q285.40 19.20 291.28 21.02Q297.15 22.84 300.74 27Q304.33 31.16 305.99 38.28Q307.66 45.41 307.66 56.12Q307.66 66.83 305.99 73.96Q304.33 81.08 300.74 85.24Q297.15 89.40 291.28 91.22Q285.40 93.04 276.87 93.04L276.87 93.04Q268.66 93.04 261.79 92.73Q254.93 92.42 248.69 92L248.69 92L248.69 20.24Q254.93 19.82 261.74 19.51Q268.55 19.20 276.87 19.20ZM264.60 31.47L264.60 80.56Q264.70 80.56 264.81 80.56L264.81 80.56Q270.22 80.77 276.87 80.77L276.87 80.77Q282.18 80.77 285.24 78.64Q288.31 76.50 289.61 71.10Q290.91 65.69 290.91 56.12Q290.91 46.55 289.61 41.14Q288.31 35.74 285.24 33.55Q282.18 31.37 276.87 31.37L276.87 31.37Q270.53 31.37 265.54 31.37L265.54 31.37Q265.02 31.47 264.60 31.47L264.60 31.47Z M340.52 39.27L340.52 39.27Q353.52 39.27 359.19 43.69Q364.86 48.11 364.86 56.85L364.86 56.85Q364.96 63.92 361.32 67.40Q357.68 70.89 348.74 70.89L348.74 70.89L330.43 70.89Q330.74 73.28 331.26 74.84L331.26 74.84Q332.41 78.38 335.16 79.73Q337.92 81.08 342.81 81.08L342.81 81.08Q346.34 81.08 351.60 80.82Q356.85 80.56 362.15 79.94L362.15 79.94L363.61 89.40Q360.59 90.86 356.74 91.69Q352.90 92.52 348.84 92.88Q344.78 93.25 341.04 93.25L341.04 93.25Q331.26 93.25 325.28 90.39Q319.30 87.53 316.65 81.60Q314.00 75.67 314.00 66.42L314.00 66.42Q314.00 56.33 316.70 50.40Q319.41 44.47 325.23 41.87Q331.06 39.27 340.52 39.27ZM330.12 62.26L330.12 62.26L344.47 62.26Q348.01 62.26 349.00 60.75Q349.98 59.24 349.98 56.54L349.98 56.54Q349.88 52.90 347.85 51.49Q345.82 50.09 341.04 50.09L341.04 50.09Q336.78 50.09 334.38 51.23Q331.99 52.38 331.06 55.60L331.06 55.60Q330.33 58.10 330.12 62.26Z M407.70 40.62L424.03 40.62L407.08 88.36Q406.46 90.02 405.16 91.01Q403.86 92 402.09 92L402.09 92L388.67 92Q386.90 92 385.60 91.01Q384.30 90.02 383.68 88.36L383.68 88.36L366.73 40.62L383.06 40.62L392.52 72.76Q393.14 75.05 393.66 77.44Q394.18 79.83 394.70 82.02L394.70 82.02L396.06 82.02Q396.68 79.73 397.25 77.39Q397.82 75.05 398.45 72.76L398.45 72.76L407.70 40.62Z" fill="#F1F5F9"></path>
<line x1="200" y1="24" x2="161" y2="88" stroke="#0D9488" stroke-width="9" stroke-linecap="round"></line>
<rect x="162.65" y="104" width="36.09" height="5" rx="2" fill="#0D9488"></rect>
</svg>