<svg xmlns="http://www.w3.org/2000/svg" width="429" height="120" viewBox="0 0 429 120"><path fill="#f1f5f9" d="M34.42 19.41q9.36 0 14.93 1.61 5.56 1.61 8.06 5.67 2.49 4.05 2.49 11.44 0 7.69-2.96 11.7t-9.72 4.63v.62q8.32.73 11.64 5.56t3.33 13.47q0 7.39-2.55 11.44t-7.9 5.67q-5.36 1.61-13.99 1.61-6.97 0-12.11-.05-5.15-.05-9.52-.26T7.18 92V20.24q4.16-.42 8.06-.57 3.9-.16 8.47-.21t10.71-.05M22.78 59.86v21.43h12.16q4.37 0 6.87-.83 2.49-.84 3.48-3.07.99-2.24.99-6.4 0-4.47-1.04-6.81t-3.59-3.28q-2.55-.93-7.02-1.04zm0-28.91v18.83h11.64q3.85-.11 6.09-.84 2.23-.72 3.17-2.8t.94-5.83q0-3.85-.99-5.87t-3.38-2.76-6.66-.73H22.78m47.84 9.67H85.9V92H70.62zm4.36-22.67h6.66q4.58 0 4.58 4.68v5.51q0 4.68-4.58 4.68h-6.66q-4.57 0-4.57-4.68v-5.51q0-4.68 4.57-4.68m44.2 21.32q8.12 0 13.11 1.35h16.95l-.83 6.56-6.45.83q1.35 3.12 1.35 7.59 0 5.72-2.29 9.31-2.28 3.59-7.64 5.25t-14.3 1.66q-5.2 0-9.15-.52-.42.52-.63 1.36-.62 1.76.21 3.32t3.64 1.88l18.93 2.18q8.11.83 11.44 4.52 3.33 3.7 3.33 10.77 0 6.65-2.71 10.24t-8.63 4.94q-5.93 1.35-15.81 1.35-8.11 0-13.36-.78t-8.32-2.54q-3.07-1.77-4.26-4.63-1.2-2.86-1.2-7.13 0-3.22 1.14-5.56 1.15-2.34 3.96-4.21 1.24-.94 3.12-1.67-1.77-1.66-2.5-3.84-.94-2.5-.52-5.1t1.98-4.68q1.04-1.56 2.7-2.5-3.54-1.56-5.3-4.26-2.4-3.54-2.4-9.36t2.34-9.41 7.75-5.25q5.41-1.67 14.35-1.67m-9.04 49.61q-1.67 1.35-2.34 2.6-.68 1.25-.68 3.33 0 2.39 1.04 3.69t3.8 1.77q2.75.47 7.54.47 4.99 0 7.8-.47t3.9-1.72 1.09-3.53q0-1.98-.78-2.92t-2.6-1.4q-1.82-.47-5.05-.88l-13.1-1.46q-.31.31-.62.52m8.94-40.14q-5.72 0-7.9 1.5-2.19 1.51-2.19 5.36t2.19 5.41q2.18 1.56 7.9 1.56t7.8-1.56 2.08-5.41-2.08-5.36q-2.08-1.5-7.8-1.5"/><path fill="#0d9488" d="M180.65 18.78q10.29 0 16.38 3.64t8.73 11.81q2.66 8.16 2.66 21.89t-2.66 21.89-8.73 11.81q-6.09 3.64-16.38 3.64-10.3 0-16.38-3.64-6.09-3.64-8.69-11.81t-2.6-21.89 2.6-21.89 8.69-11.81 16.38-3.64m-.11 12.48q-3.43 0-5.72 1.15-2.28 1.14-3.64 3.85-1.35 2.7-1.92 7.54t-.57 12.32q0 7.38.57 12.27t1.92 7.59 3.64 3.85 5.72 1.15q3.54 0 5.88-1.15 2.34-1.14 3.74-3.85t1.98-7.59.57-12.27q0-7.49-.57-12.32t-1.98-7.54-3.74-3.85-5.88-1.15"/><path fill="#f1f5f9" d="M276.87 19.2q8.53 0 14.41 1.82 5.87 1.82 9.46 5.98t5.25 11.28q1.67 7.13 1.67 17.84t-1.67 17.84q-1.66 7.12-5.25 11.28t-9.46 5.98-14.41 1.82q-8.21 0-15.08-.31t-13.1-.73V20.24q6.24-.42 13.05-.73t15.13-.31M264.6 31.47v49.09h.21q5.41.21 12.06.21 5.31 0 8.37-2.13 3.07-2.14 4.37-7.54t1.3-14.98-1.3-14.98-4.37-7.59-8.37-2.18h-11.33q-.52.1-.94.1m75.92 7.8q13 0 18.67 4.42t5.67 13.16q.1 7.07-3.54 10.55t-12.58 3.49h-18.31q.31 2.39.83 3.95 1.15 3.54 3.9 4.89t7.65 1.35q3.53 0 8.79-.26t10.55-.88l1.46 9.46q-3.02 1.46-6.87 2.29-3.84.83-7.9 1.19-4.06.37-7.8.37-9.78 0-15.76-2.86t-8.63-8.79T314 66.42q0-10.09 2.7-16.02t8.53-8.53 15.29-2.6m-10.4 22.99h14.35q3.54 0 4.53-1.51.98-1.51.98-4.21-.1-3.64-2.13-5.05t-6.81-1.4q-4.26 0-6.66 1.14-2.39 1.15-3.32 4.37-.73 2.5-.94 6.66m77.58-21.64h16.33l-16.95 47.74q-.62 1.66-1.92 2.65t-3.07.99h-13.42q-1.77 0-3.07-.99t-1.92-2.65l-16.95-47.74h16.33l9.46 32.14q.62 2.29 1.14 4.68t1.04 4.58h1.36q.62-2.29 1.19-4.63t1.2-4.63z"/><path stroke="#0d9488" stroke-linecap="round" stroke-width="9" d="m200 24-39 64"/><rect width="36.09" height="5" x="162.65" y="104" fill="#0d9488" rx="2"/></svg>