<svg xmlns="http://www.w3.org/2000/svg" width="800" height="800" fill="none" viewBox="0 0 24 24"><path fill="currentColor" fill-rule="evenodd" d="M12 1.25c-.6 0-1.16.15-1.77.4-.59.25-1.27.6-2.13 1.05L6.04 3.8A30 30 0 0 0 3.5 5.2c-.67.45-1.18.92-1.56 1.56a5 5 0 0 0-.62 2.14c-.08.8-.08 1.77-.08 3v.2c0 1.23 0 2.2.08 3 .08.82.25 1.5.62 2.14.38.64.9 1.1 1.56 1.56.65.43 1.48.87 2.53 1.41L8.1 21.3c.86.45 1.54.8 2.13 1.05q.88.39 1.77.4c.6 0 1.16-.15 1.77-.4.59-.25 1.27-.6 2.13-1.05l2.06-1.09c1.05-.54 1.88-.98 2.53-1.41a5 5 0 0 0 1.56-1.56c.37-.63.54-1.32.62-2.14.08-.8.08-1.77.08-3v-.2c0-1.23 0-2.2-.08-3a5 5 0 0 0-.62-2.14 5 5 0 0 0-1.56-1.56 30 30 0 0 0-2.53-1.41L15.9 2.7c-.86-.45-1.54-.8-2.13-1.05a5 5 0 0 0-1.77-.4m-3.23 2.8c.9-.47 1.51-.8 2.03-1.01.5-.21.86-.29 1.2-.29s.7.08 1.2.29c.52.21 1.14.54 2.03 1l2 1.06c1.09.57 1.85.97 2.43 1.35q.41.3.68.54L12 11.16 3.66 7q.27-.25.68-.54c.58-.38 1.34-.78 2.43-1.35zM2.94 8.3q-.08.31-.12.74c-.07.71-.07 1.61-.07 2.9v.1c0 1.29 0 2.19.07 2.9.07.7.2 1.15.42 1.53.23.38.55.7 1.1 1.07.58.38 1.34.78 2.43 1.35l2 1.05c.9.47 1.51.8 2.03 1.01l.45.17v-8.67zm9.81 12.82.45-.17a27 27 0 0 0 2.03-1l2-1.06c1.09-.57 1.85-.97 2.43-1.35.55-.37.87-.7 1.1-1.07.22-.38.35-.83.42-1.53s.07-1.61.07-2.9v-.1c0-1.29 0-2.19-.07-2.9a6 6 0 0 0-.12-.74l-8.31 4.15z" clip-rule="evenodd"/></svg>