<svg xmlns="http://www.w3.org/2000/svg" xml:space="preserve" fill="currentColor" baseProfile="tiny" viewBox="0 0 256 256"><path d="M223.8 95.9c-.4-.2-1.5-.2-1.9-.4s-1.9-.2-2.6-.2c-4.3 0-7.4 1.7-9.1 4.7l-22.8 37.6-28.7.5a8.7 8.7 0 0 0-7.9 12.3h-46a8.7 8.7 0 0 0-7.9-12.3H68.2L45.4 100c-1.7-3-4.9-4.7-9.1-4.7-.6 0-2.1 0-2.6.2-.4.2-1.5.2-1.9.4-29.2 6.7-29.3 69-29.1 80.9 0 10.9 3.8 15.7 11.7 18.7 1.9.9 4.3 1.3 6.2 1.3h50.2v43.4c0 6.4 4.9 11.3 11.3 11.3s11.3-4.9 11.3-11.3v-54.3c0-3-1.3-6.2-3.4-8.1-2.3-2.3-5.3-3.6-8.1-3.6H48.4v-25.1L31 119.5c-.9-1.3-.4-2.8.6-3.4 1.3-.9 2.8-.4 3.4.6L55.2 151c.1.2.3.4.4.7v15.7H200v-15.7c.2-.2.3-.4.4-.7l20.2-34.3c.6-1.1 2.1-1.5 3.4-.6 1.1.6 1.5 2.1.6 3.4l-17.4 29.6v25.1h-33.4c-2.8 0-5.7 1.3-8.1 3.6-2.1 1.9-3.4 5.1-3.4 8.1v54.3c0 6.4 4.9 11.3 11.3 11.3s11.3-4.9 11.3-11.3v-43.4h50.2c1.9 0 4.3-.4 6.2-1.3 7.9-3 11.7-7.8 11.7-18.7.2-11.8.1-74.2-29.2-80.9"/><circle cx="202.1" cy="74.4" r="20.2" transform="rotate(-67.5 202.12 74.43)"/><circle cx="53.5" cy="74.4" r="20.2" transform="rotate(-67.5 53.53 74.43)"/><path d="M114.7 67.8v.6H141v-.6c0-6.4 2.5-12.6 7-17.3 4.6-4.9 7.5-11.6 7.5-18.9 0-15.4-12.7-27.9-28.2-27.6-15.1.4-27.1 13-26.9 28 .1 7.1 2.9 13.6 7.5 18.4 4.2 4.8 6.8 10.9 6.8 17.4M114.7 72.3H141v5.2h-26.3zM123.9 88.1h7.9c2.9 0 5.3-2.4 5.3-5.3v-1.3h-18.4v1.3c-.1 2.9 2.3 5.3 5.2 5.3"/></svg>