<svg xmlns="http://www.w3.org/2000/svg" width="800" height="800" fill="none" viewBox="0 -0.5 25 25"><path fill="currentColor" d="M9.5 5.75a.75.75 0 0 0 0-1.5zM4.75 11a.75.75 0 0 0 1.5 0zM9.5 4.25a.75.75 0 0 0 0 1.5zM18.75 11a.75.75 0 0 0 1.5 0zm-8.5-6a.75.75 0 0 0-1.5 0zm-1.5 6a.75.75 0 0 0 1.5 0zm.75.75a.75.75 0 0 0 0-1.5zm-4-1.5a.75.75 0 0 0 0 1.5zm4 0a.75.75 0 0 0 0 1.5zm10 1.5a.75.75 0 0 0 0-1.5zM6.25 11a.75.75 0 0 0-1.5 0zm14 0a.75.75 0 0 0-1.5 0zM9.5 4.25A4.75 4.75 0 0 0 4.75 9h1.5c0-1.8 1.46-3.25 3.25-3.25zM4.75 9v2h1.5V9zM9.5 5.75h6v-1.5h-6zm6 0c1.8 0 3.25 1.46 3.25 3.25h1.5a4.75 4.75 0 0 0-4.75-4.75zM18.75 9v2h1.5V9zm-10-4v6h1.5V5zm.75 5.25h-4v1.5h4zm0 1.5h10v-1.5h-10zM4.75 11v4h1.5v-4zm0 4a4.75 4.75 0 0 0 4.75 4.75v-1.5A3.25 3.25 0 0 1 6.25 15zm4.75 4.75h6v-1.5h-6zm6 0A4.75 4.75 0 0 0 20.25 15h-1.5c0 1.8-1.46 3.25-3.25 3.25zM20.25 15v-4h-1.5v4z"/></svg>