<svg xmlns="http://www.w3.org/2000/svg" width="800" height="800" fill="none" viewBox="0 0 24 24"><path fill="currentColor" d="M4.25 7a.75.75 0 0 0 1.5 0zM6.1 5.89l-.29-.7-.02.02zm2.93-.74.08.75h.02zm2.5-.15v.75zm.94 0v.75zm2.5.15-.1.75h.02zm2.93.74.31-.68-.02-.01zM18.25 7a.75.75 0 0 0 1.5 0zM5.75 7a.75.75 0 0 0-1.5 0zm1.16 1.41-.22.72h.03zm4.62.59v-.75zm.94 0v-.75zm4.62-.59.2.73h.02zM19.75 7a.75.75 0 0 0-1.5 0zm-14 0a.75.75 0 0 0-1.5 0zm-1.5 5a.75.75 0 0 0 1.5 0zm15.5-5a.75.75 0 0 0-1.5 0zm-1.5 5a.75.75 0 0 0 1.5 0zm-12.5 0a.75.75 0 0 0-1.5 0zm1.16 1.41-.22.72h.03zm4.62.59v-.75zm.94 0v-.75zm4.62-.59.2.73h.02zM19.75 12a.75.75 0 0 0-1.5 0zm-14 0a.75.75 0 0 0-1.5 0zm1.16 6.41-.22.72h.03zm4.62.59v-.75zm.94 0v-.75zm4.62-.59.2.73h.02zM19.75 12a.75.75 0 0 0-1.5 0zm-14-5c0 .06-.03.04.06-.05q.14-.16.6-.38L5.8 5.21q-.62.26-1.04.68c-.28.28-.5.65-.5 1.11zm.64-.42A10 10 0 0 1 9.1 5.9l-.15-1.5q-1.63.18-3.15.8zm2.74-.68q1.2-.15 2.4-.15v-1.5q-1.3 0-2.59.16zm2.4-.15h.94v-1.5h-.94zm.94 0q1.2 0 2.4.15l.19-1.5q-1.3-.15-2.6-.15zm2.42.15q1.41.14 2.72.68l.58-1.38q-1.52-.62-3.15-.8zm2.7.67q.46.22.6.38c.1.1.06.1.06.05h1.5c0-.46-.22-.83-.5-1.11q-.41-.4-1.04-.68zM4.25 7c0 .61.4 1.07.8 1.37q.65.46 1.64.76l.44-1.43a4 4 0 0 1-1.19-.54c-.24-.18-.19-.24-.19-.16zm2.47 2.14q2.37.64 4.82.61l-.02-1.5q-2.25.03-4.4-.56zm4.81.61h.94v-1.5h-.94zm.92 0q2.47.03 4.83-.61l-.4-1.45q-2.15.6-4.4.56zm4.86-.62q1-.3 1.64-.76c.4-.3.8-.76.8-1.37h-1.5c0-.08.05-.02-.2.16q-.33.26-1.18.54zM4.25 7v5h1.5V7zm14 0v5h1.5V7zm-14 5c0 .61.4 1.07.8 1.37q.65.46 1.64.76l.44-1.43a4 4 0 0 1-1.19-.54c-.24-.18-.19-.24-.19-.16zm2.47 2.14q2.37.64 4.82.61l-.02-1.5q-2.25.03-4.4-.56zm4.81.61h.94v-1.5h-.94zm.92 0q2.47.03 4.83-.61l-.4-1.45q-2.15.6-4.4.56zm4.86-.62q1-.3 1.64-.76c.4-.3.8-.76.8-1.37h-1.5c0-.08.05-.02-.2.16q-.33.26-1.18.54zM4.25 12v5h1.5v-5zm0 5c0 .61.4 1.07.8 1.37q.65.45 1.64.76l.44-1.43a4 4 0 0 1-1.19-.54c-.24-.18-.19-.24-.19-.16zm2.47 2.14q2.37.64 4.82.61l-.02-1.5q-2.25.03-4.4-.56zm4.81.61h.94v-1.5h-.94zm.92 0q2.47.03 4.83-.61l-.4-1.45q-2.15.6-4.4.56zm4.86-.62a6 6 0 0 0 1.64-.76c.4-.3.8-.76.8-1.37h-1.5c0-.08.05-.02-.2.16q-.33.26-1.18.54zM19.75 17v-5h-1.5v5z"/></svg>