<svg xmlns="http://www.w3.org/2000/svg" xml:space="preserve" width="800" height="800" fill="currentColor" viewBox="0 0 256 256"><path d="M51.46 54.17c11.13 0 20.18-9.05 20.18-20.18S62.6 13.81 51.46 13.81 31.28 22.87 31.28 34s9.06 20.18 20.18 20.18m27.14 98.58v89a12.25 12.25 0 0 1-24.49 0v-87.19a2.95 2.95 0 0 0-5.9.02v87.17c0 6.77-5.49 12.25-12.25 12.25h-.06a12.25 12.25 0 0 1-12.25-12.25V90.93c0-1.6-1.2-3.03-2.8-3.11a2.95 2.95 0 0 0-3.1 2.95v57.08a7.88 7.88 0 0 1-15.75 0V85.71a24.64 24.64 0 0 1 24.64-24.64h43.83a33 33 0 0 0-1.98 11.2v66.33c0 6.56 4.24 12.13 10.11 14.15m103-80.52v66.38a9.06 9.06 0 0 1-9.66 9.04c-4.82-.31-8.46-4.53-8.46-9.35V75.86a2.95 2.95 0 0 0-2.95-2.95c-2.01 0-2.96 1.47-2.96 3.06v164.7a13.33 13.33 0 0 1-26.65.03l-.2-93.6a2.76 2.76 0 0 0-2.72-2.7c-1.97 0-2.71 1.56-2.71 2.9l-.2 93.4a13.33 13.33 0 0 1-26.66-.03V75.85a2.93 2.93 0 0 0-2.94-2.93c-1.86 0-2.93 1.62-2.93 3.04l-.03 62.66a9.06 9.06 0 0 1-18.13-.01V72.25a26.73 26.73 0 0 1 26.73-26.73h53.36c14.5 0 26.7 11.9 27.11 26.7M254 85.71v62.15a7.88 7.88 0 0 1-15.75 0V90.76c0-1.68-1.4-3.03-3.1-2.95-1.6.08-2.8 1.51-2.8 3.11v150.82c0 6.77-5.49 12.25-12.25 12.25h-.06a12.25 12.25 0 0 1-12.25-12.25v-87.17a2.95 2.95 0 0 0-5.9-.02v87.2a12.25 12.25 0 0 1-24.5 0v-89a15 15 0 0 0 10.12-14.15V72.06a33 33 0 0 0-2.22-10.99h44.07A24.64 24.64 0 0 1 254 85.71m-49.43-76.6 23 23-23 23-23-23zM100.07 2 128 39.69 155.93 2z"/></svg>