<svg xmlns="http://www.w3.org/2000/svg" width="800" height="800" fill="currentColor" class="dollar-sign_svg_cf-icon-svg" viewBox="-1.7 0 20.4 20.4"><path d="M16.42 10.28A7.92 7.92 0 1 1 8.5 2.37a7.9 7.9 0 0 1 7.92 7.91m-4.85 1.76a2.3 2.3 0 0 0-.55-1.48 3 3 0 0 0-.84-.67 4 4 0 0 0-.87-.31 4 4 0 0 0-.8-.09l-.47-.03a2 2 0 0 1-.5-.16 1 1 0 0 1-.37-.3.7.7 0 0 1-.17-.44.8.8 0 0 1 .42-.63 2 2 0 0 1 1.1-.3l.4.07h.05a3 3 0 0 1 .47.18 1 1 0 0 1 .38.26.8.8 0 1 0 1.12-1.12 3 3 0 0 0-.85-.59 4 4 0 0 0-.78-.27H9.3v-.78a.8.8 0 1 0-1.59 0v.76a4 4 0 0 0-1.14.45 2.3 2.3 0 0 0-1.16 1.97A2.3 2.3 0 0 0 5.94 10a3 3 0 0 0 .9.72 3 3 0 0 0 .94.3 4 4 0 0 0 .74.06 2 2 0 0 1 .46.05 2 2 0 0 1 .46.16 1 1 0 0 1 .38.31.7.7 0 0 1 .17.44c0 .1 0 .32-.39.57a2 2 0 0 1-1.13.31l-.5-.06a2 2 0 0 1-.45-.14 1 1 0 0 1-.36-.28.8.8 0 1 0-1.2 1.04 2.5 2.5 0 0 0 .97.7 4 4 0 0 0 .78.24v.79a.8.8 0 1 0 1.59 0v-.8a4 4 0 0 0 1.17-.47 2.2 2.2 0 0 0 1.1-1.9z"/></svg>