<svg xmlns="http://www.w3.org/2000/svg" id="education_svg_Layer_1" width="800" height="800" data-name="Layer 1" viewBox="0 0 24 24"><defs><style>.education_svg_cls-1{fill:none;stroke:currentColor;stroke-miterlimit:10;stroke-width:1.91px}</style></defs><path d="M.55 17.73H18.2a2.4 2.4 0 0 1 2.39 2.38 2.4 2.4 0 0 1-2.39 2.39H.55" class="education_svg_cls-1"/><path d="M2.45 17.73a3.5 3.5 0 0 1 1 2.38 3.5 3.5 0 0 1-1 2.39M23.45 17.73H5.8a2.4 2.4 0 0 1-2.39-2.39A2.4 2.4 0 0 1 5.8 13h17.65" class="education_svg_cls-1"/><path d="M21.55 17.73a3.46 3.46 0 0 1 0-4.78M16.77 7.39c0 2.78-1.91 7.06-4.77 5-2.86 2-4.77-2.26-4.77-5s2.86-4 4.77-2c1.91-2.04 4.77-.79 4.77 2Z" class="education_svg_cls-1"/><path d="M10.09 1.5c1 0 1.91 1 1.91 2.86" class="education_svg_cls-1"/></svg>