<svg xmlns="http://www.w3.org/2000/svg" xml:space="preserve" width="800" height="800" fill="currentColor" viewBox="0 0 32 32"><path d="M29.7 17.3 28 15.6V14c0-3.3-1.3-6.2-3.5-8.5L23 12.2c-.1.5-.5.8-1 .8h-.2c-.5-.1-.9-.7-.8-1.2l2-8.9c0-.3-.2-.7-.5-.8-4-2-8.9-2-12.9 0-.4.2-.6.5-.6.8l2 8.9c.1.5-.2 1.1-.8 1.2H10c-.5 0-.9-.3-1-.8L7.5 5.5C5.3 7.8 4 10.7 4 14v1.6l-1.7 1.7c-.3.3-.4.7-.2 1.1.1.4.5.6.9.6h26c.4 0 .8-.2.9-.6.2-.4.1-.8-.2-1.1M19.9 21c.1.3.1.7.1 1 0 2.2-1.8 4-4 4s-4-1.8-4-4c0-.3.1-.7.1-1H6.7c0 .3-.1.7-.1 1 0 .7.1 1.4.3 2.2.1.5.6.8 1.1.7.6-.1 1.2.2 1.6.8s.3 1.2-.1 1.7c-.3.4-.3 1 .1 1.3 1.1 1 2.4 1.8 3.8 2.2.5.1 1-.1 1.2-.6.2-.6.8-1 1.4-1s1.2.4 1.4 1q.3.6.9.6h.3c1.4-.4 2.7-1.2 3.8-2.2.4-.4.4-.9.1-1.3-.4-.5-.4-1.2-.1-1.7s.9-.9 1.6-.8c.5.1 1-.3 1.1-.8.2-.7.3-1.5.3-2.2 0-.3 0-.7-.1-1h-5.4z"/></svg>