<svg xmlns="http://www.w3.org/2000/svg" width="800" height="800" fill="none" viewBox="0 0 20 20"><path fill="currentColor" fill-rule="evenodd" d="M18.89 2a1 1 0 0 0-1-1h-6a1 1 0 1 0 0 2h3.58l-6.3 6.3a1 1 0 1 0 1.42 1.4l6.3-6.29V8a1 1 0 1 0 2 0zM3 3a2 2 0 0 0-2 2.22c.15 1.45.38 3.98.38 5.78 0 1.75-.22 4.17-.36 5.64a2.03 2.03 0 0 0 2.21 2.22c1.48-.15 3.9-.36 5.65-.36 1.8 0 4.33.23 5.78.37a2 2 0 0 0 2.22-2V12a1 1 0 1 0-2 0v4.88h-.02a68 68 0 0 0-5.98-.38c-1.86 0-4.37.22-5.85.37h-.02v-.02c.14-1.48.37-4 .37-5.85 0-1.92-.24-4.53-.39-5.98V5H7.9a1 1 0 0 0 0-2z"/></svg>