<svg xmlns="http://www.w3.org/2000/svg" width="800" height="800" fill="none" viewBox="0 0 24 24"><path fill="currentColor" fill-rule="evenodd" d="M10.83 1.25a2.9 2.9 0 0 1 2.34 0l8.63 3.83c1.98.87 1.37 3.92-.78 3.92H2.98C.83 9 .22 5.95 2.2 5.08zm1.56 1.88a1 1 0 0 0-.78 0l-8.2 3.63c-.1.05-.07.2.04.2h17.1c.1 0 .14-.15.04-.2z" clip-rule="evenodd"/><path fill="currentColor" d="M2 22a1 1 0 0 1 1-1h18a1 1 0 1 1 0 2H3a1 1 0 0 1-1-1M11 19a1 1 0 1 0 2 0v-8a1 1 0 1 0-2 0zM6 20a1 1 0 0 1-1-1v-8a1 1 0 1 1 2 0v8a1 1 0 0 1-1 1M17 19a1 1 0 1 0 2 0v-8a1 1 0 1 0-2 0z"/></svg>