<svg xmlns="http://www.w3.org/2000/svg" width="800" height="800" fill="none" viewBox="0 0 24 24"><path fill="currentColor" d="M7 6a1 1 0 1 1 2 0v1h1a1 1 0 1 1 0 2H9v1a1 1 0 1 1-2 0V9H6a1 1 0 1 1 0-2h1zM17 6a1 1 0 1 1-2 0 1 1 0 0 1 2 0M16 11a1 1 0 1 0 0-2 1 1 0 0 0 0 2M19 8a1 1 0 1 1-2 0 1 1 0 0 1 2 0M14 9a1 1 0 1 0 0-2 1 1 0 0 0 0 2"/><path fill="currentColor" fill-rule="evenodd" d="M2.18 3.46C2.77 1.73 4.48 1 6 1h12c1.52 0 3.23.73 3.82 2.46.78 2.3 1.12 5.58 1.26 8.67.14 3.12.07 6.16 0 8.03A2.95 2.95 0 0 1 20.13 23h-1.56a3 3 0 0 1-2.9-2.27l-1.25-4.97a1 1 0 0 0-.97-.76h-2.88a1 1 0 0 0-.97.76l-1.24 4.97A3 3 0 0 1 5.44 23H3.88A2.95 2.95 0 0 1 .9 20.16c-.06-1.87-.13-4.9.01-8.03.14-3.1.48-6.37 1.26-8.67M6 3c-1 0-1.7.46-1.93 1.1-.68 2.01-1.01 5.05-1.15 8.12-.13 3.05-.07 6.03 0 7.87.01.5.42.91.96.91h1.56a1 1 0 0 0 .97-.76l1.24-4.97A3 3 0 0 1 10.56 13h2.88a3 3 0 0 1 2.9 2.27l1.25 4.97a1 1 0 0 0 .97.76h1.56c.54 0 .95-.4.97-.9.06-1.85.12-4.83-.01-7.88-.14-3.07-.47-6.1-1.15-8.11C19.7 3.46 19 3 18 3z" clip-rule="evenodd"/></svg>