<svg xmlns="http://www.w3.org/2000/svg" width="800" height="800" fill="none" viewBox="0 0 800 800"><path fill="currentColor" d="M339.33 566.93c4 0 7.04-.13 9.04-.4a10.6 10.6 0 0 0 6-3.56q3-3.14 3-9.14l-.14-18.56q-.14-17.78-.13-28.14l-6.27 1.1q-7.54 1.19-15.16.94-9.58-.18-19-1.9a42.5 42.5 0 0 1-18.27-8.2 34.7 34.7 0 0 1-12-16.77l-2.73-6.3a68 68 0 0 0-8.6-13.9 33 33 0 0 0-11.9-10.4l-1.9-1.33q-1.97-1.46-3.54-3.34-1.51-1.7-2.46-3.8c-.54-1.26-.1-2.33 1.33-3.13a18 18 0 0 1 7.93-1.23l5.47.83q5.5 1.07 13.53 6.53a45 45 0 0 1 13.24 14.2q6.28 11.21 15.16 17.07a32 32 0 0 0 17.87 5.87q9 0 15.57-1.34a54 54 0 0 0 12.3-4.13c1.63-12.17 6.06-21.57 13.33-28.1a187 187 0 0 1-27.97-4.93 112 112 0 0 1-25.66-10.67 73.5 73.5 0 0 1-22-18.27q-8.7-10.93-14.34-28.66c-3.92-13.3-5.8-27.11-5.56-40.97q.01-33.02 21.56-56.23-10.1-24.86 1.9-55.7 7.96-2.5 23.5 3.66c10.37 4.1 18 7.6 22.8 10.54a243 243 0 0 1 11.6 7.33 194 194 0 0 1 52.44-7.07c18 0 35.5 2.34 52.43 7.1l10.33-6.56c7.14-4.34 15.5-8.37 25.14-12q14.49-5.5 22.13-3 12.3 30.85 2.17 55.66 21.6 23.24 21.6 56.27 0 23.2-5.6 41.1-5.62 17.88-14.47 28.67a76 76 0 0 1-22.13 18.16c-8.08 4.62-16.7 8.2-25.67 10.67a187 187 0 0 1-28 4.9q14.2 12.26 14.2 38.77v65.23q.01 4.64 1.37 7.53a7.5 7.5 0 0 0 4.36 3.97q3.01 1.07 5.34 1.33 2.33.3 6.66.3h-139.8"/><path fill="currentColor" d="M200 133.33A66.66 66.66 0 0 0 133.33 200v400A66.66 66.66 0 0 0 200 666.67h400A66.66 66.66 0 0 0 666.67 600V200A66.66 66.66 0 0 0 600 133.33zm0-66.66h400A133.33 133.33 0 0 1 733.33 200v400A133.33 133.33 0 0 1 600 733.33H200A133.33 133.33 0 0 1 66.67 600V200A133.33 133.33 0 0 1 200 66.67"/></svg>