<svg xmlns="http://www.w3.org/2000/svg" width="800" height="800" fill="currentColor" class="government_svg_cf-icon-svg" viewBox="-2 0 19 19"><path d="M14.43 14.75v.5H.57v-.5a.5.5 0 0 1 .48-.48h.4v-.49a.5.5 0 0 1 .48-.47h.41V9.69h-.3a.55.55 0 1 1 0-1.1H13a.55.55 0 1 1 0 1.1h-.3v3.62h.37a.5.5 0 0 1 .47.47v.49h.41a.5.5 0 0 1 .48.48M12.7 7.71a5.18 5.18 0 1 0-10.37 0zm-9.2 5.6h1.12v-3.06a.55.55 0 1 0-1.11 0zm2.3-3.05v3.05h1.11v-3.05a.55.55 0 1 0-1.1 0m2.3 0v3.05h1.1v-3.05a.55.55 0 1 0-1.1 0m2.3.01v3.04h1.1v-3.04a.55.55 0 0 0-1.1 0"/></svg>