<svg xmlns="http://www.w3.org/2000/svg" width="800" height="800" fill="currentColor" class="healthcare_svg_cf-icon-svg" viewBox="-2.5 0 19 19"><path d="M11.56 10.11v2.05a3.83 3.83 0 1 1-7.65 0v-.45A3.6 3.6 0 0 1 .85 8.14V5.25a1.7 1.7 0 0 1 .76-1.4 1.2 1.2 0 1 1 .48 1.03.6.6 0 0 0-.13.37v2.89a2.5 2.5 0 0 0 5 0V5.25a.6.6 0 0 0-.1-.33 1.2 1.2 0 1 1 .52-1.02 1.7 1.7 0 0 1 .69 1.35v2.89A3.6 3.6 0 0 1 5 11.71v.44a2.72 2.72 0 0 0 5.44 0v-2.04a2.14 2.14 0 1 1 1.1 0m.48-2.07a1.03 1.03 0 1 0-1.03 1.03 1.04 1.04 0 0 0 1.03-1.03"/></svg>