<svg xmlns="http://www.w3.org/2000/svg" width="800" height="800" fill="currentColor" data-name="Your Icons" viewBox="0 0 96 96"><title/><path d="M69 92H52v-5c0-.55-1.05-15.48 10.21-23.81a23 23 0 0 0 3.87-3.48l12.94-15a5 5 0 0 1 3-1.68V20a5 5 0 0 1 4.76-5 4.9 4.9 0 0 1 3.59 1.36A5.4 5.4 0 0 1 92 20.23v30a29 29 0 0 0 .33 4.3c.44 3 .6 8.78-3.37 13.2a421 421 0 0 1-15.09 15.88l-2.17 2.18-2.7 1.75Zm-15-2h13v-3.54l3.48-2.28 1.94-2c4.91-5 9.55-9.7 15-15.83 3.43-3.81 3.27-8.88 2.88-11.57a31 31 0 0 1-.3-4.56v-30a3.3 3.3 0 0 0-1-2.41 3 3 0 0 0-2.11-.81A3 3 0 0 0 84 20v23.16a5 5 0 0 1 2 1.06 5 5 0 0 1 1.72 3.4V48a5 5 0 0 1-1.22 3.27L73.28 66.7a1 1 0 0 1-1.51-1.31L85.1 50a3 3 0 0 0 .73-2v-.2a3 3 0 0 0-1-2A3 3 0 0 0 83 45h-.2a3 3 0 0 0-2.24 1L67.62 61a26 26 0 0 1-4.19 3.78C53.07 72.46 54 86.78 54 86.92ZM44.54 92h-17v-4.46l-2.83-1.89-2-2c-4.93-5-9.59-9.73-15.12-15.89-4-4.42-3.82-10.17-3.37-13.2a30 30 0 0 0 .32-4.3v-30a5.4 5.4 0 0 1 1.66-3.89A4.9 4.9 0 0 1 9.78 15a5 5 0 0 1 3.29 1.45A5 5 0 0 1 14.54 20v23.08a5 5 0 0 1 3 1.68l12.94 15a23 23 0 0 0 3.87 3.48c11.26 8.33 10.25 23.26 10.2 23.89Zm-15-2h13v-3c0-.22 1-14.54-9.39-22.2A25 25 0 0 1 29 61L16 46.06a3 3 0 0 0-2.25-1h-.18a3 3 0 0 0-1.8.72 3 3 0 0 0-1 2v.23a3 3 0 0 0 .71 1.99l13.33 15.39a1 1 0 0 1-1.51 1.31L10 51.3A5 5 0 0 1 8.74 48v-.38a5 5 0 0 1 1.72-3.41 5 5 0 0 1 2.06-1.07V20a3 3 0 0 0-.88-2.13 3 3 0 0 0-2-.87 2.8 2.8 0 0 0-2.11.82 3.3 3.3 0 0 0-1 2.41v30a31 31 0 0 1-.34 4.59c-.4 2.69-.55 7.76 2.88 11.57 5.5 6.13 10.14 10.84 15.05 15.83l1.94 2 3.47 2.28ZM58.78 58.86h-.06a1 1 0 0 1-.94-.92c-.06-.08-.48-.5-2.18-.5-4.69 0-8.12-.1-9.39-1.38-1.08-1.07-.48-2.81.1-4.49A11 11 0 0 0 47 49a10 10 0 0 0-2.41-.31c-2.41-.15-5.41-.33-6.22-2.76-.29-.88-1.1-1-3.37-.77-1.76.14-3.75.31-5.07-1A5.2 5.2 0 0 1 28 39.75a3.6 3.6 0 0 1 2.14-2.66c1.25-.63 3 0 4.94.79 2.45.93 5.23 2 6.74.48 2.62-2.61 2-4.13 0-6.18a1.8 1.8 0 0 0-2-.57 3 3 0 0 0-1 .57l-.51.51-5.13-2.57V30a15 15 0 0 1-2.05-2.64c-1.66-2.76-1-4.38-.16-5.26-.67-.54-3.32-1.27-5.9-1.59a1 1 0 0 1-.86-1.12 1 1 0 0 1 1.11-.86c2.58.32 7 1.14 7.65 3a1.8 1.8 0 0 1-.55 1.93c-1.16 1.16 1.19 4.07 2.06 5l3.62 1.81a5 5 0 0 1 1.17-.58 3.8 3.8 0 0 1 4 1.05c2.09 2.1 4 5 0 9-2.43 2.43-6 1.06-8.88 0-1.21-.46-2.86-1.09-3.33-.86A1.7 1.7 0 0 0 30 40.07a3.5 3.5 0 0 0 1.32 2.64c.66.66 2.1.54 3.5.42 2-.17 4.59-.38 5.43 2.14.38 1.14 2.63 1.28 4.44 1.39 2 .12 4.3.26 4.3 2.18a11 11 0 0 1-.8 3.38 7 7 0 0 0-.57 2.45c.78.77 5.64.77 8 .77a4.9 4.9 0 0 1 3.61 1.1 2 2 0 0 1 .57 1.38 1 1 0 0 1-1.02.94M57.09 35.47c-1.36 0-2.56-1.28-3.36-2.29-4.34-5.79-9.18-10.73-10.49-10.73a3.3 3.3 0 0 1-3.72.67 5.7 5.7 0 0 1-3.37-4.68c0-1.6 1.83-2.5 3.59-3.37a9 9 0 0 0 2.19-1.29l-.06-.06a2.9 2.9 0 0 1-.87-2.15C41.09 9 44.3 6 44.67 5.65A1 1 0 1 1 46 7.13c-1.14 1-3 3.16-3 4.49a.9.9 0 0 0 .26.69 2 2 0 0 1 .66 1.76c-.21 1.27-1.72 2-3.32 2.8-.77.38-2.37 1.17-2.48 1.58a3.7 3.7 0 0 0 2.14 2.82 1.3 1.3 0 0 0 1.6-.27 1.9 1.9 0 0 1 1.5-.53c3.35.24 10.54 9.62 12 11.5 1.27 1.58 1.79 1.51 1.8 1.51.43-.06 1-1.68 1.38-2.55a10 10 0 0 1 1.83-3.41c.45-.45.39-.7.38-.8-.13-.59-1.14-1.92-6.56-4.08-3.39-1.36-3.79-2.63-3.34-4.37.16-.61.22-.81-.25-1.28-1.3-1.3-1.26-2.33-1-3 .56-1.35 2.54-2 6.05-2a3.73 3.73 0 0 0 4-3 1 1 0 0 1 2 .33 5.8 5.8 0 0 1-6 4.65c-3.09 0-4.09.57-4.2.77s0 .26.56.78a3 3 0 0 1 .78 3.21c-.17.64-.27 1 2.14 2 5.07 2 7.39 3.68 7.77 5.54a2.8 2.8 0 0 1-.92 2.61 9 9 0 0 0-1.37 2.72c-.68 1.75-1.38 3.57-3 3.81z"/><path d="M67.41 53a1 1 0 0 1-.81-.42 55 55 0 0 1-3.21-5.46c-.13-.27-.31-.33-1.8 0a9.4 9.4 0 0 1-6.44-.59 2.83 2.83 0 0 1-1.6-3.84c1.1-2.65 6-5.48 8.88-4.51 2.33.77 3.05-.42 4.22-2.76s4.67-2.15 7.47-2l1.06.06a1 1 0 0 1 .95 1 1 1 0 0 1-1 1L74 35.39c-2-.12-5-.31-5.55.87-1.08 2.16-2.56 5.12-6.64 3.76-1.69-.56-5.64 1.53-6.41 3.39-.16.4-.25.83.65 1.28a7.5 7.5 0 0 0 5.19.41c1.38-.26 3.1-.57 4 1.12a54 54 0 0 0 3 5.19 1 1 0 0 1-.83 1.59"/><path d="M48.29 61a27.88 27.88 0 1 1 27.88-27.89A27.9 27.9 0 0 1 48.29 61m0-53.76a25.88 25.88 0 1 0 25.88 25.87A25.9 25.9 0 0 0 48.29 7.23Z"/></svg>