<svg xmlns="http://www.w3.org/2000/svg" width="24" height="24" fill="none" viewBox="0 0 24 24"><path fill="currentColor" fill-rule="evenodd" d="M6 2a4 4 0 0 0-4 4v12a4 4 0 0 0 4 4h12a4 4 0 0 0 4-4V6a4 4 0 0 0-4-4zM4 6c0-1.1.9-2 2-2h12a2 2 0 0 1 2 2v12a2 2 0 0 1-2 2H6a2 2 0 0 1-2-2zm5 5a1 1 0 1 0-2 0v6a1 1 0 1 0 2 0zm.5-3.5a1.5 1.5 0 1 1-3 0 1.5 1.5 0 0 1 3 0M12 10a1 1 0 0 1 .82.43A3.5 3.5 0 0 1 14.5 10c2.16 0 3.5 1.93 3.5 3.57V17a1 1 0 0 1-2 0v-3.42c0-.78-.66-1.58-1.5-1.58-.52 0-1.1.28-1.5.96V17a1 1 0 0 1-2 0V11A1 1 0 0 1 12 10" clip-rule="evenodd"/></svg>