<svg xmlns="http://www.w3.org/2000/svg" width="800" height="800" fill="currentColor" class="microchip_svg_jam microchip_svg_jam-microchip-f" preserveAspectRatio="xMinYMin" viewBox="-2 -1.5 24 24"><path d="M11 17.86v2a1 1 0 0 1-2 0v-2H7v2a1 1 0 0 1-2 0v-2l.01-.17a3 3 0 0 1-1.84-1.85l-.17.02H1a1 1 0 0 1 0-2h2v-2H1a1 1 0 0 1 0-2h2v-2H1a1 1 0 1 1 0-2h2l.17.01A3 3 0 0 1 5 4.02L5 3.86v-2a1 1 0 1 1 2 0v2h2v-2a1 1 0 1 1 2 0v2h2v-2a1 1 0 0 1 2 0v2l-.01.16a3 3 0 0 1 1.84 1.85l.17-.01h2a1 1 0 0 1 0 2h-2v2h2a1 1 0 0 1 0 2h-2v2h2a1 1 0 0 1 0 2h-2l-.17-.02A3 3 0 0 1 15 17.7l.01.17v2a1 1 0 0 1-2 0v-2zm-3-10a1 1 0 0 0-1 1v4a1 1 0 0 0 1 1h4a1 1 0 0 0 1-1v-4a1 1 0 0 0-1-1z"/></svg>