<svg xmlns="http://www.w3.org/2000/svg" xml:space="preserve" width="800" height="800" fill="currentColor" viewBox="0 0 511 511"><path d="M383.27 301.03c-32.5-54.92-69.34-117.16-72.28-189.83a8 8 0 0 0-.17-1.32c-.97-27.3-6.02-52.77-14.48-72.53C286 13.27 271.5 0 255.5 0s-30.51 13.27-40.83 37.35c-8.47 19.76-13.52 45.23-14.49 72.53q-.15.65-.17 1.32c-2.94 72.67-39.78 134.91-72.28 189.83C102.12 344.31 80 381.68 80 415.5v32a7.5 7.5 0 0 0 6.5 7.43l89.5 11.94v36.63a7.5 7.5 0 0 0 7.5 7.5h48a7.5 7.5 0 0 0 7.5-7.5V479h9v24.5a7.5 7.5 0 0 0 15 0V479h9v24.5a7.5 7.5 0 0 0 7.5 7.5h48a7.5 7.5 0 0 0 7.5-7.5v-36.63l89.5-11.94a7.5 7.5 0 0 0 6.5-7.43v-32c0-33.82-22.12-71.2-47.73-114.47m-7.18 17.34q-.08.56-.09 1.13v67.19c0 8.15-6.09 15.18-14.17 16.33l-27.46 3.92a10.5 10.5 0 0 0-9.87-6.94H311V189.6c14.74 43.65 37.96 82.9 59.36 119.07zM303.5 415zH320v57.03q-.25-.02-.5-.03H287v-57zM224 471.49zv.5h-32.5q-.25 0-.5.03V415h33zM200 189.6V400h-13.5c-4.54 0-8.4 2.9-9.87 6.94l-27.46-3.92A16.6 16.6 0 0 1 135 386.69V319.5q0-.57-.1-1.13l5.74-9.7c21.4-36.16 44.62-75.42 59.36-119.07M95 440.93V415.5c0-20.8 10.38-44.57 25-71.15v42.33a31.66 31.66 0 0 0 27.05 31.19L176 422v29.73zM191 496v-9.02l.5.02H224v9zm72-32V327.5a7.5 7.5 0 0 0-15 0V464h-9v-53.5c0-5.79-4.71-10.5-10.5-10.5H215V119.5C215 57.92 236.34 15 255.5 15S296 57.92 296 119.5V400h-13.5c-5.79 0-10.5 4.71-10.5 10.5V464zm24 32v-9h32.5l.5-.02V496zm129-55.07-81 10.8v-29.72l28.96-4.14A31.65 31.65 0 0 0 391 386.69v-42.34c14.62 26.58 25 50.34 25 71.15z"/><path d="M287 127.5v-20.96a7.5 7.5 0 0 0-1.85-4.94C277.59 92.96 266.79 88 255.5 88s-22.1 4.96-29.65 13.6a7.5 7.5 0 0 0-1.85 4.94v20.96a7.5 7.5 0 0 0 7.5 7.5h48a7.5 7.5 0 0 0 7.5-7.5m-15-7.5h-33v-10.44c4.55-4.25 10.32-6.56 16.5-6.56s11.95 2.31 16.5 6.56z"/></svg>