<svg xmlns="http://www.w3.org/2000/svg" xml:space="preserve" width="800" height="800" fill="currentColor" viewBox="0 0 502 502"><path d="M369.47 34.9c-50.83 0-96.36 28.99-118.47 73.06a132.7 132.7 0 0 0-118.47-73.07C59.45 34.9 0 94.34 0 167.42c0 62.31 57.59 117.66 103.86 162.13l140.38 134.93a9.97 9.97 0 0 0 13.54-.02l140.36-134.9C444.41 285.07 502 229.72 502 167.41 502 94.34 442.55 34.9 369.47 34.9m-327.2 68.17 23-22.99a31.8 31.8 0 0 1 28.29-8.8l6.34 1.17 62.99 19.91q.3.1.6.17c6.94 1.72 6.94 3.94 6.94 6.1 0 .51-.09 1.46-.7 2-.75.64-2.71 1.15-5.97.66l-23.97-3.95a10 10 0 0 0-11.16 12.88l.06.2a10 10 0 0 0 2.47 4.06l57.78 57.78a3.63 3.63 0 0 1-5.13 5.13l-.02-.01v-.01l-40.74-40.47a10 10 0 0 0-14.1 14.2l40.7 40.42.02.01 15.64 15.64a3.61 3.61 0 0 1-2.57 6.2 3.6 3.6 0 0 1-2.56-1.07l-9.64-9.64-49.6-49.6a10 10 0 0 0-14.14 14.15l49.6 49.6a3.63 3.63 0 0 1-5.13 5.13l-31.91-31.91-22.75-22.75a10 10 0 0 0-14.14 14.14l22.74 22.75.02.01a3.61 3.61 0 0 1-2.58 6.18c-.56 0-1.64-.14-2.56-1.06L47 156.22l-.58-.53c-.15-.13-14.62-12.9-15.24-28.6-.33-8.38 3.3-16.23 11.08-24.02m344.65 208.67-23 22.99c-7.46 7.46-14.98 11.1-22.96 11.1q-.47 0-.95-.02c-15.8-.56-28.6-15.12-28.7-15.24q-.25-.3-.54-.58l-53.07-53.08a3.6 3.6 0 0 1 0-5.13 3.6 3.6 0 0 1 5.13 0l22.75 22.75a9.97 9.97 0 0 0 14.14 0 10 10 0 0 0 0-14.14l-22.75-22.75-31.9-31.9a3.63 3.63 0 0 1 5.12-5.14l49.6 49.6a9.97 9.97 0 0 0 14.15 0 10 10 0 0 0 0-14.14l-49.6-49.6h-.01l-9.63-9.64a3.63 3.63 0 0 1 5.13-5.13l15.6 15.61.02.02 39.45 39.72a9.97 9.97 0 0 0 14.15.05 10 10 0 0 0 .05-14.14l-39.47-39.74-.02-.02-.01-.01a3.61 3.61 0 0 1 2.57-6.18c.56 0 1.64.14 2.57 1.06l57.78 57.78a10 10 0 0 0 4.07 2.47l.2.06a10 10 0 0 0 12.87-11.16l-3.95-23.98c-.49-3.25.02-5.2.66-5.96.53-.61 1.48-.7 2-.7 2.15 0 4.38 0 6.1 6.93q.07.3.16.61l19.92 62.98 1.17 6.35a31.9 31.9 0 0 1-8.8 28.3m29.04-27.76a52 52 0 0 0-.57-4.16l-1.16-6.27q-.1-.9-.39-1.78l-20.04-63.4c-4.84-18.96-17.99-21.8-25.42-21.8-6.73 0-12.98 2.8-17.17 7.67-2.73 3.18-5.65 8.41-5.7 16.31l-36.63-36.63a23.5 23.5 0 0 0-16.7-6.92 23.5 23.5 0 0 0-19.1 9.7 23.66 23.66 0 0 0-32.53.86 23.7 23.7 0 0 0-5.24 25.44 23.65 23.65 0 0 0-4.4 36.88l15.4 15.4q-1.46 1.06-2.75 2.36a23.5 23.5 0 0 0-6.92 16.71c0 6.31 2.45 12.25 6.92 16.7l52.85 52.86c2.33 2.62 16.74 17.94 36.86 21.27a5016 5016 0 0 1-82.28 78.3c-17.15-15.9-64.27-59.92-111.4-107.05-6.86-6.87-14.16-13.88-21.88-21.3C74.18 273.3 20 221.22 20 167.44q0-5.94.6-11.72a75 75 0 0 0 12.5 14.88l52.84 52.85a23.5 23.5 0 0 0 16.71 6.92 23.5 23.5 0 0 0 19.08-9.68l15.4 15.4c4.6 4.6 10.65 6.91 16.7 6.91a23.6 23.6 0 0 0 20.16-11.29 24 24 0 0 0 8.75 1.67c6.31 0 12.24-2.46 16.7-6.93a23.5 23.5 0 0 0 6.93-16.7c0-5.9-2.15-11.47-6.08-15.82q1.46-1.06 2.79-2.39a23.66 23.66 0 0 0 0-33.4l-36.63-36.64c7.9-.05 13.13-2.97 16.3-5.7a22.5 22.5 0 0 0 7.68-17.17c0-7.43-2.84-20.58-21.8-25.42l-53.6-16.94q8.56-1.36 17.5-1.37c51.05 0 95.8 34.44 108.8 83.76a10 10 0 0 0 19.34 0 112.6 112.6 0 0 1 108.8-83.76C431.52 54.9 482 105.37 482 167.42c0 41.13-31.67 81.25-66.04 116.56"/><path d="M459 156a10 10 0 0 0-10 10c0 9.15-1.53 18.13-4.55 26.67a10 10 0 0 0 18.86 6.66A100 100 0 0 0 469 166a10 10 0 0 0-10-10M453.88 146a10 10 0 0 0 9.43-13.33A100.2 100.2 0 0 0 369 66c-22.5 0-43.76 7.3-61.47 21.12a10 10 0 1 0 12.3 15.76A79.2 79.2 0 0 1 369 86a80.1 80.1 0 0 1 75.45 53.33 10 10 0 0 0 9.43 6.67M150.99 293.35a10 10 0 1 0-13.98 14.3l16 15.64a9.96 9.96 0 0 0 14.14-.17 10 10 0 0 0-.16-14.14zM177.85 333.57a10 10 0 0 0 .16 14.14l68 66.44a9.97 9.97 0 0 0 14.14-.16 10 10 0 0 0-.16-14.14l-68-66.44a10 10 0 0 0-14.14.16"/></svg>