<svg xmlns="http://www.w3.org/2000/svg" width="800" height="800" fill="none" viewBox="0 0 24 24"><path stroke="currentColor" stroke-linecap="round" stroke-linejoin="round" stroke-width="1.5" d="M5.5 8.8S5 10.62 5 13.5s.39 5.42.78 5.78S8.88 20 12 20s5.83-.36 6.22-.72c.4-.36.78-2.9.78-5.78s-.5-4.7-.5-4.7m-13 0c1.16.11 3.69.2 6.5.2s5.34-.09 6.5-.2m-13 0q-.46-.03-.61-.08C4.44 8.58 4 7.62 4 6.5c0-1.11.44-2.08.89-2.22C5.33 4.14 8.44 4 12 4s6.67.14 7.11.28.89 1.1.89 2.22c0 1.11-.44 2.08-.89 2.22q-.15.04-.61.09M10 13s.5-.5 2-.5 2 .5 2 .5"/></svg>