<svg xmlns="http://www.w3.org/2000/svg" xml:space="preserve" width="800" height="800" fill="currentColor" viewBox="0 0 297 297"><path d="M254.14 53.24C224.51 18.91 185.3 0 143.74 0c-35.07 0-68.2 13.46-93.3 37.9-40.06 39-53.26 85.38-36.23 127.28 13.87 34.12 45.62 57.95 77.22 57.95q1.25 0 2.51-.05c4.7-.2 9.25-.59 13.65-.97 5.3-.46 10.32-.9 14.77-.9 10.54 0 19.64 0 19.64 26.85 0 28.81 17.54 48.94 42.65 48.94 17.87 0 37.66-10.34 57.22-29.9 25.88-25.88 43.1-62.2 47.24-99.64 4.65-42.13-7.77-82.7-34.97-114.22m-26.82 199.3c-15.4 15.4-30.55 23.88-42.66 23.88-16.3 0-22.07-15.28-22.07-28.36 0-32.35-12.78-47.43-40.23-47.43-5.33 0-10.78.47-16.55.97-4.16.36-8.48.73-12.72.91l-1.65.03c-23.07 0-47.53-18.97-58.16-45.11C19.57 123.69 31.05 85.5 64.8 52.65a112.6 112.6 0 0 1 78.94-32.07c35.48 0 69.16 16.38 94.82 46.11 50.63 58.67 34.04 140.57-11.25 185.85"/><path d="M192.65 165.88c0 17.21 13.92 31.21 31.03 31.21s31.03-14 31.03-31.21-13.92-31.22-31.03-31.22-31.03 14-31.03 31.22m41.47 0c0 5.86-4.68 10.63-10.44 10.63a10.55 10.55 0 0 1-10.44-10.63c0-5.87 4.69-10.64 10.44-10.64 5.76 0 10.44 4.77 10.44 10.64M226.91 93.49c0-17.22-13.91-31.22-31.02-31.22s-31.03 14-31.03 31.22 13.92 31.22 31.03 31.22 31.02-14.01 31.02-31.22m-41.46 0c0-5.87 4.68-10.63 10.44-10.63s10.44 4.76 10.44 10.63c0 5.86-4.69 10.63-10.44 10.63a10.55 10.55 0 0 1-10.44-10.63M124.86 39.63c-17.1 0-31.02 14-31.02 31.21s13.92 31.22 31.02 31.22 31.03-14 31.03-31.22c0-17.2-13.92-31.21-31.03-31.21m0 41.85a10.55 10.55 0 0 1-10.43-10.64c0-5.86 4.68-10.63 10.43-10.63s10.44 4.77 10.44 10.63-4.68 10.64-10.44 10.64M70.82 92.8c-17.1 0-31.02 14.01-31.02 31.23s13.91 31.21 31.02 31.21 31.03-14 31.03-31.21S87.93 92.8 70.82 92.8m0 41.86a10.55 10.55 0 0 1-10.44-10.64c0-5.86 4.68-10.63 10.44-10.63s10.44 4.77 10.44 10.63-4.68 10.64-10.44 10.64"/></svg>