<svg xmlns="http://www.w3.org/2000/svg" xml:space="preserve" fill="currentColor" viewBox="0 0 496 496"><path d="M448 192v-48h32v-16h-16V56c0-30.87-25.13-56-56-56s-56 25.13-56 56v72h-16v16h32v48H160v-48h16V0H32v144h16v48H0v304h496V192zM368 56c0-22.06 17.94-40 40-40s40 17.94 40 40v72h-16V56h-48v16h32v56h-16V88h-16v40h-16zm64 88v48h-48v-48zM48 16h112v112H48zm96 128v48H64v-48zm336 336H16V208h32v80h16v-80h80v80h16v-80h208v112h16V208h48v112h16V208h32z"/><path d="M176 240h16v16h-16zM304 240h16v16h-16zM304 288h-16v-16h-16v16h-16v-16h-16v16h-16v-16h-16v16h-16v-16h-16v144h16v-16h16v16h16v-16h16v16h16v-16h16v16h16v-16h16v16h16V272h-16zm0 96H192v-80h112zM144 304h16v16h-16zM112 240h16v16h-16zM112 272h16v16h-16zM112 304h16v16h-16zM80 240h16v16H80zM80 272h16v16H80zM80 304h16v16H80zM48 304h16v16H48zM336 240h16v16h-16zM400 240h16v16h-16zM336 272h16v16h-16zM208 240h16v16h-16zM240 240h16v16h-16zM272 240h16v16h-16zM400 272h16v16h-16zM336 304h16v16h-16zM400 304h16v16h-16zM48 336h16v16H48zM80 336h16v16H80zM112 336h16v16h-16zM144 336h16v16h-16zM336 336h16v16h-16zM368 336h16v16h-16zM400 336h16v16h-16zM432 336h16v16h-16zM48 368h16v16H48zM80 368h16v16H80zM112 368h16v16h-16zM144 368h16v16h-16zM336 368h16v16h-16zM368 368h16v16h-16zM400 368h16v16h-16zM432 368h16v16h-16zM48 400h16v16H48zM80 400h16v16H80zM112 400h16v16h-16zM144 400h16v16h-16zM336 400h16v16h-16zM368 400h16v16h-16zM400 400h16v16h-16zM432 400h16v16h-16zM48 432h16v16H48zM80 432h16v16H80zM112 432h16v16h-16zM144 432h16v16h-16zM176 432h16v16h-16zM208 432h16v16h-16zM240 432h16v16h-16zM272 432h16v16h-16zM304 432h16v16h-16zM336 432h16v16h-16zM368 432h16v16h-16zM400 432h16v16h-16zM432 432h16v16h-16zM104 32c-22.06 0-40 17.94-40 40s17.94 40 40 40 40-17.94 40-40-17.94-40-40-40m0 64a24 24 0 0 1-22.53-16h45.05c-3.3 9.29-12.1 16-22.52 16M81.48 64c3.3-9.29 12.1-16 22.52-16s19.22 6.71 22.53 16z"/><path d="M208 320h16v16h-16zM240 320h48v16h-48zM208 352h80v16h-80z"/></svg>