<svg xmlns="http://www.w3.org/2000/svg" width="24" height="24" fill="none" viewBox="0 0 24 24"><g clip-path="url(#phone_svg_a)"><path fill="currentColor" d="M6.54 5q.09 1.34.45 2.59l-1.2 1.2Q5.17 6.99 5.03 5zm9.86 12.02q1.28.36 2.6.45v1.49a15 15 0 0 1-3.8-.75zM7.5 3H4a1 1 0 0 0-1 1 17 17 0 0 0 17 17 1 1 0 0 0 1-1v-3.49a1 1 0 0 0-1-1q-1.87 0-3.57-.57a1.02 1.02 0 0 0-1.02.24l-2.2 2.2a15 15 0 0 1-6.59-6.59l2.2-2.2a1 1 0 0 0 .25-1.02A11 11 0 0 1 8.5 4a1 1 0 0 0-1-1"/></g><defs><clipPath id="phone_svg_a"><path fill="#fff" d="M0 0h24v24H0z"/></clipPath></defs></svg>