<svg xmlns="http://www.w3.org/2000/svg" xml:space="preserve" width="800" height="800" fill="currentColor" viewBox="0 0 512 512"><circle cx="239.3" cy="372.87" r="16.7"/><path d="m507.11 255.33-50.76-50.77V94.61a16.7 16.7 0 0 0-16.7-16.7h-66.78a16.7 16.7 0 0 0-16.7 16.7v9.78l-88.36-88.37a16.7 16.7 0 0 0-23.62 0L4.9 255.32a16.7 16.7 0 0 0 23.61 23.62l27.15-27.15v232.38a16.7 16.7 0 0 0 16.7 16.7h367.3a16.7 16.7 0 0 0 16.7-16.7V251.78l27.15 27.16a16.7 16.7 0 1 0 23.61-23.62M322.78 467.48H189.22V345.04c0-36.82 29.96-66.78 66.78-66.78s66.78 29.96 66.78 66.78zm100.18 0h-66.79V345.04c0-55.23-44.94-100.17-100.17-100.17S155.82 289.8 155.82 345.04v122.44H89.04V218.39L256 51.44l166.96 166.95zm0-296.3-33.4-33.4V111.3h33.4z"/></svg>