<svg xmlns="http://www.w3.org/2000/svg" width="800" height="800" class="retail_svg_icon" viewBox="0 0 1024 1024"><path fill="currentColor" d="M320 288v-22.34C320 154.7 405.5 64 512 64s192 90.69 192 201.66v22.4h131.07a32 32 0 0 1 31.81 28.8l57.6 576a32 32 0 0 1-31.8 35.2H131.32a32 32 0 0 1-31.81-35.2l57.6-576a32 32 0 0 1 31.8-28.8H320zm64 0h256v-22.34C640 189.25 582.27 128 512 128s-128 61.25-128 137.66v22.4zm-64 64H217.92l-51.2 512h690.56l-51.26-512H704v96a32 32 0 1 1-64 0v-96H384v96a32 32 0 0 1-64 0z"/></svg>