<svg xmlns="http://www.w3.org/2000/svg" xml:space="preserve" width="800" height="800" fill="currentColor" viewBox="0 0 512 512"><path d="M351.37 343.85v-39.8h58.66V170.02h-108v-17.08h79.47V0h-251v152.93h79.47v17.08h-108v134.05h58.66v39.79c-37.21 9.17-64.9 42.82-64.9 82.83 0 47.05 38.28 85.32 85.32 85.32h149.9c47.04 0 85.32-38.27 85.32-85.32 0-40.01-27.68-73.66-64.9-82.83m0-140.45h25.27v67.27h-25.27zM163.9 119.55V33.4h184.2v86.15zm104.73 33.4V170h-25.26v-17.08zm-74.6 151.12V203.4h123.95v137.95H194.02zm-58.67-33.4v-67.25h25.27v67.26zm195.59 207.95h-149.9c-28.63 0-51.93-23.3-51.93-51.93s23.3-51.93 51.93-51.93h149.9a52 52 0 0 1 51.93 51.93 52 52 0 0 1-51.93 51.93"/><path d="M209.81 226.2v92.38h92.38v-92.39zm59 58.98h-25.6v-25.6h25.6zM203.13 384.12a42.6 42.6 0 0 0-42.55 42.56 42.6 42.6 0 0 0 42.55 42.55 42.6 42.6 0 0 0 42.56-42.55 42.6 42.6 0 0 0-42.56-42.56m0 51.72a9.17 9.17 0 0 1 0-18.33 9.17 9.17 0 0 1 0 18.33M308.87 384.12a42.6 42.6 0 0 0-42.55 42.56c0 23.46 19.09 42.55 42.55 42.55s42.56-19.09 42.56-42.55a42.6 42.6 0 0 0-42.56-42.56m0 51.72a9.17 9.17 0 0 1 0-18.33 9.17 9.17 0 0 1 0 18.33"/><circle cx="217.04" cy="76.47" r="16.7"/><circle cx="294.96" cy="76.47" r="16.7"/></svg>