<svg xmlns="http://www.w3.org/2000/svg" width="800" height="800" fill="none" viewBox="0 0 24 24"><path fill="currentColor" fill-rule="evenodd" d="M12 8.25a3.75 3.75 0 1 0 0 7.5 3.75 3.75 0 0 0 0-7.5M9.75 12a2.25 2.25 0 1 1 4.5 0 2.25 2.25 0 0 1-4.5 0" clip-rule="evenodd"/><path fill="currentColor" fill-rule="evenodd" d="M11.97 1.25q-.66 0-1.12.02t-.9.19c-.68.28-1.21.81-1.5 1.49q-.2.52-.19 1.12a.9.9 0 0 1-.42.73.9.9 0 0 1-.84 0q-.52-.3-1.07-.4c-.72-.09-1.45.1-2.03.55q-.36.3-.62.7-.25.38-.58.95l-.02.05q-.34.56-.54.98-.22.42-.3.88c-.09.72.1 1.45.55 2.03q.35.43.87.73.43.29.43.73c0 .28-.15.55-.43.73q-.52.3-.87.73a2.8 2.8 0 0 0-.54 2.03q.07.46.29.88.2.42.54.98l.02.05q.34.57.58.96.26.4.62.69c.58.44 1.3.64 2.03.54Q6.5 19.5 7 19.2c.29-.15.6-.14.84 0q.38.22.42.73 0 .6.2 1.12c.28.68.81 1.21 1.49 1.5q.44.16.9.18t1.12.02h.06q.66 0 1.12-.02t.9-.19c.68-.28 1.21-.81 1.5-1.49q.2-.52.19-1.12c.01-.32.18-.6.42-.73a.9.9 0 0 1 .84 0q.52.3 1.07.4c.72.09 1.45-.1 2.03-.55q.36-.3.62-.7.25-.38.58-.95l.02-.05q.34-.56.54-.98.22-.42.3-.88c.09-.72-.1-1.45-.55-2.03q-.35-.43-.87-.73a.9.9 0 0 1-.43-.73c0-.28.15-.55.43-.73q.52-.3.87-.73c.44-.58.64-1.31.54-2.03q-.07-.46-.29-.88-.2-.41-.54-.98l-.02-.05q-.34-.57-.58-.96-.26-.4-.62-.69a2.8 2.8 0 0 0-2.03-.54q-.56.09-1.07.39a.9.9 0 0 1-.84 0 .9.9 0 0 1-.42-.73q0-.6-.2-1.12a2.8 2.8 0 0 0-1.49-1.5 3 3 0 0 0-.9-.18q-.46-.03-1.12-.02zm-1.45 1.6q.1-.06.44-.08c.24-.02.56-.02 1.04-.02q.7 0 1.04.02c.24.01.36.04.44.08.3.12.55.37.67.67.04.1.08.25.1.6.02.8.43 1.56 1.16 1.98.72.42 1.59.4 2.29.02.31-.17.46-.21.57-.23.32-.04.66.05.92.25q.1.06.28.34.2.29.54.9.35.59.5.9t.16.42q.05.51-.25.93c-.06.08-.18.18-.48.37a2.4 2.4 0 0 0-1.13 2c0 .84.46 1.57 1.13 2 .3.19.42.29.48.37q.31.42.25.93 0 .1-.15.41c-.11.23-.27.5-.5.91-.25.42-.4.7-.55.9q-.18.28-.28.34c-.26.2-.6.29-.93.25-.1-.02-.25-.06-.56-.23-.7-.37-1.57-.4-2.3.02a2.4 2.4 0 0 0-1.16 1.97c-.01.36-.05.51-.09.6q-.2.48-.67.68c-.08.04-.2.07-.44.08-.24.02-.56.02-1.04.02q-.7 0-1.04-.02a1 1 0 0 1-.44-.08c-.3-.12-.55-.37-.67-.67-.04-.1-.08-.25-.1-.6A2.4 2.4 0 0 0 8.6 17.9c-.72-.42-1.59-.4-2.29-.02-.31.17-.46.21-.57.23-.32.04-.66-.05-.92-.25a1 1 0 0 1-.28-.34q-.2-.29-.54-.9-.35-.59-.5-.9t-.16-.42q-.06-.51.25-.93c.06-.08.18-.18.48-.37a2.4 2.4 0 0 0 1.13-2c0-.84-.46-1.57-1.13-2-.3-.19-.42-.29-.48-.37q-.31-.42-.25-.93 0-.1.15-.41c.11-.23.27-.5.5-.92.25-.4.4-.68.55-.89q.18-.28.28-.34c.26-.2.6-.29.93-.25.1.02.25.06.56.23.7.37 1.57.4 2.3-.02a2.4 2.4 0 0 0 1.16-1.97c.01-.36.05-.51.09-.6q.2-.48.67-.68" clip-rule="evenodd"/></svg>