<svg xmlns="http://www.w3.org/2000/svg" width="800" height="800" fill="none" viewBox="0 0 24 24"><path fill="currentColor" fill-rule="evenodd" d="M12 2.75a9.25 9.25 0 1 0 0 18.5 9.25 9.25 0 0 0 0-18.5M1.25 12a10.75 10.75 0 1 1 21.5 0 10.75 10.75 0 0 1-21.5 0m7.15 3.55a.75.75 0 0 1 1.05-.15 4.3 4.3 0 0 0 5.1 0 .75.75 0 1 1 .9 1.2 5.8 5.8 0 0 1-6.9 0 .75.75 0 0 1-.15-1.05" clip-rule="evenodd"/><path fill="currentColor" d="M16 10.5c0 .83-.45 1.5-1 1.5s-1-.67-1-1.5.45-1.5 1-1.5 1 .67 1 1.5M10 10.5c0 .83-.45 1.5-1 1.5s-1-.67-1-1.5S8.45 9 9 9s1 .67 1 1.5"/></svg>