<svg xmlns="http://www.w3.org/2000/svg" width="800" height="800" viewBox="0 0 512 512"><title>support</title><path fill="currentColor" fill-rule="evenodd" d="M422.4 217.17c-6.61-67.84-46.72-174.5-170.67-174.5S87.68 149.33 81.07 217.17a59.5 59.5 0 0 0-38.4 55.9v29.86a59.73 59.73 0 0 0 119.46 0v-29.86a59.95 59.95 0 0 0-37.33-55.26c4.27-39.25 25.17-132.48 126.93-132.48s122.46 93.23 126.72 132.48a59.7 59.7 0 0 0-37.12 55.26v29.86a60 60 0 0 0 33.92 53.76c-8.96 16.86-31.78 39.68-87.89 46.51a42.67 42.67 0 1 0-35.63 66.13 42.7 42.7 0 0 0 37.98-23.68c91.52-10.45 120.74-57.6 129.92-85.33a59.5 59.5 0 0 0 41.17-57.39v-29.86a59.5 59.5 0 0 0-38.4-55.9m-302.93 85.76a17.07 17.07 0 0 1-34.14 0v-29.86a17.07 17.07 0 1 1 34.14 0zM384 273.07a17.07 17.07 0 1 1 34.13 0v29.86a17.07 17.07 0 0 1-34.13 0z"/></svg>