<svg xmlns="http://www.w3.org/2000/svg" xml:space="preserve" width="800" height="800" fill="currentColor" viewBox="0 0 496 496"><path d="M496 286.22a71.7 71.7 0 0 0-40-64.48V96c0-52.94-43.06-96-96-96s-96 43.06-96 96v9.46a97 97 0 0 0-31.22-.28c-.56.1-1.12.24-1.7.34.56-3.14.92-6.3.92-9.52V64a24 24 0 0 0-22.28-23.94A88.3 88.3 0 0 0 136 0C87.48 0 48 39.48 48 88v8a56 56 0 0 0 24 45.77v.45c0 20.16 9.4 38.15 24 49.88v17.13l-35.83 5.97A71.76 71.76 0 0 0 0 286.22V352h141.5A71.6 71.6 0 0 0 96 418.91V496h304v-77.09A71.6 71.6 0 0 0 354.5 352H496zM280 96c0-44.11 35.89-80 80-80s80 35.89 80 80v120.08c-1.38-.31-2.75-.65-4.17-.89L400 209.22V192.1a63.9 63.9 0 0 0 24-49.88l-.06-50.7-11.34 5.23c-.16.08-16.14 7.25-52.6 7.25s-52.44-7.17-52.54-7.2L296 91.3v25.65a96 96 0 0 0-16-7.31zm51.34 56.5A96 96 0 0 0 312 128.6v-13.64c9.51 2.4 25.2 5.04 48 5.04s38.49-2.65 48-5.04v27.26c0 26.47-21.53 48-48 48-2.68 0-5.34-.3-8-.76v-11.78a25.7 25.7 0 0 0-20.66-25.18m13.7 89.32A88 88 0 0 0 352 208v-2.36c2.66.34 5.33.58 8 .58 8.49 0 16.58-1.7 24-4.7v13.2l-24 72zm.66 52.57-21.92-21.91a87 87 0 0 0 10.62-11.98zm51.73-69.38 12.64 2.1 5.24 26.26-41 41.01zM235.22 120.99a80.25 80.25 0 0 1 83.96 42.65l2.24 4.36h4.9a9.7 9.7 0 0 1 9.68 9.68V208a72.3 72.3 0 0 1-16 45.14l-.05-49.08-11.05 4.56c-.18.08-18.35 7.38-60.9 7.38s-60.72-7.3-60.85-7.35L176 203.87v30.7a80.3 80.3 0 0 1-7.48-43.81c3.92-35.07 31.97-64.4 66.7-69.77m-76.59 113.54c1.81 4.67 3.9 9.23 6.43 13.58l-14.1-8.47zm-22.35-4.33L112 212v-10.5a64 64 0 0 0 24 4.72 63 63 0 0 0 16.25-2.2c.21 4.86.73 9.68 1.67 14.42zm32.62 38.86 7.84 4.7A71.8 71.8 0 0 0 200 317.52V336h-32.94l-6.76-54.04zm37.12 83.61 28 22.4-23.6 14.15-21.7-32.56zm9.98-12.52V328.4a71.5 71.5 0 0 0 32 7.6c11.5 0 22.34-2.78 32-7.6v11.75l-32 25.6zm73.98 12.51 17.3 4-21.7 32.56-23.6-14.16zM248 320c-30.87 0-56-25.13-56-56v-37.33c10.46 2.44 28.62 5.33 56 5.33s45.54-2.89 56-5.33V264c0 30.87-25.13 56-56 56M72 91.3v28.58c-5.09-6.8-8-15.16-8-23.88v-8c0-39.7 32.3-72 72-72a72.3 72.3 0 0 1 62.29 36l2.31 4h7.4a8 8 0 0 1 8 8v32c0 5.02-1 9.9-2.88 14.6a95 95 0 0 0-13.14 6.42l-.03-25.48-11.34 5.22c-.17.07-16.15 7.24-52.61 7.24s-52.44-7.17-52.54-7.2zm16 50.92v-27.26c9.51 2.4 25.2 5.04 48 5.04s38.49-2.65 48-5.04v13.72c-16.6 14.98-28.04 35.62-31.08 58.37a47 47 0 0 1-16.92 3.17c-26.47 0-48-21.53-48-48m13.94 82.23 19.74 14.8-22.94 13.77-15.3-25.48zm3 111.55H64v-24H48v24H16v-49.78a55.8 55.8 0 0 1 46.8-55.24l3.69-.62 26.77 44.62 9.84-5.9 8.59 12.88zm16.12 0 7.24-57.96-11.48-17.2L136 249.32l19.17 11.5-11.47 17.2 7.24 57.97zm95.78 144H160v-40h-16v40h-32v-61.09a55.7 55.7 0 0 1 43.4-54.56l16.66-3.84 33.52 50.27 9.52-5.7 8.63 12.94zm46.22 0h-30.12l7.34-66.02-11.44-17.16 19.16-11.5 19.17 11.5-11.44 17.16zM384 418.91V480h-32v-40h-16v40h-56.84l-6.89-61.98 8.63-12.95 9.52 5.71 33.52-50.27 16.65 3.84A55.7 55.7 0 0 1 384 418.91M480 336h-32v-24h-16v24H296v-18.49a72 72 0 0 0 20.04-30.17L360 331.31l72.69-72.68-5.75-28.7 6.27 1.05A55.8 55.8 0 0 1 480 286.22z"/></svg>