<svg xmlns="http://www.w3.org/2000/svg" xml:space="preserve" width="800" height="800" fill="currentColor" viewBox="0 0 64 64"><path d="M61 61h2v2h-2zM1 61h2v2H1zM32 28a3 3 0 1 0 0-6 3 3 0 0 0 0 6m0-4a1 1 0 1 1 0 2 1 1 0 0 1 0-2"/><path d="m43.7 23 9 6H55v-5.1a5 5 0 0 0 0-9.8V9h-2.3l-9 6h-3.08l-2-4H33V6.82a3 3 0 1 0-2 0V11h-5.62l-2 4H20.3l-9-6H9v5.1a5 5 0 0 0 0 9.8V29h2.3l9-6h.58l-3.77 34H16a5 5 0 0 0-4.9 4H5v2h54v-2h-6.1a5 5 0 0 0-4.9-4h-1.1l-3.78-34zM32 3a1 1 0 1 1 0 2 1 1 0 0 1 0-2m25 16a3 3 0 0 1-2 2.82v-5.64A3 3 0 0 1 57 19m-4-7.8v15.6l-8-5.33v-4.93zM26.62 13h10.76l1 2H25.62zM21 17h22v4h-5.26a7 7 0 0 0-11.48 0H21zm.6 26L32 38.1 42.4 43zm20.8 2L32 49.9 21.6 45zm-21.52-3.87.87-7.85 7.9 3.72zM29.65 51l-10.41 4.9 1.03-9.31zM32 52.1 42.4 57H21.6zm2.35-1.1 9.38-4.41 1.03 9.3zm0-14 7.9-3.72.87 7.85zM42 31.18 32 35.9l-10.01-4.7.04-.4 4.13-1.94a7 7 0 0 0 11.68 0l4.13 1.95zM27 25a5 5 0 1 1 10.01.01A5 5 0 0 1 27 25M7 19a3 3 0 0 1 2-2.82v5.64A3 3 0 0 1 7 19m4 7.8V11.2l8 5.34v4.93zM25.3 23a7 7 0 0 0 0 4.04l-3.01 1.42.6-5.46zm25.52 38H13.18A3 3 0 0 1 16 59h32a3 3 0 0 1 2.82 2m-9.1-32.54-3.03-1.42a7 7 0 0 0 .02-4.04h2.4z"/></svg>