<svg xmlns="http://www.w3.org/2000/svg" width="800" height="800" fill="none" viewBox="0 0 24 24"><path fill="currentColor" fill-rule="evenodd" d="M3 3a3 3 0 0 0-3 3v9a3 3 0 0 0 2.02 2.83 3.5 3.5 0 0 0 6.94.17h6.08a3.5 3.5 0 0 0 6.94-.17A3 3 0 0 0 24 15v-4.25a3 3 0 0 0-.74-1.97l-2.41-2.76A3 3 0 0 0 18.59 5h-1.76A3 3 0 0 0 14 3zm1 14.44v.12a1.5 1.5 0 0 0 3 0v-.12a1.5 1.5 0 0 0-3 0M5.5 14c1.4 0 2.6.82 3.16 2h6.68a3.5 3.5 0 0 1 6.23-.18A1 1 0 0 0 22 15v-4h-5a2 2 0 0 1-2-2V6a1 1 0 0 0-1-1H3a1 1 0 0 0-1 1v9a1 1 0 0 0 .43.82A3.5 3.5 0 0 1 5.5 14M17 7v1a1 1 0 0 0 1 1h2.8l-1.46-1.66A1 1 0 0 0 18.6 7zm0 10.44v.12a1.5 1.5 0 0 0 3 0v-.12a1.5 1.5 0 0 0-3 0" clip-rule="evenodd"/></svg>