<svg xmlns="http://www.w3.org/2000/svg" width="800" height="800" fill="none" viewBox="0 0 800 800"><path fill="currentColor" d="M497.43 284.2H302.57c-38.24 0-69.24 30.67-69.24 68.47V449c0 37.83 31 68.47 69.24 68.47h194.86c38.24 0 69.24-30.67 69.24-68.47v-96.33c0-37.84-31-68.47-69.24-68.47m-46.8 121.33-91.16 43a3.67 3.67 0 0 1-5.24-3.3v-88.66a3.67 3.67 0 0 1 5.34-3.24L450.7 399a3.64 3.64 0 0 1-.07 6.53"/><path fill="currentColor" d="M200 133.33A66.66 66.66 0 0 0 133.33 200v400A66.66 66.66 0 0 0 200 666.67h400A66.66 66.66 0 0 0 666.67 600V200A66.66 66.66 0 0 0 600 133.33zm0-66.66h400A133.33 133.33 0 0 1 733.33 200v400A133.33 133.33 0 0 1 600 733.33H200A133.33 133.33 0 0 1 66.67 600V200A133.33 133.33 0 0 1 200 66.67"/></svg>